{
	"asset":{
		"generator":"Khronos glTF Blender I/O v4.2.70",
		"version":"2.0"
	},
	"scene":0,
	"scenes":[
		{
			"name":"Scene",
			"nodes":[
				0
			]
		}
	],
	"nodes":[
		{
			"mesh":0,
			"name":"SM_Bld_Ruins_Column_02",
			"rotation":[
				0.7071068286895752,
				0,
				0,
				0.7071068286895752
			],
			"scale":[
				0.009999999776482582,
				0.009999999776482582,
				0.009999999776482582
			]
		}
	],
	"materials":[
		{
			"doubleSided":true,
			"name":"Nature2",
			"pbrMetallicRoughness":{
				"metallicFactor":0,
				"roughnessFactor":0.5527864098548889
			}
		}
	],
	"meshes":[
		{
			"name":"Mesh",
			"primitives":[
				{
					"attributes":{
						"POSITION":0,
						"NORMAL":1,
						"TEXCOORD_0":2
					},
					"indices":3,
					"material":0
				}
			]
		}
	],
	"accessors":[
		{
			"bufferView":0,
			"componentType":5126,
			"count":1085,
			"max":[
				79.125244140625,
				75.29248046875,
				44.91749572753906
			],
			"min":[
				-79.125244140625,
				-75.29248046875,
				-500.0050354003906
			],
			"type":"VEC3"
		},
		{
			"bufferView":1,
			"componentType":5126,
			"count":1085,
			"type":"VEC3"
		},
		{
			"bufferView":2,
			"componentType":5126,
			"count":1085,
			"type":"VEC2"
		},
		{
			"bufferView":3,
			"componentType":5123,
			"count":1452,
			"type":"SCALAR"
		}
	],
	"bufferViews":[
		{
			"buffer":0,
			"byteLength":13020,
			"byteOffset":0,
			"target":34962
		},
		{
			"buffer":0,
			"byteLength":13020,
			"byteOffset":13020,
			"target":34962
		},
		{
			"buffer":0,
			"byteLength":8680,
			"byteOffset":26040,
			"target":34962
		},
		{
			"buffer":0,
			"byteLength":2904,
			"byteOffset":34720,
			"target":34963
		}
	],
	"buffers":[
		{
			"byteLength":37624,
			"uri":"SM_Bld_Ruins_Column_02.bin"
		}
	]
}
