{
	"asset":{
		"generator":"Khronos glTF Blender I/O v4.2.70",
		"version":"2.0"
	},
	"scene":0,
	"scenes":[
		{
			"name":"Scene",
			"nodes":[
				1
			]
		}
	],
	"nodes":[
		{
			"mesh":0,
			"name":"SM_Bld_Base_Wall_Window_Half_02_Glass"
		},
		{
			"children":[
				0
			],
			"mesh":1,
			"name":"SM_Bld_Base_Wall_Window_Half_02",
			"rotation":[
				0.7071068286895752,
				0,
				0,
				0.7071068286895752
			],
			"scale":[
				0.009999999776482582,
				0.009999999776482582,
				0.009999999776482582
			]
		}
	],
	"materials":[
		{
			"doubleSided":true,
			"name":"lambert2127",
			"pbrMetallicRoughness":{
				"baseColorFactor":[
					0.5,
					0.5,
					0.5,
					1
				],
				"metallicFactor":0,
				"roughnessFactor":0.5527864098548889
			}
		},
		{
			"doubleSided":true,
			"name":"Polygon_Generic_01A3",
			"pbrMetallicRoughness":{
				"metallicFactor":0,
				"roughnessFactor":0.5527864098548889
			}
		},
		{
			"doubleSided":true,
			"name":"A_Wall1",
			"pbrMetallicRoughness":{
				"metallicFactor":0,
				"roughnessFactor":0.5527864098548889
			}
		}
	],
	"meshes":[
		{
			"name":"Mesh.001",
			"primitives":[
				{
					"attributes":{
						"POSITION":0,
						"NORMAL":1,
						"TEXCOORD_0":2
					},
					"indices":3,
					"material":0
				}
			]
		},
		{
			"name":"Mesh",
			"primitives":[
				{
					"attributes":{
						"POSITION":4,
						"NORMAL":5,
						"TEXCOORD_0":6
					},
					"indices":7,
					"material":0
				},
				{
					"attributes":{
						"POSITION":8,
						"NORMAL":9,
						"TEXCOORD_0":10
					},
					"indices":11,
					"material":1
				},
				{
					"attributes":{
						"POSITION":12,
						"NORMAL":13,
						"TEXCOORD_0":14
					},
					"indices":15,
					"material":2
				}
			]
		}
	],
	"accessors":[
		{
			"bufferView":0,
			"componentType":5126,
			"count":8,
			"max":[
				238.96923828125,
				0,
				-13.589874267578125
			],
			"min":[
				11.030029296875,
				0,
				-129.53509521484375
			],
			"type":"VEC3"
		},
		{
			"bufferView":1,
			"componentType":5126,
			"count":8,
			"type":"VEC3"
		},
		{
			"bufferView":2,
			"componentType":5126,
			"count":8,
			"type":"VEC2"
		},
		{
			"bufferView":3,
			"componentType":5123,
			"count":12,
			"type":"SCALAR"
		},
		{
			"bufferView":4,
			"componentType":5126,
			"count":72,
			"max":[
				239.84774780273438,
				12.7803955078125,
				-10.719295501708984
			],
			"min":[
				10.15228271484375,
				-12.7803955078125,
				-133.0413818359375
			],
			"type":"VEC3"
		},
		{
			"bufferView":5,
			"componentType":5126,
			"count":72,
			"type":"VEC3"
		},
		{
			"bufferView":6,
			"componentType":5126,
			"count":72,
			"type":"VEC2"
		},
		{
			"bufferView":7,
			"componentType":5123,
			"count":144,
			"type":"SCALAR"
		},
		{
			"bufferView":8,
			"componentType":5126,
			"count":24,
			"max":[
				249.99923706054688,
				0,
				0
			],
			"min":[
				0,
				-11.249908447265625,
				-150.574462890625
			],
			"type":"VEC3"
		},
		{
			"bufferView":9,
			"componentType":5126,
			"count":24,
			"type":"VEC3"
		},
		{
			"bufferView":10,
			"componentType":5126,
			"count":24,
			"type":"VEC2"
		},
		{
			"bufferView":11,
			"componentType":5123,
			"count":48,
			"type":"SCALAR"
		},
		{
			"bufferView":12,
			"componentType":5126,
			"count":24,
			"max":[
				249.99923706054688,
				11.249908447265625,
				0
			],
			"min":[
				0,
				0,
				-150.574462890625
			],
			"type":"VEC3"
		},
		{
			"bufferView":13,
			"componentType":5126,
			"count":24,
			"type":"VEC3"
		},
		{
			"bufferView":14,
			"componentType":5126,
			"count":24,
			"type":"VEC2"
		},
		{
			"bufferView":15,
			"componentType":5123,
			"count":48,
			"type":"SCALAR"
		}
	],
	"bufferViews":[
		{
			"buffer":0,
			"byteLength":96,
			"byteOffset":0,
			"target":34962
		},
		{
			"buffer":0,
			"byteLength":96,
			"byteOffset":96,
			"target":34962
		},
		{
			"buffer":0,
			"byteLength":64,
			"byteOffset":192,
			"target":34962
		},
		{
			"buffer":0,
			"byteLength":24,
			"byteOffset":256,
			"target":34963
		},
		{
			"buffer":0,
			"byteLength":864,
			"byteOffset":280,
			"target":34962
		},
		{
			"buffer":0,
			"byteLength":864,
			"byteOffset":1144,
			"target":34962
		},
		{
			"buffer":0,
			"byteLength":576,
			"byteOffset":2008,
			"target":34962
		},
		{
			"buffer":0,
			"byteLength":288,
			"byteOffset":2584,
			"target":34963
		},
		{
			"buffer":0,
			"byteLength":288,
			"byteOffset":2872,
			"target":34962
		},
		{
			"buffer":0,
			"byteLength":288,
			"byteOffset":3160,
			"target":34962
		},
		{
			"buffer":0,
			"byteLength":192,
			"byteOffset":3448,
			"target":34962
		},
		{
			"buffer":0,
			"byteLength":96,
			"byteOffset":3640,
			"target":34963
		},
		{
			"buffer":0,
			"byteLength":288,
			"byteOffset":3736,
			"target":34962
		},
		{
			"buffer":0,
			"byteLength":288,
			"byteOffset":4024,
			"target":34962
		},
		{
			"buffer":0,
			"byteLength":192,
			"byteOffset":4312,
			"target":34962
		},
		{
			"buffer":0,
			"byteLength":96,
			"byteOffset":4504,
			"target":34963
		}
	],
	"buffers":[
		{
			"byteLength":4600,
			"uri":"SM_Bld_Base_Wall_Window_Half_02.bin"
		}
	]
}
