{
	"asset":{
		"generator":"Khronos glTF Blender I/O v4.2.70",
		"version":"2.0"
	},
	"scene":0,
	"scenes":[
		{
			"name":"Scene",
			"nodes":[
				0
			]
		}
	],
	"nodes":[
		{
			"mesh":0,
			"name":"SM_Bld_Ruins_Column_03",
			"rotation":[
				0.7071068286895752,
				0,
				0,
				0.7071068286895752
			],
			"scale":[
				0.009999999776482582,
				0.009999999776482582,
				0.009999999776482582
			]
		}
	],
	"materials":[
		{
			"doubleSided":true,
			"name":"Nature3",
			"pbrMetallicRoughness":{
				"metallicFactor":0,
				"roughnessFactor":0.5527864098548889
			}
		}
	],
	"meshes":[
		{
			"name":"Mesh",
			"primitives":[
				{
					"attributes":{
						"POSITION":0,
						"NORMAL":1,
						"TEXCOORD_0":2
					},
					"indices":3,
					"material":0
				}
			]
		}
	],
	"accessors":[
		{
			"bufferView":0,
			"componentType":5126,
			"count":2430,
			"max":[
				88.293701171875,
				200.6912841796875,
				1.3469839096069336
			],
			"min":[
				-88.437255859375,
				-200.7860107421875,
				-175.8689422607422
			],
			"type":"VEC3"
		},
		{
			"bufferView":1,
			"componentType":5126,
			"count":2430,
			"type":"VEC3"
		},
		{
			"bufferView":2,
			"componentType":5126,
			"count":2430,
			"type":"VEC2"
		},
		{
			"bufferView":3,
			"componentType":5123,
			"count":2430,
			"type":"SCALAR"
		}
	],
	"bufferViews":[
		{
			"buffer":0,
			"byteLength":29160,
			"byteOffset":0,
			"target":34962
		},
		{
			"buffer":0,
			"byteLength":29160,
			"byteOffset":29160,
			"target":34962
		},
		{
			"buffer":0,
			"byteLength":19440,
			"byteOffset":58320,
			"target":34962
		},
		{
			"buffer":0,
			"byteLength":4860,
			"byteOffset":77760,
			"target":34963
		}
	],
	"buffers":[
		{
			"byteLength":82620,
			"uri":"SM_Bld_Ruins_Column_03.bin"
		}
	]
}
