{
	"asset":{
		"generator":"Khronos glTF Blender I/O v4.2.70",
		"version":"2.0"
	},
	"scene":0,
	"scenes":[
		{
			"name":"Scene",
			"nodes":[
				0
			]
		}
	],
	"nodes":[
		{
			"mesh":0,
			"name":"SM_Bld_Ruins_Archway_02",
			"rotation":[
				0.7071068286895752,
				0,
				0,
				0.7071068286895752
			],
			"scale":[
				0.009999999776482582,
				0.009999999776482582,
				0.009999999776482582
			]
		}
	],
	"materials":[
		{
			"doubleSided":true,
			"name":"Explorer_MAT",
			"pbrMetallicRoughness":{
				"baseColorTexture":{
					"index":0
				},
				"metallicFactor":0,
				"roughnessFactor":0.5527864098548889
			}
		}
	],
	"meshes":[
		{
			"name":"Mesh",
			"primitives":[
				{
					"attributes":{
						"POSITION":0,
						"NORMAL":1,
						"TEXCOORD_0":2
					},
					"indices":3,
					"material":0
				}
			]
		}
	],
	"textures":[
		{
			"sampler":0,
			"source":0
		}
	],
	"images":[
		{
			"mimeType":"image/png",
			"name":"PolygonNatureBiomes_Tropical_Texture_01",
			"uri":"PolygonNatureBiomes_Tropical_Texture_01.png"
		}
	],
	"accessors":[
		{
			"bufferView":0,
			"componentType":5126,
			"count":6191,
			"max":[
				442.7516784667969,
				148.8375244140625,
				0.028491010889410973
			],
			"min":[
				-442.62896728515625,
				-148.8421630859375,
				-923.0927734375
			],
			"type":"VEC3"
		},
		{
			"bufferView":1,
			"componentType":5126,
			"count":6191,
			"type":"VEC3"
		},
		{
			"bufferView":2,
			"componentType":5126,
			"count":6191,
			"type":"VEC2"
		},
		{
			"bufferView":3,
			"componentType":5123,
			"count":6282,
			"type":"SCALAR"
		}
	],
	"bufferViews":[
		{
			"buffer":0,
			"byteLength":74292,
			"byteOffset":0,
			"target":34962
		},
		{
			"buffer":0,
			"byteLength":74292,
			"byteOffset":74292,
			"target":34962
		},
		{
			"buffer":0,
			"byteLength":49528,
			"byteOffset":148584,
			"target":34962
		},
		{
			"buffer":0,
			"byteLength":12564,
			"byteOffset":198112,
			"target":34963
		}
	],
	"samplers":[
		{
			"magFilter":9729,
			"minFilter":9987
		}
	],
	"buffers":[
		{
			"byteLength":210676,
			"uri":"SM_Bld_Ruins_Archway_02.bin"
		}
	]
}
