{
	"asset":{
		"generator":"Khronos glTF Blender I/O v4.2.70",
		"version":"2.0"
	},
	"scene":0,
	"scenes":[
		{
			"name":"Scene",
			"nodes":[
				0
			]
		}
	],
	"nodes":[
		{
			"mesh":0,
			"name":"SM_Bld_RopeBridge_01",
			"rotation":[
				0.7071068286895752,
				0,
				0,
				0.7071068286895752
			],
			"scale":[
				0.009999999776482582,
				0.009999999776482582,
				0.009999999776482582
			]
		}
	],
	"materials":[
		{
			"doubleSided":true,
			"name":"Nature_Base_Mat",
			"pbrMetallicRoughness":{
				"baseColorTexture":{
					"index":0
				},
				"metallicFactor":0,
				"roughnessFactor":0.5527864098548889
			}
		}
	],
	"meshes":[
		{
			"name":"Mesh",
			"primitives":[
				{
					"attributes":{
						"POSITION":0,
						"NORMAL":1,
						"TEXCOORD_0":2,
						"COLOR_0":3,
						"COLOR_1":4
					},
					"indices":5,
					"material":0
				}
			]
		}
	],
	"textures":[
		{
			"sampler":0,
			"source":0
		}
	],
	"images":[
		{
			"mimeType":"image/png",
			"name":"PolygonNatureBiomes_Tropical_Texture_01",
			"uri":"PolygonNatureBiomes_Tropical_Texture_01.png"
		}
	],
	"accessors":[
		{
			"bufferView":0,
			"componentType":5126,
			"count":14274,
			"max":[
				93.02592468261719,
				773.3065795898438,
				103.54928588867188
			],
			"min":[
				-102.44425964355469,
				-782.2333984375,
				-139.60791015625
			],
			"type":"VEC3"
		},
		{
			"bufferView":1,
			"componentType":5126,
			"count":14274,
			"type":"VEC3"
		},
		{
			"bufferView":2,
			"componentType":5126,
			"count":14274,
			"type":"VEC2"
		},
		{
			"bufferView":3,
			"componentType":5121,
			"count":14274,
			"normalized":true,
			"type":"VEC4"
		},
		{
			"bufferView":4,
			"componentType":5126,
			"count":14274,
			"type":"VEC3"
		},
		{
			"bufferView":5,
			"componentType":5123,
			"count":21624,
			"type":"SCALAR"
		}
	],
	"bufferViews":[
		{
			"buffer":0,
			"byteLength":171288,
			"byteOffset":0,
			"target":34962
		},
		{
			"buffer":0,
			"byteLength":171288,
			"byteOffset":171288,
			"target":34962
		},
		{
			"buffer":0,
			"byteLength":114192,
			"byteOffset":342576,
			"target":34962
		},
		{
			"buffer":0,
			"byteLength":57096,
			"byteOffset":456768,
			"target":34962
		},
		{
			"buffer":0,
			"byteLength":171288,
			"byteOffset":513864,
			"target":34962
		},
		{
			"buffer":0,
			"byteLength":43248,
			"byteOffset":685152,
			"target":34963
		}
	],
	"samplers":[
		{
			"magFilter":9729,
			"minFilter":9987
		}
	],
	"buffers":[
		{
			"byteLength":728400,
			"uri":"SM_Bld_RopeBridge_01.bin"
		}
	]
}
