{
	"asset":{
		"generator":"Khronos glTF Blender I/O v4.2.70",
		"version":"2.0"
	},
	"scene":0,
	"scenes":[
		{
			"name":"Scene",
			"nodes":[
				0
			]
		}
	],
	"nodes":[
		{
			"mesh":0,
			"name":"SM_Bld_Base_Ceiling_45_01",
			"rotation":[
				0.7071068286895752,
				0,
				0,
				0.7071068286895752
			],
			"scale":[
				0.009999999776482582,
				0.009999999776482582,
				0.009999999776482582
			]
		}
	],
	"materials":[
		{
			"doubleSided":true,
			"name":"A_Wall42",
			"pbrMetallicRoughness":{
				"metallicFactor":0,
				"roughnessFactor":0.5527864098548889
			}
		}
	],
	"meshes":[
		{
			"name":"Mesh",
			"primitives":[
				{
					"attributes":{
						"POSITION":0,
						"NORMAL":1,
						"TEXCOORD_0":2
					},
					"indices":3,
					"material":0
				}
			]
		}
	],
	"accessors":[
		{
			"bufferView":0,
			"componentType":5126,
			"count":3,
			"max":[
				249.9991455078125,
				249.99998474121094,
				0
			],
			"min":[
				0,
				0,
				-4.671818487622659e-13
			],
			"type":"VEC3"
		},
		{
			"bufferView":1,
			"componentType":5126,
			"count":3,
			"type":"VEC3"
		},
		{
			"bufferView":2,
			"componentType":5126,
			"count":3,
			"type":"VEC2"
		},
		{
			"bufferView":3,
			"componentType":5123,
			"count":3,
			"type":"SCALAR"
		}
	],
	"bufferViews":[
		{
			"buffer":0,
			"byteLength":36,
			"byteOffset":0,
			"target":34962
		},
		{
			"buffer":0,
			"byteLength":36,
			"byteOffset":36,
			"target":34962
		},
		{
			"buffer":0,
			"byteLength":24,
			"byteOffset":72,
			"target":34962
		},
		{
			"buffer":0,
			"byteLength":6,
			"byteOffset":96,
			"target":34963
		}
	],
	"buffers":[
		{
			"byteLength":104,
			"uri":"SM_Bld_Base_Ceiling_45_01.bin"
		}
	]
}
