{
	"asset":{
		"generator":"Khronos glTF Blender I/O v4.2.70",
		"version":"2.0"
	},
	"scene":0,
	"scenes":[
		{
			"name":"Scene",
			"nodes":[
				0
			]
		}
	],
	"nodes":[
		{
			"mesh":0,
			"name":"SM_Bld_Base_Floor_Hole_01",
			"rotation":[
				0.7071068286895752,
				0,
				0,
				0.7071068286895752
			],
			"scale":[
				0.009999999776482582,
				0.009999999776482582,
				0.009999999776482582
			]
		}
	],
	"materials":[
		{
			"doubleSided":true,
			"name":"A_Wall",
			"pbrMetallicRoughness":{
				"baseColorTexture":{
					"index":0
				},
				"metallicFactor":0,
				"roughnessFactor":0.5527864098548889
			}
		},
		{
			"doubleSided":true,
			"name":"Polygon_Generic_01A",
			"pbrMetallicRoughness":{
				"baseColorTexture":{
					"index":1
				},
				"metallicFactor":0,
				"roughnessFactor":0.5527864098548889
			}
		},
		{
			"doubleSided":true,
			"name":"Egypt2",
			"pbrMetallicRoughness":{
				"baseColorTexture":{
					"index":2
				},
				"metallicFactor":0,
				"roughnessFactor":0.5527864098548889
			}
		},
		{
			"doubleSided":true,
			"name":"lambert1",
			"pbrMetallicRoughness":{
				"baseColorFactor":[
					0.5,
					0.5,
					0.5,
					1
				],
				"metallicFactor":0,
				"roughnessFactor":0.5527864098548889
			}
		}
	],
	"meshes":[
		{
			"name":"Mesh",
			"primitives":[
				{
					"attributes":{
						"POSITION":0,
						"NORMAL":1,
						"TEXCOORD_0":2
					},
					"indices":3,
					"material":0
				},
				{
					"attributes":{
						"POSITION":4,
						"NORMAL":5,
						"TEXCOORD_0":6
					},
					"indices":7,
					"material":1
				},
				{
					"attributes":{
						"POSITION":8,
						"NORMAL":9,
						"TEXCOORD_0":10
					},
					"indices":11,
					"material":2
				},
				{
					"attributes":{
						"POSITION":12,
						"NORMAL":13,
						"TEXCOORD_0":14
					},
					"indices":15,
					"material":3
				}
			]
		}
	],
	"textures":[
		{
			"sampler":0,
			"source":0
		},
		{
			"sampler":0,
			"source":1
		},
		{
			"sampler":0,
			"source":2
		}
	],
	"images":[
		{
			"mimeType":"image/png",
			"name":"Generic_Wood",
			"uri":"Generic_Wood.png"
		},
		{
			"mimeType":"image/png",
			"name":"Generic_01_A",
			"uri":"Generic_01_A.png"
		},
		{
			"mimeType":"image/png",
			"name":"Generic_Concrete",
			"uri":"Generic_Concrete.png"
		}
	],
	"accessors":[
		{
			"bufferView":0,
			"componentType":5126,
			"count":347,
			"max":[
				249.9991455078125,
				249.99998474121094,
				9.251659393310547
			],
			"min":[
				0,
				-2.7939677238464355e-09,
				-0.80908203125
			],
			"type":"VEC3"
		},
		{
			"bufferView":1,
			"componentType":5126,
			"count":347,
			"type":"VEC3"
		},
		{
			"bufferView":2,
			"componentType":5126,
			"count":347,
			"type":"VEC2"
		},
		{
			"bufferView":3,
			"componentType":5123,
			"count":399,
			"type":"SCALAR"
		},
		{
			"bufferView":4,
			"componentType":5126,
			"count":441,
			"max":[
				222.65042114257812,
				233.61109924316406,
				8.5737943649292
			],
			"min":[
				93.0448989868164,
				109.58987426757812,
				0.4067692756652832
			],
			"type":"VEC3"
		},
		{
			"bufferView":5,
			"componentType":5126,
			"count":441,
			"type":"VEC3"
		},
		{
			"bufferView":6,
			"componentType":5126,
			"count":441,
			"type":"VEC2"
		},
		{
			"bufferView":7,
			"componentType":5123,
			"count":606,
			"type":"SCALAR"
		},
		{
			"bufferView":8,
			"componentType":5126,
			"count":18,
			"max":[
				213.28573608398438,
				229.034423828125,
				8.283045768737793
			],
			"min":[
				130.4576416015625,
				118.21249389648438,
				6.064235687255859
			],
			"type":"VEC3"
		},
		{
			"bufferView":9,
			"componentType":5126,
			"count":18,
			"type":"VEC3"
		},
		{
			"bufferView":10,
			"componentType":5126,
			"count":18,
			"type":"VEC2"
		},
		{
			"bufferView":11,
			"componentType":5123,
			"count":18,
			"type":"SCALAR"
		},
		{
			"bufferView":12,
			"componentType":5126,
			"count":39,
			"max":[
				249.9991455078125,
				249.99998474121094,
				9.251659393310547
			],
			"min":[
				0,
				-2.7939677238464355e-09,
				4.625823974609375
			],
			"type":"VEC3"
		},
		{
			"bufferView":13,
			"componentType":5126,
			"count":39,
			"type":"VEC3"
		},
		{
			"bufferView":14,
			"componentType":5126,
			"count":39,
			"type":"VEC2"
		},
		{
			"bufferView":15,
			"componentType":5123,
			"count":93,
			"type":"SCALAR"
		}
	],
	"bufferViews":[
		{
			"buffer":0,
			"byteLength":4164,
			"byteOffset":0,
			"target":34962
		},
		{
			"buffer":0,
			"byteLength":4164,
			"byteOffset":4164,
			"target":34962
		},
		{
			"buffer":0,
			"byteLength":2776,
			"byteOffset":8328,
			"target":34962
		},
		{
			"buffer":0,
			"byteLength":798,
			"byteOffset":11104,
			"target":34963
		},
		{
			"buffer":0,
			"byteLength":5292,
			"byteOffset":11904,
			"target":34962
		},
		{
			"buffer":0,
			"byteLength":5292,
			"byteOffset":17196,
			"target":34962
		},
		{
			"buffer":0,
			"byteLength":3528,
			"byteOffset":22488,
			"target":34962
		},
		{
			"buffer":0,
			"byteLength":1212,
			"byteOffset":26016,
			"target":34963
		},
		{
			"buffer":0,
			"byteLength":216,
			"byteOffset":27228,
			"target":34962
		},
		{
			"buffer":0,
			"byteLength":216,
			"byteOffset":27444,
			"target":34962
		},
		{
			"buffer":0,
			"byteLength":144,
			"byteOffset":27660,
			"target":34962
		},
		{
			"buffer":0,
			"byteLength":36,
			"byteOffset":27804,
			"target":34963
		},
		{
			"buffer":0,
			"byteLength":468,
			"byteOffset":27840,
			"target":34962
		},
		{
			"buffer":0,
			"byteLength":468,
			"byteOffset":28308,
			"target":34962
		},
		{
			"buffer":0,
			"byteLength":312,
			"byteOffset":28776,
			"target":34962
		},
		{
			"buffer":0,
			"byteLength":186,
			"byteOffset":29088,
			"target":34963
		}
	],
	"samplers":[
		{
			"magFilter":9729,
			"minFilter":9987
		}
	],
	"buffers":[
		{
			"byteLength":29276,
			"uri":"SM_Bld_Base_Floor_Hole_01.bin"
		}
	]
}
