{
	"asset":{
		"generator":"Khronos glTF Blender I/O v4.2.70",
		"version":"2.0"
	},
	"scene":0,
	"scenes":[
		{
			"name":"Scene",
			"nodes":[
				0
			]
		}
	],
	"nodes":[
		{
			"mesh":0,
			"name":"SM_Bld_Giant_Column_01",
			"rotation":[
				0.7071068286895752,
				0,
				0,
				0.7071068286895752
			],
			"scale":[
				0.009999999776482582,
				0.009999999776482582,
				0.009999999776482582
			]
		}
	],
	"materials":[
		{
			"alphaMode":"BLEND",
			"doubleSided":true,
			"name":"Explorer_MAT9",
			"pbrMetallicRoughness":{
				"baseColorTexture":{
					"index":0
				},
				"metallicFactor":0,
				"roughnessFactor":0.5527864098548889
			}
		}
	],
	"meshes":[
		{
			"name":"Mesh",
			"primitives":[
				{
					"attributes":{
						"POSITION":0,
						"NORMAL":1,
						"TEXCOORD_0":2
					},
					"indices":3,
					"material":0
				}
			]
		}
	],
	"textures":[
		{
			"sampler":0,
			"source":0
		}
	],
	"images":[
		{
			"mimeType":"image/png",
			"name":"PolygonNatureBiomes_Tropical_Texture_01",
			"uri":"PolygonNatureBiomes_Tropical_Texture_01.png"
		}
	],
	"accessors":[
		{
			"bufferView":0,
			"componentType":5126,
			"count":11154,
			"max":[
				407.834716796875,
				271.7266845703125,
				5.390345573425293
			],
			"min":[
				-425.5760498046875,
				-249.030029296875,
				-1156.35205078125
			],
			"type":"VEC3"
		},
		{
			"bufferView":1,
			"componentType":5126,
			"count":11154,
			"type":"VEC3"
		},
		{
			"bufferView":2,
			"componentType":5126,
			"count":11154,
			"type":"VEC2"
		},
		{
			"bufferView":3,
			"componentType":5123,
			"count":11205,
			"type":"SCALAR"
		}
	],
	"bufferViews":[
		{
			"buffer":0,
			"byteLength":133848,
			"byteOffset":0,
			"target":34962
		},
		{
			"buffer":0,
			"byteLength":133848,
			"byteOffset":133848,
			"target":34962
		},
		{
			"buffer":0,
			"byteLength":89232,
			"byteOffset":267696,
			"target":34962
		},
		{
			"buffer":0,
			"byteLength":22410,
			"byteOffset":356928,
			"target":34963
		}
	],
	"samplers":[
		{
			"magFilter":9729,
			"minFilter":9987
		}
	],
	"buffers":[
		{
			"byteLength":379340,
			"uri":"SM_Bld_Giant_Column_01.bin"
		}
	]
}
