{
	"asset":{
		"generator":"Khronos glTF Blender I/O v4.2.70",
		"version":"2.0"
	},
	"scene":0,
	"scenes":[
		{
			"name":"Scene",
			"nodes":[
				0
			]
		}
	],
	"nodes":[
		{
			"mesh":0,
			"name":"SM_Bld_Ruins_Archway_01",
			"rotation":[
				0.7071068286895752,
				0,
				0,
				0.7071068286895752
			],
			"scale":[
				0.009999999776482582,
				0.009999999776482582,
				0.009999999776482582
			]
		}
	],
	"materials":[
		{
			"doubleSided":true,
			"name":"Nature",
			"pbrMetallicRoughness":{
				"metallicFactor":0,
				"roughnessFactor":0.5527864098548889
			}
		}
	],
	"meshes":[
		{
			"name":"Mesh",
			"primitives":[
				{
					"attributes":{
						"POSITION":0,
						"NORMAL":1,
						"TEXCOORD_0":2
					},
					"indices":3,
					"material":0
				}
			]
		}
	],
	"accessors":[
		{
			"bufferView":0,
			"componentType":5126,
			"count":7660,
			"max":[
				326.2308349609375,
				97.1409912109375,
				0
			],
			"min":[
				-326.696044921875,
				-97.1409912109375,
				-885.5916748046875
			],
			"type":"VEC3"
		},
		{
			"bufferView":1,
			"componentType":5126,
			"count":7660,
			"type":"VEC3"
		},
		{
			"bufferView":2,
			"componentType":5126,
			"count":7660,
			"type":"VEC2"
		},
		{
			"bufferView":3,
			"componentType":5123,
			"count":7680,
			"type":"SCALAR"
		}
	],
	"bufferViews":[
		{
			"buffer":0,
			"byteLength":91920,
			"byteOffset":0,
			"target":34962
		},
		{
			"buffer":0,
			"byteLength":91920,
			"byteOffset":91920,
			"target":34962
		},
		{
			"buffer":0,
			"byteLength":61280,
			"byteOffset":183840,
			"target":34962
		},
		{
			"buffer":0,
			"byteLength":15360,
			"byteOffset":245120,
			"target":34963
		}
	],
	"buffers":[
		{
			"byteLength":260480,
			"uri":"SM_Bld_Ruins_Archway_01.bin"
		}
	]
}
