{
	"asset":{
		"generator":"Khronos glTF Blender I/O v4.2.70",
		"version":"2.0"
	},
	"extensionsUsed":[
		"KHR_materials_specular"
	],
	"scene":0,
	"scenes":[
		{
			"name":"Scene",
			"nodes":[
				0
			]
		}
	],
	"nodes":[
		{
			"mesh":0,
			"name":"SM_Bld_Shack_Pirate_01_Collision",
			"rotation":[
				0.7071068286895752,
				0,
				0,
				0.7071068286895752
			],
			"scale":[
				0.009999999776482582,
				0.009999999776482582,
				0.009999999776482582
			]
		}
	],
	"materials":[
		{
			"alphaMode":"BLEND",
			"doubleSided":true,
			"extensions":{
				"KHR_materials_specular":{
					"specularColorFactor":[
						2.0,
						2.0,
						2.0
					]
				}
			},
			"name":"Collision",
			"pbrMetallicRoughness":{
				"baseColorFactor":[
					0.5,
					0,
					0,
					0.5909091234207153
				],
				"metallicFactor":0.5,
				"roughnessFactor":0.7487671971321106
			}
		}
	],
	"meshes":[
		{
			"name":"Mesh",
			"primitives":[
				{
					"attributes":{
						"POSITION":0,
						"NORMAL":1,
						"TEXCOORD_0":2
					},
					"indices":3,
					"material":0
				}
			]
		}
	],
	"accessors":[
		{
			"bufferView":0,
			"componentType":5126,
			"count":632,
			"max":[
				451.1283874511719,
				518.4119262695312,
				46.3106689453125
			],
			"min":[
				-470.1204833984375,
				-495.224365234375,
				-472.45697021484375
			],
			"type":"VEC3"
		},
		{
			"bufferView":1,
			"componentType":5126,
			"count":632,
			"type":"VEC3"
		},
		{
			"bufferView":2,
			"componentType":5126,
			"count":632,
			"type":"VEC2"
		},
		{
			"bufferView":3,
			"componentType":5123,
			"count":960,
			"type":"SCALAR"
		}
	],
	"bufferViews":[
		{
			"buffer":0,
			"byteLength":7584,
			"byteOffset":0,
			"target":34962
		},
		{
			"buffer":0,
			"byteLength":7584,
			"byteOffset":7584,
			"target":34962
		},
		{
			"buffer":0,
			"byteLength":5056,
			"byteOffset":15168,
			"target":34962
		},
		{
			"buffer":0,
			"byteLength":1920,
			"byteOffset":20224,
			"target":34963
		}
	],
	"buffers":[
		{
			"byteLength":22144,
			"uri":"SM_Bld_Shack_Pirate_01_Collision.bin"
		}
	]
}
