{
	"asset":{
		"generator":"Khronos glTF Blender I/O v4.2.70",
		"version":"2.0"
	},
	"scene":0,
	"scenes":[
		{
			"name":"Scene",
			"nodes":[
				0
			]
		}
	],
	"nodes":[
		{
			"mesh":0,
			"name":"SM_Bld_Base_Roof_Corner_Out_01",
			"rotation":[
				0.7071068286895752,
				0,
				0,
				0.7071068286895752
			],
			"scale":[
				0.009999999776482582,
				0.009999999776482582,
				0.009999999776482582
			]
		}
	],
	"materials":[
		{
			"doubleSided":true,
			"name":"HorrorSHD47",
			"pbrMetallicRoughness":{
				"baseColorTexture":{
					"index":0
				},
				"metallicFactor":0,
				"roughnessFactor":0.5527864098548889
			}
		},
		{
			"doubleSided":true,
			"name":"lambert1700",
			"pbrMetallicRoughness":{
				"baseColorTexture":{
					"index":1
				},
				"metallicFactor":0,
				"roughnessFactor":0.5527864098548889
			}
		},
		{
			"doubleSided":true,
			"name":"lambert1701",
			"pbrMetallicRoughness":{
				"baseColorTexture":{
					"index":2
				},
				"metallicFactor":0,
				"roughnessFactor":0.5527864098548889
			}
		}
	],
	"meshes":[
		{
			"name":"Mesh",
			"primitives":[
				{
					"attributes":{
						"POSITION":0,
						"NORMAL":1,
						"TEXCOORD_0":2
					},
					"indices":3,
					"material":0
				},
				{
					"attributes":{
						"POSITION":4,
						"NORMAL":5,
						"TEXCOORD_0":6
					},
					"indices":7,
					"material":1
				},
				{
					"attributes":{
						"POSITION":8,
						"NORMAL":9,
						"TEXCOORD_0":10
					},
					"indices":11,
					"material":2
				}
			]
		}
	],
	"textures":[
		{
			"sampler":0,
			"source":0
		},
		{
			"sampler":0,
			"source":1
		},
		{
			"sampler":0,
			"source":2
		}
	],
	"images":[
		{
			"mimeType":"image/png",
			"name":"Generic_01_A",
			"uri":"Generic_01_A.png"
		},
		{
			"mimeType":"image/png",
			"name":"Generic_Brick",
			"uri":"Generic_Brick.png"
		},
		{
			"mimeType":"image/png",
			"name":"Generic_Plaster",
			"uri":"Generic_Plaster.png"
		}
	],
	"accessors":[
		{
			"bufferView":0,
			"componentType":5126,
			"count":117,
			"max":[
				250.0000457763672,
				250,
				314.25701904296875
			],
			"min":[
				0,
				-0.00013428754755295813,
				-1.18206787109375
			],
			"type":"VEC3"
		},
		{
			"bufferView":1,
			"componentType":5126,
			"count":117,
			"type":"VEC3"
		},
		{
			"bufferView":2,
			"componentType":5126,
			"count":117,
			"type":"VEC2"
		},
		{
			"bufferView":3,
			"componentType":5123,
			"count":198,
			"type":"SCALAR"
		},
		{
			"bufferView":4,
			"componentType":5126,
			"count":22,
			"max":[
				250.0000457763672,
				250,
				299.99981689453125
			],
			"min":[
				0,
				-1.5526078641414642e-05,
				-10.5557861328125
			],
			"type":"VEC3"
		},
		{
			"bufferView":5,
			"componentType":5126,
			"count":22,
			"type":"VEC3"
		},
		{
			"bufferView":6,
			"componentType":5126,
			"count":22,
			"type":"VEC2"
		},
		{
			"bufferView":7,
			"componentType":5123,
			"count":30,
			"type":"SCALAR"
		},
		{
			"bufferView":8,
			"componentType":5126,
			"count":6,
			"max":[
				238.14401245117188,
				238.15631103515625,
				293.979248046875
			],
			"min":[
				6.021925926208496,
				5.470681667327881,
				28.421199798583984
			],
			"type":"VEC3"
		},
		{
			"bufferView":9,
			"componentType":5126,
			"count":6,
			"type":"VEC3"
		},
		{
			"bufferView":10,
			"componentType":5126,
			"count":6,
			"type":"VEC2"
		},
		{
			"bufferView":11,
			"componentType":5123,
			"count":6,
			"type":"SCALAR"
		}
	],
	"bufferViews":[
		{
			"buffer":0,
			"byteLength":1404,
			"byteOffset":0,
			"target":34962
		},
		{
			"buffer":0,
			"byteLength":1404,
			"byteOffset":1404,
			"target":34962
		},
		{
			"buffer":0,
			"byteLength":936,
			"byteOffset":2808,
			"target":34962
		},
		{
			"buffer":0,
			"byteLength":396,
			"byteOffset":3744,
			"target":34963
		},
		{
			"buffer":0,
			"byteLength":264,
			"byteOffset":4140,
			"target":34962
		},
		{
			"buffer":0,
			"byteLength":264,
			"byteOffset":4404,
			"target":34962
		},
		{
			"buffer":0,
			"byteLength":176,
			"byteOffset":4668,
			"target":34962
		},
		{
			"buffer":0,
			"byteLength":60,
			"byteOffset":4844,
			"target":34963
		},
		{
			"buffer":0,
			"byteLength":72,
			"byteOffset":4904,
			"target":34962
		},
		{
			"buffer":0,
			"byteLength":72,
			"byteOffset":4976,
			"target":34962
		},
		{
			"buffer":0,
			"byteLength":48,
			"byteOffset":5048,
			"target":34962
		},
		{
			"buffer":0,
			"byteLength":12,
			"byteOffset":5096,
			"target":34963
		}
	],
	"samplers":[
		{
			"magFilter":9729,
			"minFilter":9987
		}
	],
	"buffers":[
		{
			"byteLength":5108,
			"uri":"SM_Bld_Base_Roof_Corner_Out_01.bin"
		}
	]
}
