{
	"asset":{
		"generator":"Khronos glTF Blender I/O v4.2.70",
		"version":"2.0"
	},
	"scene":0,
	"scenes":[
		{
			"name":"Scene",
			"nodes":[
				4
			]
		}
	],
	"nodes":[
		{
			"mesh":0,
			"name":"SM_Env_Bush_Palm_01_LOD0"
		},
		{
			"mesh":1,
			"name":"SM_Env_Bush_Palm_01_LOD1"
		},
		{
			"mesh":2,
			"name":"SM_Env_Bush_Palm_01_LOD2"
		},
		{
			"mesh":3,
			"name":"SM_Env_Bush_Palm_01_LOD3"
		},
		{
			"children":[
				0,
				1,
				2,
				3
			],
			"name":"SM_Env_Bush_Palm_01",
			"rotation":[
				0.7071068286895752,
				0,
				0,
				0.7071068286895752
			],
			"scale":[
				0.009999999776482582,
				0.009999999776482582,
				0.009999999776482582
			]
		}
	],
	"materials":[
		{
			"doubleSided":true,
			"name":"lambert6",
			"pbrMetallicRoughness":{
				"baseColorTexture":{
					"index":0
				},
				"metallicFactor":0,
				"roughnessFactor":0.5527864098548889
			}
		}
	],
	"meshes":[
		{
			"name":"Mesh",
			"primitives":[
				{
					"attributes":{
						"POSITION":0,
						"NORMAL":1,
						"TEXCOORD_0":2,
						"COLOR_0":3,
						"COLOR_1":4
					},
					"indices":5,
					"material":0
				}
			]
		},
		{
			"name":"Mesh.001",
			"primitives":[
				{
					"attributes":{
						"POSITION":6,
						"NORMAL":7,
						"TEXCOORD_0":8,
						"COLOR_0":9,
						"COLOR_1":10
					},
					"indices":11,
					"material":0
				}
			]
		},
		{
			"name":"Mesh.002",
			"primitives":[
				{
					"attributes":{
						"POSITION":12,
						"NORMAL":13,
						"TEXCOORD_0":14,
						"COLOR_0":15,
						"COLOR_1":16
					},
					"indices":17,
					"material":0
				}
			]
		},
		{
			"name":"Mesh.003",
			"primitives":[
				{
					"attributes":{
						"POSITION":18,
						"NORMAL":19,
						"TEXCOORD_0":20,
						"COLOR_0":21,
						"COLOR_1":22
					},
					"indices":23,
					"material":0
				}
			]
		}
	],
	"textures":[
		{
			"sampler":0,
			"source":0
		}
	],
	"images":[
		{
			"mimeType":"image/png",
			"name":"Gradient 4",
			"uri":"Gradient%204.png"
		}
	],
	"accessors":[
		{
			"bufferView":0,
			"componentType":5126,
			"count":1284,
			"max":[
				132.79168701171875,
				134.13845825195312,
				15.03165054321289
			],
			"min":[
				-108.61822509765625,
				-112.48097229003906,
				-383.2408447265625
			],
			"type":"VEC3"
		},
		{
			"bufferView":1,
			"componentType":5126,
			"count":1284,
			"type":"VEC3"
		},
		{
			"bufferView":2,
			"componentType":5126,
			"count":1284,
			"type":"VEC2"
		},
		{
			"bufferView":3,
			"componentType":5121,
			"count":1284,
			"normalized":true,
			"type":"VEC4"
		},
		{
			"bufferView":4,
			"componentType":5126,
			"count":1284,
			"type":"VEC3"
		},
		{
			"bufferView":5,
			"componentType":5123,
			"count":1878,
			"type":"SCALAR"
		},
		{
			"bufferView":6,
			"componentType":5126,
			"count":843,
			"max":[
				132.79168701171875,
				134.13845825195312,
				15.03165054321289
			],
			"min":[
				-108.61822509765625,
				-112.48097229003906,
				-383.2408447265625
			],
			"type":"VEC3"
		},
		{
			"bufferView":7,
			"componentType":5126,
			"count":843,
			"type":"VEC3"
		},
		{
			"bufferView":8,
			"componentType":5126,
			"count":843,
			"type":"VEC2"
		},
		{
			"bufferView":9,
			"componentType":5121,
			"count":843,
			"normalized":true,
			"type":"VEC4"
		},
		{
			"bufferView":10,
			"componentType":5126,
			"count":843,
			"type":"VEC3"
		},
		{
			"bufferView":11,
			"componentType":5123,
			"count":1098,
			"type":"SCALAR"
		},
		{
			"bufferView":12,
			"componentType":5126,
			"count":497,
			"max":[
				132.79168701171875,
				134.13845825195312,
				15.03165054321289
			],
			"min":[
				-108.61822509765625,
				-112.48097229003906,
				-383.2408447265625
			],
			"type":"VEC3"
		},
		{
			"bufferView":13,
			"componentType":5126,
			"count":497,
			"type":"VEC3"
		},
		{
			"bufferView":14,
			"componentType":5126,
			"count":497,
			"type":"VEC2"
		},
		{
			"bufferView":15,
			"componentType":5121,
			"count":497,
			"normalized":true,
			"type":"VEC4"
		},
		{
			"bufferView":16,
			"componentType":5126,
			"count":497,
			"type":"VEC3"
		},
		{
			"bufferView":17,
			"componentType":5123,
			"count":666,
			"type":"SCALAR"
		},
		{
			"bufferView":18,
			"componentType":5126,
			"count":16,
			"max":[
				131.3525390625,
				143.07923889160156,
				16.914875030517578
			],
			"min":[
				-120.21979522705078,
				-121.98686218261719,
				-393.0765686035156
			],
			"type":"VEC3"
		},
		{
			"bufferView":19,
			"componentType":5126,
			"count":16,
			"type":"VEC3"
		},
		{
			"bufferView":20,
			"componentType":5126,
			"count":16,
			"type":"VEC2"
		},
		{
			"bufferView":21,
			"componentType":5121,
			"count":16,
			"normalized":true,
			"type":"VEC4"
		},
		{
			"bufferView":22,
			"componentType":5126,
			"count":16,
			"type":"VEC3"
		},
		{
			"bufferView":23,
			"componentType":5123,
			"count":24,
			"type":"SCALAR"
		}
	],
	"bufferViews":[
		{
			"buffer":0,
			"byteLength":15408,
			"byteOffset":0,
			"target":34962
		},
		{
			"buffer":0,
			"byteLength":15408,
			"byteOffset":15408,
			"target":34962
		},
		{
			"buffer":0,
			"byteLength":10272,
			"byteOffset":30816,
			"target":34962
		},
		{
			"buffer":0,
			"byteLength":5136,
			"byteOffset":41088,
			"target":34962
		},
		{
			"buffer":0,
			"byteLength":15408,
			"byteOffset":46224,
			"target":34962
		},
		{
			"buffer":0,
			"byteLength":3756,
			"byteOffset":61632,
			"target":34963
		},
		{
			"buffer":0,
			"byteLength":10116,
			"byteOffset":65388,
			"target":34962
		},
		{
			"buffer":0,
			"byteLength":10116,
			"byteOffset":75504,
			"target":34962
		},
		{
			"buffer":0,
			"byteLength":6744,
			"byteOffset":85620,
			"target":34962
		},
		{
			"buffer":0,
			"byteLength":3372,
			"byteOffset":92364,
			"target":34962
		},
		{
			"buffer":0,
			"byteLength":10116,
			"byteOffset":95736,
			"target":34962
		},
		{
			"buffer":0,
			"byteLength":2196,
			"byteOffset":105852,
			"target":34963
		},
		{
			"buffer":0,
			"byteLength":5964,
			"byteOffset":108048,
			"target":34962
		},
		{
			"buffer":0,
			"byteLength":5964,
			"byteOffset":114012,
			"target":34962
		},
		{
			"buffer":0,
			"byteLength":3976,
			"byteOffset":119976,
			"target":34962
		},
		{
			"buffer":0,
			"byteLength":1988,
			"byteOffset":123952,
			"target":34962
		},
		{
			"buffer":0,
			"byteLength":5964,
			"byteOffset":125940,
			"target":34962
		},
		{
			"buffer":0,
			"byteLength":1332,
			"byteOffset":131904,
			"target":34963
		},
		{
			"buffer":0,
			"byteLength":192,
			"byteOffset":133236,
			"target":34962
		},
		{
			"buffer":0,
			"byteLength":192,
			"byteOffset":133428,
			"target":34962
		},
		{
			"buffer":0,
			"byteLength":128,
			"byteOffset":133620,
			"target":34962
		},
		{
			"buffer":0,
			"byteLength":64,
			"byteOffset":133748,
			"target":34962
		},
		{
			"buffer":0,
			"byteLength":192,
			"byteOffset":133812,
			"target":34962
		},
		{
			"buffer":0,
			"byteLength":48,
			"byteOffset":134004,
			"target":34963
		}
	],
	"samplers":[
		{
			"magFilter":9729,
			"minFilter":9987
		}
	],
	"buffers":[
		{
			"byteLength":134052,
			"uri":"SM_Env_Bush_Palm_01.bin"
		}
	]
}
