{
	"asset":{
		"generator":"Khronos glTF Blender I/O v4.2.70",
		"version":"2.0"
	},
	"scene":0,
	"scenes":[
		{
			"name":"Scene",
			"nodes":[
				0
			]
		}
	],
	"nodes":[
		{
			"mesh":0,
			"name":"SM_Env_Rock_04",
			"rotation":[
				0.7071068286895752,
				0,
				0,
				0.7071068286895752
			],
			"scale":[
				0.009999999776482582,
				0.009999999776482582,
				0.009999999776482582
			]
		}
	],
	"materials":[
		{
			"doubleSided":true,
			"name":"Nature16",
			"pbrMetallicRoughness":{
				"metallicFactor":0,
				"roughnessFactor":0.5527864098548889
			}
		}
	],
	"meshes":[
		{
			"name":"Mesh",
			"primitives":[
				{
					"attributes":{
						"POSITION":0,
						"NORMAL":1,
						"TEXCOORD_0":2
					},
					"indices":3,
					"material":0
				}
			]
		}
	],
	"accessors":[
		{
			"bufferView":0,
			"componentType":5126,
			"count":1241,
			"max":[
				180.5732421875,
				207.5830078125,
				69.24465942382812
			],
			"min":[
				-148.083984375,
				-140.64501953125,
				-257.4356384277344
			],
			"type":"VEC3"
		},
		{
			"bufferView":1,
			"componentType":5126,
			"count":1241,
			"type":"VEC3"
		},
		{
			"bufferView":2,
			"componentType":5126,
			"count":1241,
			"type":"VEC2"
		},
		{
			"bufferView":3,
			"componentType":5123,
			"count":1614,
			"type":"SCALAR"
		}
	],
	"bufferViews":[
		{
			"buffer":0,
			"byteLength":14892,
			"byteOffset":0,
			"target":34962
		},
		{
			"buffer":0,
			"byteLength":14892,
			"byteOffset":14892,
			"target":34962
		},
		{
			"buffer":0,
			"byteLength":9928,
			"byteOffset":29784,
			"target":34962
		},
		{
			"buffer":0,
			"byteLength":3228,
			"byteOffset":39712,
			"target":34963
		}
	],
	"buffers":[
		{
			"byteLength":42940,
			"uri":"SM_Env_Rock_04.bin"
		}
	]
}
