{
	"asset":{
		"generator":"Khronos glTF Blender I/O v4.2.70",
		"version":"2.0"
	},
	"scene":0,
	"scenes":[
		{
			"name":"Scene",
			"nodes":[
				0
			]
		}
	],
	"nodes":[
		{
			"mesh":0,
			"name":"SM_Env_Flowers_Flat_03",
			"rotation":[
				0.7071068286895752,
				0,
				0,
				0.7071068286895752
			],
			"scale":[
				0.009999999776482582,
				0.009999999776482582,
				0.009999999776482582
			]
		}
	],
	"materials":[
		{
			"alphaMode":"BLEND",
			"doubleSided":true,
			"name":"flowerSHD2",
			"pbrMetallicRoughness":{
				"metallicFactor":0,
				"roughnessFactor":0.5527864098548889
			}
		}
	],
	"meshes":[
		{
			"name":"Mesh",
			"primitives":[
				{
					"attributes":{
						"POSITION":0,
						"NORMAL":1,
						"TEXCOORD_0":2
					},
					"indices":3,
					"material":0
				}
			]
		}
	],
	"accessors":[
		{
			"bufferView":0,
			"componentType":5126,
			"count":9,
			"max":[
				102.78157043457031,
				100.86444091796875,
				0
			],
			"min":[
				-102.65037536621094,
				-100,
				-17.886777877807617
			],
			"type":"VEC3"
		},
		{
			"bufferView":1,
			"componentType":5126,
			"count":9,
			"type":"VEC3"
		},
		{
			"bufferView":2,
			"componentType":5126,
			"count":9,
			"type":"VEC2"
		},
		{
			"bufferView":3,
			"componentType":5123,
			"count":24,
			"type":"SCALAR"
		}
	],
	"bufferViews":[
		{
			"buffer":0,
			"byteLength":108,
			"byteOffset":0,
			"target":34962
		},
		{
			"buffer":0,
			"byteLength":108,
			"byteOffset":108,
			"target":34962
		},
		{
			"buffer":0,
			"byteLength":72,
			"byteOffset":216,
			"target":34962
		},
		{
			"buffer":0,
			"byteLength":48,
			"byteOffset":288,
			"target":34963
		}
	],
	"buffers":[
		{
			"byteLength":336,
			"uri":"SM_Env_Flowers_Flat_03.bin"
		}
	]
}
