{
	"asset":{
		"generator":"Khronos glTF Blender I/O v4.2.70",
		"version":"2.0"
	},
	"scene":0,
	"scenes":[
		{
			"name":"Scene",
			"nodes":[
				0
			]
		}
	],
	"nodes":[
		{
			"mesh":0,
			"name":"SM_Env_Dock_01",
			"rotation":[
				0.7071068286895752,
				0,
				0,
				0.7071068286895752
			],
			"scale":[
				0.009999999776482582,
				0.009999999776482582,
				0.009999999776482582
			]
		}
	],
	"materials":[
		{
			"doubleSided":true,
			"name":"Nature_Base_Mat1",
			"pbrMetallicRoughness":{
				"baseColorTexture":{
					"index":0
				},
				"metallicFactor":0,
				"roughnessFactor":0.5527864098548889
			}
		}
	],
	"meshes":[
		{
			"name":"Mesh",
			"primitives":[
				{
					"attributes":{
						"POSITION":0,
						"NORMAL":1,
						"TEXCOORD_0":2,
						"TEXCOORD_1":3
					},
					"indices":4,
					"material":0
				}
			]
		}
	],
	"textures":[
		{
			"sampler":0,
			"source":0
		}
	],
	"images":[
		{
			"mimeType":"image/png",
			"name":"PolygonNatureBiomes_Tropical_Texture_01",
			"uri":"PolygonNatureBiomes_Tropical_Texture_01.png"
		}
	],
	"accessors":[
		{
			"bufferView":0,
			"componentType":5126,
			"count":915,
			"max":[
				186.261474609375,
				173.5419921875,
				384.463623046875
			],
			"min":[
				-195.6798095703125,
				-182.46875,
				-382.8977966308594
			],
			"type":"VEC3"
		},
		{
			"bufferView":1,
			"componentType":5126,
			"count":915,
			"type":"VEC3"
		},
		{
			"bufferView":2,
			"componentType":5126,
			"count":915,
			"type":"VEC2"
		},
		{
			"bufferView":3,
			"componentType":5126,
			"count":915,
			"type":"VEC2"
		},
		{
			"bufferView":4,
			"componentType":5123,
			"count":1536,
			"type":"SCALAR"
		}
	],
	"bufferViews":[
		{
			"buffer":0,
			"byteLength":10980,
			"byteOffset":0,
			"target":34962
		},
		{
			"buffer":0,
			"byteLength":10980,
			"byteOffset":10980,
			"target":34962
		},
		{
			"buffer":0,
			"byteLength":7320,
			"byteOffset":21960,
			"target":34962
		},
		{
			"buffer":0,
			"byteLength":7320,
			"byteOffset":29280,
			"target":34962
		},
		{
			"buffer":0,
			"byteLength":3072,
			"byteOffset":36600,
			"target":34963
		}
	],
	"samplers":[
		{
			"magFilter":9729,
			"minFilter":9987
		}
	],
	"buffers":[
		{
			"byteLength":39672,
			"uri":"SM_Env_Dock_01.bin"
		}
	]
}
