{
	"asset":{
		"generator":"Khronos glTF Blender I/O v4.2.70",
		"version":"2.0"
	},
	"scene":0,
	"scenes":[
		{
			"name":"Scene",
			"nodes":[
				0
			]
		}
	],
	"nodes":[
		{
			"mesh":0,
			"name":"SM_Env_DriftWood_05",
			"rotation":[
				0.7071068286895752,
				0,
				0,
				0.7071068286895752
			],
			"scale":[
				0.009999999776482582,
				0.009999999776482582,
				0.009999999776482582
			]
		}
	],
	"materials":[
		{
			"doubleSided":true,
			"name":"pasted__HorrorSHD8",
			"pbrMetallicRoughness":{
				"baseColorTexture":{
					"index":0
				},
				"metallicFactor":0,
				"roughnessFactor":0.5527864098548889
			}
		}
	],
	"meshes":[
		{
			"name":"Mesh",
			"primitives":[
				{
					"attributes":{
						"POSITION":0,
						"NORMAL":1,
						"TEXCOORD_0":2,
						"COLOR_0":3,
						"COLOR_1":4
					},
					"indices":5,
					"material":0
				}
			]
		}
	],
	"textures":[
		{
			"sampler":0,
			"source":0
		}
	],
	"images":[
		{
			"mimeType":"image/png",
			"name":"PolygonNatureBiomes_Tropical_Texture_01",
			"uri":"PolygonNatureBiomes_Tropical_Texture_01.png"
		}
	],
	"accessors":[
		{
			"bufferView":0,
			"componentType":5126,
			"count":742,
			"max":[
				189.78021240234375,
				99.2451171875,
				89.08984375
			],
			"min":[
				-194.2835693359375,
				-108.171875,
				-133.86428833007812
			],
			"type":"VEC3"
		},
		{
			"bufferView":1,
			"componentType":5126,
			"count":742,
			"type":"VEC3"
		},
		{
			"bufferView":2,
			"componentType":5126,
			"count":742,
			"type":"VEC2"
		},
		{
			"bufferView":3,
			"componentType":5121,
			"count":742,
			"normalized":true,
			"type":"VEC4"
		},
		{
			"bufferView":4,
			"componentType":5126,
			"count":742,
			"type":"VEC3"
		},
		{
			"bufferView":5,
			"componentType":5123,
			"count":1002,
			"type":"SCALAR"
		}
	],
	"bufferViews":[
		{
			"buffer":0,
			"byteLength":8904,
			"byteOffset":0,
			"target":34962
		},
		{
			"buffer":0,
			"byteLength":8904,
			"byteOffset":8904,
			"target":34962
		},
		{
			"buffer":0,
			"byteLength":5936,
			"byteOffset":17808,
			"target":34962
		},
		{
			"buffer":0,
			"byteLength":2968,
			"byteOffset":23744,
			"target":34962
		},
		{
			"buffer":0,
			"byteLength":8904,
			"byteOffset":26712,
			"target":34962
		},
		{
			"buffer":0,
			"byteLength":2004,
			"byteOffset":35616,
			"target":34963
		}
	],
	"samplers":[
		{
			"magFilter":9729,
			"minFilter":9987
		}
	],
	"buffers":[
		{
			"byteLength":37620,
			"uri":"SM_Env_DriftWood_05.bin"
		}
	]
}
