{
	"asset":{
		"generator":"Khronos glTF Blender I/O v4.2.70",
		"version":"2.0"
	},
	"scene":0,
	"scenes":[
		{
			"name":"Scene",
			"nodes":[
				2
			]
		}
	],
	"nodes":[
		{
			"mesh":0,
			"name":"SM_Env_Flower_03_LOD0"
		},
		{
			"mesh":1,
			"name":"SM_Env_Flower_03_LOD1"
		},
		{
			"children":[
				0,
				1
			],
			"name":"SM_Env_Flower_03",
			"rotation":[
				0.7071068286895752,
				0,
				0,
				0.7071068286895752
			],
			"scale":[
				0.009999999776482582,
				0.009999999776482582,
				0.009999999776482582
			]
		}
	],
	"materials":[
		{
			"doubleSided":true,
			"name":"Leaf18",
			"pbrMetallicRoughness":{
				"baseColorTexture":{
					"index":0
				},
				"metallicFactor":0,
				"roughnessFactor":0.5527864098548889
			}
		}
	],
	"meshes":[
		{
			"name":"Mesh",
			"primitives":[
				{
					"attributes":{
						"POSITION":0,
						"NORMAL":1,
						"TEXCOORD_0":2,
						"COLOR_0":3,
						"COLOR_1":4
					},
					"indices":5,
					"material":0
				}
			]
		},
		{
			"name":"Mesh.001",
			"primitives":[
				{
					"attributes":{
						"POSITION":6,
						"NORMAL":7,
						"TEXCOORD_0":8,
						"COLOR_0":9,
						"COLOR_1":10
					},
					"indices":11,
					"material":0
				}
			]
		}
	],
	"textures":[
		{
			"sampler":0,
			"source":0
		}
	],
	"images":[
		{
			"mimeType":"image/png",
			"name":"Gradient 2",
			"uri":"Gradient%202.png"
		}
	],
	"accessors":[
		{
			"bufferView":0,
			"componentType":5126,
			"count":278,
			"max":[
				31.0313720703125,
				36.51409912109375,
				2.6598572731018066e-05
			],
			"min":[
				-35.71720504760742,
				-28.23236083984375,
				-28.74500274658203
			],
			"type":"VEC3"
		},
		{
			"bufferView":1,
			"componentType":5126,
			"count":278,
			"type":"VEC3"
		},
		{
			"bufferView":2,
			"componentType":5126,
			"count":278,
			"type":"VEC2"
		},
		{
			"bufferView":3,
			"componentType":5121,
			"count":278,
			"normalized":true,
			"type":"VEC4"
		},
		{
			"bufferView":4,
			"componentType":5126,
			"count":278,
			"type":"VEC3"
		},
		{
			"bufferView":5,
			"componentType":5123,
			"count":540,
			"type":"SCALAR"
		},
		{
			"bufferView":6,
			"componentType":5126,
			"count":194,
			"max":[
				31.0313720703125,
				36.51409912109375,
				2.6598572731018066e-05
			],
			"min":[
				-35.71720504760742,
				-28.23236083984375,
				-28.74500274658203
			],
			"type":"VEC3"
		},
		{
			"bufferView":7,
			"componentType":5126,
			"count":194,
			"type":"VEC3"
		},
		{
			"bufferView":8,
			"componentType":5126,
			"count":194,
			"type":"VEC2"
		},
		{
			"bufferView":9,
			"componentType":5121,
			"count":194,
			"normalized":true,
			"type":"VEC4"
		},
		{
			"bufferView":10,
			"componentType":5126,
			"count":194,
			"type":"VEC3"
		},
		{
			"bufferView":11,
			"componentType":5123,
			"count":324,
			"type":"SCALAR"
		}
	],
	"bufferViews":[
		{
			"buffer":0,
			"byteLength":3336,
			"byteOffset":0,
			"target":34962
		},
		{
			"buffer":0,
			"byteLength":3336,
			"byteOffset":3336,
			"target":34962
		},
		{
			"buffer":0,
			"byteLength":2224,
			"byteOffset":6672,
			"target":34962
		},
		{
			"buffer":0,
			"byteLength":1112,
			"byteOffset":8896,
			"target":34962
		},
		{
			"buffer":0,
			"byteLength":3336,
			"byteOffset":10008,
			"target":34962
		},
		{
			"buffer":0,
			"byteLength":1080,
			"byteOffset":13344,
			"target":34963
		},
		{
			"buffer":0,
			"byteLength":2328,
			"byteOffset":14424,
			"target":34962
		},
		{
			"buffer":0,
			"byteLength":2328,
			"byteOffset":16752,
			"target":34962
		},
		{
			"buffer":0,
			"byteLength":1552,
			"byteOffset":19080,
			"target":34962
		},
		{
			"buffer":0,
			"byteLength":776,
			"byteOffset":20632,
			"target":34962
		},
		{
			"buffer":0,
			"byteLength":2328,
			"byteOffset":21408,
			"target":34962
		},
		{
			"buffer":0,
			"byteLength":648,
			"byteOffset":23736,
			"target":34963
		}
	],
	"samplers":[
		{
			"magFilter":9729,
			"minFilter":9987
		}
	],
	"buffers":[
		{
			"byteLength":24384,
			"uri":"SM_Env_Flower_03.bin"
		}
	]
}
