{
	"asset":{
		"generator":"Khronos glTF Blender I/O v4.2.70",
		"version":"2.0"
	},
	"scene":0,
	"scenes":[
		{
			"name":"Scene",
			"nodes":[
				0
			]
		}
	],
	"nodes":[
		{
			"mesh":0,
			"name":"SM_Env_Rock_Ground_01",
			"rotation":[
				0.7071068286895752,
				0,
				0,
				0.7071068286895752
			],
			"scale":[
				0.009999999776482582,
				0.009999999776482582,
				0.009999999776482582
			]
		}
	],
	"materials":[
		{
			"doubleSided":true,
			"name":"Nature25",
			"pbrMetallicRoughness":{
				"metallicFactor":0,
				"roughnessFactor":0.5527864098548889
			}
		}
	],
	"meshes":[
		{
			"name":"Mesh",
			"primitives":[
				{
					"attributes":{
						"POSITION":0,
						"NORMAL":1,
						"TEXCOORD_0":2
					},
					"indices":3,
					"material":0
				}
			]
		}
	],
	"accessors":[
		{
			"bufferView":0,
			"componentType":5126,
			"count":6651,
			"max":[
				1105.4228515625,
				938.469970703125,
				285.7294006347656
			],
			"min":[
				-1015.7080078125,
				-1096.06884765625,
				-116.31998443603516
			],
			"type":"VEC3"
		},
		{
			"bufferView":1,
			"componentType":5126,
			"count":6651,
			"type":"VEC3"
		},
		{
			"bufferView":2,
			"componentType":5126,
			"count":6651,
			"type":"VEC2"
		},
		{
			"bufferView":3,
			"componentType":5123,
			"count":6657,
			"type":"SCALAR"
		}
	],
	"bufferViews":[
		{
			"buffer":0,
			"byteLength":79812,
			"byteOffset":0,
			"target":34962
		},
		{
			"buffer":0,
			"byteLength":79812,
			"byteOffset":79812,
			"target":34962
		},
		{
			"buffer":0,
			"byteLength":53208,
			"byteOffset":159624,
			"target":34962
		},
		{
			"buffer":0,
			"byteLength":13314,
			"byteOffset":212832,
			"target":34963
		}
	],
	"buffers":[
		{
			"byteLength":226148,
			"uri":"SM_Env_Rock_Ground_01.bin"
		}
	]
}
