{
	"asset":{
		"generator":"Khronos glTF Blender I/O v4.2.70",
		"version":"2.0"
	},
	"scene":0,
	"scenes":[
		{
			"name":"Scene",
			"nodes":[
				0
			]
		}
	],
	"nodes":[
		{
			"mesh":0,
			"name":"SM_Env_Rock_Pile_07",
			"rotation":[
				0.7071068286895752,
				0,
				0,
				0.7071068286895752
			],
			"scale":[
				0.009999999776482582,
				0.009999999776482582,
				0.009999999776482582
			]
		}
	],
	"materials":[
		{
			"doubleSided":true,
			"name":"Nature33",
			"pbrMetallicRoughness":{
				"metallicFactor":0,
				"roughnessFactor":0.5527864098548889
			}
		}
	],
	"meshes":[
		{
			"name":"Mesh",
			"primitives":[
				{
					"attributes":{
						"POSITION":0,
						"NORMAL":1,
						"TEXCOORD_0":2
					},
					"indices":3,
					"material":0
				}
			]
		}
	],
	"accessors":[
		{
			"bufferView":0,
			"componentType":5126,
			"count":3865,
			"max":[
				491.3115234375,
				289.8984375,
				70.49407958984375
			],
			"min":[
				-500.73046875,
				-298.82568359375,
				-665.2595825195312
			],
			"type":"VEC3"
		},
		{
			"bufferView":1,
			"componentType":5126,
			"count":3865,
			"type":"VEC3"
		},
		{
			"bufferView":2,
			"componentType":5126,
			"count":3865,
			"type":"VEC2"
		},
		{
			"bufferView":3,
			"componentType":5123,
			"count":5376,
			"type":"SCALAR"
		}
	],
	"bufferViews":[
		{
			"buffer":0,
			"byteLength":46380,
			"byteOffset":0,
			"target":34962
		},
		{
			"buffer":0,
			"byteLength":46380,
			"byteOffset":46380,
			"target":34962
		},
		{
			"buffer":0,
			"byteLength":30920,
			"byteOffset":92760,
			"target":34962
		},
		{
			"buffer":0,
			"byteLength":10752,
			"byteOffset":123680,
			"target":34963
		}
	],
	"buffers":[
		{
			"byteLength":134432,
			"uri":"SM_Env_Rock_Pile_07.bin"
		}
	]
}
