{
	"asset":{
		"generator":"Khronos glTF Blender I/O v4.2.70",
		"version":"2.0"
	},
	"scene":0,
	"scenes":[
		{
			"name":"Scene",
			"nodes":[
				3
			]
		}
	],
	"nodes":[
		{
			"mesh":0,
			"name":"SM_Env_Bush_Palm_04_LOD0"
		},
		{
			"mesh":1,
			"name":"SM_Env_Bush_Palm_04_LOD1"
		},
		{
			"mesh":2,
			"name":"SM_Env_Bush_Palm_04_LOD2"
		},
		{
			"children":[
				0,
				1,
				2
			],
			"name":"SM_Env_Bush_Palm_04",
			"rotation":[
				0.7071068286895752,
				0,
				0,
				0.7071068286895752
			],
			"scale":[
				0.009999999776482582,
				0.009999999776482582,
				0.009999999776482582
			]
		}
	],
	"materials":[
		{
			"doubleSided":true,
			"name":"lambert10",
			"pbrMetallicRoughness":{
				"baseColorTexture":{
					"index":0
				},
				"metallicFactor":0,
				"roughnessFactor":0.5527864098548889
			}
		}
	],
	"meshes":[
		{
			"name":"Mesh",
			"primitives":[
				{
					"attributes":{
						"POSITION":0,
						"NORMAL":1,
						"TEXCOORD_0":2,
						"COLOR_0":3,
						"COLOR_1":4
					},
					"indices":5,
					"material":0
				}
			]
		},
		{
			"name":"Mesh.001",
			"primitives":[
				{
					"attributes":{
						"POSITION":6,
						"NORMAL":7,
						"TEXCOORD_0":8,
						"COLOR_0":9,
						"COLOR_1":10
					},
					"indices":11,
					"material":0
				}
			]
		},
		{
			"name":"Mesh.002",
			"primitives":[
				{
					"attributes":{
						"POSITION":12,
						"NORMAL":13,
						"TEXCOORD_0":14,
						"COLOR_0":15,
						"COLOR_1":16
					},
					"indices":17,
					"material":0
				}
			]
		}
	],
	"textures":[
		{
			"sampler":0,
			"source":0
		}
	],
	"images":[
		{
			"mimeType":"image/png",
			"name":"Gradient_Biolumin_01",
			"uri":"Gradient_Biolumin_01.png"
		}
	],
	"accessors":[
		{
			"bufferView":0,
			"componentType":5126,
			"count":1199,
			"max":[
				155.64151000976562,
				130.00222778320312,
				13.58813190460205
			],
			"min":[
				-135.83074951171875,
				-134.173095703125,
				-280.2923583984375
			],
			"type":"VEC3"
		},
		{
			"bufferView":1,
			"componentType":5126,
			"count":1199,
			"type":"VEC3"
		},
		{
			"bufferView":2,
			"componentType":5126,
			"count":1199,
			"type":"VEC2"
		},
		{
			"bufferView":3,
			"componentType":5121,
			"count":1199,
			"normalized":true,
			"type":"VEC4"
		},
		{
			"bufferView":4,
			"componentType":5126,
			"count":1199,
			"type":"VEC3"
		},
		{
			"bufferView":5,
			"componentType":5123,
			"count":2100,
			"type":"SCALAR"
		},
		{
			"bufferView":6,
			"componentType":5126,
			"count":696,
			"max":[
				155.64151000976562,
				130.00222778320312,
				13.58813190460205
			],
			"min":[
				-135.83074951171875,
				-134.173095703125,
				-280.2923583984375
			],
			"type":"VEC3"
		},
		{
			"bufferView":7,
			"componentType":5126,
			"count":696,
			"type":"VEC3"
		},
		{
			"bufferView":8,
			"componentType":5126,
			"count":696,
			"type":"VEC2"
		},
		{
			"bufferView":9,
			"componentType":5121,
			"count":696,
			"normalized":true,
			"type":"VEC4"
		},
		{
			"bufferView":10,
			"componentType":5126,
			"count":696,
			"type":"VEC3"
		},
		{
			"bufferView":11,
			"componentType":5123,
			"count":1098,
			"type":"SCALAR"
		},
		{
			"bufferView":12,
			"componentType":5126,
			"count":370,
			"max":[
				155.64151000976562,
				126.77326965332031,
				13.58813190460205
			],
			"min":[
				-135.83074951171875,
				-134.173095703125,
				-279.8093566894531
			],
			"type":"VEC3"
		},
		{
			"bufferView":13,
			"componentType":5126,
			"count":370,
			"type":"VEC3"
		},
		{
			"bufferView":14,
			"componentType":5126,
			"count":370,
			"type":"VEC2"
		},
		{
			"bufferView":15,
			"componentType":5121,
			"count":370,
			"normalized":true,
			"type":"VEC4"
		},
		{
			"bufferView":16,
			"componentType":5126,
			"count":370,
			"type":"VEC3"
		},
		{
			"bufferView":17,
			"componentType":5123,
			"count":582,
			"type":"SCALAR"
		}
	],
	"bufferViews":[
		{
			"buffer":0,
			"byteLength":14388,
			"byteOffset":0,
			"target":34962
		},
		{
			"buffer":0,
			"byteLength":14388,
			"byteOffset":14388,
			"target":34962
		},
		{
			"buffer":0,
			"byteLength":9592,
			"byteOffset":28776,
			"target":34962
		},
		{
			"buffer":0,
			"byteLength":4796,
			"byteOffset":38368,
			"target":34962
		},
		{
			"buffer":0,
			"byteLength":14388,
			"byteOffset":43164,
			"target":34962
		},
		{
			"buffer":0,
			"byteLength":4200,
			"byteOffset":57552,
			"target":34963
		},
		{
			"buffer":0,
			"byteLength":8352,
			"byteOffset":61752,
			"target":34962
		},
		{
			"buffer":0,
			"byteLength":8352,
			"byteOffset":70104,
			"target":34962
		},
		{
			"buffer":0,
			"byteLength":5568,
			"byteOffset":78456,
			"target":34962
		},
		{
			"buffer":0,
			"byteLength":2784,
			"byteOffset":84024,
			"target":34962
		},
		{
			"buffer":0,
			"byteLength":8352,
			"byteOffset":86808,
			"target":34962
		},
		{
			"buffer":0,
			"byteLength":2196,
			"byteOffset":95160,
			"target":34963
		},
		{
			"buffer":0,
			"byteLength":4440,
			"byteOffset":97356,
			"target":34962
		},
		{
			"buffer":0,
			"byteLength":4440,
			"byteOffset":101796,
			"target":34962
		},
		{
			"buffer":0,
			"byteLength":2960,
			"byteOffset":106236,
			"target":34962
		},
		{
			"buffer":0,
			"byteLength":1480,
			"byteOffset":109196,
			"target":34962
		},
		{
			"buffer":0,
			"byteLength":4440,
			"byteOffset":110676,
			"target":34962
		},
		{
			"buffer":0,
			"byteLength":1164,
			"byteOffset":115116,
			"target":34963
		}
	],
	"samplers":[
		{
			"magFilter":9729,
			"minFilter":9987
		}
	],
	"buffers":[
		{
			"byteLength":116280,
			"uri":"SM_Env_Bush_Palm_04.bin"
		}
	]
}
