{
	"asset":{
		"generator":"Khronos glTF Blender I/O v4.2.70",
		"version":"2.0"
	},
	"scene":0,
	"scenes":[
		{
			"name":"Scene",
			"nodes":[
				2
			]
		}
	],
	"nodes":[
		{
			"mesh":0,
			"name":"SM_Env_Bush_Palm_01_Flowers_01_LOD0"
		},
		{
			"mesh":1,
			"name":"SM_Env_Bush_Palm_01_Flowers_01_LOD1"
		},
		{
			"children":[
				0,
				1
			],
			"name":"SM_Env_Bush_Palm_01_Flowers_01",
			"rotation":[
				0.7071068286895752,
				0,
				0,
				0.7071068286895752
			],
			"scale":[
				0.009999999776482582,
				0.009999999776482582,
				0.009999999776482582
			]
		}
	],
	"materials":[
		{
			"doubleSided":true,
			"name":"lambert7",
			"pbrMetallicRoughness":{
				"baseColorTexture":{
					"index":0
				},
				"metallicFactor":0,
				"roughnessFactor":0.5527864098548889
			}
		}
	],
	"meshes":[
		{
			"name":"Mesh",
			"primitives":[
				{
					"attributes":{
						"POSITION":0,
						"NORMAL":1,
						"TEXCOORD_0":2,
						"COLOR_0":3,
						"COLOR_1":4
					},
					"indices":5,
					"material":0
				}
			]
		},
		{
			"name":"Mesh.001",
			"primitives":[
				{
					"attributes":{
						"POSITION":6,
						"NORMAL":7,
						"TEXCOORD_0":8,
						"COLOR_0":9,
						"COLOR_1":10
					},
					"indices":11,
					"material":0
				}
			]
		}
	],
	"textures":[
		{
			"sampler":0,
			"source":0
		}
	],
	"images":[
		{
			"mimeType":"image/png",
			"name":"Gradient 2",
			"uri":"Gradient%202.png"
		}
	],
	"accessors":[
		{
			"bufferView":0,
			"componentType":5126,
			"count":1001,
			"max":[
				41.27592468261719,
				65.19412994384766,
				-151.64451599121094
			],
			"min":[
				-59.42840576171875,
				-41.42107391357422,
				-385.4765319824219
			],
			"type":"VEC3"
		},
		{
			"bufferView":1,
			"componentType":5126,
			"count":1001,
			"type":"VEC3"
		},
		{
			"bufferView":2,
			"componentType":5126,
			"count":1001,
			"type":"VEC2"
		},
		{
			"bufferView":3,
			"componentType":5121,
			"count":1001,
			"normalized":true,
			"type":"VEC4"
		},
		{
			"bufferView":4,
			"componentType":5126,
			"count":1001,
			"type":"VEC3"
		},
		{
			"bufferView":5,
			"componentType":5123,
			"count":1464,
			"type":"SCALAR"
		},
		{
			"bufferView":6,
			"componentType":5126,
			"count":768,
			"max":[
				41.27592468261719,
				65.19412994384766,
				-151.64451599121094
			],
			"min":[
				-59.42840576171875,
				-41.42107391357422,
				-385.4765319824219
			],
			"type":"VEC3"
		},
		{
			"bufferView":7,
			"componentType":5126,
			"count":768,
			"type":"VEC3"
		},
		{
			"bufferView":8,
			"componentType":5126,
			"count":768,
			"type":"VEC2"
		},
		{
			"bufferView":9,
			"componentType":5121,
			"count":768,
			"normalized":true,
			"type":"VEC4"
		},
		{
			"bufferView":10,
			"componentType":5126,
			"count":768,
			"type":"VEC3"
		},
		{
			"bufferView":11,
			"componentType":5123,
			"count":960,
			"type":"SCALAR"
		}
	],
	"bufferViews":[
		{
			"buffer":0,
			"byteLength":12012,
			"byteOffset":0,
			"target":34962
		},
		{
			"buffer":0,
			"byteLength":12012,
			"byteOffset":12012,
			"target":34962
		},
		{
			"buffer":0,
			"byteLength":8008,
			"byteOffset":24024,
			"target":34962
		},
		{
			"buffer":0,
			"byteLength":4004,
			"byteOffset":32032,
			"target":34962
		},
		{
			"buffer":0,
			"byteLength":12012,
			"byteOffset":36036,
			"target":34962
		},
		{
			"buffer":0,
			"byteLength":2928,
			"byteOffset":48048,
			"target":34963
		},
		{
			"buffer":0,
			"byteLength":9216,
			"byteOffset":50976,
			"target":34962
		},
		{
			"buffer":0,
			"byteLength":9216,
			"byteOffset":60192,
			"target":34962
		},
		{
			"buffer":0,
			"byteLength":6144,
			"byteOffset":69408,
			"target":34962
		},
		{
			"buffer":0,
			"byteLength":3072,
			"byteOffset":75552,
			"target":34962
		},
		{
			"buffer":0,
			"byteLength":9216,
			"byteOffset":78624,
			"target":34962
		},
		{
			"buffer":0,
			"byteLength":1920,
			"byteOffset":87840,
			"target":34963
		}
	],
	"samplers":[
		{
			"magFilter":9729,
			"minFilter":9987
		}
	],
	"buffers":[
		{
			"byteLength":89760,
			"uri":"SM_Env_Bush_Palm_01_Flowers_01.bin"
		}
	]
}
