{
	"asset":{
		"generator":"Khronos glTF Blender I/O v4.2.70",
		"version":"2.0"
	},
	"scene":0,
	"scenes":[
		{
			"name":"Scene",
			"nodes":[
				6
			]
		}
	],
	"nodes":[
		{
			"mesh":0,
			"name":"SM_Env_Tree_Forest_03_Branches_LOD0"
		},
		{
			"mesh":1,
			"name":"SM_Env_Tree_Forest_03_Branches_LOD1"
		},
		{
			"mesh":2,
			"name":"SM_Env_Tree_Forest_03_LOD0"
		},
		{
			"mesh":3,
			"name":"SM_Env_Tree_Forest_03_LOD1"
		},
		{
			"mesh":4,
			"name":"SM_Env_Tree_Forest_03_LOD2"
		},
		{
			"mesh":5,
			"name":"SM_Env_Tree_Forest_03_LOD3"
		},
		{
			"children":[
				0,
				1,
				2,
				3,
				4,
				5
			],
			"name":"SM_Env_Tree_Forest_03",
			"rotation":[
				0.7071068286895752,
				0,
				0,
				0.7071068286895752
			],
			"scale":[
				0.009999999776482582,
				0.009999999776482582,
				0.009999999776482582
			]
		}
	],
	"materials":[
		{
			"doubleSided":true,
			"name":"lambert26",
			"pbrMetallicRoughness":{
				"baseColorTexture":{
					"index":0
				},
				"metallicFactor":0,
				"roughnessFactor":0.5527864098548889
			}
		}
	],
	"meshes":[
		{
			"name":"Mesh",
			"primitives":[
				{
					"attributes":{
						"POSITION":0,
						"NORMAL":1,
						"TEXCOORD_0":2,
						"COLOR_0":3,
						"COLOR_1":4
					},
					"indices":5,
					"material":0
				}
			]
		},
		{
			"name":"Mesh.001",
			"primitives":[
				{
					"attributes":{
						"POSITION":6,
						"NORMAL":7,
						"TEXCOORD_0":8,
						"COLOR_0":9,
						"COLOR_1":10
					},
					"indices":11,
					"material":0
				}
			]
		},
		{
			"name":"Mesh.002",
			"primitives":[
				{
					"attributes":{
						"POSITION":12,
						"NORMAL":13,
						"TEXCOORD_0":14,
						"COLOR_0":15,
						"COLOR_1":16
					},
					"indices":17,
					"material":0
				}
			]
		},
		{
			"name":"Mesh.003",
			"primitives":[
				{
					"attributes":{
						"POSITION":18,
						"NORMAL":19,
						"TEXCOORD_0":20,
						"COLOR_0":21,
						"COLOR_1":22
					},
					"indices":23,
					"material":0
				}
			]
		},
		{
			"name":"Mesh.004",
			"primitives":[
				{
					"attributes":{
						"POSITION":24,
						"NORMAL":25,
						"TEXCOORD_0":26,
						"COLOR_0":27,
						"COLOR_1":28
					},
					"indices":29,
					"material":0
				}
			]
		},
		{
			"name":"Mesh.005",
			"primitives":[
				{
					"attributes":{
						"POSITION":30,
						"NORMAL":31,
						"TEXCOORD_0":32,
						"COLOR_0":33,
						"COLOR_1":34
					},
					"indices":35,
					"material":0
				}
			]
		}
	],
	"textures":[
		{
			"sampler":0,
			"source":0
		}
	],
	"images":[
		{
			"mimeType":"image/png",
			"name":"Branches_01",
			"uri":"Branches_01.png"
		}
	],
	"accessors":[
		{
			"bufferView":0,
			"componentType":5126,
			"count":1988,
			"max":[
				441.1253662109375,
				353.4520263671875,
				-418.92950439453125
			],
			"min":[
				-329.0194091796875,
				-358.483642578125,
				-835.628662109375
			],
			"type":"VEC3"
		},
		{
			"bufferView":1,
			"componentType":5126,
			"count":1988,
			"type":"VEC3"
		},
		{
			"bufferView":2,
			"componentType":5126,
			"count":1988,
			"type":"VEC2"
		},
		{
			"bufferView":3,
			"componentType":5121,
			"count":1988,
			"normalized":true,
			"type":"VEC4"
		},
		{
			"bufferView":4,
			"componentType":5126,
			"count":1988,
			"type":"VEC3"
		},
		{
			"bufferView":5,
			"componentType":5123,
			"count":3078,
			"type":"SCALAR"
		},
		{
			"bufferView":6,
			"componentType":5126,
			"count":162,
			"max":[
				441.1253662109375,
				353.4520263671875,
				-421.4239807128906
			],
			"min":[
				-329.0194091796875,
				-358.483642578125,
				-835.628662109375
			],
			"type":"VEC3"
		},
		{
			"bufferView":7,
			"componentType":5126,
			"count":162,
			"type":"VEC3"
		},
		{
			"bufferView":8,
			"componentType":5126,
			"count":162,
			"type":"VEC2"
		},
		{
			"bufferView":9,
			"componentType":5121,
			"count":162,
			"normalized":true,
			"type":"VEC4"
		},
		{
			"bufferView":10,
			"componentType":5126,
			"count":162,
			"type":"VEC3"
		},
		{
			"bufferView":11,
			"componentType":5123,
			"count":324,
			"type":"SCALAR"
		},
		{
			"bufferView":12,
			"componentType":5126,
			"count":26812,
			"max":[
				524.2591552734375,
				400.07354736328125,
				81.34952545166016
			],
			"min":[
				-440.1114501953125,
				-466.4435729980469,
				-929.2518310546875
			],
			"type":"VEC3"
		},
		{
			"bufferView":13,
			"componentType":5126,
			"count":26812,
			"type":"VEC3"
		},
		{
			"bufferView":14,
			"componentType":5126,
			"count":26812,
			"type":"VEC2"
		},
		{
			"bufferView":15,
			"componentType":5121,
			"count":26812,
			"normalized":true,
			"type":"VEC4"
		},
		{
			"bufferView":16,
			"componentType":5126,
			"count":26812,
			"type":"VEC3"
		},
		{
			"bufferView":17,
			"componentType":5123,
			"count":39984,
			"type":"SCALAR"
		},
		{
			"bufferView":18,
			"componentType":5126,
			"count":14447,
			"max":[
				510.9706115722656,
				388.5510559082031,
				78.26406860351562
			],
			"min":[
				-416.69366455078125,
				-460.0263977050781,
				-925.1633911132812
			],
			"type":"VEC3"
		},
		{
			"bufferView":19,
			"componentType":5126,
			"count":14447,
			"type":"VEC3"
		},
		{
			"bufferView":20,
			"componentType":5126,
			"count":14447,
			"type":"VEC2"
		},
		{
			"bufferView":21,
			"componentType":5121,
			"count":14447,
			"normalized":true,
			"type":"VEC4"
		},
		{
			"bufferView":22,
			"componentType":5126,
			"count":14447,
			"type":"VEC3"
		},
		{
			"bufferView":23,
			"componentType":5123,
			"count":21432,
			"type":"SCALAR"
		},
		{
			"bufferView":24,
			"componentType":5126,
			"count":7831,
			"max":[
				500.6863708496094,
				379.574462890625,
				78.26406860351562
			],
			"min":[
				-404.8692321777344,
				-456.3016357421875,
				-923.6328125
			],
			"type":"VEC3"
		},
		{
			"bufferView":25,
			"componentType":5126,
			"count":7831,
			"type":"VEC3"
		},
		{
			"bufferView":26,
			"componentType":5126,
			"count":7831,
			"type":"VEC2"
		},
		{
			"bufferView":27,
			"componentType":5121,
			"count":7831,
			"normalized":true,
			"type":"VEC4"
		},
		{
			"bufferView":28,
			"componentType":5126,
			"count":7831,
			"type":"VEC3"
		},
		{
			"bufferView":29,
			"componentType":5123,
			"count":11388,
			"type":"SCALAR"
		},
		{
			"bufferView":30,
			"componentType":5126,
			"count":20,
			"max":[
				539.3408203125,
				415.3330383300781,
				106.7734146118164
			],
			"min":[
				-463.14483642578125,
				-478.6418762207031,
				-949.5980224609375
			],
			"type":"VEC3"
		},
		{
			"bufferView":31,
			"componentType":5126,
			"count":20,
			"type":"VEC3"
		},
		{
			"bufferView":32,
			"componentType":5126,
			"count":20,
			"type":"VEC2"
		},
		{
			"bufferView":33,
			"componentType":5121,
			"count":20,
			"normalized":true,
			"type":"VEC4"
		},
		{
			"bufferView":34,
			"componentType":5126,
			"count":20,
			"type":"VEC3"
		},
		{
			"bufferView":35,
			"componentType":5123,
			"count":36,
			"type":"SCALAR"
		}
	],
	"bufferViews":[
		{
			"buffer":0,
			"byteLength":23856,
			"byteOffset":0,
			"target":34962
		},
		{
			"buffer":0,
			"byteLength":23856,
			"byteOffset":23856,
			"target":34962
		},
		{
			"buffer":0,
			"byteLength":15904,
			"byteOffset":47712,
			"target":34962
		},
		{
			"buffer":0,
			"byteLength":7952,
			"byteOffset":63616,
			"target":34962
		},
		{
			"buffer":0,
			"byteLength":23856,
			"byteOffset":71568,
			"target":34962
		},
		{
			"buffer":0,
			"byteLength":6156,
			"byteOffset":95424,
			"target":34963
		},
		{
			"buffer":0,
			"byteLength":1944,
			"byteOffset":101580,
			"target":34962
		},
		{
			"buffer":0,
			"byteLength":1944,
			"byteOffset":103524,
			"target":34962
		},
		{
			"buffer":0,
			"byteLength":1296,
			"byteOffset":105468,
			"target":34962
		},
		{
			"buffer":0,
			"byteLength":648,
			"byteOffset":106764,
			"target":34962
		},
		{
			"buffer":0,
			"byteLength":1944,
			"byteOffset":107412,
			"target":34962
		},
		{
			"buffer":0,
			"byteLength":648,
			"byteOffset":109356,
			"target":34963
		},
		{
			"buffer":0,
			"byteLength":321744,
			"byteOffset":110004,
			"target":34962
		},
		{
			"buffer":0,
			"byteLength":321744,
			"byteOffset":431748,
			"target":34962
		},
		{
			"buffer":0,
			"byteLength":214496,
			"byteOffset":753492,
			"target":34962
		},
		{
			"buffer":0,
			"byteLength":107248,
			"byteOffset":967988,
			"target":34962
		},
		{
			"buffer":0,
			"byteLength":321744,
			"byteOffset":1075236,
			"target":34962
		},
		{
			"buffer":0,
			"byteLength":79968,
			"byteOffset":1396980,
			"target":34963
		},
		{
			"buffer":0,
			"byteLength":173364,
			"byteOffset":1476948,
			"target":34962
		},
		{
			"buffer":0,
			"byteLength":173364,
			"byteOffset":1650312,
			"target":34962
		},
		{
			"buffer":0,
			"byteLength":115576,
			"byteOffset":1823676,
			"target":34962
		},
		{
			"buffer":0,
			"byteLength":57788,
			"byteOffset":1939252,
			"target":34962
		},
		{
			"buffer":0,
			"byteLength":173364,
			"byteOffset":1997040,
			"target":34962
		},
		{
			"buffer":0,
			"byteLength":42864,
			"byteOffset":2170404,
			"target":34963
		},
		{
			"buffer":0,
			"byteLength":93972,
			"byteOffset":2213268,
			"target":34962
		},
		{
			"buffer":0,
			"byteLength":93972,
			"byteOffset":2307240,
			"target":34962
		},
		{
			"buffer":0,
			"byteLength":62648,
			"byteOffset":2401212,
			"target":34962
		},
		{
			"buffer":0,
			"byteLength":31324,
			"byteOffset":2463860,
			"target":34962
		},
		{
			"buffer":0,
			"byteLength":93972,
			"byteOffset":2495184,
			"target":34962
		},
		{
			"buffer":0,
			"byteLength":22776,
			"byteOffset":2589156,
			"target":34963
		},
		{
			"buffer":0,
			"byteLength":240,
			"byteOffset":2611932,
			"target":34962
		},
		{
			"buffer":0,
			"byteLength":240,
			"byteOffset":2612172,
			"target":34962
		},
		{
			"buffer":0,
			"byteLength":160,
			"byteOffset":2612412,
			"target":34962
		},
		{
			"buffer":0,
			"byteLength":80,
			"byteOffset":2612572,
			"target":34962
		},
		{
			"buffer":0,
			"byteLength":240,
			"byteOffset":2612652,
			"target":34962
		},
		{
			"buffer":0,
			"byteLength":72,
			"byteOffset":2612892,
			"target":34963
		}
	],
	"samplers":[
		{
			"magFilter":9729,
			"minFilter":9987
		}
	],
	"buffers":[
		{
			"byteLength":2612964,
			"uri":"SM_Env_Tree_Forest_03.bin"
		}
	]
}
