{
	"asset":{
		"generator":"Khronos glTF Blender I/O v4.2.70",
		"version":"2.0"
	},
	"scene":0,
	"scenes":[
		{
			"name":"Scene",
			"nodes":[
				0
			]
		}
	],
	"nodes":[
		{
			"mesh":0,
			"name":"SM_Env_Rock_Ramp_03",
			"rotation":[
				0.7071068286895752,
				0,
				0,
				0.7071068286895752
			],
			"scale":[
				0.009999999776482582,
				0.009999999776482582,
				0.009999999776482582
			]
		}
	],
	"materials":[
		{
			"doubleSided":true,
			"name":"Nature36",
			"pbrMetallicRoughness":{
				"metallicFactor":0,
				"roughnessFactor":0.5527864098548889
			}
		}
	],
	"meshes":[
		{
			"name":"Mesh",
			"primitives":[
				{
					"attributes":{
						"POSITION":0,
						"NORMAL":1,
						"TEXCOORD_0":2
					},
					"indices":3,
					"material":0
				}
			]
		}
	],
	"accessors":[
		{
			"bufferView":0,
			"componentType":5126,
			"count":2879,
			"max":[
				979.21875,
				530.39306640625,
				285.68328857421875
			],
			"min":[
				-988.63671875,
				-539.31982421875,
				-974.5276489257812
			],
			"type":"VEC3"
		},
		{
			"bufferView":1,
			"componentType":5126,
			"count":2879,
			"type":"VEC3"
		},
		{
			"bufferView":2,
			"componentType":5126,
			"count":2879,
			"type":"VEC2"
		},
		{
			"bufferView":3,
			"componentType":5123,
			"count":3432,
			"type":"SCALAR"
		}
	],
	"bufferViews":[
		{
			"buffer":0,
			"byteLength":34548,
			"byteOffset":0,
			"target":34962
		},
		{
			"buffer":0,
			"byteLength":34548,
			"byteOffset":34548,
			"target":34962
		},
		{
			"buffer":0,
			"byteLength":23032,
			"byteOffset":69096,
			"target":34962
		},
		{
			"buffer":0,
			"byteLength":6864,
			"byteOffset":92128,
			"target":34963
		}
	],
	"buffers":[
		{
			"byteLength":98992,
			"uri":"SM_Env_Rock_Ramp_03.bin"
		}
	]
}
