{
	"asset":{
		"generator":"Khronos glTF Blender I/O v4.2.70",
		"version":"2.0"
	},
	"scene":0,
	"scenes":[
		{
			"name":"Scene",
			"nodes":[
				3
			]
		}
	],
	"nodes":[
		{
			"mesh":0,
			"name":"SM_Env_Flowers_02_LOD0"
		},
		{
			"mesh":1,
			"name":"SM_Env_Flowers_02_LOD1"
		},
		{
			"mesh":2,
			"name":"SM_Env_Flowers_02_LOD2"
		},
		{
			"children":[
				0,
				1,
				2
			],
			"name":"SM_Env_Flowers_02",
			"rotation":[
				0.7071068286895752,
				0,
				0,
				0.7071068286895752
			],
			"scale":[
				0.009999999776482582,
				0.009999999776482582,
				0.009999999776482582
			]
		}
	],
	"materials":[
		{
			"doubleSided":true,
			"name":"Nature8",
			"pbrMetallicRoughness":{
				"baseColorTexture":{
					"index":0
				},
				"metallicFactor":0,
				"roughnessFactor":0.5527864098548889
			}
		}
	],
	"meshes":[
		{
			"name":"Mesh",
			"primitives":[
				{
					"attributes":{
						"POSITION":0,
						"NORMAL":1,
						"TEXCOORD_0":2,
						"COLOR_0":3,
						"COLOR_1":4
					},
					"indices":5,
					"material":0
				}
			]
		},
		{
			"name":"Mesh.001",
			"primitives":[
				{
					"attributes":{
						"POSITION":6,
						"NORMAL":7,
						"TEXCOORD_0":8,
						"COLOR_0":9,
						"COLOR_1":10
					},
					"indices":11,
					"material":0
				}
			]
		},
		{
			"name":"Mesh.002",
			"primitives":[
				{
					"attributes":{
						"POSITION":12,
						"NORMAL":13,
						"TEXCOORD_0":14,
						"COLOR_0":15,
						"COLOR_1":16
					},
					"indices":17,
					"material":0
				}
			]
		}
	],
	"textures":[
		{
			"sampler":0,
			"source":0
		}
	],
	"images":[
		{
			"mimeType":"image/png",
			"name":"PolygonNatureBiomes_Tropical_Texture_01",
			"uri":"PolygonNatureBiomes_Tropical_Texture_01.png"
		}
	],
	"accessors":[
		{
			"bufferView":0,
			"componentType":5126,
			"count":706,
			"max":[
				42.827064514160156,
				41.28999328613281,
				8.19079303741455
			],
			"min":[
				-28.479755401611328,
				-33.53940963745117,
				-106.83221435546875
			],
			"type":"VEC3"
		},
		{
			"bufferView":1,
			"componentType":5126,
			"count":706,
			"type":"VEC3"
		},
		{
			"bufferView":2,
			"componentType":5126,
			"count":706,
			"type":"VEC2"
		},
		{
			"bufferView":3,
			"componentType":5121,
			"count":706,
			"normalized":true,
			"type":"VEC4"
		},
		{
			"bufferView":4,
			"componentType":5126,
			"count":706,
			"type":"VEC3"
		},
		{
			"bufferView":5,
			"componentType":5123,
			"count":1410,
			"type":"SCALAR"
		},
		{
			"bufferView":6,
			"componentType":5126,
			"count":545,
			"max":[
				42.42689514160156,
				41.272254943847656,
				8.19079303741455
			],
			"min":[
				-27.68039894104004,
				-32.92184829711914,
				-106.83221435546875
			],
			"type":"VEC3"
		},
		{
			"bufferView":7,
			"componentType":5126,
			"count":545,
			"type":"VEC3"
		},
		{
			"bufferView":8,
			"componentType":5126,
			"count":545,
			"type":"VEC2"
		},
		{
			"bufferView":9,
			"componentType":5121,
			"count":545,
			"normalized":true,
			"type":"VEC4"
		},
		{
			"bufferView":10,
			"componentType":5126,
			"count":545,
			"type":"VEC3"
		},
		{
			"bufferView":11,
			"componentType":5123,
			"count":1020,
			"type":"SCALAR"
		},
		{
			"bufferView":12,
			"componentType":5126,
			"count":391,
			"max":[
				39.621028900146484,
				41.905723571777344,
				8.19079303741455
			],
			"min":[
				-29.13006591796875,
				-35.08485412597656,
				-105.6638412475586
			],
			"type":"VEC3"
		},
		{
			"bufferView":13,
			"componentType":5126,
			"count":391,
			"type":"VEC3"
		},
		{
			"bufferView":14,
			"componentType":5126,
			"count":391,
			"type":"VEC2"
		},
		{
			"bufferView":15,
			"componentType":5121,
			"count":391,
			"normalized":true,
			"type":"VEC4"
		},
		{
			"bufferView":16,
			"componentType":5126,
			"count":391,
			"type":"VEC3"
		},
		{
			"bufferView":17,
			"componentType":5123,
			"count":642,
			"type":"SCALAR"
		}
	],
	"bufferViews":[
		{
			"buffer":0,
			"byteLength":8472,
			"byteOffset":0,
			"target":34962
		},
		{
			"buffer":0,
			"byteLength":8472,
			"byteOffset":8472,
			"target":34962
		},
		{
			"buffer":0,
			"byteLength":5648,
			"byteOffset":16944,
			"target":34962
		},
		{
			"buffer":0,
			"byteLength":2824,
			"byteOffset":22592,
			"target":34962
		},
		{
			"buffer":0,
			"byteLength":8472,
			"byteOffset":25416,
			"target":34962
		},
		{
			"buffer":0,
			"byteLength":2820,
			"byteOffset":33888,
			"target":34963
		},
		{
			"buffer":0,
			"byteLength":6540,
			"byteOffset":36708,
			"target":34962
		},
		{
			"buffer":0,
			"byteLength":6540,
			"byteOffset":43248,
			"target":34962
		},
		{
			"buffer":0,
			"byteLength":4360,
			"byteOffset":49788,
			"target":34962
		},
		{
			"buffer":0,
			"byteLength":2180,
			"byteOffset":54148,
			"target":34962
		},
		{
			"buffer":0,
			"byteLength":6540,
			"byteOffset":56328,
			"target":34962
		},
		{
			"buffer":0,
			"byteLength":2040,
			"byteOffset":62868,
			"target":34963
		},
		{
			"buffer":0,
			"byteLength":4692,
			"byteOffset":64908,
			"target":34962
		},
		{
			"buffer":0,
			"byteLength":4692,
			"byteOffset":69600,
			"target":34962
		},
		{
			"buffer":0,
			"byteLength":3128,
			"byteOffset":74292,
			"target":34962
		},
		{
			"buffer":0,
			"byteLength":1564,
			"byteOffset":77420,
			"target":34962
		},
		{
			"buffer":0,
			"byteLength":4692,
			"byteOffset":78984,
			"target":34962
		},
		{
			"buffer":0,
			"byteLength":1284,
			"byteOffset":83676,
			"target":34963
		}
	],
	"samplers":[
		{
			"magFilter":9729,
			"minFilter":9987
		}
	],
	"buffers":[
		{
			"byteLength":84960,
			"uri":"SM_Env_Flowers_02.bin"
		}
	]
}
