{
	"asset":{
		"generator":"Khronos glTF Blender I/O v4.2.70",
		"version":"2.0"
	},
	"scene":0,
	"scenes":[
		{
			"name":"Scene",
			"nodes":[
				3
			]
		}
	],
	"nodes":[
		{
			"mesh":0,
			"name":"SM_Env_Seaweed_02_LOD0"
		},
		{
			"mesh":1,
			"name":"SM_Env_Seaweed_02_LOD1"
		},
		{
			"mesh":2,
			"name":"SM_Env_Seaweed_02_LOD2"
		},
		{
			"children":[
				0,
				1,
				2
			],
			"name":"SM_Env_Seaweed_02",
			"rotation":[
				0.7071068286895752,
				0,
				0,
				0.7071068286895752
			],
			"scale":[
				0.009999999776482582,
				0.009999999776482582,
				0.009999999776482582
			]
		}
	],
	"materials":[
		{
			"alphaMode":"BLEND",
			"doubleSided":true,
			"name":"seaweed1",
			"pbrMetallicRoughness":{
				"baseColorTexture":{
					"index":0
				},
				"metallicFactor":0,
				"roughnessFactor":0.5527864098548889
			}
		}
	],
	"meshes":[
		{
			"name":"Mesh",
			"primitives":[
				{
					"attributes":{
						"POSITION":0,
						"NORMAL":1,
						"TEXCOORD_0":2,
						"COLOR_0":3,
						"COLOR_1":4
					},
					"indices":5,
					"material":0
				}
			]
		},
		{
			"name":"Mesh.001",
			"primitives":[
				{
					"attributes":{
						"POSITION":6,
						"NORMAL":7,
						"TEXCOORD_0":8,
						"COLOR_0":9,
						"COLOR_1":10
					},
					"indices":11,
					"material":0
				}
			]
		},
		{
			"name":"Mesh.002",
			"primitives":[
				{
					"attributes":{
						"POSITION":12,
						"NORMAL":13,
						"TEXCOORD_0":14,
						"COLOR_0":15,
						"COLOR_1":16
					},
					"indices":17,
					"material":0
				}
			]
		}
	],
	"textures":[
		{
			"sampler":0,
			"source":0
		}
	],
	"images":[
		{
			"mimeType":"image/png",
			"name":"Gradient_Biolumin_01",
			"uri":"Gradient_Biolumin_01.png"
		}
	],
	"accessors":[
		{
			"bufferView":0,
			"componentType":5126,
			"count":294,
			"max":[
				90.61113739013672,
				86.52745819091797,
				0.7828992605209351
			],
			"min":[
				-122.90416717529297,
				-76.10148620605469,
				-219.49705505371094
			],
			"type":"VEC3"
		},
		{
			"bufferView":1,
			"componentType":5126,
			"count":294,
			"type":"VEC3"
		},
		{
			"bufferView":2,
			"componentType":5126,
			"count":294,
			"type":"VEC2"
		},
		{
			"bufferView":3,
			"componentType":5121,
			"count":294,
			"normalized":true,
			"type":"VEC4"
		},
		{
			"bufferView":4,
			"componentType":5126,
			"count":294,
			"type":"VEC3"
		},
		{
			"bufferView":5,
			"componentType":5123,
			"count":900,
			"type":"SCALAR"
		},
		{
			"bufferView":6,
			"componentType":5126,
			"count":60,
			"max":[
				83.1632080078125,
				80.2369384765625,
				0.7828992605209351
			],
			"min":[
				-112.86178588867188,
				-76.10148620605469,
				-219.49705505371094
			],
			"type":"VEC3"
		},
		{
			"bufferView":7,
			"componentType":5126,
			"count":60,
			"type":"VEC3"
		},
		{
			"bufferView":8,
			"componentType":5126,
			"count":60,
			"type":"VEC2"
		},
		{
			"bufferView":9,
			"componentType":5121,
			"count":60,
			"normalized":true,
			"type":"VEC4"
		},
		{
			"bufferView":10,
			"componentType":5126,
			"count":60,
			"type":"VEC3"
		},
		{
			"bufferView":11,
			"componentType":5123,
			"count":90,
			"type":"SCALAR"
		},
		{
			"bufferView":12,
			"componentType":5126,
			"count":40,
			"max":[
				65.36842346191406,
				80.2369384765625,
				0.7828992605209351
			],
			"min":[
				-105.69065856933594,
				-76.10148620605469,
				-219.49705505371094
			],
			"type":"VEC3"
		},
		{
			"bufferView":13,
			"componentType":5126,
			"count":40,
			"type":"VEC3"
		},
		{
			"bufferView":14,
			"componentType":5126,
			"count":40,
			"type":"VEC2"
		},
		{
			"bufferView":15,
			"componentType":5121,
			"count":40,
			"normalized":true,
			"type":"VEC4"
		},
		{
			"bufferView":16,
			"componentType":5126,
			"count":40,
			"type":"VEC3"
		},
		{
			"bufferView":17,
			"componentType":5123,
			"count":60,
			"type":"SCALAR"
		}
	],
	"bufferViews":[
		{
			"buffer":0,
			"byteLength":3528,
			"byteOffset":0,
			"target":34962
		},
		{
			"buffer":0,
			"byteLength":3528,
			"byteOffset":3528,
			"target":34962
		},
		{
			"buffer":0,
			"byteLength":2352,
			"byteOffset":7056,
			"target":34962
		},
		{
			"buffer":0,
			"byteLength":1176,
			"byteOffset":9408,
			"target":34962
		},
		{
			"buffer":0,
			"byteLength":3528,
			"byteOffset":10584,
			"target":34962
		},
		{
			"buffer":0,
			"byteLength":1800,
			"byteOffset":14112,
			"target":34963
		},
		{
			"buffer":0,
			"byteLength":720,
			"byteOffset":15912,
			"target":34962
		},
		{
			"buffer":0,
			"byteLength":720,
			"byteOffset":16632,
			"target":34962
		},
		{
			"buffer":0,
			"byteLength":480,
			"byteOffset":17352,
			"target":34962
		},
		{
			"buffer":0,
			"byteLength":240,
			"byteOffset":17832,
			"target":34962
		},
		{
			"buffer":0,
			"byteLength":720,
			"byteOffset":18072,
			"target":34962
		},
		{
			"buffer":0,
			"byteLength":180,
			"byteOffset":18792,
			"target":34963
		},
		{
			"buffer":0,
			"byteLength":480,
			"byteOffset":18972,
			"target":34962
		},
		{
			"buffer":0,
			"byteLength":480,
			"byteOffset":19452,
			"target":34962
		},
		{
			"buffer":0,
			"byteLength":320,
			"byteOffset":19932,
			"target":34962
		},
		{
			"buffer":0,
			"byteLength":160,
			"byteOffset":20252,
			"target":34962
		},
		{
			"buffer":0,
			"byteLength":480,
			"byteOffset":20412,
			"target":34962
		},
		{
			"buffer":0,
			"byteLength":120,
			"byteOffset":20892,
			"target":34963
		}
	],
	"samplers":[
		{
			"magFilter":9729,
			"minFilter":9987
		}
	],
	"buffers":[
		{
			"byteLength":21012,
			"uri":"SM_Env_Seaweed_02.bin"
		}
	]
}
