{
	"asset":{
		"generator":"Khronos glTF Blender I/O v4.2.70",
		"version":"2.0"
	},
	"scene":0,
	"scenes":[
		{
			"name":"Scene",
			"nodes":[
				4
			]
		}
	],
	"nodes":[
		{
			"mesh":0,
			"name":"SM_Env_Tree_Palm_02_LOD0"
		},
		{
			"mesh":1,
			"name":"SM_Env_Tree_Palm_02_LOD1"
		},
		{
			"mesh":2,
			"name":"SM_Env_Tree_Palm_02_LOD2"
		},
		{
			"mesh":3,
			"name":"SM_Env_Tree_Palm_02_LOD3"
		},
		{
			"children":[
				0,
				1,
				2,
				3
			],
			"name":"SM_Env_Tree_Palm_02",
			"rotation":[
				0.7071068286895752,
				0,
				0,
				0.7071068286895752
			],
			"scale":[
				0.009999999776482582,
				0.009999999776482582,
				0.009999999776482582
			]
		}
	],
	"materials":[
		{
			"doubleSided":true,
			"name":"lambert28",
			"pbrMetallicRoughness":{
				"baseColorTexture":{
					"index":0
				},
				"metallicFactor":0,
				"roughnessFactor":0.5527864098548889
			}
		}
	],
	"meshes":[
		{
			"name":"Mesh",
			"primitives":[
				{
					"attributes":{
						"POSITION":0,
						"NORMAL":1,
						"TEXCOORD_0":2,
						"COLOR_0":3,
						"COLOR_1":4
					},
					"indices":5,
					"material":0
				}
			]
		},
		{
			"name":"Mesh.001",
			"primitives":[
				{
					"attributes":{
						"POSITION":6,
						"NORMAL":7,
						"TEXCOORD_0":8,
						"COLOR_0":9,
						"COLOR_1":10
					},
					"indices":11,
					"material":0
				}
			]
		},
		{
			"name":"Mesh.002",
			"primitives":[
				{
					"attributes":{
						"POSITION":12,
						"NORMAL":13,
						"TEXCOORD_0":14,
						"COLOR_0":15,
						"COLOR_1":16
					},
					"indices":17,
					"material":0
				}
			]
		},
		{
			"name":"Mesh.003",
			"primitives":[
				{
					"attributes":{
						"POSITION":18,
						"NORMAL":19,
						"TEXCOORD_0":20,
						"COLOR_0":21,
						"COLOR_1":22
					},
					"indices":23,
					"material":0
				}
			]
		}
	],
	"textures":[
		{
			"sampler":0,
			"source":0
		}
	],
	"images":[
		{
			"mimeType":"image/png",
			"name":"treePalm_02_Normals",
			"uri":"treePalm_02_Normals.png"
		}
	],
	"accessors":[
		{
			"bufferView":0,
			"componentType":5126,
			"count":1015,
			"max":[
				255.97360229492188,
				729.1405029296875,
				40.84968185424805
			],
			"min":[
				-270.8724060058594,
				-50.073307037353516,
				-364.8474426269531
			],
			"type":"VEC3"
		},
		{
			"bufferView":1,
			"componentType":5126,
			"count":1015,
			"type":"VEC3"
		},
		{
			"bufferView":2,
			"componentType":5126,
			"count":1015,
			"type":"VEC2"
		},
		{
			"bufferView":3,
			"componentType":5121,
			"count":1015,
			"normalized":true,
			"type":"VEC4"
		},
		{
			"bufferView":4,
			"componentType":5126,
			"count":1015,
			"type":"VEC3"
		},
		{
			"bufferView":5,
			"componentType":5123,
			"count":1878,
			"type":"SCALAR"
		},
		{
			"bufferView":6,
			"componentType":5126,
			"count":765,
			"max":[
				255.97360229492188,
				729.1405029296875,
				40.84968185424805
			],
			"min":[
				-270.8724060058594,
				-50.073307037353516,
				-354.47796630859375
			],
			"type":"VEC3"
		},
		{
			"bufferView":7,
			"componentType":5126,
			"count":765,
			"type":"VEC3"
		},
		{
			"bufferView":8,
			"componentType":5126,
			"count":765,
			"type":"VEC2"
		},
		{
			"bufferView":9,
			"componentType":5121,
			"count":765,
			"normalized":true,
			"type":"VEC4"
		},
		{
			"bufferView":10,
			"componentType":5126,
			"count":765,
			"type":"VEC3"
		},
		{
			"bufferView":11,
			"componentType":5123,
			"count":1266,
			"type":"SCALAR"
		},
		{
			"bufferView":12,
			"componentType":5126,
			"count":572,
			"max":[
				255.97360229492188,
				729.1405029296875,
				40.84968185424805
			],
			"min":[
				-270.8724060058594,
				-50.073307037353516,
				-354.47796630859375
			],
			"type":"VEC3"
		},
		{
			"bufferView":13,
			"componentType":5126,
			"count":572,
			"type":"VEC3"
		},
		{
			"bufferView":14,
			"componentType":5126,
			"count":572,
			"type":"VEC2"
		},
		{
			"bufferView":15,
			"componentType":5121,
			"count":572,
			"normalized":true,
			"type":"VEC4"
		},
		{
			"bufferView":16,
			"componentType":5126,
			"count":572,
			"type":"VEC3"
		},
		{
			"bufferView":17,
			"componentType":5123,
			"count":888,
			"type":"SCALAR"
		},
		{
			"bufferView":18,
			"componentType":5126,
			"count":32,
			"max":[
				267.6768493652344,
				750.4345703125,
				44.337642669677734
			],
			"min":[
				-278.3239440917969,
				-58.972381591796875,
				-373.60296630859375
			],
			"type":"VEC3"
		},
		{
			"bufferView":19,
			"componentType":5126,
			"count":32,
			"type":"VEC3"
		},
		{
			"bufferView":20,
			"componentType":5126,
			"count":32,
			"type":"VEC2"
		},
		{
			"bufferView":21,
			"componentType":5121,
			"count":32,
			"normalized":true,
			"type":"VEC4"
		},
		{
			"bufferView":22,
			"componentType":5126,
			"count":32,
			"type":"VEC3"
		},
		{
			"bufferView":23,
			"componentType":5123,
			"count":48,
			"type":"SCALAR"
		}
	],
	"bufferViews":[
		{
			"buffer":0,
			"byteLength":12180,
			"byteOffset":0,
			"target":34962
		},
		{
			"buffer":0,
			"byteLength":12180,
			"byteOffset":12180,
			"target":34962
		},
		{
			"buffer":0,
			"byteLength":8120,
			"byteOffset":24360,
			"target":34962
		},
		{
			"buffer":0,
			"byteLength":4060,
			"byteOffset":32480,
			"target":34962
		},
		{
			"buffer":0,
			"byteLength":12180,
			"byteOffset":36540,
			"target":34962
		},
		{
			"buffer":0,
			"byteLength":3756,
			"byteOffset":48720,
			"target":34963
		},
		{
			"buffer":0,
			"byteLength":9180,
			"byteOffset":52476,
			"target":34962
		},
		{
			"buffer":0,
			"byteLength":9180,
			"byteOffset":61656,
			"target":34962
		},
		{
			"buffer":0,
			"byteLength":6120,
			"byteOffset":70836,
			"target":34962
		},
		{
			"buffer":0,
			"byteLength":3060,
			"byteOffset":76956,
			"target":34962
		},
		{
			"buffer":0,
			"byteLength":9180,
			"byteOffset":80016,
			"target":34962
		},
		{
			"buffer":0,
			"byteLength":2532,
			"byteOffset":89196,
			"target":34963
		},
		{
			"buffer":0,
			"byteLength":6864,
			"byteOffset":91728,
			"target":34962
		},
		{
			"buffer":0,
			"byteLength":6864,
			"byteOffset":98592,
			"target":34962
		},
		{
			"buffer":0,
			"byteLength":4576,
			"byteOffset":105456,
			"target":34962
		},
		{
			"buffer":0,
			"byteLength":2288,
			"byteOffset":110032,
			"target":34962
		},
		{
			"buffer":0,
			"byteLength":6864,
			"byteOffset":112320,
			"target":34962
		},
		{
			"buffer":0,
			"byteLength":1776,
			"byteOffset":119184,
			"target":34963
		},
		{
			"buffer":0,
			"byteLength":384,
			"byteOffset":120960,
			"target":34962
		},
		{
			"buffer":0,
			"byteLength":384,
			"byteOffset":121344,
			"target":34962
		},
		{
			"buffer":0,
			"byteLength":256,
			"byteOffset":121728,
			"target":34962
		},
		{
			"buffer":0,
			"byteLength":128,
			"byteOffset":121984,
			"target":34962
		},
		{
			"buffer":0,
			"byteLength":384,
			"byteOffset":122112,
			"target":34962
		},
		{
			"buffer":0,
			"byteLength":96,
			"byteOffset":122496,
			"target":34963
		}
	],
	"samplers":[
		{
			"magFilter":9729,
			"minFilter":9987
		}
	],
	"buffers":[
		{
			"byteLength":122592,
			"uri":"SM_Env_Tree_Palm_02.bin"
		}
	]
}
