{
	"asset":{
		"generator":"Khronos glTF Blender I/O v4.2.70",
		"version":"2.0"
	},
	"scene":0,
	"scenes":[
		{
			"name":"Scene",
			"nodes":[
				2
			]
		}
	],
	"nodes":[
		{
			"mesh":0,
			"name":"SM_Env_Fern_Part_03_LOD0"
		},
		{
			"mesh":1,
			"name":"SM_Env_Fern_Part_03_LOD1"
		},
		{
			"children":[
				0,
				1
			],
			"name":"SM_Env_Fern_Part_03",
			"rotation":[
				0.7071068286895752,
				0,
				0,
				0.7071068286895752
			],
			"scale":[
				0.009999999776482582,
				0.009999999776482582,
				0.009999999776482582
			]
		}
	],
	"materials":[
		{
			"doubleSided":true,
			"name":"Leaf11",
			"pbrMetallicRoughness":{
				"baseColorTexture":{
					"index":0
				},
				"metallicFactor":0,
				"roughnessFactor":0.5527864098548889
			}
		}
	],
	"meshes":[
		{
			"name":"Mesh",
			"primitives":[
				{
					"attributes":{
						"POSITION":0,
						"NORMAL":1,
						"TEXCOORD_0":2,
						"COLOR_0":3,
						"COLOR_1":4
					},
					"indices":5,
					"material":0
				}
			]
		},
		{
			"name":"Mesh.001",
			"primitives":[
				{
					"attributes":{
						"POSITION":6,
						"NORMAL":7,
						"TEXCOORD_0":8,
						"COLOR_0":9,
						"COLOR_1":10
					},
					"indices":11,
					"material":0
				}
			]
		}
	],
	"textures":[
		{
			"sampler":0,
			"source":0
		}
	],
	"images":[
		{
			"mimeType":"image/png",
			"name":"Gradient 2",
			"uri":"Gradient%202.png"
		}
	],
	"accessors":[
		{
			"bufferView":0,
			"componentType":5126,
			"count":125,
			"max":[
				103.8797607421875,
				151.07688903808594,
				20.409521102905273
			],
			"min":[
				-109.13452911376953,
				-45.307586669921875,
				-117.57494354248047
			],
			"type":"VEC3"
		},
		{
			"bufferView":1,
			"componentType":5126,
			"count":125,
			"type":"VEC3"
		},
		{
			"bufferView":2,
			"componentType":5126,
			"count":125,
			"type":"VEC2"
		},
		{
			"bufferView":3,
			"componentType":5121,
			"count":125,
			"normalized":true,
			"type":"VEC4"
		},
		{
			"bufferView":4,
			"componentType":5126,
			"count":125,
			"type":"VEC3"
		},
		{
			"bufferView":5,
			"componentType":5123,
			"count":234,
			"type":"SCALAR"
		},
		{
			"bufferView":6,
			"componentType":5126,
			"count":79,
			"max":[
				103.8797607421875,
				151.07688903808594,
				20.409521102905273
			],
			"min":[
				-109.13452911376953,
				-45.307586669921875,
				-113.19690704345703
			],
			"type":"VEC3"
		},
		{
			"bufferView":7,
			"componentType":5126,
			"count":79,
			"type":"VEC3"
		},
		{
			"bufferView":8,
			"componentType":5126,
			"count":79,
			"type":"VEC2"
		},
		{
			"bufferView":9,
			"componentType":5121,
			"count":79,
			"normalized":true,
			"type":"VEC4"
		},
		{
			"bufferView":10,
			"componentType":5126,
			"count":79,
			"type":"VEC3"
		},
		{
			"bufferView":11,
			"componentType":5123,
			"count":126,
			"type":"SCALAR"
		}
	],
	"bufferViews":[
		{
			"buffer":0,
			"byteLength":1500,
			"byteOffset":0,
			"target":34962
		},
		{
			"buffer":0,
			"byteLength":1500,
			"byteOffset":1500,
			"target":34962
		},
		{
			"buffer":0,
			"byteLength":1000,
			"byteOffset":3000,
			"target":34962
		},
		{
			"buffer":0,
			"byteLength":500,
			"byteOffset":4000,
			"target":34962
		},
		{
			"buffer":0,
			"byteLength":1500,
			"byteOffset":4500,
			"target":34962
		},
		{
			"buffer":0,
			"byteLength":468,
			"byteOffset":6000,
			"target":34963
		},
		{
			"buffer":0,
			"byteLength":948,
			"byteOffset":6468,
			"target":34962
		},
		{
			"buffer":0,
			"byteLength":948,
			"byteOffset":7416,
			"target":34962
		},
		{
			"buffer":0,
			"byteLength":632,
			"byteOffset":8364,
			"target":34962
		},
		{
			"buffer":0,
			"byteLength":316,
			"byteOffset":8996,
			"target":34962
		},
		{
			"buffer":0,
			"byteLength":948,
			"byteOffset":9312,
			"target":34962
		},
		{
			"buffer":0,
			"byteLength":252,
			"byteOffset":10260,
			"target":34963
		}
	],
	"samplers":[
		{
			"magFilter":9729,
			"minFilter":9987
		}
	],
	"buffers":[
		{
			"byteLength":10512,
			"uri":"SM_Env_Fern_Part_03.bin"
		}
	]
}
