{
	"asset":{
		"generator":"Khronos glTF Blender I/O v4.2.70",
		"version":"2.0"
	},
	"scene":0,
	"scenes":[
		{
			"name":"Scene",
			"nodes":[
				0
			]
		}
	],
	"nodes":[
		{
			"mesh":0,
			"name":"SM_Env_Rock_06",
			"rotation":[
				0.7071068286895752,
				0,
				0,
				0.7071068286895752
			],
			"scale":[
				0.009999999776482582,
				0.009999999776482582,
				0.009999999776482582
			]
		}
	],
	"materials":[
		{
			"doubleSided":true,
			"name":"Nature18",
			"pbrMetallicRoughness":{
				"metallicFactor":0,
				"roughnessFactor":0.5527864098548889
			}
		}
	],
	"meshes":[
		{
			"name":"Mesh",
			"primitives":[
				{
					"attributes":{
						"POSITION":0,
						"NORMAL":1,
						"TEXCOORD_0":2
					},
					"indices":3,
					"material":0
				}
			]
		}
	],
	"accessors":[
		{
			"bufferView":0,
			"componentType":5126,
			"count":1480,
			"max":[
				162.60302734375,
				165.535400390625,
				46.49993896484375
			],
			"min":[
				-161.4619140625,
				-153.51513671875,
				-431.26617431640625
			],
			"type":"VEC3"
		},
		{
			"bufferView":1,
			"componentType":5126,
			"count":1480,
			"type":"VEC3"
		},
		{
			"bufferView":2,
			"componentType":5126,
			"count":1480,
			"type":"VEC2"
		},
		{
			"bufferView":3,
			"componentType":5123,
			"count":1848,
			"type":"SCALAR"
		}
	],
	"bufferViews":[
		{
			"buffer":0,
			"byteLength":17760,
			"byteOffset":0,
			"target":34962
		},
		{
			"buffer":0,
			"byteLength":17760,
			"byteOffset":17760,
			"target":34962
		},
		{
			"buffer":0,
			"byteLength":11840,
			"byteOffset":35520,
			"target":34962
		},
		{
			"buffer":0,
			"byteLength":3696,
			"byteOffset":47360,
			"target":34963
		}
	],
	"buffers":[
		{
			"byteLength":51056,
			"uri":"SM_Env_Rock_06.bin"
		}
	]
}
