{
	"asset":{
		"generator":"Khronos glTF Blender I/O v4.2.70",
		"version":"2.0"
	},
	"scene":0,
	"scenes":[
		{
			"name":"Scene",
			"nodes":[
				3
			]
		}
	],
	"nodes":[
		{
			"mesh":0,
			"name":"SM_Env_Fern_01_LOD0"
		},
		{
			"mesh":1,
			"name":"SM_Env_Fern_01_LOD1"
		},
		{
			"mesh":2,
			"name":"SM_Env_Fern_01_LOD2"
		},
		{
			"children":[
				0,
				1,
				2
			],
			"name":"SM_Env_Fern_01",
			"rotation":[
				0.7071068286895752,
				0,
				0,
				0.7071068286895752
			],
			"scale":[
				0.009999999776482582,
				0.009999999776482582,
				0.009999999776482582
			]
		}
	],
	"materials":[
		{
			"doubleSided":true,
			"name":"Leaf8",
			"pbrMetallicRoughness":{
				"baseColorTexture":{
					"index":0
				},
				"metallicFactor":0,
				"roughnessFactor":0.5527864098548889
			}
		}
	],
	"meshes":[
		{
			"name":"Mesh",
			"primitives":[
				{
					"attributes":{
						"POSITION":0,
						"NORMAL":1,
						"TEXCOORD_0":2,
						"COLOR_0":3,
						"COLOR_1":4
					},
					"indices":5,
					"material":0
				}
			]
		},
		{
			"name":"Mesh.001",
			"primitives":[
				{
					"attributes":{
						"POSITION":6,
						"NORMAL":7,
						"TEXCOORD_0":8,
						"COLOR_0":9,
						"COLOR_1":10
					},
					"indices":11,
					"material":0
				}
			]
		},
		{
			"name":"Mesh.002",
			"primitives":[
				{
					"attributes":{
						"POSITION":12,
						"NORMAL":13,
						"TEXCOORD_0":14,
						"COLOR_0":15,
						"COLOR_1":16
					},
					"indices":17,
					"material":0
				}
			]
		}
	],
	"textures":[
		{
			"sampler":0,
			"source":0
		}
	],
	"images":[
		{
			"mimeType":"image/png",
			"name":"Gradient 2",
			"uri":"Gradient%202.png"
		}
	],
	"accessors":[
		{
			"bufferView":0,
			"componentType":5126,
			"count":468,
			"max":[
				140.93186950683594,
				127.33206939697266,
				19.73189353942871
			],
			"min":[
				-122.10453796386719,
				-114.35411071777344,
				-96.06623840332031
			],
			"type":"VEC3"
		},
		{
			"bufferView":1,
			"componentType":5126,
			"count":468,
			"type":"VEC3"
		},
		{
			"bufferView":2,
			"componentType":5126,
			"count":468,
			"type":"VEC2"
		},
		{
			"bufferView":3,
			"componentType":5121,
			"count":468,
			"normalized":true,
			"type":"VEC4"
		},
		{
			"bufferView":4,
			"componentType":5126,
			"count":468,
			"type":"VEC3"
		},
		{
			"bufferView":5,
			"componentType":5123,
			"count":858,
			"type":"SCALAR"
		},
		{
			"bufferView":6,
			"componentType":5126,
			"count":306,
			"max":[
				140.93186950683594,
				127.33206939697266,
				19.73189353942871
			],
			"min":[
				-122.10453796386719,
				-114.35411071777344,
				-95.42562103271484
			],
			"type":"VEC3"
		},
		{
			"bufferView":7,
			"componentType":5126,
			"count":306,
			"type":"VEC3"
		},
		{
			"bufferView":8,
			"componentType":5126,
			"count":306,
			"type":"VEC2"
		},
		{
			"bufferView":9,
			"componentType":5121,
			"count":306,
			"normalized":true,
			"type":"VEC4"
		},
		{
			"bufferView":10,
			"componentType":5126,
			"count":306,
			"type":"VEC3"
		},
		{
			"bufferView":11,
			"componentType":5123,
			"count":462,
			"type":"SCALAR"
		},
		{
			"bufferView":12,
			"componentType":5126,
			"count":219,
			"max":[
				140.93186950683594,
				127.33206939697266,
				19.73189353942871
			],
			"min":[
				-122.10453796386719,
				-114.35411071777344,
				-95.42562103271484
			],
			"type":"VEC3"
		},
		{
			"bufferView":13,
			"componentType":5126,
			"count":219,
			"type":"VEC3"
		},
		{
			"bufferView":14,
			"componentType":5126,
			"count":219,
			"type":"VEC2"
		},
		{
			"bufferView":15,
			"componentType":5121,
			"count":219,
			"normalized":true,
			"type":"VEC4"
		},
		{
			"bufferView":16,
			"componentType":5126,
			"count":219,
			"type":"VEC3"
		},
		{
			"bufferView":17,
			"componentType":5123,
			"count":330,
			"type":"SCALAR"
		}
	],
	"bufferViews":[
		{
			"buffer":0,
			"byteLength":5616,
			"byteOffset":0,
			"target":34962
		},
		{
			"buffer":0,
			"byteLength":5616,
			"byteOffset":5616,
			"target":34962
		},
		{
			"buffer":0,
			"byteLength":3744,
			"byteOffset":11232,
			"target":34962
		},
		{
			"buffer":0,
			"byteLength":1872,
			"byteOffset":14976,
			"target":34962
		},
		{
			"buffer":0,
			"byteLength":5616,
			"byteOffset":16848,
			"target":34962
		},
		{
			"buffer":0,
			"byteLength":1716,
			"byteOffset":22464,
			"target":34963
		},
		{
			"buffer":0,
			"byteLength":3672,
			"byteOffset":24180,
			"target":34962
		},
		{
			"buffer":0,
			"byteLength":3672,
			"byteOffset":27852,
			"target":34962
		},
		{
			"buffer":0,
			"byteLength":2448,
			"byteOffset":31524,
			"target":34962
		},
		{
			"buffer":0,
			"byteLength":1224,
			"byteOffset":33972,
			"target":34962
		},
		{
			"buffer":0,
			"byteLength":3672,
			"byteOffset":35196,
			"target":34962
		},
		{
			"buffer":0,
			"byteLength":924,
			"byteOffset":38868,
			"target":34963
		},
		{
			"buffer":0,
			"byteLength":2628,
			"byteOffset":39792,
			"target":34962
		},
		{
			"buffer":0,
			"byteLength":2628,
			"byteOffset":42420,
			"target":34962
		},
		{
			"buffer":0,
			"byteLength":1752,
			"byteOffset":45048,
			"target":34962
		},
		{
			"buffer":0,
			"byteLength":876,
			"byteOffset":46800,
			"target":34962
		},
		{
			"buffer":0,
			"byteLength":2628,
			"byteOffset":47676,
			"target":34962
		},
		{
			"buffer":0,
			"byteLength":660,
			"byteOffset":50304,
			"target":34963
		}
	],
	"samplers":[
		{
			"magFilter":9729,
			"minFilter":9987
		}
	],
	"buffers":[
		{
			"byteLength":50964,
			"uri":"SM_Env_Fern_01.bin"
		}
	]
}
