{
	"asset":{
		"generator":"Khronos glTF Blender I/O v4.2.70",
		"version":"2.0"
	},
	"scene":0,
	"scenes":[
		{
			"name":"Scene",
			"nodes":[
				3
			]
		}
	],
	"nodes":[
		{
			"mesh":0,
			"name":"SM_Env_Bush_Tropical_04_Branches_LOD0"
		},
		{
			"mesh":1,
			"name":"SM_Env_Bush_Tropical_04_Leaves_LOD0"
		},
		{
			"mesh":2,
			"name":"SM_Env_Bush_Tropical_04_Leaves_LOD1"
		},
		{
			"children":[
				0,
				1,
				2
			],
			"name":"SM_Env_Bush_Tropical_04",
			"rotation":[
				0.7071068286895752,
				0,
				0,
				0.7071068286895752
			],
			"scale":[
				0.009999999776482582,
				0.009999999776482582,
				0.009999999776482582
			]
		}
	],
	"materials":[
		{
			"alphaMode":"BLEND",
			"doubleSided":true,
			"name":"tomTreeGeneric_04:Base_Tree_Branches1",
			"pbrMetallicRoughness":{
				"baseColorTexture":{
					"index":0
				},
				"metallicFactor":0,
				"roughnessFactor":0.5527864098548889
			}
		},
		{
			"alphaMode":"BLEND",
			"doubleSided":true,
			"name":"pasted__lambert15",
			"pbrMetallicRoughness":{
				"baseColorTexture":{
					"index":1
				},
				"metallicFactor":0,
				"roughnessFactor":0.5527864098548889
			}
		}
	],
	"meshes":[
		{
			"name":"Mesh",
			"primitives":[
				{
					"attributes":{
						"POSITION":0,
						"NORMAL":1,
						"TEXCOORD_0":2,
						"COLOR_0":3,
						"COLOR_1":4
					},
					"indices":5,
					"material":0
				}
			]
		},
		{
			"name":"Mesh.001",
			"primitives":[
				{
					"attributes":{
						"POSITION":6,
						"NORMAL":7,
						"TEXCOORD_0":8,
						"COLOR_0":9,
						"COLOR_1":10
					},
					"indices":11,
					"material":1
				}
			]
		},
		{
			"name":"Mesh.002",
			"primitives":[
				{
					"attributes":{
						"POSITION":12,
						"NORMAL":13,
						"TEXCOORD_0":14,
						"COLOR_0":15,
						"COLOR_1":16
					},
					"indices":17,
					"material":1
				}
			]
		}
	],
	"textures":[
		{
			"sampler":0,
			"source":0
		},
		{
			"sampler":0,
			"source":0
		}
	],
	"images":[
		{
			"mimeType":"image/png",
			"name":"Branches_01",
			"uri":"Branches_01.png"
		}
	],
	"accessors":[
		{
			"bufferView":0,
			"componentType":5126,
			"count":144,
			"max":[
				249.64712524414062,
				247.99844360351562,
				25.54431915283203
			],
			"min":[
				-283.97113037109375,
				-235.31442260742188,
				-166.71751403808594
			],
			"type":"VEC3"
		},
		{
			"bufferView":1,
			"componentType":5126,
			"count":144,
			"type":"VEC3"
		},
		{
			"bufferView":2,
			"componentType":5126,
			"count":144,
			"type":"VEC2"
		},
		{
			"bufferView":3,
			"componentType":5121,
			"count":144,
			"normalized":true,
			"type":"VEC4"
		},
		{
			"bufferView":4,
			"componentType":5126,
			"count":144,
			"type":"VEC3"
		},
		{
			"bufferView":5,
			"componentType":5123,
			"count":288,
			"type":"SCALAR"
		},
		{
			"bufferView":6,
			"componentType":5126,
			"count":18905,
			"max":[
				405.3613586425781,
				319.8915100097656,
				54.24958038330078
			],
			"min":[
				-371.45477294921875,
				-341.44793701171875,
				-216.41290283203125
			],
			"type":"VEC3"
		},
		{
			"bufferView":7,
			"componentType":5126,
			"count":18905,
			"type":"VEC3"
		},
		{
			"bufferView":8,
			"componentType":5126,
			"count":18905,
			"type":"VEC2"
		},
		{
			"bufferView":9,
			"componentType":5121,
			"count":18905,
			"normalized":true,
			"type":"VEC4"
		},
		{
			"bufferView":10,
			"componentType":5126,
			"count":18905,
			"type":"VEC3"
		},
		{
			"bufferView":11,
			"componentType":5123,
			"count":23880,
			"type":"SCALAR"
		},
		{
			"bufferView":12,
			"componentType":5126,
			"count":10945,
			"max":[
				390.4437255859375,
				319.85589599609375,
				56.867515563964844
			],
			"min":[
				-363.8793640136719,
				-341.1808776855469,
				-193.0199432373047
			],
			"type":"VEC3"
		},
		{
			"bufferView":13,
			"componentType":5126,
			"count":10945,
			"type":"VEC3"
		},
		{
			"bufferView":14,
			"componentType":5126,
			"count":10945,
			"type":"VEC2"
		},
		{
			"bufferView":15,
			"componentType":5121,
			"count":10945,
			"normalized":true,
			"type":"VEC4"
		},
		{
			"bufferView":16,
			"componentType":5126,
			"count":10945,
			"type":"VEC3"
		},
		{
			"bufferView":17,
			"componentType":5123,
			"count":11940,
			"type":"SCALAR"
		}
	],
	"bufferViews":[
		{
			"buffer":0,
			"byteLength":1728,
			"byteOffset":0,
			"target":34962
		},
		{
			"buffer":0,
			"byteLength":1728,
			"byteOffset":1728,
			"target":34962
		},
		{
			"buffer":0,
			"byteLength":1152,
			"byteOffset":3456,
			"target":34962
		},
		{
			"buffer":0,
			"byteLength":576,
			"byteOffset":4608,
			"target":34962
		},
		{
			"buffer":0,
			"byteLength":1728,
			"byteOffset":5184,
			"target":34962
		},
		{
			"buffer":0,
			"byteLength":576,
			"byteOffset":6912,
			"target":34963
		},
		{
			"buffer":0,
			"byteLength":226860,
			"byteOffset":7488,
			"target":34962
		},
		{
			"buffer":0,
			"byteLength":226860,
			"byteOffset":234348,
			"target":34962
		},
		{
			"buffer":0,
			"byteLength":151240,
			"byteOffset":461208,
			"target":34962
		},
		{
			"buffer":0,
			"byteLength":75620,
			"byteOffset":612448,
			"target":34962
		},
		{
			"buffer":0,
			"byteLength":226860,
			"byteOffset":688068,
			"target":34962
		},
		{
			"buffer":0,
			"byteLength":47760,
			"byteOffset":914928,
			"target":34963
		},
		{
			"buffer":0,
			"byteLength":131340,
			"byteOffset":962688,
			"target":34962
		},
		{
			"buffer":0,
			"byteLength":131340,
			"byteOffset":1094028,
			"target":34962
		},
		{
			"buffer":0,
			"byteLength":87560,
			"byteOffset":1225368,
			"target":34962
		},
		{
			"buffer":0,
			"byteLength":43780,
			"byteOffset":1312928,
			"target":34962
		},
		{
			"buffer":0,
			"byteLength":131340,
			"byteOffset":1356708,
			"target":34962
		},
		{
			"buffer":0,
			"byteLength":23880,
			"byteOffset":1488048,
			"target":34963
		}
	],
	"samplers":[
		{
			"magFilter":9729,
			"minFilter":9987
		}
	],
	"buffers":[
		{
			"byteLength":1511928,
			"uri":"SM_Env_Bush_Tropical_04.bin"
		}
	]
}
