{
	"asset":{
		"generator":"Khronos glTF Blender I/O v4.2.70",
		"version":"2.0"
	},
	"scene":0,
	"scenes":[
		{
			"name":"Scene",
			"nodes":[
				2
			]
		}
	],
	"nodes":[
		{
			"mesh":0,
			"name":"SM_Env_Bush_Tropical_02_LOD0"
		},
		{
			"mesh":1,
			"name":"SM_Env_Bush_Tropical_02_LOD1"
		},
		{
			"children":[
				0,
				1
			],
			"name":"SM_Env_Bush_Tropical_02",
			"rotation":[
				0.7071068286895752,
				0,
				0,
				0.7071068286895752
			],
			"scale":[
				0.009999999776482582,
				0.009999999776482582,
				0.009999999776482582
			]
		}
	],
	"materials":[
		{
			"doubleSided":true,
			"name":"lambert12",
			"pbrMetallicRoughness":{
				"baseColorTexture":{
					"index":0
				},
				"metallicFactor":0,
				"roughnessFactor":0.5527864098548889
			}
		}
	],
	"meshes":[
		{
			"name":"Mesh",
			"primitives":[
				{
					"attributes":{
						"POSITION":0,
						"NORMAL":1,
						"TEXCOORD_0":2,
						"COLOR_0":3,
						"COLOR_1":4
					},
					"indices":5,
					"material":0
				}
			]
		},
		{
			"name":"Mesh.001",
			"primitives":[
				{
					"attributes":{
						"POSITION":6,
						"NORMAL":7,
						"TEXCOORD_0":8,
						"COLOR_0":9,
						"COLOR_1":10
					},
					"indices":11,
					"material":0
				}
			]
		}
	],
	"textures":[
		{
			"sampler":0,
			"source":0
		}
	],
	"images":[
		{
			"mimeType":"image/png",
			"name":"Gradient_Biolumin_01",
			"uri":"Gradient_Biolumin_01.png"
		}
	],
	"accessors":[
		{
			"bufferView":0,
			"componentType":5126,
			"count":6918,
			"max":[
				191.1924285888672,
				161.15582275390625,
				11.130845069885254
			],
			"min":[
				-167.2058563232422,
				-142.58253479003906,
				-199.67269897460938
			],
			"type":"VEC3"
		},
		{
			"bufferView":1,
			"componentType":5126,
			"count":6918,
			"type":"VEC3"
		},
		{
			"bufferView":2,
			"componentType":5126,
			"count":6918,
			"type":"VEC2"
		},
		{
			"bufferView":3,
			"componentType":5121,
			"count":6918,
			"normalized":true,
			"type":"VEC4"
		},
		{
			"bufferView":4,
			"componentType":5126,
			"count":6918,
			"type":"VEC3"
		},
		{
			"bufferView":5,
			"componentType":5123,
			"count":11844,
			"type":"SCALAR"
		},
		{
			"bufferView":6,
			"componentType":5126,
			"count":4571,
			"max":[
				183.1669158935547,
				151.44931030273438,
				12.487800598144531
			],
			"min":[
				-155.16217041015625,
				-132.686767578125,
				-185.90805053710938
			],
			"type":"VEC3"
		},
		{
			"bufferView":7,
			"componentType":5126,
			"count":4571,
			"type":"VEC3"
		},
		{
			"bufferView":8,
			"componentType":5126,
			"count":4571,
			"type":"VEC2"
		},
		{
			"bufferView":9,
			"componentType":5121,
			"count":4571,
			"normalized":true,
			"type":"VEC4"
		},
		{
			"bufferView":10,
			"componentType":5126,
			"count":4571,
			"type":"VEC3"
		},
		{
			"bufferView":11,
			"componentType":5123,
			"count":7140,
			"type":"SCALAR"
		}
	],
	"bufferViews":[
		{
			"buffer":0,
			"byteLength":83016,
			"byteOffset":0,
			"target":34962
		},
		{
			"buffer":0,
			"byteLength":83016,
			"byteOffset":83016,
			"target":34962
		},
		{
			"buffer":0,
			"byteLength":55344,
			"byteOffset":166032,
			"target":34962
		},
		{
			"buffer":0,
			"byteLength":27672,
			"byteOffset":221376,
			"target":34962
		},
		{
			"buffer":0,
			"byteLength":83016,
			"byteOffset":249048,
			"target":34962
		},
		{
			"buffer":0,
			"byteLength":23688,
			"byteOffset":332064,
			"target":34963
		},
		{
			"buffer":0,
			"byteLength":54852,
			"byteOffset":355752,
			"target":34962
		},
		{
			"buffer":0,
			"byteLength":54852,
			"byteOffset":410604,
			"target":34962
		},
		{
			"buffer":0,
			"byteLength":36568,
			"byteOffset":465456,
			"target":34962
		},
		{
			"buffer":0,
			"byteLength":18284,
			"byteOffset":502024,
			"target":34962
		},
		{
			"buffer":0,
			"byteLength":54852,
			"byteOffset":520308,
			"target":34962
		},
		{
			"buffer":0,
			"byteLength":14280,
			"byteOffset":575160,
			"target":34963
		}
	],
	"samplers":[
		{
			"magFilter":9729,
			"minFilter":9987
		}
	],
	"buffers":[
		{
			"byteLength":589440,
			"uri":"SM_Env_Bush_Tropical_02.bin"
		}
	]
}
