{
	"asset":{
		"generator":"Khronos glTF Blender I/O v4.2.70",
		"version":"2.0"
	},
	"scene":0,
	"scenes":[
		{
			"name":"Scene",
			"nodes":[
				0
			]
		}
	],
	"nodes":[
		{
			"mesh":0,
			"name":"SM_Env_Rock_Pile_05",
			"rotation":[
				0.7071068286895752,
				0,
				0,
				0.7071068286895752
			],
			"scale":[
				0.009999999776482582,
				0.009999999776482582,
				0.009999999776482582
			]
		}
	],
	"materials":[
		{
			"doubleSided":true,
			"name":"Nature31",
			"pbrMetallicRoughness":{
				"metallicFactor":0,
				"roughnessFactor":0.5527864098548889
			}
		}
	],
	"meshes":[
		{
			"name":"Mesh",
			"primitives":[
				{
					"attributes":{
						"POSITION":0,
						"NORMAL":1,
						"TEXCOORD_0":2
					},
					"indices":3,
					"material":0
				}
			]
		}
	],
	"accessors":[
		{
			"bufferView":0,
			"componentType":5126,
			"count":1441,
			"max":[
				235.427734375,
				177.408203125,
				35.9462890625
			],
			"min":[
				-244.84619140625,
				-186.33544921875,
				-257.2239685058594
			],
			"type":"VEC3"
		},
		{
			"bufferView":1,
			"componentType":5126,
			"count":1441,
			"type":"VEC3"
		},
		{
			"bufferView":2,
			"componentType":5126,
			"count":1441,
			"type":"VEC2"
		},
		{
			"bufferView":3,
			"componentType":5123,
			"count":1866,
			"type":"SCALAR"
		}
	],
	"bufferViews":[
		{
			"buffer":0,
			"byteLength":17292,
			"byteOffset":0,
			"target":34962
		},
		{
			"buffer":0,
			"byteLength":17292,
			"byteOffset":17292,
			"target":34962
		},
		{
			"buffer":0,
			"byteLength":11528,
			"byteOffset":34584,
			"target":34962
		},
		{
			"buffer":0,
			"byteLength":3732,
			"byteOffset":46112,
			"target":34963
		}
	],
	"buffers":[
		{
			"byteLength":49844,
			"uri":"SM_Env_Rock_Pile_05.bin"
		}
	]
}
