{
	"asset":{
		"generator":"Khronos glTF Blender I/O v4.2.70",
		"version":"2.0"
	},
	"scene":0,
	"scenes":[
		{
			"name":"Scene",
			"nodes":[
				0
			]
		}
	],
	"nodes":[
		{
			"mesh":0,
			"name":"SM_Env_Cloud_Ring_02",
			"rotation":[
				0.7071068286895752,
				0,
				0,
				0.7071068286895752
			],
			"scale":[
				0.009999999776482582,
				0.009999999776482582,
				0.009999999776482582
			]
		}
	],
	"materials":[
		{
			"doubleSided":true,
			"name":"NatureSHD",
			"pbrMetallicRoughness":{
				"metallicFactor":0,
				"roughnessFactor":0.5527864098548889
			}
		}
	],
	"meshes":[
		{
			"name":"Mesh",
			"primitives":[
				{
					"attributes":{
						"POSITION":0,
						"NORMAL":1,
						"TEXCOORD_0":2
					},
					"indices":3,
					"material":0
				}
			]
		}
	],
	"accessors":[
		{
			"bufferView":0,
			"componentType":5126,
			"count":21226,
			"max":[
				15097.7900390625,
				14180.0712890625,
				-37.66188430786133
			],
			"min":[
				-15929.015625,
				-15358.8271484375,
				-5479.59228515625
			],
			"type":"VEC3"
		},
		{
			"bufferView":1,
			"componentType":5126,
			"count":21226,
			"type":"VEC3"
		},
		{
			"bufferView":2,
			"componentType":5126,
			"count":21226,
			"type":"VEC2"
		},
		{
			"bufferView":3,
			"componentType":5123,
			"count":55668,
			"type":"SCALAR"
		}
	],
	"bufferViews":[
		{
			"buffer":0,
			"byteLength":254712,
			"byteOffset":0,
			"target":34962
		},
		{
			"buffer":0,
			"byteLength":254712,
			"byteOffset":254712,
			"target":34962
		},
		{
			"buffer":0,
			"byteLength":169808,
			"byteOffset":509424,
			"target":34962
		},
		{
			"buffer":0,
			"byteLength":111336,
			"byteOffset":679232,
			"target":34963
		}
	],
	"buffers":[
		{
			"byteLength":790568,
			"uri":"SM_Env_Cloud_Ring_02.bin"
		}
	]
}
