{
	"asset":{
		"generator":"Khronos glTF Blender I/O v4.2.70",
		"version":"2.0"
	},
	"scene":0,
	"scenes":[
		{
			"name":"Scene",
			"nodes":[
				0
			]
		}
	],
	"nodes":[
		{
			"mesh":0,
			"name":"SM_Env_Creeper_Vine_01",
			"rotation":[
				0.7071068286895752,
				0,
				0,
				0.7071068286895752
			],
			"scale":[
				0.009999999776482582,
				0.009999999776482582,
				0.009999999776482582
			]
		}
	],
	"materials":[
		{
			"alphaMode":"BLEND",
			"doubleSided":true,
			"name":"lambert14",
			"pbrMetallicRoughness":{
				"metallicFactor":0,
				"roughnessFactor":0.5527864098548889
			}
		}
	],
	"meshes":[
		{
			"name":"Mesh",
			"primitives":[
				{
					"attributes":{
						"POSITION":0,
						"NORMAL":1,
						"TEXCOORD_0":2
					},
					"indices":3,
					"material":0
				}
			]
		}
	],
	"accessors":[
		{
			"bufferView":0,
			"componentType":5126,
			"count":382,
			"max":[
				21.101154327392578,
				292.26763916015625,
				0.9210748672485352
			],
			"min":[
				-28.497783660888672,
				-1.441572904586792,
				-16.585039138793945
			],
			"type":"VEC3"
		},
		{
			"bufferView":1,
			"componentType":5126,
			"count":382,
			"type":"VEC3"
		},
		{
			"bufferView":2,
			"componentType":5126,
			"count":382,
			"type":"VEC2"
		},
		{
			"bufferView":3,
			"componentType":5123,
			"count":552,
			"type":"SCALAR"
		}
	],
	"bufferViews":[
		{
			"buffer":0,
			"byteLength":4584,
			"byteOffset":0,
			"target":34962
		},
		{
			"buffer":0,
			"byteLength":4584,
			"byteOffset":4584,
			"target":34962
		},
		{
			"buffer":0,
			"byteLength":3056,
			"byteOffset":9168,
			"target":34962
		},
		{
			"buffer":0,
			"byteLength":1104,
			"byteOffset":12224,
			"target":34963
		}
	],
	"buffers":[
		{
			"byteLength":13328,
			"uri":"SM_Env_Creeper_Vine_01.bin"
		}
	]
}
