{
	"asset":{
		"generator":"Khronos glTF Blender I/O v4.2.70",
		"version":"2.0"
	},
	"scene":0,
	"scenes":[
		{
			"name":"Scene",
			"nodes":[
				0
			]
		}
	],
	"nodes":[
		{
			"mesh":0,
			"name":"SM_Env_Monolith_01",
			"rotation":[
				0.7071068286895752,
				0,
				0,
				0.7071068286895752
			],
			"scale":[
				0.009999999776482582,
				0.009999999776482582,
				0.009999999776482582
			]
		}
	],
	"materials":[
		{
			"doubleSided":true,
			"name":"Nature12",
			"pbrMetallicRoughness":{
				"baseColorTexture":{
					"index":0
				},
				"metallicFactor":0,
				"roughnessFactor":0.5527864098548889
			}
		}
	],
	"meshes":[
		{
			"name":"Mesh",
			"primitives":[
				{
					"attributes":{
						"POSITION":0,
						"NORMAL":1,
						"TEXCOORD_0":2
					},
					"indices":3,
					"material":0
				}
			]
		}
	],
	"textures":[
		{
			"sampler":0,
			"source":0
		}
	],
	"images":[
		{
			"mimeType":"image/png",
			"name":"PolygonNatureBiomes_Tropical_Texture_01",
			"uri":"PolygonNatureBiomes_Tropical_Texture_01.png"
		}
	],
	"accessors":[
		{
			"bufferView":0,
			"componentType":5126,
			"count":7944,
			"max":[
				189.86090087890625,
				189.8267822265625,
				0
			],
			"min":[
				-189.86090087890625,
				-189.8267822265625,
				-832.2752685546875
			],
			"type":"VEC3"
		},
		{
			"bufferView":1,
			"componentType":5126,
			"count":7944,
			"type":"VEC3"
		},
		{
			"bufferView":2,
			"componentType":5126,
			"count":7944,
			"type":"VEC2"
		},
		{
			"bufferView":3,
			"componentType":5123,
			"count":7962,
			"type":"SCALAR"
		}
	],
	"bufferViews":[
		{
			"buffer":0,
			"byteLength":95328,
			"byteOffset":0,
			"target":34962
		},
		{
			"buffer":0,
			"byteLength":95328,
			"byteOffset":95328,
			"target":34962
		},
		{
			"buffer":0,
			"byteLength":63552,
			"byteOffset":190656,
			"target":34962
		},
		{
			"buffer":0,
			"byteLength":15924,
			"byteOffset":254208,
			"target":34963
		}
	],
	"samplers":[
		{
			"magFilter":9729,
			"minFilter":9987
		}
	],
	"buffers":[
		{
			"byteLength":270132,
			"uri":"SM_Env_Monolith_01.bin"
		}
	]
}
