{
	"asset":{
		"generator":"Khronos glTF Blender I/O v4.2.70",
		"version":"2.0"
	},
	"scene":0,
	"scenes":[
		{
			"name":"Scene",
			"nodes":[
				0
			]
		}
	],
	"nodes":[
		{
			"mesh":0,
			"name":"SM_Env_Rock_Spikes_01",
			"rotation":[
				0.7071068286895752,
				0,
				0,
				0.7071068286895752
			],
			"scale":[
				0.009999999776482582,
				0.009999999776482582,
				0.009999999776482582
			]
		}
	],
	"materials":[
		{
			"doubleSided":true,
			"name":"Nature40",
			"pbrMetallicRoughness":{
				"metallicFactor":0,
				"roughnessFactor":0.5527864098548889
			}
		}
	],
	"meshes":[
		{
			"name":"Mesh",
			"primitives":[
				{
					"attributes":{
						"POSITION":0,
						"NORMAL":1,
						"TEXCOORD_0":2
					},
					"indices":3,
					"material":0
				}
			]
		}
	],
	"accessors":[
		{
			"bufferView":0,
			"componentType":5126,
			"count":3023,
			"max":[
				473.3916015625,
				404.00537109375,
				152.49774169921875
			],
			"min":[
				-482.81005859375,
				-412.9326171875,
				-653.8530883789062
			],
			"type":"VEC3"
		},
		{
			"bufferView":1,
			"componentType":5126,
			"count":3023,
			"type":"VEC3"
		},
		{
			"bufferView":2,
			"componentType":5126,
			"count":3023,
			"type":"VEC2"
		},
		{
			"bufferView":3,
			"componentType":5123,
			"count":4032,
			"type":"SCALAR"
		}
	],
	"bufferViews":[
		{
			"buffer":0,
			"byteLength":36276,
			"byteOffset":0,
			"target":34962
		},
		{
			"buffer":0,
			"byteLength":36276,
			"byteOffset":36276,
			"target":34962
		},
		{
			"buffer":0,
			"byteLength":24184,
			"byteOffset":72552,
			"target":34962
		},
		{
			"buffer":0,
			"byteLength":8064,
			"byteOffset":96736,
			"target":34963
		}
	],
	"buffers":[
		{
			"byteLength":104800,
			"uri":"SM_Env_Rock_Spikes_01.bin"
		}
	]
}
