{
	"asset":{
		"generator":"Khronos glTF Blender I/O v4.2.70",
		"version":"2.0"
	},
	"scene":0,
	"scenes":[
		{
			"name":"Scene",
			"nodes":[
				3
			]
		}
	],
	"nodes":[
		{
			"mesh":0,
			"name":"SM_Env_Flowers_05_LOD0"
		},
		{
			"mesh":1,
			"name":"SM_Env_Flowers_05_LOD1"
		},
		{
			"mesh":2,
			"name":"SM_Env_Flowers_05_LOD2"
		},
		{
			"children":[
				0,
				1,
				2
			],
			"name":"SM_Env_Flowers_05",
			"rotation":[
				0.7071068286895752,
				0,
				0,
				0.7071068286895752
			],
			"scale":[
				0.009999999776482582,
				0.009999999776482582,
				0.009999999776482582
			]
		}
	],
	"materials":[
		{
			"doubleSided":true,
			"name":"Nature11",
			"pbrMetallicRoughness":{
				"baseColorTexture":{
					"index":0
				},
				"metallicFactor":0,
				"roughnessFactor":0.5527864098548889
			}
		}
	],
	"meshes":[
		{
			"name":"Mesh",
			"primitives":[
				{
					"attributes":{
						"POSITION":0,
						"NORMAL":1,
						"TEXCOORD_0":2,
						"COLOR_0":3,
						"COLOR_1":4
					},
					"indices":5,
					"material":0
				}
			]
		},
		{
			"name":"Mesh.001",
			"primitives":[
				{
					"attributes":{
						"POSITION":6,
						"NORMAL":7,
						"TEXCOORD_0":8,
						"COLOR_0":9,
						"COLOR_1":10
					},
					"indices":11,
					"material":0
				}
			]
		},
		{
			"name":"Mesh.002",
			"primitives":[
				{
					"attributes":{
						"POSITION":12,
						"NORMAL":13,
						"TEXCOORD_0":14,
						"COLOR_0":15,
						"COLOR_1":16
					},
					"indices":17,
					"material":0
				}
			]
		}
	],
	"textures":[
		{
			"sampler":0,
			"source":0
		}
	],
	"images":[
		{
			"mimeType":"image/png",
			"name":"PolygonNatureBiomes_Tropical_Texture_01",
			"uri":"PolygonNatureBiomes_Tropical_Texture_01.png"
		}
	],
	"accessors":[
		{
			"bufferView":0,
			"componentType":5126,
			"count":1947,
			"max":[
				37.6125373840332,
				40.70951843261719,
				11.855825424194336
			],
			"min":[
				-33.719234466552734,
				-44.34908676147461,
				-166.27943420410156
			],
			"type":"VEC3"
		},
		{
			"bufferView":1,
			"componentType":5126,
			"count":1947,
			"type":"VEC3"
		},
		{
			"bufferView":2,
			"componentType":5126,
			"count":1947,
			"type":"VEC2"
		},
		{
			"bufferView":3,
			"componentType":5121,
			"count":1947,
			"normalized":true,
			"type":"VEC4"
		},
		{
			"bufferView":4,
			"componentType":5126,
			"count":1947,
			"type":"VEC3"
		},
		{
			"bufferView":5,
			"componentType":5123,
			"count":3408,
			"type":"SCALAR"
		},
		{
			"bufferView":6,
			"componentType":5126,
			"count":898,
			"max":[
				37.6125373840332,
				40.70951843261719,
				11.855825424194336
			],
			"min":[
				-33.719234466552734,
				-44.34908676147461,
				-166.27943420410156
			],
			"type":"VEC3"
		},
		{
			"bufferView":7,
			"componentType":5126,
			"count":898,
			"type":"VEC3"
		},
		{
			"bufferView":8,
			"componentType":5126,
			"count":898,
			"type":"VEC2"
		},
		{
			"bufferView":9,
			"componentType":5121,
			"count":898,
			"normalized":true,
			"type":"VEC4"
		},
		{
			"bufferView":10,
			"componentType":5126,
			"count":898,
			"type":"VEC3"
		},
		{
			"bufferView":11,
			"componentType":5123,
			"count":1392,
			"type":"SCALAR"
		},
		{
			"bufferView":12,
			"componentType":5126,
			"count":632,
			"max":[
				37.6125373840332,
				40.70951843261719,
				11.855825424194336
			],
			"min":[
				-33.719234466552734,
				-44.34908676147461,
				-166.27943420410156
			],
			"type":"VEC3"
		},
		{
			"bufferView":13,
			"componentType":5126,
			"count":632,
			"type":"VEC3"
		},
		{
			"bufferView":14,
			"componentType":5126,
			"count":632,
			"type":"VEC2"
		},
		{
			"bufferView":15,
			"componentType":5121,
			"count":632,
			"normalized":true,
			"type":"VEC4"
		},
		{
			"bufferView":16,
			"componentType":5126,
			"count":632,
			"type":"VEC3"
		},
		{
			"bufferView":17,
			"componentType":5123,
			"count":912,
			"type":"SCALAR"
		}
	],
	"bufferViews":[
		{
			"buffer":0,
			"byteLength":23364,
			"byteOffset":0,
			"target":34962
		},
		{
			"buffer":0,
			"byteLength":23364,
			"byteOffset":23364,
			"target":34962
		},
		{
			"buffer":0,
			"byteLength":15576,
			"byteOffset":46728,
			"target":34962
		},
		{
			"buffer":0,
			"byteLength":7788,
			"byteOffset":62304,
			"target":34962
		},
		{
			"buffer":0,
			"byteLength":23364,
			"byteOffset":70092,
			"target":34962
		},
		{
			"buffer":0,
			"byteLength":6816,
			"byteOffset":93456,
			"target":34963
		},
		{
			"buffer":0,
			"byteLength":10776,
			"byteOffset":100272,
			"target":34962
		},
		{
			"buffer":0,
			"byteLength":10776,
			"byteOffset":111048,
			"target":34962
		},
		{
			"buffer":0,
			"byteLength":7184,
			"byteOffset":121824,
			"target":34962
		},
		{
			"buffer":0,
			"byteLength":3592,
			"byteOffset":129008,
			"target":34962
		},
		{
			"buffer":0,
			"byteLength":10776,
			"byteOffset":132600,
			"target":34962
		},
		{
			"buffer":0,
			"byteLength":2784,
			"byteOffset":143376,
			"target":34963
		},
		{
			"buffer":0,
			"byteLength":7584,
			"byteOffset":146160,
			"target":34962
		},
		{
			"buffer":0,
			"byteLength":7584,
			"byteOffset":153744,
			"target":34962
		},
		{
			"buffer":0,
			"byteLength":5056,
			"byteOffset":161328,
			"target":34962
		},
		{
			"buffer":0,
			"byteLength":2528,
			"byteOffset":166384,
			"target":34962
		},
		{
			"buffer":0,
			"byteLength":7584,
			"byteOffset":168912,
			"target":34962
		},
		{
			"buffer":0,
			"byteLength":1824,
			"byteOffset":176496,
			"target":34963
		}
	],
	"samplers":[
		{
			"magFilter":9729,
			"minFilter":9987
		}
	],
	"buffers":[
		{
			"byteLength":178320,
			"uri":"SM_Env_Flowers_05.bin"
		}
	]
}
