{
	"asset":{
		"generator":"Khronos glTF Blender I/O v4.2.70",
		"version":"2.0"
	},
	"scene":0,
	"scenes":[
		{
			"name":"Scene",
			"nodes":[
				3
			]
		}
	],
	"nodes":[
		{
			"mesh":0,
			"name":"SM_Env_Tree_Banana_02_LOD0"
		},
		{
			"mesh":1,
			"name":"SM_Env_Tree_Banana_02_LOD1"
		},
		{
			"mesh":2,
			"name":"SM_Env_Tree_Banana_02_LOD2"
		},
		{
			"children":[
				0,
				1,
				2
			],
			"name":"SM_Env_Tree_Banana_02",
			"rotation":[
				0.7071068286895752,
				0,
				0,
				0.7071068286895752
			],
			"scale":[
				0.009999999776482582,
				0.009999999776482582,
				0.009999999776482582
			]
		}
	],
	"materials":[
		{
			"doubleSided":true,
			"name":"lambert22",
			"pbrMetallicRoughness":{
				"baseColorTexture":{
					"index":0
				},
				"metallicFactor":0,
				"roughnessFactor":0.5527864098548889
			}
		}
	],
	"meshes":[
		{
			"name":"Mesh",
			"primitives":[
				{
					"attributes":{
						"POSITION":0,
						"NORMAL":1,
						"TEXCOORD_0":2,
						"TEXCOORD_1":3,
						"COLOR_0":4,
						"COLOR_1":5
					},
					"indices":6,
					"material":0
				}
			]
		},
		{
			"name":"Mesh.001",
			"primitives":[
				{
					"attributes":{
						"POSITION":7,
						"NORMAL":8,
						"TEXCOORD_0":9,
						"TEXCOORD_1":10,
						"COLOR_0":11,
						"COLOR_1":12
					},
					"indices":13,
					"material":0
				}
			]
		},
		{
			"name":"Mesh.002",
			"primitives":[
				{
					"attributes":{
						"POSITION":14,
						"NORMAL":15,
						"TEXCOORD_0":16,
						"COLOR_0":17,
						"COLOR_1":18
					},
					"indices":19,
					"material":0
				}
			]
		}
	],
	"textures":[
		{
			"sampler":0,
			"source":0
		}
	],
	"images":[
		{
			"mimeType":"image/png",
			"name":"Leaf_Palm_01_Normals",
			"uri":"Leaf_Palm_01_Normals.png"
		}
	],
	"accessors":[
		{
			"bufferView":0,
			"componentType":5126,
			"count":919,
			"max":[
				274.9779357910156,
				354.2569274902344,
				32.90591812133789
			],
			"min":[
				-218.8441162109375,
				-154.76739501953125,
				-607.7614135742188
			],
			"type":"VEC3"
		},
		{
			"bufferView":1,
			"componentType":5126,
			"count":919,
			"type":"VEC3"
		},
		{
			"bufferView":2,
			"componentType":5126,
			"count":919,
			"type":"VEC2"
		},
		{
			"bufferView":3,
			"componentType":5126,
			"count":919,
			"type":"VEC2"
		},
		{
			"bufferView":4,
			"componentType":5121,
			"count":919,
			"normalized":true,
			"type":"VEC4"
		},
		{
			"bufferView":5,
			"componentType":5126,
			"count":919,
			"type":"VEC3"
		},
		{
			"bufferView":6,
			"componentType":5123,
			"count":1548,
			"type":"SCALAR"
		},
		{
			"bufferView":7,
			"componentType":5126,
			"count":586,
			"max":[
				274.9779357910156,
				354.2569274902344,
				32.90621566772461
			],
			"min":[
				-218.8441162109375,
				-154.76739501953125,
				-603.6441040039062
			],
			"type":"VEC3"
		},
		{
			"bufferView":8,
			"componentType":5126,
			"count":586,
			"type":"VEC3"
		},
		{
			"bufferView":9,
			"componentType":5126,
			"count":586,
			"type":"VEC2"
		},
		{
			"bufferView":10,
			"componentType":5126,
			"count":586,
			"type":"VEC2"
		},
		{
			"bufferView":11,
			"componentType":5121,
			"count":586,
			"normalized":true,
			"type":"VEC4"
		},
		{
			"bufferView":12,
			"componentType":5126,
			"count":586,
			"type":"VEC3"
		},
		{
			"bufferView":13,
			"componentType":5123,
			"count":846,
			"type":"SCALAR"
		},
		{
			"bufferView":14,
			"componentType":5126,
			"count":32,
			"max":[
				281.55950927734375,
				363.8178405761719,
				42.23769760131836
			],
			"min":[
				-234.07733154296875,
				-160.41299438476562,
				-611.9483032226562
			],
			"type":"VEC3"
		},
		{
			"bufferView":15,
			"componentType":5126,
			"count":32,
			"type":"VEC3"
		},
		{
			"bufferView":16,
			"componentType":5126,
			"count":32,
			"type":"VEC2"
		},
		{
			"bufferView":17,
			"componentType":5121,
			"count":32,
			"normalized":true,
			"type":"VEC4"
		},
		{
			"bufferView":18,
			"componentType":5126,
			"count":32,
			"type":"VEC3"
		},
		{
			"bufferView":19,
			"componentType":5123,
			"count":48,
			"type":"SCALAR"
		}
	],
	"bufferViews":[
		{
			"buffer":0,
			"byteLength":11028,
			"byteOffset":0,
			"target":34962
		},
		{
			"buffer":0,
			"byteLength":11028,
			"byteOffset":11028,
			"target":34962
		},
		{
			"buffer":0,
			"byteLength":7352,
			"byteOffset":22056,
			"target":34962
		},
		{
			"buffer":0,
			"byteLength":7352,
			"byteOffset":29408,
			"target":34962
		},
		{
			"buffer":0,
			"byteLength":3676,
			"byteOffset":36760,
			"target":34962
		},
		{
			"buffer":0,
			"byteLength":11028,
			"byteOffset":40436,
			"target":34962
		},
		{
			"buffer":0,
			"byteLength":3096,
			"byteOffset":51464,
			"target":34963
		},
		{
			"buffer":0,
			"byteLength":7032,
			"byteOffset":54560,
			"target":34962
		},
		{
			"buffer":0,
			"byteLength":7032,
			"byteOffset":61592,
			"target":34962
		},
		{
			"buffer":0,
			"byteLength":4688,
			"byteOffset":68624,
			"target":34962
		},
		{
			"buffer":0,
			"byteLength":4688,
			"byteOffset":73312,
			"target":34962
		},
		{
			"buffer":0,
			"byteLength":2344,
			"byteOffset":78000,
			"target":34962
		},
		{
			"buffer":0,
			"byteLength":7032,
			"byteOffset":80344,
			"target":34962
		},
		{
			"buffer":0,
			"byteLength":1692,
			"byteOffset":87376,
			"target":34963
		},
		{
			"buffer":0,
			"byteLength":384,
			"byteOffset":89068,
			"target":34962
		},
		{
			"buffer":0,
			"byteLength":384,
			"byteOffset":89452,
			"target":34962
		},
		{
			"buffer":0,
			"byteLength":256,
			"byteOffset":89836,
			"target":34962
		},
		{
			"buffer":0,
			"byteLength":128,
			"byteOffset":90092,
			"target":34962
		},
		{
			"buffer":0,
			"byteLength":384,
			"byteOffset":90220,
			"target":34962
		},
		{
			"buffer":0,
			"byteLength":96,
			"byteOffset":90604,
			"target":34963
		}
	],
	"samplers":[
		{
			"magFilter":9729,
			"minFilter":9987
		}
	],
	"buffers":[
		{
			"byteLength":90700,
			"uri":"SM_Env_Tree_Banana_02.bin"
		}
	]
}
