{
	"asset":{
		"generator":"Khronos glTF Blender I/O v4.2.70",
		"version":"2.0"
	},
	"scene":0,
	"scenes":[
		{
			"name":"Scene",
			"nodes":[
				3
			]
		}
	],
	"nodes":[
		{
			"mesh":0,
			"name":"SM_Env_Fern_02_LOD0"
		},
		{
			"mesh":1,
			"name":"SM_Env_Fern_02_LOD1"
		},
		{
			"mesh":2,
			"name":"SM_Env_Fern_02_LOD2"
		},
		{
			"children":[
				0,
				1,
				2
			],
			"name":"SM_Env_Fern_02",
			"rotation":[
				0.7071068286895752,
				0,
				0,
				0.7071068286895752
			],
			"scale":[
				0.009999999776482582,
				0.009999999776482582,
				0.009999999776482582
			]
		}
	],
	"materials":[
		{
			"doubleSided":true,
			"name":"Leaf9",
			"pbrMetallicRoughness":{
				"baseColorTexture":{
					"index":0
				},
				"metallicFactor":0,
				"roughnessFactor":0.5527864098548889
			}
		}
	],
	"meshes":[
		{
			"name":"Mesh",
			"primitives":[
				{
					"attributes":{
						"POSITION":0,
						"NORMAL":1,
						"TEXCOORD_0":2,
						"COLOR_0":3,
						"COLOR_1":4
					},
					"indices":5,
					"material":0
				}
			]
		},
		{
			"name":"Mesh.001",
			"primitives":[
				{
					"attributes":{
						"POSITION":6,
						"NORMAL":7,
						"TEXCOORD_0":8,
						"COLOR_0":9,
						"COLOR_1":10
					},
					"indices":11,
					"material":0
				}
			]
		},
		{
			"name":"Mesh.002",
			"primitives":[
				{
					"attributes":{
						"POSITION":12,
						"NORMAL":13,
						"TEXCOORD_0":14,
						"COLOR_0":15,
						"COLOR_1":16
					},
					"indices":17,
					"material":0
				}
			]
		}
	],
	"textures":[
		{
			"sampler":0,
			"source":0
		}
	],
	"images":[
		{
			"mimeType":"image/png",
			"name":"Gradient 2",
			"uri":"Gradient%202.png"
		}
	],
	"accessors":[
		{
			"bufferView":0,
			"componentType":5126,
			"count":482,
			"max":[
				162.69442749023438,
				143.31686401367188,
				14.309980392456055
			],
			"min":[
				-138.65350341796875,
				-126.39794158935547,
				-143.9886474609375
			],
			"type":"VEC3"
		},
		{
			"bufferView":1,
			"componentType":5126,
			"count":482,
			"type":"VEC3"
		},
		{
			"bufferView":2,
			"componentType":5126,
			"count":482,
			"type":"VEC2"
		},
		{
			"bufferView":3,
			"componentType":5121,
			"count":482,
			"normalized":true,
			"type":"VEC4"
		},
		{
			"bufferView":4,
			"componentType":5126,
			"count":482,
			"type":"VEC3"
		},
		{
			"bufferView":5,
			"componentType":5123,
			"count":858,
			"type":"SCALAR"
		},
		{
			"bufferView":6,
			"componentType":5126,
			"count":304,
			"max":[
				162.69442749023438,
				143.31686401367188,
				14.309980392456055
			],
			"min":[
				-138.65350341796875,
				-126.39794158935547,
				-139.29409790039062
			],
			"type":"VEC3"
		},
		{
			"bufferView":7,
			"componentType":5126,
			"count":304,
			"type":"VEC3"
		},
		{
			"bufferView":8,
			"componentType":5126,
			"count":304,
			"type":"VEC2"
		},
		{
			"bufferView":9,
			"componentType":5121,
			"count":304,
			"normalized":true,
			"type":"VEC4"
		},
		{
			"bufferView":10,
			"componentType":5126,
			"count":304,
			"type":"VEC3"
		},
		{
			"bufferView":11,
			"componentType":5123,
			"count":462,
			"type":"SCALAR"
		},
		{
			"bufferView":12,
			"componentType":5126,
			"count":220,
			"max":[
				162.69442749023438,
				143.31686401367188,
				14.309980392456055
			],
			"min":[
				-138.65350341796875,
				-126.39794158935547,
				-139.29409790039062
			],
			"type":"VEC3"
		},
		{
			"bufferView":13,
			"componentType":5126,
			"count":220,
			"type":"VEC3"
		},
		{
			"bufferView":14,
			"componentType":5126,
			"count":220,
			"type":"VEC2"
		},
		{
			"bufferView":15,
			"componentType":5121,
			"count":220,
			"normalized":true,
			"type":"VEC4"
		},
		{
			"bufferView":16,
			"componentType":5126,
			"count":220,
			"type":"VEC3"
		},
		{
			"bufferView":17,
			"componentType":5123,
			"count":330,
			"type":"SCALAR"
		}
	],
	"bufferViews":[
		{
			"buffer":0,
			"byteLength":5784,
			"byteOffset":0,
			"target":34962
		},
		{
			"buffer":0,
			"byteLength":5784,
			"byteOffset":5784,
			"target":34962
		},
		{
			"buffer":0,
			"byteLength":3856,
			"byteOffset":11568,
			"target":34962
		},
		{
			"buffer":0,
			"byteLength":1928,
			"byteOffset":15424,
			"target":34962
		},
		{
			"buffer":0,
			"byteLength":5784,
			"byteOffset":17352,
			"target":34962
		},
		{
			"buffer":0,
			"byteLength":1716,
			"byteOffset":23136,
			"target":34963
		},
		{
			"buffer":0,
			"byteLength":3648,
			"byteOffset":24852,
			"target":34962
		},
		{
			"buffer":0,
			"byteLength":3648,
			"byteOffset":28500,
			"target":34962
		},
		{
			"buffer":0,
			"byteLength":2432,
			"byteOffset":32148,
			"target":34962
		},
		{
			"buffer":0,
			"byteLength":1216,
			"byteOffset":34580,
			"target":34962
		},
		{
			"buffer":0,
			"byteLength":3648,
			"byteOffset":35796,
			"target":34962
		},
		{
			"buffer":0,
			"byteLength":924,
			"byteOffset":39444,
			"target":34963
		},
		{
			"buffer":0,
			"byteLength":2640,
			"byteOffset":40368,
			"target":34962
		},
		{
			"buffer":0,
			"byteLength":2640,
			"byteOffset":43008,
			"target":34962
		},
		{
			"buffer":0,
			"byteLength":1760,
			"byteOffset":45648,
			"target":34962
		},
		{
			"buffer":0,
			"byteLength":880,
			"byteOffset":47408,
			"target":34962
		},
		{
			"buffer":0,
			"byteLength":2640,
			"byteOffset":48288,
			"target":34962
		},
		{
			"buffer":0,
			"byteLength":660,
			"byteOffset":50928,
			"target":34963
		}
	],
	"samplers":[
		{
			"magFilter":9729,
			"minFilter":9987
		}
	],
	"buffers":[
		{
			"byteLength":51588,
			"uri":"SM_Env_Fern_02.bin"
		}
	]
}
