{
	"asset":{
		"generator":"Khronos glTF Blender I/O v4.2.70",
		"version":"2.0"
	},
	"scene":0,
	"scenes":[
		{
			"name":"Scene",
			"nodes":[
				0
			]
		}
	],
	"nodes":[
		{
			"mesh":0,
			"name":"SM_Env_Vines_01",
			"rotation":[
				0.7071068286895752,
				0,
				0,
				0.7071068286895752
			],
			"scale":[
				0.009999999776482582,
				0.009999999776482582,
				0.009999999776482582
			]
		}
	],
	"materials":[
		{
			"doubleSided":true,
			"name":"pasted__lambert1998",
			"pbrMetallicRoughness":{
				"baseColorTexture":{
					"index":0
				},
				"metallicFactor":0,
				"roughnessFactor":0.5527864098548889
			}
		}
	],
	"meshes":[
		{
			"name":"Mesh",
			"primitives":[
				{
					"attributes":{
						"POSITION":0,
						"NORMAL":1,
						"TEXCOORD_0":2,
						"COLOR_0":3,
						"COLOR_1":4
					},
					"indices":5,
					"material":0
				}
			]
		}
	],
	"textures":[
		{
			"sampler":0,
			"source":0
		}
	],
	"images":[
		{
			"mimeType":"image/png",
			"name":"PolygonNatureBiomes_Tropical_Texture_01",
			"uri":"PolygonNatureBiomes_Tropical_Texture_01.png"
		}
	],
	"accessors":[
		{
			"bufferView":0,
			"componentType":5126,
			"count":810,
			"max":[
				77.91862487792969,
				22.164962768554688,
				188.90386962890625
			],
			"min":[
				-65.55111694335938,
				-20.867713928222656,
				-25.26850128173828
			],
			"type":"VEC3"
		},
		{
			"bufferView":1,
			"componentType":5126,
			"count":810,
			"type":"VEC3"
		},
		{
			"bufferView":2,
			"componentType":5126,
			"count":810,
			"type":"VEC2"
		},
		{
			"bufferView":3,
			"componentType":5121,
			"count":810,
			"normalized":true,
			"type":"VEC4"
		},
		{
			"bufferView":4,
			"componentType":5126,
			"count":810,
			"type":"VEC3"
		},
		{
			"bufferView":5,
			"componentType":5123,
			"count":1176,
			"type":"SCALAR"
		}
	],
	"bufferViews":[
		{
			"buffer":0,
			"byteLength":9720,
			"byteOffset":0,
			"target":34962
		},
		{
			"buffer":0,
			"byteLength":9720,
			"byteOffset":9720,
			"target":34962
		},
		{
			"buffer":0,
			"byteLength":6480,
			"byteOffset":19440,
			"target":34962
		},
		{
			"buffer":0,
			"byteLength":3240,
			"byteOffset":25920,
			"target":34962
		},
		{
			"buffer":0,
			"byteLength":9720,
			"byteOffset":29160,
			"target":34962
		},
		{
			"buffer":0,
			"byteLength":2352,
			"byteOffset":38880,
			"target":34963
		}
	],
	"samplers":[
		{
			"magFilter":9729,
			"minFilter":9987
		}
	],
	"buffers":[
		{
			"byteLength":41232,
			"uri":"SM_Env_Vines_01.bin"
		}
	]
}
