{
	"asset":{
		"generator":"Khronos glTF Blender I/O v4.2.70",
		"version":"2.0"
	},
	"scene":0,
	"scenes":[
		{
			"name":"Scene",
			"nodes":[
				5
			]
		}
	],
	"nodes":[
		{
			"mesh":0,
			"name":"SM_Env_Tree_Pohutukawa_02_Branches_LOD0"
		},
		{
			"mesh":1,
			"name":"SM_Env_Tree_Pohutukawa_02_Branches_LOD1"
		},
		{
			"mesh":2,
			"name":"SM_Env_Tree_Pohutukawa_02_LOD0"
		},
		{
			"mesh":3,
			"name":"SM_Env_Tree_Pohutukawa_02_LOD1"
		},
		{
			"mesh":4,
			"name":"SM_Env_Tree_Pohutukawa_02_LOD2"
		},
		{
			"children":[
				0,
				1,
				2,
				3,
				4
			],
			"name":"SM_Env_Tree_Pohutukawa_02",
			"rotation":[
				0.7071068286895752,
				0,
				0,
				0.7071068286895752
			],
			"scale":[
				0.009999999776482582,
				0.009999999776482582,
				0.009999999776482582
			]
		}
	],
	"materials":[
		{
			"doubleSided":true,
			"name":"lambert32",
			"pbrMetallicRoughness":{
				"baseColorTexture":{
					"index":0
				},
				"metallicFactor":0,
				"roughnessFactor":0.5527864098548889
			}
		}
	],
	"meshes":[
		{
			"name":"Mesh",
			"primitives":[
				{
					"attributes":{
						"POSITION":0,
						"NORMAL":1,
						"TEXCOORD_0":2,
						"COLOR_0":3,
						"COLOR_1":4
					},
					"indices":5,
					"material":0
				}
			]
		},
		{
			"name":"Mesh.001",
			"primitives":[
				{
					"attributes":{
						"POSITION":6,
						"NORMAL":7,
						"TEXCOORD_0":8,
						"COLOR_0":9,
						"COLOR_1":10
					},
					"indices":11,
					"material":0
				}
			]
		},
		{
			"name":"Mesh.002",
			"primitives":[
				{
					"attributes":{
						"POSITION":12,
						"NORMAL":13,
						"TEXCOORD_0":14,
						"COLOR_0":15,
						"COLOR_1":16
					},
					"indices":17,
					"material":0
				}
			]
		},
		{
			"name":"Mesh.003",
			"primitives":[
				{
					"attributes":{
						"POSITION":18,
						"NORMAL":19,
						"TEXCOORD_0":20,
						"COLOR_0":21,
						"COLOR_1":22
					},
					"indices":23,
					"material":0
				}
			]
		},
		{
			"name":"Mesh.004",
			"primitives":[
				{
					"attributes":{
						"POSITION":24,
						"NORMAL":25,
						"TEXCOORD_0":26,
						"COLOR_0":27,
						"COLOR_1":28
					},
					"indices":29,
					"material":0
				}
			]
		}
	],
	"textures":[
		{
			"sampler":0,
			"source":0
		}
	],
	"images":[
		{
			"mimeType":"image/png",
			"name":"treePohutukawa_02_Normals",
			"uri":"treePohutukawa_02_Normals.png"
		}
	],
	"accessors":[
		{
			"bufferView":0,
			"componentType":5126,
			"count":630,
			"max":[
				344.431884765625,
				383.02545166015625,
				-180.0180206298828
			],
			"min":[
				-294.6868896484375,
				-272.2026672363281,
				-473.6454772949219
			],
			"type":"VEC3"
		},
		{
			"bufferView":1,
			"componentType":5126,
			"count":630,
			"type":"VEC3"
		},
		{
			"bufferView":2,
			"componentType":5126,
			"count":630,
			"type":"VEC2"
		},
		{
			"bufferView":3,
			"componentType":5121,
			"count":630,
			"normalized":true,
			"type":"VEC4"
		},
		{
			"bufferView":4,
			"componentType":5126,
			"count":630,
			"type":"VEC3"
		},
		{
			"bufferView":5,
			"componentType":5123,
			"count":630,
			"type":"SCALAR"
		},
		{
			"bufferView":6,
			"componentType":5126,
			"count":168,
			"max":[
				344.431884765625,
				383.02545166015625,
				-186.59375
			],
			"min":[
				-294.6868896484375,
				-272.2026672363281,
				-473.6454772949219
			],
			"type":"VEC3"
		},
		{
			"bufferView":7,
			"componentType":5126,
			"count":168,
			"type":"VEC3"
		},
		{
			"bufferView":8,
			"componentType":5126,
			"count":168,
			"type":"VEC2"
		},
		{
			"bufferView":9,
			"componentType":5121,
			"count":168,
			"normalized":true,
			"type":"VEC4"
		},
		{
			"bufferView":10,
			"componentType":5126,
			"count":168,
			"type":"VEC3"
		},
		{
			"bufferView":11,
			"componentType":5123,
			"count":252,
			"type":"SCALAR"
		},
		{
			"bufferView":12,
			"componentType":5126,
			"count":22884,
			"max":[
				435.32745361328125,
				438.9311828613281,
				40.162689208984375
			],
			"min":[
				-428.7874450683594,
				-363.7701416015625,
				-556.7489013671875
			],
			"type":"VEC3"
		},
		{
			"bufferView":13,
			"componentType":5126,
			"count":22884,
			"type":"VEC3"
		},
		{
			"bufferView":14,
			"componentType":5126,
			"count":22884,
			"type":"VEC2"
		},
		{
			"bufferView":15,
			"componentType":5121,
			"count":22884,
			"normalized":true,
			"type":"VEC4"
		},
		{
			"bufferView":16,
			"componentType":5126,
			"count":22884,
			"type":"VEC3"
		},
		{
			"bufferView":17,
			"componentType":5123,
			"count":34104,
			"type":"SCALAR"
		},
		{
			"bufferView":18,
			"componentType":5126,
			"count":12558,
			"max":[
				430.8805236816406,
				437.4770812988281,
				40.162689208984375
			],
			"min":[
				-424.1527099609375,
				-366.7220458984375,
				-552.5364990234375
			],
			"type":"VEC3"
		},
		{
			"bufferView":19,
			"componentType":5126,
			"count":12558,
			"type":"VEC3"
		},
		{
			"bufferView":20,
			"componentType":5126,
			"count":12558,
			"type":"VEC2"
		},
		{
			"bufferView":21,
			"componentType":5121,
			"count":12558,
			"normalized":true,
			"type":"VEC4"
		},
		{
			"bufferView":22,
			"componentType":5126,
			"count":12558,
			"type":"VEC3"
		},
		{
			"bufferView":23,
			"componentType":5123,
			"count":18684,
			"type":"SCALAR"
		},
		{
			"bufferView":24,
			"componentType":5126,
			"count":16,
			"max":[
				444.7234191894531,
				444.3409118652344,
				53.68118667602539
			],
			"min":[
				-437.1957092285156,
				-369.6314392089844,
				-572.3995971679688
			],
			"type":"VEC3"
		},
		{
			"bufferView":25,
			"componentType":5126,
			"count":16,
			"type":"VEC3"
		},
		{
			"bufferView":26,
			"componentType":5126,
			"count":16,
			"type":"VEC2"
		},
		{
			"bufferView":27,
			"componentType":5121,
			"count":16,
			"normalized":true,
			"type":"VEC4"
		},
		{
			"bufferView":28,
			"componentType":5126,
			"count":16,
			"type":"VEC3"
		},
		{
			"bufferView":29,
			"componentType":5123,
			"count":24,
			"type":"SCALAR"
		}
	],
	"bufferViews":[
		{
			"buffer":0,
			"byteLength":7560,
			"byteOffset":0,
			"target":34962
		},
		{
			"buffer":0,
			"byteLength":7560,
			"byteOffset":7560,
			"target":34962
		},
		{
			"buffer":0,
			"byteLength":5040,
			"byteOffset":15120,
			"target":34962
		},
		{
			"buffer":0,
			"byteLength":2520,
			"byteOffset":20160,
			"target":34962
		},
		{
			"buffer":0,
			"byteLength":7560,
			"byteOffset":22680,
			"target":34962
		},
		{
			"buffer":0,
			"byteLength":1260,
			"byteOffset":30240,
			"target":34963
		},
		{
			"buffer":0,
			"byteLength":2016,
			"byteOffset":31500,
			"target":34962
		},
		{
			"buffer":0,
			"byteLength":2016,
			"byteOffset":33516,
			"target":34962
		},
		{
			"buffer":0,
			"byteLength":1344,
			"byteOffset":35532,
			"target":34962
		},
		{
			"buffer":0,
			"byteLength":672,
			"byteOffset":36876,
			"target":34962
		},
		{
			"buffer":0,
			"byteLength":2016,
			"byteOffset":37548,
			"target":34962
		},
		{
			"buffer":0,
			"byteLength":504,
			"byteOffset":39564,
			"target":34963
		},
		{
			"buffer":0,
			"byteLength":274608,
			"byteOffset":40068,
			"target":34962
		},
		{
			"buffer":0,
			"byteLength":274608,
			"byteOffset":314676,
			"target":34962
		},
		{
			"buffer":0,
			"byteLength":183072,
			"byteOffset":589284,
			"target":34962
		},
		{
			"buffer":0,
			"byteLength":91536,
			"byteOffset":772356,
			"target":34962
		},
		{
			"buffer":0,
			"byteLength":274608,
			"byteOffset":863892,
			"target":34962
		},
		{
			"buffer":0,
			"byteLength":68208,
			"byteOffset":1138500,
			"target":34963
		},
		{
			"buffer":0,
			"byteLength":150696,
			"byteOffset":1206708,
			"target":34962
		},
		{
			"buffer":0,
			"byteLength":150696,
			"byteOffset":1357404,
			"target":34962
		},
		{
			"buffer":0,
			"byteLength":100464,
			"byteOffset":1508100,
			"target":34962
		},
		{
			"buffer":0,
			"byteLength":50232,
			"byteOffset":1608564,
			"target":34962
		},
		{
			"buffer":0,
			"byteLength":150696,
			"byteOffset":1658796,
			"target":34962
		},
		{
			"buffer":0,
			"byteLength":37368,
			"byteOffset":1809492,
			"target":34963
		},
		{
			"buffer":0,
			"byteLength":192,
			"byteOffset":1846860,
			"target":34962
		},
		{
			"buffer":0,
			"byteLength":192,
			"byteOffset":1847052,
			"target":34962
		},
		{
			"buffer":0,
			"byteLength":128,
			"byteOffset":1847244,
			"target":34962
		},
		{
			"buffer":0,
			"byteLength":64,
			"byteOffset":1847372,
			"target":34962
		},
		{
			"buffer":0,
			"byteLength":192,
			"byteOffset":1847436,
			"target":34962
		},
		{
			"buffer":0,
			"byteLength":48,
			"byteOffset":1847628,
			"target":34963
		}
	],
	"samplers":[
		{
			"magFilter":9729,
			"minFilter":9987
		}
	],
	"buffers":[
		{
			"byteLength":1847676,
			"uri":"SM_Env_Tree_Pohutukawa_02.bin"
		}
	]
}
