{
	"asset":{
		"generator":"Khronos glTF Blender I/O v4.2.70",
		"version":"2.0"
	},
	"scene":0,
	"scenes":[
		{
			"name":"Scene",
			"nodes":[
				3
			]
		}
	],
	"nodes":[
		{
			"mesh":0,
			"name":"SM_Env_Tree_Pohutukawa_04_LOD0"
		},
		{
			"mesh":1,
			"name":"SM_Env_Tree_Pohutukawa_04_LOD1"
		},
		{
			"mesh":2,
			"name":"SM_Env_Tree_Pohutukawa_04_LOD2"
		},
		{
			"children":[
				0,
				1,
				2
			],
			"name":"SM_Env_Tree_Pohutukawa_04",
			"rotation":[
				0.7071068286895752,
				0,
				0,
				0.7071068286895752
			],
			"scale":[
				0.009999999776482582,
				0.009999999776482582,
				0.009999999776482582
			]
		}
	],
	"materials":[
		{
			"doubleSided":true,
			"name":"lambert34",
			"pbrMetallicRoughness":{
				"baseColorTexture":{
					"index":0
				},
				"metallicFactor":0,
				"roughnessFactor":0.5527864098548889
			}
		}
	],
	"meshes":[
		{
			"name":"Mesh",
			"primitives":[
				{
					"attributes":{
						"POSITION":0,
						"NORMAL":1,
						"TEXCOORD_0":2,
						"COLOR_0":3,
						"COLOR_1":4
					},
					"indices":5,
					"material":0
				}
			]
		},
		{
			"name":"Mesh.001",
			"primitives":[
				{
					"attributes":{
						"POSITION":6,
						"NORMAL":7,
						"TEXCOORD_0":8,
						"COLOR_0":9,
						"COLOR_1":10
					},
					"indices":11,
					"material":0
				}
			]
		},
		{
			"name":"Mesh.002",
			"primitives":[
				{
					"attributes":{
						"POSITION":12,
						"NORMAL":13,
						"TEXCOORD_0":14,
						"COLOR_0":15,
						"COLOR_1":16
					},
					"indices":17,
					"material":0
				}
			]
		}
	],
	"textures":[
		{
			"sampler":0,
			"source":0
		}
	],
	"images":[
		{
			"mimeType":"image/png",
			"name":"treePohutukawa_04_Normals",
			"uri":"treePohutukawa_04_Normals.png"
		}
	],
	"accessors":[
		{
			"bufferView":0,
			"componentType":5126,
			"count":8119,
			"max":[
				237.81192016601562,
				381.3248291015625,
				50.102989196777344
			],
			"min":[
				-253.74267578125,
				-50.740997314453125,
				-347.018310546875
			],
			"type":"VEC3"
		},
		{
			"bufferView":1,
			"componentType":5126,
			"count":8119,
			"type":"VEC3"
		},
		{
			"bufferView":2,
			"componentType":5126,
			"count":8119,
			"type":"VEC2"
		},
		{
			"bufferView":3,
			"componentType":5121,
			"count":8119,
			"normalized":true,
			"type":"VEC4"
		},
		{
			"bufferView":4,
			"componentType":5126,
			"count":8119,
			"type":"VEC3"
		},
		{
			"bufferView":5,
			"componentType":5123,
			"count":12102,
			"type":"SCALAR"
		},
		{
			"bufferView":6,
			"componentType":5126,
			"count":4248,
			"max":[
				235.50723266601562,
				380.5717468261719,
				50.102989196777344
			],
			"min":[
				-251.61578369140625,
				-49.74787902832031,
				-346.182861328125
			],
			"type":"VEC3"
		},
		{
			"bufferView":7,
			"componentType":5126,
			"count":4248,
			"type":"VEC3"
		},
		{
			"bufferView":8,
			"componentType":5126,
			"count":4248,
			"type":"VEC2"
		},
		{
			"bufferView":9,
			"componentType":5121,
			"count":4248,
			"normalized":true,
			"type":"VEC4"
		},
		{
			"bufferView":10,
			"componentType":5126,
			"count":4248,
			"type":"VEC3"
		},
		{
			"bufferView":11,
			"componentType":5123,
			"count":6300,
			"type":"SCALAR"
		},
		{
			"bufferView":12,
			"componentType":5126,
			"count":24,
			"max":[
				245.8278350830078,
				390.6879577636719,
				63.287376403808594
			],
			"min":[
				-259.7641906738281,
				-62.16392517089844,
				-358.98260498046875
			],
			"type":"VEC3"
		},
		{
			"bufferView":13,
			"componentType":5126,
			"count":24,
			"type":"VEC3"
		},
		{
			"bufferView":14,
			"componentType":5126,
			"count":24,
			"type":"VEC2"
		},
		{
			"bufferView":15,
			"componentType":5121,
			"count":24,
			"normalized":true,
			"type":"VEC4"
		},
		{
			"bufferView":16,
			"componentType":5126,
			"count":24,
			"type":"VEC3"
		},
		{
			"bufferView":17,
			"componentType":5123,
			"count":48,
			"type":"SCALAR"
		}
	],
	"bufferViews":[
		{
			"buffer":0,
			"byteLength":97428,
			"byteOffset":0,
			"target":34962
		},
		{
			"buffer":0,
			"byteLength":97428,
			"byteOffset":97428,
			"target":34962
		},
		{
			"buffer":0,
			"byteLength":64952,
			"byteOffset":194856,
			"target":34962
		},
		{
			"buffer":0,
			"byteLength":32476,
			"byteOffset":259808,
			"target":34962
		},
		{
			"buffer":0,
			"byteLength":97428,
			"byteOffset":292284,
			"target":34962
		},
		{
			"buffer":0,
			"byteLength":24204,
			"byteOffset":389712,
			"target":34963
		},
		{
			"buffer":0,
			"byteLength":50976,
			"byteOffset":413916,
			"target":34962
		},
		{
			"buffer":0,
			"byteLength":50976,
			"byteOffset":464892,
			"target":34962
		},
		{
			"buffer":0,
			"byteLength":33984,
			"byteOffset":515868,
			"target":34962
		},
		{
			"buffer":0,
			"byteLength":16992,
			"byteOffset":549852,
			"target":34962
		},
		{
			"buffer":0,
			"byteLength":50976,
			"byteOffset":566844,
			"target":34962
		},
		{
			"buffer":0,
			"byteLength":12600,
			"byteOffset":617820,
			"target":34963
		},
		{
			"buffer":0,
			"byteLength":288,
			"byteOffset":630420,
			"target":34962
		},
		{
			"buffer":0,
			"byteLength":288,
			"byteOffset":630708,
			"target":34962
		},
		{
			"buffer":0,
			"byteLength":192,
			"byteOffset":630996,
			"target":34962
		},
		{
			"buffer":0,
			"byteLength":96,
			"byteOffset":631188,
			"target":34962
		},
		{
			"buffer":0,
			"byteLength":288,
			"byteOffset":631284,
			"target":34962
		},
		{
			"buffer":0,
			"byteLength":96,
			"byteOffset":631572,
			"target":34963
		}
	],
	"samplers":[
		{
			"magFilter":9729,
			"minFilter":9987
		}
	],
	"buffers":[
		{
			"byteLength":631668,
			"uri":"SM_Env_Tree_Pohutukawa_04.bin"
		}
	]
}
