{
	"asset":{
		"generator":"Khronos glTF Blender I/O v4.2.70",
		"version":"2.0"
	},
	"scene":0,
	"scenes":[
		{
			"name":"Scene",
			"nodes":[
				0
			]
		}
	],
	"nodes":[
		{
			"mesh":0,
			"name":"SM_Env_Rock_Cliff_01",
			"rotation":[
				0.7071068286895752,
				0,
				0,
				0.7071068286895752
			],
			"scale":[
				0.009999999776482582,
				0.009999999776482582,
				0.009999999776482582
			]
		}
	],
	"materials":[
		{
			"doubleSided":true,
			"name":"Nature20",
			"pbrMetallicRoughness":{
				"metallicFactor":0,
				"roughnessFactor":0.5527864098548889
			}
		}
	],
	"meshes":[
		{
			"name":"Mesh",
			"primitives":[
				{
					"attributes":{
						"POSITION":0,
						"NORMAL":1,
						"TEXCOORD_0":2
					},
					"indices":3,
					"material":0
				}
			]
		}
	],
	"accessors":[
		{
			"bufferView":0,
			"componentType":5126,
			"count":1215,
			"max":[
				238.2119140625,
				258.593505859375,
				97.72650146484375
			],
			"min":[
				-261.3310546875,
				-247.9775390625,
				-714.4730224609375
			],
			"type":"VEC3"
		},
		{
			"bufferView":1,
			"componentType":5126,
			"count":1215,
			"type":"VEC3"
		},
		{
			"bufferView":2,
			"componentType":5126,
			"count":1215,
			"type":"VEC2"
		},
		{
			"bufferView":3,
			"componentType":5123,
			"count":1380,
			"type":"SCALAR"
		}
	],
	"bufferViews":[
		{
			"buffer":0,
			"byteLength":14580,
			"byteOffset":0,
			"target":34962
		},
		{
			"buffer":0,
			"byteLength":14580,
			"byteOffset":14580,
			"target":34962
		},
		{
			"buffer":0,
			"byteLength":9720,
			"byteOffset":29160,
			"target":34962
		},
		{
			"buffer":0,
			"byteLength":2760,
			"byteOffset":38880,
			"target":34963
		}
	],
	"buffers":[
		{
			"byteLength":41640,
			"uri":"SM_Env_Rock_Cliff_01.bin"
		}
	]
}
