{
	"asset":{
		"generator":"Khronos glTF Blender I/O v4.2.70",
		"version":"2.0"
	},
	"scene":0,
	"scenes":[
		{
			"name":"Scene",
			"nodes":[
				0
			]
		}
	],
	"nodes":[
		{
			"mesh":0,
			"name":"SM_Env_Rock_Pile_06",
			"rotation":[
				0.7071068286895752,
				0,
				0,
				0.7071068286895752
			],
			"scale":[
				0.009999999776482582,
				0.009999999776482582,
				0.009999999776482582
			]
		}
	],
	"materials":[
		{
			"doubleSided":true,
			"name":"Nature32",
			"pbrMetallicRoughness":{
				"metallicFactor":0,
				"roughnessFactor":0.5527864098548889
			}
		}
	],
	"meshes":[
		{
			"name":"Mesh",
			"primitives":[
				{
					"attributes":{
						"POSITION":0,
						"NORMAL":1,
						"TEXCOORD_0":2
					},
					"indices":3,
					"material":0
				}
			]
		}
	],
	"accessors":[
		{
			"bufferView":0,
			"componentType":5126,
			"count":2530,
			"max":[
				391.27978515625,
				226.7783203125,
				132.06121826171875
			],
			"min":[
				-400.6982421875,
				-235.70556640625,
				-232.39044189453125
			],
			"type":"VEC3"
		},
		{
			"bufferView":1,
			"componentType":5126,
			"count":2530,
			"type":"VEC3"
		},
		{
			"bufferView":2,
			"componentType":5126,
			"count":2530,
			"type":"VEC2"
		},
		{
			"bufferView":3,
			"componentType":5123,
			"count":3354,
			"type":"SCALAR"
		}
	],
	"bufferViews":[
		{
			"buffer":0,
			"byteLength":30360,
			"byteOffset":0,
			"target":34962
		},
		{
			"buffer":0,
			"byteLength":30360,
			"byteOffset":30360,
			"target":34962
		},
		{
			"buffer":0,
			"byteLength":20240,
			"byteOffset":60720,
			"target":34962
		},
		{
			"buffer":0,
			"byteLength":6708,
			"byteOffset":80960,
			"target":34963
		}
	],
	"buffers":[
		{
			"byteLength":87668,
			"uri":"SM_Env_Rock_Pile_06.bin"
		}
	]
}
