{
	"asset":{
		"generator":"Khronos glTF Blender I/O v4.2.70",
		"version":"2.0"
	},
	"scene":0,
	"scenes":[
		{
			"name":"Scene",
			"nodes":[
				3
			]
		}
	],
	"nodes":[
		{
			"mesh":0,
			"name":"SM_Env_Fern_04_LOD0"
		},
		{
			"mesh":1,
			"name":"SM_Env_Fern_04_LOD1"
		},
		{
			"mesh":2,
			"name":"SM_Env_Fern_04_LOD2"
		},
		{
			"children":[
				0,
				1,
				2
			],
			"name":"SM_Env_Fern_04",
			"rotation":[
				0.7071068286895752,
				0,
				0,
				0.7071068286895752
			],
			"scale":[
				0.009999999776482582,
				0.009999999776482582,
				0.009999999776482582
			]
		}
	],
	"materials":[
		{
			"doubleSided":true,
			"name":"Leaf4",
			"pbrMetallicRoughness":{
				"baseColorTexture":{
					"index":0
				},
				"metallicFactor":0,
				"roughnessFactor":0.5527864098548889
			}
		}
	],
	"meshes":[
		{
			"name":"Mesh",
			"primitives":[
				{
					"attributes":{
						"POSITION":0,
						"NORMAL":1,
						"TEXCOORD_0":2,
						"COLOR_0":3,
						"COLOR_1":4
					},
					"indices":5,
					"material":0
				}
			]
		},
		{
			"name":"Mesh.001",
			"primitives":[
				{
					"attributes":{
						"POSITION":6,
						"NORMAL":7,
						"TEXCOORD_0":8,
						"COLOR_0":9,
						"COLOR_1":10
					},
					"indices":11,
					"material":0
				}
			]
		},
		{
			"name":"Mesh.002",
			"primitives":[
				{
					"attributes":{
						"POSITION":12,
						"NORMAL":13,
						"TEXCOORD_0":14,
						"COLOR_0":15,
						"COLOR_1":16
					},
					"indices":17,
					"material":0
				}
			]
		}
	],
	"textures":[
		{
			"sampler":0,
			"source":0
		}
	],
	"images":[
		{
			"mimeType":"image/png",
			"name":"Gradient 2",
			"uri":"Gradient%202.png"
		}
	],
	"accessors":[
		{
			"bufferView":0,
			"componentType":5126,
			"count":356,
			"max":[
				107.59856414794922,
				152.5535888671875,
				19.03717803955078
			],
			"min":[
				-131.3773193359375,
				-152.07005310058594,
				-303.0588073730469
			],
			"type":"VEC3"
		},
		{
			"bufferView":1,
			"componentType":5126,
			"count":356,
			"type":"VEC3"
		},
		{
			"bufferView":2,
			"componentType":5126,
			"count":356,
			"type":"VEC2"
		},
		{
			"bufferView":3,
			"componentType":5121,
			"count":356,
			"normalized":true,
			"type":"VEC4"
		},
		{
			"bufferView":4,
			"componentType":5126,
			"count":356,
			"type":"VEC3"
		},
		{
			"bufferView":5,
			"componentType":5123,
			"count":690,
			"type":"SCALAR"
		},
		{
			"bufferView":6,
			"componentType":5126,
			"count":266,
			"max":[
				107.59856414794922,
				152.5535888671875,
				19.03717803955078
			],
			"min":[
				-131.3773193359375,
				-152.07005310058594,
				-302.9258728027344
			],
			"type":"VEC3"
		},
		{
			"bufferView":7,
			"componentType":5126,
			"count":266,
			"type":"VEC3"
		},
		{
			"bufferView":8,
			"componentType":5126,
			"count":266,
			"type":"VEC2"
		},
		{
			"bufferView":9,
			"componentType":5121,
			"count":266,
			"normalized":true,
			"type":"VEC4"
		},
		{
			"bufferView":10,
			"componentType":5126,
			"count":266,
			"type":"VEC3"
		},
		{
			"bufferView":11,
			"componentType":5123,
			"count":390,
			"type":"SCALAR"
		},
		{
			"bufferView":12,
			"componentType":5126,
			"count":186,
			"max":[
				107.59856414794922,
				152.5535888671875,
				19.03717803955078
			],
			"min":[
				-131.3773193359375,
				-152.07005310058594,
				-302.9258728027344
			],
			"type":"VEC3"
		},
		{
			"bufferView":13,
			"componentType":5126,
			"count":186,
			"type":"VEC3"
		},
		{
			"bufferView":14,
			"componentType":5126,
			"count":186,
			"type":"VEC2"
		},
		{
			"bufferView":15,
			"componentType":5121,
			"count":186,
			"normalized":true,
			"type":"VEC4"
		},
		{
			"bufferView":16,
			"componentType":5126,
			"count":186,
			"type":"VEC3"
		},
		{
			"bufferView":17,
			"componentType":5123,
			"count":270,
			"type":"SCALAR"
		}
	],
	"bufferViews":[
		{
			"buffer":0,
			"byteLength":4272,
			"byteOffset":0,
			"target":34962
		},
		{
			"buffer":0,
			"byteLength":4272,
			"byteOffset":4272,
			"target":34962
		},
		{
			"buffer":0,
			"byteLength":2848,
			"byteOffset":8544,
			"target":34962
		},
		{
			"buffer":0,
			"byteLength":1424,
			"byteOffset":11392,
			"target":34962
		},
		{
			"buffer":0,
			"byteLength":4272,
			"byteOffset":12816,
			"target":34962
		},
		{
			"buffer":0,
			"byteLength":1380,
			"byteOffset":17088,
			"target":34963
		},
		{
			"buffer":0,
			"byteLength":3192,
			"byteOffset":18468,
			"target":34962
		},
		{
			"buffer":0,
			"byteLength":3192,
			"byteOffset":21660,
			"target":34962
		},
		{
			"buffer":0,
			"byteLength":2128,
			"byteOffset":24852,
			"target":34962
		},
		{
			"buffer":0,
			"byteLength":1064,
			"byteOffset":26980,
			"target":34962
		},
		{
			"buffer":0,
			"byteLength":3192,
			"byteOffset":28044,
			"target":34962
		},
		{
			"buffer":0,
			"byteLength":780,
			"byteOffset":31236,
			"target":34963
		},
		{
			"buffer":0,
			"byteLength":2232,
			"byteOffset":32016,
			"target":34962
		},
		{
			"buffer":0,
			"byteLength":2232,
			"byteOffset":34248,
			"target":34962
		},
		{
			"buffer":0,
			"byteLength":1488,
			"byteOffset":36480,
			"target":34962
		},
		{
			"buffer":0,
			"byteLength":744,
			"byteOffset":37968,
			"target":34962
		},
		{
			"buffer":0,
			"byteLength":2232,
			"byteOffset":38712,
			"target":34962
		},
		{
			"buffer":0,
			"byteLength":540,
			"byteOffset":40944,
			"target":34963
		}
	],
	"samplers":[
		{
			"magFilter":9729,
			"minFilter":9987
		}
	],
	"buffers":[
		{
			"byteLength":41484,
			"uri":"SM_Env_Fern_04.bin"
		}
	]
}
