{
	"asset":{
		"generator":"Khronos glTF Blender I/O v4.2.70",
		"version":"2.0"
	},
	"scene":0,
	"scenes":[
		{
			"name":"Scene",
			"nodes":[
				2
			]
		}
	],
	"nodes":[
		{
			"mesh":0,
			"name":"SM_Env_Flower_01_LOD0"
		},
		{
			"mesh":1,
			"name":"SM_Env_Flower_01_LOD1"
		},
		{
			"children":[
				0,
				1
			],
			"name":"SM_Env_Flower_01",
			"rotation":[
				0.7071068286895752,
				0,
				0,
				0.7071068286895752
			],
			"scale":[
				0.009999999776482582,
				0.009999999776482582,
				0.009999999776482582
			]
		}
	],
	"materials":[
		{
			"doubleSided":true,
			"name":"Leaf16",
			"pbrMetallicRoughness":{
				"baseColorTexture":{
					"index":0
				},
				"metallicFactor":0,
				"roughnessFactor":0.5527864098548889
			}
		}
	],
	"meshes":[
		{
			"name":"Mesh",
			"primitives":[
				{
					"attributes":{
						"POSITION":0,
						"NORMAL":1,
						"TEXCOORD_0":2,
						"COLOR_0":3,
						"COLOR_1":4
					},
					"indices":5,
					"material":0
				}
			]
		},
		{
			"name":"Mesh.001",
			"primitives":[
				{
					"attributes":{
						"POSITION":6,
						"NORMAL":7,
						"TEXCOORD_0":8,
						"COLOR_0":9,
						"COLOR_1":10
					},
					"indices":11,
					"material":0
				}
			]
		}
	],
	"textures":[
		{
			"sampler":0,
			"source":0
		}
	],
	"images":[
		{
			"mimeType":"image/png",
			"name":"Gradient 2",
			"uri":"Gradient%202.png"
		}
	],
	"accessors":[
		{
			"bufferView":0,
			"componentType":5126,
			"count":137,
			"max":[
				26.1524658203125,
				30.773178100585938,
				2.804398536682129e-05
			],
			"min":[
				-30.1015625,
				-23.793533325195312,
				-16.727340698242188
			],
			"type":"VEC3"
		},
		{
			"bufferView":1,
			"componentType":5126,
			"count":137,
			"type":"VEC3"
		},
		{
			"bufferView":2,
			"componentType":5126,
			"count":137,
			"type":"VEC2"
		},
		{
			"bufferView":3,
			"componentType":5121,
			"count":137,
			"normalized":true,
			"type":"VEC4"
		},
		{
			"bufferView":4,
			"componentType":5126,
			"count":137,
			"type":"VEC3"
		},
		{
			"bufferView":5,
			"componentType":5123,
			"count":270,
			"type":"SCALAR"
		},
		{
			"bufferView":6,
			"componentType":5126,
			"count":86,
			"max":[
				26.1524658203125,
				30.773178100585938,
				2.804398536682129e-05
			],
			"min":[
				-30.1015625,
				-23.793533325195312,
				-16.097122192382812
			],
			"type":"VEC3"
		},
		{
			"bufferView":7,
			"componentType":5126,
			"count":86,
			"type":"VEC3"
		},
		{
			"bufferView":8,
			"componentType":5126,
			"count":86,
			"type":"VEC2"
		},
		{
			"bufferView":9,
			"componentType":5121,
			"count":86,
			"normalized":true,
			"type":"VEC4"
		},
		{
			"bufferView":10,
			"componentType":5126,
			"count":86,
			"type":"VEC3"
		},
		{
			"bufferView":11,
			"componentType":5123,
			"count":162,
			"type":"SCALAR"
		}
	],
	"bufferViews":[
		{
			"buffer":0,
			"byteLength":1644,
			"byteOffset":0,
			"target":34962
		},
		{
			"buffer":0,
			"byteLength":1644,
			"byteOffset":1644,
			"target":34962
		},
		{
			"buffer":0,
			"byteLength":1096,
			"byteOffset":3288,
			"target":34962
		},
		{
			"buffer":0,
			"byteLength":548,
			"byteOffset":4384,
			"target":34962
		},
		{
			"buffer":0,
			"byteLength":1644,
			"byteOffset":4932,
			"target":34962
		},
		{
			"buffer":0,
			"byteLength":540,
			"byteOffset":6576,
			"target":34963
		},
		{
			"buffer":0,
			"byteLength":1032,
			"byteOffset":7116,
			"target":34962
		},
		{
			"buffer":0,
			"byteLength":1032,
			"byteOffset":8148,
			"target":34962
		},
		{
			"buffer":0,
			"byteLength":688,
			"byteOffset":9180,
			"target":34962
		},
		{
			"buffer":0,
			"byteLength":344,
			"byteOffset":9868,
			"target":34962
		},
		{
			"buffer":0,
			"byteLength":1032,
			"byteOffset":10212,
			"target":34962
		},
		{
			"buffer":0,
			"byteLength":324,
			"byteOffset":11244,
			"target":34963
		}
	],
	"samplers":[
		{
			"magFilter":9729,
			"minFilter":9987
		}
	],
	"buffers":[
		{
			"byteLength":11568,
			"uri":"SM_Env_Flower_01.bin"
		}
	]
}
