{
	"asset":{
		"generator":"Khronos glTF Blender I/O v4.2.70",
		"version":"2.0"
	},
	"scene":0,
	"scenes":[
		{
			"name":"Scene",
			"nodes":[
				0
			]
		}
	],
	"nodes":[
		{
			"mesh":0,
			"name":"SM_Env_Creeper_Clump_01",
			"rotation":[
				0.7071068286895752,
				0,
				0,
				0.7071068286895752
			],
			"scale":[
				0.009999999776482582,
				0.009999999776482582,
				0.009999999776482582
			]
		}
	],
	"materials":[
		{
			"alphaMode":"BLEND",
			"doubleSided":true,
			"name":"lambert13",
			"pbrMetallicRoughness":{
				"metallicFactor":0,
				"roughnessFactor":0.5527864098548889
			}
		}
	],
	"meshes":[
		{
			"name":"Mesh",
			"primitives":[
				{
					"attributes":{
						"POSITION":0,
						"NORMAL":1,
						"TEXCOORD_0":2
					},
					"indices":3,
					"material":0
				}
			]
		}
	],
	"accessors":[
		{
			"bufferView":0,
			"componentType":5126,
			"count":549,
			"max":[
				70.01222229003906,
				52.58437728881836,
				1.9209058166325121e-07
			],
			"min":[
				-62.65827178955078,
				-65.40995788574219,
				-22.859464645385742
			],
			"type":"VEC3"
		},
		{
			"bufferView":1,
			"componentType":5126,
			"count":549,
			"type":"VEC3"
		},
		{
			"bufferView":2,
			"componentType":5126,
			"count":549,
			"type":"VEC2"
		},
		{
			"bufferView":3,
			"componentType":5123,
			"count":696,
			"type":"SCALAR"
		}
	],
	"bufferViews":[
		{
			"buffer":0,
			"byteLength":6588,
			"byteOffset":0,
			"target":34962
		},
		{
			"buffer":0,
			"byteLength":6588,
			"byteOffset":6588,
			"target":34962
		},
		{
			"buffer":0,
			"byteLength":4392,
			"byteOffset":13176,
			"target":34962
		},
		{
			"buffer":0,
			"byteLength":1392,
			"byteOffset":17568,
			"target":34963
		}
	],
	"buffers":[
		{
			"byteLength":18960,
			"uri":"SM_Env_Creeper_Clump_01.bin"
		}
	]
}
