{
	"asset":{
		"generator":"Khronos glTF Blender I/O v4.2.70",
		"version":"2.0"
	},
	"scene":0,
	"scenes":[
		{
			"name":"Scene",
			"nodes":[
				0
			]
		}
	],
	"nodes":[
		{
			"mesh":0,
			"name":"SM_Env_Rock_Pile_03",
			"rotation":[
				0.7071068286895752,
				0,
				0,
				0.7071068286895752
			],
			"scale":[
				0.009999999776482582,
				0.009999999776482582,
				0.009999999776482582
			]
		}
	],
	"materials":[
		{
			"doubleSided":true,
			"name":"Nature29",
			"pbrMetallicRoughness":{
				"metallicFactor":0,
				"roughnessFactor":0.5527864098548889
			}
		}
	],
	"meshes":[
		{
			"name":"Mesh",
			"primitives":[
				{
					"attributes":{
						"POSITION":0,
						"NORMAL":1,
						"TEXCOORD_0":2
					},
					"indices":3,
					"material":0
				}
			]
		}
	],
	"accessors":[
		{
			"bufferView":0,
			"componentType":5126,
			"count":2299,
			"max":[
				330.4853515625,
				281.2333984375,
				38.461578369140625
			],
			"min":[
				-339.90380859375,
				-290.16015625,
				-208.2711181640625
			],
			"type":"VEC3"
		},
		{
			"bufferView":1,
			"componentType":5126,
			"count":2299,
			"type":"VEC3"
		},
		{
			"bufferView":2,
			"componentType":5126,
			"count":2299,
			"type":"VEC2"
		},
		{
			"bufferView":3,
			"componentType":5123,
			"count":2796,
			"type":"SCALAR"
		}
	],
	"bufferViews":[
		{
			"buffer":0,
			"byteLength":27588,
			"byteOffset":0,
			"target":34962
		},
		{
			"buffer":0,
			"byteLength":27588,
			"byteOffset":27588,
			"target":34962
		},
		{
			"buffer":0,
			"byteLength":18392,
			"byteOffset":55176,
			"target":34962
		},
		{
			"buffer":0,
			"byteLength":5592,
			"byteOffset":73568,
			"target":34963
		}
	],
	"buffers":[
		{
			"byteLength":79160,
			"uri":"SM_Env_Rock_Pile_03.bin"
		}
	]
}
