{
	"asset":{
		"generator":"Khronos glTF Blender I/O v4.2.70",
		"version":"2.0"
	},
	"scene":0,
	"scenes":[
		{
			"name":"Scene",
			"nodes":[
				2
			]
		}
	],
	"nodes":[
		{
			"mesh":0,
			"name":"SM_Env_Bush_Tropical_03_LOD0"
		},
		{
			"mesh":1,
			"name":"SM_Env_Bush_Tropical_03_LOD1"
		},
		{
			"children":[
				0,
				1
			],
			"name":"SM_Env_Bush_Tropical_03",
			"rotation":[
				0.7071068286895752,
				0,
				0,
				0.7071068286895752
			],
			"scale":[
				0.009999999776482582,
				0.009999999776482582,
				0.009999999776482582
			]
		}
	],
	"materials":[
		{
			"alphaMode":"BLEND",
			"doubleSided":true,
			"name":"pasted__lambert2",
			"pbrMetallicRoughness":{
				"baseColorTexture":{
					"index":0
				},
				"metallicFactor":0,
				"roughnessFactor":0.5527864098548889
			}
		}
	],
	"meshes":[
		{
			"name":"Mesh",
			"primitives":[
				{
					"attributes":{
						"POSITION":0,
						"NORMAL":1,
						"TEXCOORD_0":2,
						"COLOR_0":3,
						"COLOR_1":4
					},
					"indices":5,
					"material":0
				}
			]
		},
		{
			"name":"Mesh.001",
			"primitives":[
				{
					"attributes":{
						"POSITION":6,
						"NORMAL":7,
						"TEXCOORD_0":8,
						"COLOR_0":9,
						"COLOR_1":10
					},
					"indices":11,
					"material":0
				}
			]
		}
	],
	"textures":[
		{
			"sampler":0,
			"source":0
		}
	],
	"images":[
		{
			"mimeType":"image/png",
			"name":"Gradient_Biolumin_01",
			"uri":"Gradient_Biolumin_01.png"
		}
	],
	"accessors":[
		{
			"bufferView":0,
			"componentType":5126,
			"count":6308,
			"max":[
				201.92205810546875,
				198.0342254638672,
				33.49967575073242
			],
			"min":[
				-221.3262176513672,
				-220.7413330078125,
				-106.607421875
			],
			"type":"VEC3"
		},
		{
			"bufferView":1,
			"componentType":5126,
			"count":6308,
			"type":"VEC3"
		},
		{
			"bufferView":2,
			"componentType":5126,
			"count":6308,
			"type":"VEC2"
		},
		{
			"bufferView":3,
			"componentType":5121,
			"count":6308,
			"normalized":true,
			"type":"VEC4"
		},
		{
			"bufferView":4,
			"componentType":5126,
			"count":6308,
			"type":"VEC3"
		},
		{
			"bufferView":5,
			"componentType":5123,
			"count":7968,
			"type":"SCALAR"
		},
		{
			"bufferView":6,
			"componentType":5126,
			"count":3652,
			"max":[
				208.4205780029297,
				204.63356018066406,
				42.734718322753906
			],
			"min":[
				-232.6107177734375,
				-215.94674682617188,
				-90.52959442138672
			],
			"type":"VEC3"
		},
		{
			"bufferView":7,
			"componentType":5126,
			"count":3652,
			"type":"VEC3"
		},
		{
			"bufferView":8,
			"componentType":5126,
			"count":3652,
			"type":"VEC2"
		},
		{
			"bufferView":9,
			"componentType":5121,
			"count":3652,
			"normalized":true,
			"type":"VEC4"
		},
		{
			"bufferView":10,
			"componentType":5126,
			"count":3652,
			"type":"VEC3"
		},
		{
			"bufferView":11,
			"componentType":5123,
			"count":3984,
			"type":"SCALAR"
		}
	],
	"bufferViews":[
		{
			"buffer":0,
			"byteLength":75696,
			"byteOffset":0,
			"target":34962
		},
		{
			"buffer":0,
			"byteLength":75696,
			"byteOffset":75696,
			"target":34962
		},
		{
			"buffer":0,
			"byteLength":50464,
			"byteOffset":151392,
			"target":34962
		},
		{
			"buffer":0,
			"byteLength":25232,
			"byteOffset":201856,
			"target":34962
		},
		{
			"buffer":0,
			"byteLength":75696,
			"byteOffset":227088,
			"target":34962
		},
		{
			"buffer":0,
			"byteLength":15936,
			"byteOffset":302784,
			"target":34963
		},
		{
			"buffer":0,
			"byteLength":43824,
			"byteOffset":318720,
			"target":34962
		},
		{
			"buffer":0,
			"byteLength":43824,
			"byteOffset":362544,
			"target":34962
		},
		{
			"buffer":0,
			"byteLength":29216,
			"byteOffset":406368,
			"target":34962
		},
		{
			"buffer":0,
			"byteLength":14608,
			"byteOffset":435584,
			"target":34962
		},
		{
			"buffer":0,
			"byteLength":43824,
			"byteOffset":450192,
			"target":34962
		},
		{
			"buffer":0,
			"byteLength":7968,
			"byteOffset":494016,
			"target":34963
		}
	],
	"samplers":[
		{
			"magFilter":9729,
			"minFilter":9987
		}
	],
	"buffers":[
		{
			"byteLength":501984,
			"uri":"SM_Env_Bush_Tropical_03.bin"
		}
	]
}
