{
	"asset":{
		"generator":"Khronos glTF Blender I/O v4.2.70",
		"version":"2.0"
	},
	"scene":0,
	"scenes":[
		{
			"name":"Scene",
			"nodes":[
				6
			]
		}
	],
	"nodes":[
		{
			"mesh":0,
			"name":"SM_Env_Tree_Forest_02_Branches_LOD0"
		},
		{
			"mesh":1,
			"name":"SM_Env_Tree_Forest_02_Branches_LOD1"
		},
		{
			"mesh":2,
			"name":"SM_Env_Tree_Forest_02_LOD0"
		},
		{
			"mesh":3,
			"name":"SM_Env_Tree_Forest_02_LOD1"
		},
		{
			"mesh":4,
			"name":"SM_Env_Tree_Forest_02_LOD2"
		},
		{
			"mesh":5,
			"name":"SM_Env_Tree_Forest_02_LOD3"
		},
		{
			"children":[
				0,
				1,
				2,
				3,
				4,
				5
			],
			"name":"SM_Env_Tree_Forest_02",
			"rotation":[
				0.7071068286895752,
				0,
				0,
				0.7071068286895752
			],
			"scale":[
				0.009999999776482582,
				0.009999999776482582,
				0.009999999776482582
			]
		}
	],
	"materials":[
		{
			"doubleSided":true,
			"name":"lambert25",
			"pbrMetallicRoughness":{
				"baseColorTexture":{
					"index":0
				},
				"metallicFactor":0,
				"roughnessFactor":0.5527864098548889
			}
		}
	],
	"meshes":[
		{
			"name":"Mesh",
			"primitives":[
				{
					"attributes":{
						"POSITION":0,
						"NORMAL":1,
						"TEXCOORD_0":2,
						"COLOR_0":3,
						"COLOR_1":4
					},
					"indices":5,
					"material":0
				}
			]
		},
		{
			"name":"Mesh.001",
			"primitives":[
				{
					"attributes":{
						"POSITION":6,
						"NORMAL":7,
						"TEXCOORD_0":8
					},
					"indices":9,
					"material":0
				}
			]
		},
		{
			"name":"Mesh.002",
			"primitives":[
				{
					"attributes":{
						"POSITION":10,
						"NORMAL":11,
						"TEXCOORD_0":12,
						"COLOR_0":13,
						"COLOR_1":14
					},
					"indices":15,
					"material":0
				}
			]
		},
		{
			"name":"Mesh.003",
			"primitives":[
				{
					"attributes":{
						"POSITION":16,
						"NORMAL":17,
						"TEXCOORD_0":18,
						"COLOR_0":19,
						"COLOR_1":20
					},
					"indices":21,
					"material":0
				}
			]
		},
		{
			"name":"Mesh.004",
			"primitives":[
				{
					"attributes":{
						"POSITION":22,
						"NORMAL":23,
						"TEXCOORD_0":24,
						"COLOR_0":25,
						"COLOR_1":26
					},
					"indices":27,
					"material":0
				}
			]
		},
		{
			"name":"Mesh.005",
			"primitives":[
				{
					"attributes":{
						"POSITION":28,
						"NORMAL":29,
						"TEXCOORD_0":30,
						"COLOR_0":31,
						"COLOR_1":32
					},
					"indices":33,
					"material":0
				}
			]
		}
	],
	"textures":[
		{
			"sampler":0,
			"source":0
		}
	],
	"images":[
		{
			"mimeType":"image/png",
			"name":"Branches_01",
			"uri":"Branches_01.png"
		}
	],
	"accessors":[
		{
			"bufferView":0,
			"componentType":5126,
			"count":4412,
			"max":[
				330.09228515625,
				398.7850341796875,
				-498.9972839355469
			],
			"min":[
				-486.5819091796875,
				-391.33758544921875,
				-1058.79833984375
			],
			"type":"VEC3"
		},
		{
			"bufferView":1,
			"componentType":5126,
			"count":4412,
			"type":"VEC3"
		},
		{
			"bufferView":2,
			"componentType":5126,
			"count":4412,
			"type":"VEC2"
		},
		{
			"bufferView":3,
			"componentType":5121,
			"count":4412,
			"normalized":true,
			"type":"VEC4"
		},
		{
			"bufferView":4,
			"componentType":5126,
			"count":4412,
			"type":"VEC3"
		},
		{
			"bufferView":5,
			"componentType":5123,
			"count":6786,
			"type":"SCALAR"
		},
		{
			"bufferView":6,
			"componentType":5126,
			"count":427,
			"max":[
				330.09228515625,
				398.7850341796875,
				-498.9972839355469
			],
			"min":[
				-486.5819091796875,
				-391.33758544921875,
				-1058.79833984375
			],
			"type":"VEC3"
		},
		{
			"bufferView":7,
			"componentType":5126,
			"count":427,
			"type":"VEC3"
		},
		{
			"bufferView":8,
			"componentType":5126,
			"count":427,
			"type":"VEC2"
		},
		{
			"bufferView":9,
			"componentType":5123,
			"count":1386,
			"type":"SCALAR"
		},
		{
			"bufferView":10,
			"componentType":5126,
			"count":23566,
			"max":[
				473.1363220214844,
				491.5882263183594,
				144.93307495117188
			],
			"min":[
				-569.9608154296875,
				-458.311279296875,
				-1107.958251953125
			],
			"type":"VEC3"
		},
		{
			"bufferView":11,
			"componentType":5126,
			"count":23566,
			"type":"VEC3"
		},
		{
			"bufferView":12,
			"componentType":5126,
			"count":23566,
			"type":"VEC2"
		},
		{
			"bufferView":13,
			"componentType":5121,
			"count":23566,
			"normalized":true,
			"type":"VEC4"
		},
		{
			"bufferView":14,
			"componentType":5126,
			"count":23566,
			"type":"VEC3"
		},
		{
			"bufferView":15,
			"componentType":5123,
			"count":35172,
			"type":"SCALAR"
		},
		{
			"bufferView":16,
			"componentType":5126,
			"count":12918,
			"max":[
				452.9683532714844,
				477.2760009765625,
				144.93307495117188
			],
			"min":[
				-560.811279296875,
				-445.12542724609375,
				-1098.873779296875
			],
			"type":"VEC3"
		},
		{
			"bufferView":17,
			"componentType":5126,
			"count":12918,
			"type":"VEC3"
		},
		{
			"bufferView":18,
			"componentType":5126,
			"count":12918,
			"type":"VEC2"
		},
		{
			"bufferView":19,
			"componentType":5121,
			"count":12918,
			"normalized":true,
			"type":"VEC4"
		},
		{
			"bufferView":20,
			"componentType":5126,
			"count":12918,
			"type":"VEC3"
		},
		{
			"bufferView":21,
			"componentType":5123,
			"count":19218,
			"type":"SCALAR"
		},
		{
			"bufferView":22,
			"componentType":5126,
			"count":7152,
			"max":[
				467.66619873046875,
				483.0052795410156,
				144.93307495117188
			],
			"min":[
				-576.033203125,
				-439.9344482421875,
				-1095.169189453125
			],
			"type":"VEC3"
		},
		{
			"bufferView":23,
			"componentType":5126,
			"count":7152,
			"type":"VEC3"
		},
		{
			"bufferView":24,
			"componentType":5126,
			"count":7152,
			"type":"VEC2"
		},
		{
			"bufferView":25,
			"componentType":5121,
			"count":7152,
			"normalized":true,
			"type":"VEC4"
		},
		{
			"bufferView":26,
			"componentType":5126,
			"count":7152,
			"type":"VEC3"
		},
		{
			"bufferView":27,
			"componentType":5123,
			"count":10440,
			"type":"SCALAR"
		},
		{
			"bufferView":28,
			"componentType":5126,
			"count":20,
			"max":[
				500.91357421875,
				509.5821228027344,
				165.6151123046875
			],
			"min":[
				-588.0333251953125,
				-478.6418762207031,
				-1116.516357421875
			],
			"type":"VEC3"
		},
		{
			"bufferView":29,
			"componentType":5126,
			"count":20,
			"type":"VEC3"
		},
		{
			"bufferView":30,
			"componentType":5126,
			"count":20,
			"type":"VEC2"
		},
		{
			"bufferView":31,
			"componentType":5121,
			"count":20,
			"normalized":true,
			"type":"VEC4"
		},
		{
			"bufferView":32,
			"componentType":5126,
			"count":20,
			"type":"VEC3"
		},
		{
			"bufferView":33,
			"componentType":5123,
			"count":36,
			"type":"SCALAR"
		}
	],
	"bufferViews":[
		{
			"buffer":0,
			"byteLength":52944,
			"byteOffset":0,
			"target":34962
		},
		{
			"buffer":0,
			"byteLength":52944,
			"byteOffset":52944,
			"target":34962
		},
		{
			"buffer":0,
			"byteLength":35296,
			"byteOffset":105888,
			"target":34962
		},
		{
			"buffer":0,
			"byteLength":17648,
			"byteOffset":141184,
			"target":34962
		},
		{
			"buffer":0,
			"byteLength":52944,
			"byteOffset":158832,
			"target":34962
		},
		{
			"buffer":0,
			"byteLength":13572,
			"byteOffset":211776,
			"target":34963
		},
		{
			"buffer":0,
			"byteLength":5124,
			"byteOffset":225348,
			"target":34962
		},
		{
			"buffer":0,
			"byteLength":5124,
			"byteOffset":230472,
			"target":34962
		},
		{
			"buffer":0,
			"byteLength":3416,
			"byteOffset":235596,
			"target":34962
		},
		{
			"buffer":0,
			"byteLength":2772,
			"byteOffset":239012,
			"target":34963
		},
		{
			"buffer":0,
			"byteLength":282792,
			"byteOffset":241784,
			"target":34962
		},
		{
			"buffer":0,
			"byteLength":282792,
			"byteOffset":524576,
			"target":34962
		},
		{
			"buffer":0,
			"byteLength":188528,
			"byteOffset":807368,
			"target":34962
		},
		{
			"buffer":0,
			"byteLength":94264,
			"byteOffset":995896,
			"target":34962
		},
		{
			"buffer":0,
			"byteLength":282792,
			"byteOffset":1090160,
			"target":34962
		},
		{
			"buffer":0,
			"byteLength":70344,
			"byteOffset":1372952,
			"target":34963
		},
		{
			"buffer":0,
			"byteLength":155016,
			"byteOffset":1443296,
			"target":34962
		},
		{
			"buffer":0,
			"byteLength":155016,
			"byteOffset":1598312,
			"target":34962
		},
		{
			"buffer":0,
			"byteLength":103344,
			"byteOffset":1753328,
			"target":34962
		},
		{
			"buffer":0,
			"byteLength":51672,
			"byteOffset":1856672,
			"target":34962
		},
		{
			"buffer":0,
			"byteLength":155016,
			"byteOffset":1908344,
			"target":34962
		},
		{
			"buffer":0,
			"byteLength":38436,
			"byteOffset":2063360,
			"target":34963
		},
		{
			"buffer":0,
			"byteLength":85824,
			"byteOffset":2101796,
			"target":34962
		},
		{
			"buffer":0,
			"byteLength":85824,
			"byteOffset":2187620,
			"target":34962
		},
		{
			"buffer":0,
			"byteLength":57216,
			"byteOffset":2273444,
			"target":34962
		},
		{
			"buffer":0,
			"byteLength":28608,
			"byteOffset":2330660,
			"target":34962
		},
		{
			"buffer":0,
			"byteLength":85824,
			"byteOffset":2359268,
			"target":34962
		},
		{
			"buffer":0,
			"byteLength":20880,
			"byteOffset":2445092,
			"target":34963
		},
		{
			"buffer":0,
			"byteLength":240,
			"byteOffset":2465972,
			"target":34962
		},
		{
			"buffer":0,
			"byteLength":240,
			"byteOffset":2466212,
			"target":34962
		},
		{
			"buffer":0,
			"byteLength":160,
			"byteOffset":2466452,
			"target":34962
		},
		{
			"buffer":0,
			"byteLength":80,
			"byteOffset":2466612,
			"target":34962
		},
		{
			"buffer":0,
			"byteLength":240,
			"byteOffset":2466692,
			"target":34962
		},
		{
			"buffer":0,
			"byteLength":72,
			"byteOffset":2466932,
			"target":34963
		}
	],
	"samplers":[
		{
			"magFilter":9729,
			"minFilter":9987
		}
	],
	"buffers":[
		{
			"byteLength":2467004,
			"uri":"SM_Env_Tree_Forest_02.bin"
		}
	]
}
