{
	"asset":{
		"generator":"Khronos glTF Blender I/O v4.2.70",
		"version":"2.0"
	},
	"scene":0,
	"scenes":[
		{
			"name":"Scene",
			"nodes":[
				0
			]
		}
	],
	"nodes":[
		{
			"mesh":0,
			"name":"SM_Env_Rock_05",
			"rotation":[
				0.7071068286895752,
				0,
				0,
				0.7071068286895752
			],
			"scale":[
				0.009999999776482582,
				0.009999999776482582,
				0.009999999776482582
			]
		}
	],
	"materials":[
		{
			"doubleSided":true,
			"name":"Nature17",
			"pbrMetallicRoughness":{
				"metallicFactor":0,
				"roughnessFactor":0.5527864098548889
			}
		}
	],
	"meshes":[
		{
			"name":"Mesh",
			"primitives":[
				{
					"attributes":{
						"POSITION":0,
						"NORMAL":1,
						"TEXCOORD_0":2
					},
					"indices":3,
					"material":0
				}
			]
		}
	],
	"accessors":[
		{
			"bufferView":0,
			"componentType":5126,
			"count":1498,
			"max":[
				172.66668701171875,
				183.80641174316406,
				8.092931747436523
			],
			"min":[
				-182.53289794921875,
				-189.62892150878906,
				-245.40171813964844
			],
			"type":"VEC3"
		},
		{
			"bufferView":1,
			"componentType":5126,
			"count":1498,
			"type":"VEC3"
		},
		{
			"bufferView":2,
			"componentType":5126,
			"count":1498,
			"type":"VEC2"
		},
		{
			"bufferView":3,
			"componentType":5123,
			"count":1716,
			"type":"SCALAR"
		}
	],
	"bufferViews":[
		{
			"buffer":0,
			"byteLength":17976,
			"byteOffset":0,
			"target":34962
		},
		{
			"buffer":0,
			"byteLength":17976,
			"byteOffset":17976,
			"target":34962
		},
		{
			"buffer":0,
			"byteLength":11984,
			"byteOffset":35952,
			"target":34962
		},
		{
			"buffer":0,
			"byteLength":3432,
			"byteOffset":47936,
			"target":34963
		}
	],
	"buffers":[
		{
			"byteLength":51368,
			"uri":"SM_Env_Rock_05.bin"
		}
	]
}
