{
	"asset":{
		"generator":"Khronos glTF Blender I/O v4.2.70",
		"version":"2.0"
	},
	"scene":0,
	"scenes":[
		{
			"name":"Scene",
			"nodes":[
				0
			]
		}
	],
	"nodes":[
		{
			"mesh":0,
			"name":"SM_Env_Rock_Pile_04",
			"rotation":[
				0.7071068286895752,
				0,
				0,
				0.7071068286895752
			],
			"scale":[
				0.009999999776482582,
				0.009999999776482582,
				0.009999999776482582
			]
		}
	],
	"materials":[
		{
			"doubleSided":true,
			"name":"Nature30",
			"pbrMetallicRoughness":{
				"metallicFactor":0,
				"roughnessFactor":0.5527864098548889
			}
		}
	],
	"meshes":[
		{
			"name":"Mesh",
			"primitives":[
				{
					"attributes":{
						"POSITION":0,
						"NORMAL":1,
						"TEXCOORD_0":2
					},
					"indices":3,
					"material":0
				}
			]
		}
	],
	"accessors":[
		{
			"bufferView":0,
			"componentType":5126,
			"count":1522,
			"max":[
				303.0361328125,
				227.26611328125,
				37.271663665771484
			],
			"min":[
				-312.4541015625,
				-236.19287109375,
				-142.2605743408203
			],
			"type":"VEC3"
		},
		{
			"bufferView":1,
			"componentType":5126,
			"count":1522,
			"type":"VEC3"
		},
		{
			"bufferView":2,
			"componentType":5126,
			"count":1522,
			"type":"VEC2"
		},
		{
			"bufferView":3,
			"componentType":5123,
			"count":1914,
			"type":"SCALAR"
		}
	],
	"bufferViews":[
		{
			"buffer":0,
			"byteLength":18264,
			"byteOffset":0,
			"target":34962
		},
		{
			"buffer":0,
			"byteLength":18264,
			"byteOffset":18264,
			"target":34962
		},
		{
			"buffer":0,
			"byteLength":12176,
			"byteOffset":36528,
			"target":34962
		},
		{
			"buffer":0,
			"byteLength":3828,
			"byteOffset":48704,
			"target":34963
		}
	],
	"buffers":[
		{
			"byteLength":52532,
			"uri":"SM_Env_Rock_Pile_04.bin"
		}
	]
}
