{
	"asset":{
		"generator":"Khronos glTF Blender I/O v4.2.70",
		"version":"2.0"
	},
	"scene":0,
	"scenes":[
		{
			"name":"Scene",
			"nodes":[
				6
			]
		}
	],
	"nodes":[
		{
			"mesh":0,
			"name":"SM_Env_Tree_Banana_01_Leaves_LOD0"
		},
		{
			"mesh":1,
			"name":"SM_Env_Tree_Banana_01_Leaves_LOD1"
		},
		{
			"mesh":2,
			"name":"SM_Env_Tree_Banana_01_Leaves_LOD2"
		},
		{
			"mesh":3,
			"name":"SM_Env_Tree_Banana_01_LOD0"
		},
		{
			"mesh":4,
			"name":"SM_Env_Tree_Banana_01_LOD1"
		},
		{
			"mesh":5,
			"name":"SM_Env_Tree_Banana_01_LOD2"
		},
		{
			"children":[
				0,
				1,
				2,
				3,
				4,
				5
			],
			"name":"SM_Env_Tree_Banana_01",
			"rotation":[
				0.7071068286895752,
				0,
				0,
				0.7071068286895752
			],
			"scale":[
				0.009999999776482582,
				0.009999999776482582,
				0.009999999776482582
			]
		}
	],
	"materials":[
		{
			"doubleSided":true,
			"name":"Leaf5",
			"pbrMetallicRoughness":{
				"metallicFactor":0,
				"roughnessFactor":0.5527864098548889
			}
		},
		{
			"alphaMode":"BLEND",
			"doubleSided":true,
			"name":"CardSHD",
			"pbrMetallicRoughness":{
				"metallicFactor":0,
				"roughnessFactor":0.5527864098548889
			}
		},
		{
			"doubleSided":true,
			"name":"trunk2",
			"pbrMetallicRoughness":{
				"metallicFactor":0,
				"roughnessFactor":0.5527864098548889
			}
		}
	],
	"meshes":[
		{
			"name":"Mesh.001",
			"primitives":[
				{
					"attributes":{
						"POSITION":0,
						"NORMAL":1,
						"TEXCOORD_0":2,
						"TEXCOORD_1":3,
						"COLOR_0":4,
						"COLOR_1":5
					},
					"indices":6,
					"material":0
				}
			]
		},
		{
			"name":"Mesh.003",
			"primitives":[
				{
					"attributes":{
						"POSITION":7,
						"NORMAL":8,
						"TEXCOORD_0":9,
						"TEXCOORD_1":10,
						"COLOR_0":11,
						"COLOR_1":12
					},
					"indices":13,
					"material":0
				}
			]
		},
		{
			"name":"Mesh.005",
			"primitives":[
				{
					"attributes":{
						"POSITION":14,
						"NORMAL":15,
						"TEXCOORD_0":16,
						"COLOR_0":17,
						"COLOR_1":18
					},
					"indices":19,
					"material":1
				}
			]
		},
		{
			"name":"Mesh",
			"primitives":[
				{
					"attributes":{
						"POSITION":20,
						"NORMAL":21,
						"TEXCOORD_0":22,
						"TEXCOORD_1":23,
						"COLOR_0":24,
						"COLOR_1":25
					},
					"indices":26,
					"material":2
				}
			]
		},
		{
			"name":"Mesh.002",
			"primitives":[
				{
					"attributes":{
						"POSITION":27,
						"NORMAL":28,
						"TEXCOORD_0":29,
						"TEXCOORD_1":30,
						"COLOR_0":31,
						"COLOR_1":32
					},
					"indices":33,
					"material":2
				}
			]
		},
		{
			"name":"Mesh.004",
			"primitives":[
				{
					"attributes":{
						"POSITION":34,
						"NORMAL":35,
						"TEXCOORD_0":36,
						"COLOR_0":37,
						"COLOR_1":38
					},
					"indices":19,
					"material":1
				}
			]
		}
	],
	"accessors":[
		{
			"bufferView":0,
			"componentType":5126,
			"count":681,
			"max":[
				274.9779357910156,
				270.8690490722656,
				-274.1519775390625
			],
			"min":[
				-218.8441162109375,
				-237.00039672851562,
				-554.469482421875
			],
			"type":"VEC3"
		},
		{
			"bufferView":1,
			"componentType":5126,
			"count":681,
			"type":"VEC3"
		},
		{
			"bufferView":2,
			"componentType":5126,
			"count":681,
			"type":"VEC2"
		},
		{
			"bufferView":3,
			"componentType":5126,
			"count":681,
			"type":"VEC2"
		},
		{
			"bufferView":4,
			"componentType":5121,
			"count":681,
			"normalized":true,
			"type":"VEC4"
		},
		{
			"bufferView":5,
			"componentType":5126,
			"count":681,
			"type":"VEC3"
		},
		{
			"bufferView":6,
			"componentType":5123,
			"count":1224,
			"type":"SCALAR"
		},
		{
			"bufferView":7,
			"componentType":5126,
			"count":459,
			"max":[
				274.9779357910156,
				270.8690490722656,
				-274.1519775390625
			],
			"min":[
				-218.8441162109375,
				-237.00039672851562,
				-550.411376953125
			],
			"type":"VEC3"
		},
		{
			"bufferView":8,
			"componentType":5126,
			"count":459,
			"type":"VEC3"
		},
		{
			"bufferView":9,
			"componentType":5126,
			"count":459,
			"type":"VEC2"
		},
		{
			"bufferView":10,
			"componentType":5126,
			"count":459,
			"type":"VEC2"
		},
		{
			"bufferView":11,
			"componentType":5121,
			"count":459,
			"normalized":true,
			"type":"VEC4"
		},
		{
			"bufferView":12,
			"componentType":5126,
			"count":459,
			"type":"VEC3"
		},
		{
			"bufferView":13,
			"componentType":5123,
			"count":660,
			"type":"SCALAR"
		},
		{
			"bufferView":14,
			"componentType":5126,
			"count":8,
			"max":[
				281.55950927734375,
				279.6976623535156,
				-269.5237121582031
			],
			"min":[
				-234.07733154296875,
				-244.53317260742188,
				-564.7821655273438
			],
			"type":"VEC3"
		},
		{
			"bufferView":15,
			"componentType":5126,
			"count":8,
			"type":"VEC3"
		},
		{
			"bufferView":16,
			"componentType":5126,
			"count":8,
			"type":"VEC2"
		},
		{
			"bufferView":17,
			"componentType":5121,
			"count":8,
			"normalized":true,
			"type":"VEC4"
		},
		{
			"bufferView":18,
			"componentType":5126,
			"count":8,
			"type":"VEC3"
		},
		{
			"bufferView":19,
			"componentType":5123,
			"count":12,
			"type":"SCALAR"
		},
		{
			"bufferView":20,
			"componentType":5126,
			"count":224,
			"max":[
				49.24867248535156,
				48.47138214111328,
				32.90586853027344
			],
			"min":[
				-48.26820373535156,
				-44.36088562011719,
				-289.85296630859375
			],
			"type":"VEC3"
		},
		{
			"bufferView":21,
			"componentType":5126,
			"count":224,
			"type":"VEC3"
		},
		{
			"bufferView":22,
			"componentType":5126,
			"count":224,
			"type":"VEC2"
		},
		{
			"bufferView":23,
			"componentType":5126,
			"count":224,
			"type":"VEC2"
		},
		{
			"bufferView":24,
			"componentType":5121,
			"count":224,
			"normalized":true,
			"type":"VEC4"
		},
		{
			"bufferView":25,
			"componentType":5126,
			"count":224,
			"type":"VEC3"
		},
		{
			"bufferView":26,
			"componentType":5123,
			"count":324,
			"type":"SCALAR"
		},
		{
			"bufferView":27,
			"componentType":5126,
			"count":130,
			"max":[
				49.5373649597168,
				48.7462158203125,
				32.90586853027344
			],
			"min":[
				-48.5568962097168,
				-44.635719299316406,
				-289.85296630859375
			],
			"type":"VEC3"
		},
		{
			"bufferView":28,
			"componentType":5126,
			"count":130,
			"type":"VEC3"
		},
		{
			"bufferView":29,
			"componentType":5126,
			"count":130,
			"type":"VEC2"
		},
		{
			"bufferView":30,
			"componentType":5126,
			"count":130,
			"type":"VEC2"
		},
		{
			"bufferView":31,
			"componentType":5121,
			"count":130,
			"normalized":true,
			"type":"VEC4"
		},
		{
			"bufferView":32,
			"componentType":5126,
			"count":130,
			"type":"VEC3"
		},
		{
			"bufferView":33,
			"componentType":5123,
			"count":186,
			"type":"SCALAR"
		},
		{
			"bufferView":34,
			"componentType":5126,
			"count":8,
			"max":[
				60.930747985839844,
				60.930747985839844,
				42.23769760131836
			],
			"min":[
				-60.930747985839844,
				-60.930747985839844,
				-308.0586242675781
			],
			"type":"VEC3"
		},
		{
			"bufferView":35,
			"componentType":5126,
			"count":8,
			"type":"VEC3"
		},
		{
			"bufferView":36,
			"componentType":5126,
			"count":8,
			"type":"VEC2"
		},
		{
			"bufferView":37,
			"componentType":5121,
			"count":8,
			"normalized":true,
			"type":"VEC4"
		},
		{
			"bufferView":38,
			"componentType":5126,
			"count":8,
			"type":"VEC3"
		}
	],
	"bufferViews":[
		{
			"buffer":0,
			"byteLength":8172,
			"byteOffset":0,
			"target":34962
		},
		{
			"buffer":0,
			"byteLength":8172,
			"byteOffset":8172,
			"target":34962
		},
		{
			"buffer":0,
			"byteLength":5448,
			"byteOffset":16344,
			"target":34962
		},
		{
			"buffer":0,
			"byteLength":5448,
			"byteOffset":21792,
			"target":34962
		},
		{
			"buffer":0,
			"byteLength":2724,
			"byteOffset":27240,
			"target":34962
		},
		{
			"buffer":0,
			"byteLength":8172,
			"byteOffset":29964,
			"target":34962
		},
		{
			"buffer":0,
			"byteLength":2448,
			"byteOffset":38136,
			"target":34963
		},
		{
			"buffer":0,
			"byteLength":5508,
			"byteOffset":40584,
			"target":34962
		},
		{
			"buffer":0,
			"byteLength":5508,
			"byteOffset":46092,
			"target":34962
		},
		{
			"buffer":0,
			"byteLength":3672,
			"byteOffset":51600,
			"target":34962
		},
		{
			"buffer":0,
			"byteLength":3672,
			"byteOffset":55272,
			"target":34962
		},
		{
			"buffer":0,
			"byteLength":1836,
			"byteOffset":58944,
			"target":34962
		},
		{
			"buffer":0,
			"byteLength":5508,
			"byteOffset":60780,
			"target":34962
		},
		{
			"buffer":0,
			"byteLength":1320,
			"byteOffset":66288,
			"target":34963
		},
		{
			"buffer":0,
			"byteLength":96,
			"byteOffset":67608,
			"target":34962
		},
		{
			"buffer":0,
			"byteLength":96,
			"byteOffset":67704,
			"target":34962
		},
		{
			"buffer":0,
			"byteLength":64,
			"byteOffset":67800,
			"target":34962
		},
		{
			"buffer":0,
			"byteLength":32,
			"byteOffset":67864,
			"target":34962
		},
		{
			"buffer":0,
			"byteLength":96,
			"byteOffset":67896,
			"target":34962
		},
		{
			"buffer":0,
			"byteLength":24,
			"byteOffset":67992,
			"target":34963
		},
		{
			"buffer":0,
			"byteLength":2688,
			"byteOffset":68016,
			"target":34962
		},
		{
			"buffer":0,
			"byteLength":2688,
			"byteOffset":70704,
			"target":34962
		},
		{
			"buffer":0,
			"byteLength":1792,
			"byteOffset":73392,
			"target":34962
		},
		{
			"buffer":0,
			"byteLength":1792,
			"byteOffset":75184,
			"target":34962
		},
		{
			"buffer":0,
			"byteLength":896,
			"byteOffset":76976,
			"target":34962
		},
		{
			"buffer":0,
			"byteLength":2688,
			"byteOffset":77872,
			"target":34962
		},
		{
			"buffer":0,
			"byteLength":648,
			"byteOffset":80560,
			"target":34963
		},
		{
			"buffer":0,
			"byteLength":1560,
			"byteOffset":81208,
			"target":34962
		},
		{
			"buffer":0,
			"byteLength":1560,
			"byteOffset":82768,
			"target":34962
		},
		{
			"buffer":0,
			"byteLength":1040,
			"byteOffset":84328,
			"target":34962
		},
		{
			"buffer":0,
			"byteLength":1040,
			"byteOffset":85368,
			"target":34962
		},
		{
			"buffer":0,
			"byteLength":520,
			"byteOffset":86408,
			"target":34962
		},
		{
			"buffer":0,
			"byteLength":1560,
			"byteOffset":86928,
			"target":34962
		},
		{
			"buffer":0,
			"byteLength":372,
			"byteOffset":88488,
			"target":34963
		},
		{
			"buffer":0,
			"byteLength":96,
			"byteOffset":88860,
			"target":34962
		},
		{
			"buffer":0,
			"byteLength":96,
			"byteOffset":88956,
			"target":34962
		},
		{
			"buffer":0,
			"byteLength":64,
			"byteOffset":89052,
			"target":34962
		},
		{
			"buffer":0,
			"byteLength":32,
			"byteOffset":89116,
			"target":34962
		},
		{
			"buffer":0,
			"byteLength":96,
			"byteOffset":89148,
			"target":34962
		}
	],
	"buffers":[
		{
			"byteLength":89244,
			"uri":"SM_Env_Tree_Banana_04.bin"
		}
	]
}
