{
	"asset":{
		"generator":"Khronos glTF Blender I/O v4.2.70",
		"version":"2.0"
	},
	"scene":0,
	"scenes":[
		{
			"name":"Scene",
			"nodes":[
				0
			]
		}
	],
	"nodes":[
		{
			"mesh":0,
			"name":"SM_Env_Tree_Palm_01_Coconuts_01",
			"rotation":[
				0.7071068286895752,
				0,
				0,
				0.7071068286895752
			],
			"scale":[
				0.009999999776482582,
				0.009999999776482582,
				0.009999999776482582
			]
		}
	],
	"materials":[
		{
			"doubleSided":true,
			"name":"Explorer_MAT11",
			"pbrMetallicRoughness":{
				"baseColorTexture":{
					"index":0
				},
				"metallicFactor":0,
				"roughnessFactor":0.5527864098548889
			}
		}
	],
	"meshes":[
		{
			"name":"Mesh",
			"primitives":[
				{
					"attributes":{
						"POSITION":0,
						"NORMAL":1,
						"TEXCOORD_0":2,
						"COLOR_0":3,
						"COLOR_1":4
					},
					"indices":5,
					"material":0
				}
			]
		}
	],
	"textures":[
		{
			"sampler":0,
			"source":0
		}
	],
	"images":[
		{
			"mimeType":"image/png",
			"name":"PolygonNatureBiomes_Tropical_Texture_01",
			"uri":"PolygonNatureBiomes_Tropical_Texture_01.png"
		}
	],
	"accessors":[
		{
			"bufferView":0,
			"componentType":5126,
			"count":1476,
			"max":[
				147.3536834716797,
				42.6766471862793,
				-571.2608032226562
			],
			"min":[
				60.949832916259766,
				-39.053321838378906,
				-638.7877807617188
			],
			"type":"VEC3"
		},
		{
			"bufferView":1,
			"componentType":5126,
			"count":1476,
			"type":"VEC3"
		},
		{
			"bufferView":2,
			"componentType":5126,
			"count":1476,
			"type":"VEC2"
		},
		{
			"bufferView":3,
			"componentType":5121,
			"count":1476,
			"normalized":true,
			"type":"VEC4"
		},
		{
			"bufferView":4,
			"componentType":5126,
			"count":1476,
			"type":"VEC3"
		},
		{
			"bufferView":5,
			"componentType":5123,
			"count":2052,
			"type":"SCALAR"
		}
	],
	"bufferViews":[
		{
			"buffer":0,
			"byteLength":17712,
			"byteOffset":0,
			"target":34962
		},
		{
			"buffer":0,
			"byteLength":17712,
			"byteOffset":17712,
			"target":34962
		},
		{
			"buffer":0,
			"byteLength":11808,
			"byteOffset":35424,
			"target":34962
		},
		{
			"buffer":0,
			"byteLength":5904,
			"byteOffset":47232,
			"target":34962
		},
		{
			"buffer":0,
			"byteLength":17712,
			"byteOffset":53136,
			"target":34962
		},
		{
			"buffer":0,
			"byteLength":4104,
			"byteOffset":70848,
			"target":34963
		}
	],
	"samplers":[
		{
			"magFilter":9729,
			"minFilter":9987
		}
	],
	"buffers":[
		{
			"byteLength":74952,
			"uri":"SM_Env_Tree_Palm_01_Coconuts_01.bin"
		}
	]
}
