{
	"asset":{
		"generator":"Khronos glTF Blender I/O v4.2.70",
		"version":"2.0"
	},
	"scene":0,
	"scenes":[
		{
			"name":"Scene",
			"nodes":[
				3
			]
		}
	],
	"nodes":[
		{
			"mesh":0,
			"name":"SM_Env_Bush_Palm_03_LOD0"
		},
		{
			"mesh":1,
			"name":"SM_Env_Bush_Palm_03_LOD1"
		},
		{
			"mesh":2,
			"name":"SM_Env_Bush_Palm_03_LOD2"
		},
		{
			"children":[
				0,
				1,
				2
			],
			"name":"SM_Env_Bush_Palm_03",
			"rotation":[
				0.7071068286895752,
				0,
				0,
				0.7071068286895752
			],
			"scale":[
				0.009999999776482582,
				0.009999999776482582,
				0.009999999776482582
			]
		}
	],
	"materials":[
		{
			"doubleSided":true,
			"name":"lambert9",
			"pbrMetallicRoughness":{
				"baseColorTexture":{
					"index":0
				},
				"metallicFactor":0,
				"roughnessFactor":0.5527864098548889
			}
		}
	],
	"meshes":[
		{
			"name":"Mesh",
			"primitives":[
				{
					"attributes":{
						"POSITION":0,
						"NORMAL":1,
						"TEXCOORD_0":2,
						"COLOR_0":3,
						"COLOR_1":4
					},
					"indices":5,
					"material":0
				}
			]
		},
		{
			"name":"Mesh.001",
			"primitives":[
				{
					"attributes":{
						"POSITION":6,
						"NORMAL":7,
						"TEXCOORD_0":8,
						"COLOR_0":9,
						"COLOR_1":10
					},
					"indices":11,
					"material":0
				}
			]
		},
		{
			"name":"Mesh.002",
			"primitives":[
				{
					"attributes":{
						"POSITION":12,
						"NORMAL":13,
						"TEXCOORD_0":14,
						"COLOR_0":15,
						"COLOR_1":16
					},
					"indices":17,
					"material":0
				}
			]
		}
	],
	"textures":[
		{
			"sampler":0,
			"source":0
		}
	],
	"images":[
		{
			"mimeType":"image/png",
			"name":"Leaf_Palm_01_Normals",
			"uri":"Leaf_Palm_01_Normals.png"
		}
	],
	"accessors":[
		{
			"bufferView":0,
			"componentType":5126,
			"count":745,
			"max":[
				127.59076690673828,
				127.13931274414062,
				20.424840927124023
			],
			"min":[
				-65.82942199707031,
				-100.25529479980469,
				-201.80714416503906
			],
			"type":"VEC3"
		},
		{
			"bufferView":1,
			"componentType":5126,
			"count":745,
			"type":"VEC3"
		},
		{
			"bufferView":2,
			"componentType":5126,
			"count":745,
			"type":"VEC2"
		},
		{
			"bufferView":3,
			"componentType":5121,
			"count":745,
			"normalized":true,
			"type":"VEC4"
		},
		{
			"bufferView":4,
			"componentType":5126,
			"count":745,
			"type":"VEC3"
		},
		{
			"bufferView":5,
			"componentType":5123,
			"count":1314,
			"type":"SCALAR"
		},
		{
			"bufferView":6,
			"componentType":5126,
			"count":527,
			"max":[
				127.59076690673828,
				127.13931274414062,
				20.424840927124023
			],
			"min":[
				-64.71697998046875,
				-100.25529479980469,
				-199.5661163330078
			],
			"type":"VEC3"
		},
		{
			"bufferView":7,
			"componentType":5126,
			"count":527,
			"type":"VEC3"
		},
		{
			"bufferView":8,
			"componentType":5126,
			"count":527,
			"type":"VEC2"
		},
		{
			"bufferView":9,
			"componentType":5121,
			"count":527,
			"normalized":true,
			"type":"VEC4"
		},
		{
			"bufferView":10,
			"componentType":5126,
			"count":527,
			"type":"VEC3"
		},
		{
			"bufferView":11,
			"componentType":5123,
			"count":822,
			"type":"SCALAR"
		},
		{
			"bufferView":12,
			"componentType":5126,
			"count":417,
			"max":[
				127.59076690673828,
				127.13931274414062,
				20.424840927124023
			],
			"min":[
				-64.71697998046875,
				-100.25529479980469,
				-202.5150909423828
			],
			"type":"VEC3"
		},
		{
			"bufferView":13,
			"componentType":5126,
			"count":417,
			"type":"VEC3"
		},
		{
			"bufferView":14,
			"componentType":5126,
			"count":417,
			"type":"VEC2"
		},
		{
			"bufferView":15,
			"componentType":5121,
			"count":417,
			"normalized":true,
			"type":"VEC4"
		},
		{
			"bufferView":16,
			"componentType":5126,
			"count":417,
			"type":"VEC3"
		},
		{
			"bufferView":17,
			"componentType":5123,
			"count":618,
			"type":"SCALAR"
		}
	],
	"bufferViews":[
		{
			"buffer":0,
			"byteLength":8940,
			"byteOffset":0,
			"target":34962
		},
		{
			"buffer":0,
			"byteLength":8940,
			"byteOffset":8940,
			"target":34962
		},
		{
			"buffer":0,
			"byteLength":5960,
			"byteOffset":17880,
			"target":34962
		},
		{
			"buffer":0,
			"byteLength":2980,
			"byteOffset":23840,
			"target":34962
		},
		{
			"buffer":0,
			"byteLength":8940,
			"byteOffset":26820,
			"target":34962
		},
		{
			"buffer":0,
			"byteLength":2628,
			"byteOffset":35760,
			"target":34963
		},
		{
			"buffer":0,
			"byteLength":6324,
			"byteOffset":38388,
			"target":34962
		},
		{
			"buffer":0,
			"byteLength":6324,
			"byteOffset":44712,
			"target":34962
		},
		{
			"buffer":0,
			"byteLength":4216,
			"byteOffset":51036,
			"target":34962
		},
		{
			"buffer":0,
			"byteLength":2108,
			"byteOffset":55252,
			"target":34962
		},
		{
			"buffer":0,
			"byteLength":6324,
			"byteOffset":57360,
			"target":34962
		},
		{
			"buffer":0,
			"byteLength":1644,
			"byteOffset":63684,
			"target":34963
		},
		{
			"buffer":0,
			"byteLength":5004,
			"byteOffset":65328,
			"target":34962
		},
		{
			"buffer":0,
			"byteLength":5004,
			"byteOffset":70332,
			"target":34962
		},
		{
			"buffer":0,
			"byteLength":3336,
			"byteOffset":75336,
			"target":34962
		},
		{
			"buffer":0,
			"byteLength":1668,
			"byteOffset":78672,
			"target":34962
		},
		{
			"buffer":0,
			"byteLength":5004,
			"byteOffset":80340,
			"target":34962
		},
		{
			"buffer":0,
			"byteLength":1236,
			"byteOffset":85344,
			"target":34963
		}
	],
	"samplers":[
		{
			"magFilter":9729,
			"minFilter":9987
		}
	],
	"buffers":[
		{
			"byteLength":86580,
			"uri":"SM_Env_Bush_Palm_03.bin"
		}
	]
}
