{
	"asset":{
		"generator":"Khronos glTF Blender I/O v4.2.70",
		"version":"2.0"
	},
	"scene":0,
	"scenes":[
		{
			"name":"Scene",
			"nodes":[
				2
			]
		}
	],
	"nodes":[
		{
			"mesh":0,
			"name":"SM_Env_Fern_Part_02_LOD0"
		},
		{
			"mesh":1,
			"name":"SM_Env_Fern_Part_02_LOD1"
		},
		{
			"children":[
				0,
				1
			],
			"name":"SM_Env_Fern_Part_02",
			"rotation":[
				0.7071068286895752,
				0,
				0,
				0.7071068286895752
			],
			"scale":[
				0.009999999776482582,
				0.009999999776482582,
				0.009999999776482582
			]
		}
	],
	"materials":[
		{
			"doubleSided":true,
			"name":"Leaf10",
			"pbrMetallicRoughness":{
				"baseColorTexture":{
					"index":0
				},
				"metallicFactor":0,
				"roughnessFactor":0.5527864098548889
			}
		}
	],
	"meshes":[
		{
			"name":"Mesh",
			"primitives":[
				{
					"attributes":{
						"POSITION":0,
						"NORMAL":1,
						"TEXCOORD_0":2,
						"COLOR_0":3,
						"COLOR_1":4
					},
					"indices":5,
					"material":0
				}
			]
		},
		{
			"name":"Mesh.001",
			"primitives":[
				{
					"attributes":{
						"POSITION":6,
						"NORMAL":7,
						"TEXCOORD_0":8,
						"COLOR_0":9,
						"COLOR_1":10
					},
					"indices":11,
					"material":0
				}
			]
		}
	],
	"textures":[
		{
			"sampler":0,
			"source":0
		}
	],
	"images":[
		{
			"mimeType":"image/png",
			"name":"Gradient 2",
			"uri":"Gradient%202.png"
		}
	],
	"accessors":[
		{
			"bufferView":0,
			"componentType":5126,
			"count":296,
			"max":[
				215.0449676513672,
				184.528076171875,
				20.581031799316406
			],
			"min":[
				-169.89443969726562,
				-58.647796630859375,
				-117.57494354248047
			],
			"type":"VEC3"
		},
		{
			"bufferView":1,
			"componentType":5126,
			"count":296,
			"type":"VEC3"
		},
		{
			"bufferView":2,
			"componentType":5126,
			"count":296,
			"type":"VEC2"
		},
		{
			"bufferView":3,
			"componentType":5121,
			"count":296,
			"normalized":true,
			"type":"VEC4"
		},
		{
			"bufferView":4,
			"componentType":5126,
			"count":296,
			"type":"VEC3"
		},
		{
			"bufferView":5,
			"componentType":5123,
			"count":546,
			"type":"SCALAR"
		},
		{
			"bufferView":6,
			"componentType":5126,
			"count":182,
			"max":[
				215.0449676513672,
				184.528076171875,
				20.581031799316406
			],
			"min":[
				-169.89443969726562,
				-53.71208953857422,
				-113.07164764404297
			],
			"type":"VEC3"
		},
		{
			"bufferView":7,
			"componentType":5126,
			"count":182,
			"type":"VEC3"
		},
		{
			"bufferView":8,
			"componentType":5126,
			"count":182,
			"type":"VEC2"
		},
		{
			"bufferView":9,
			"componentType":5121,
			"count":182,
			"normalized":true,
			"type":"VEC4"
		},
		{
			"bufferView":10,
			"componentType":5126,
			"count":182,
			"type":"VEC3"
		},
		{
			"bufferView":11,
			"componentType":5123,
			"count":294,
			"type":"SCALAR"
		}
	],
	"bufferViews":[
		{
			"buffer":0,
			"byteLength":3552,
			"byteOffset":0,
			"target":34962
		},
		{
			"buffer":0,
			"byteLength":3552,
			"byteOffset":3552,
			"target":34962
		},
		{
			"buffer":0,
			"byteLength":2368,
			"byteOffset":7104,
			"target":34962
		},
		{
			"buffer":0,
			"byteLength":1184,
			"byteOffset":9472,
			"target":34962
		},
		{
			"buffer":0,
			"byteLength":3552,
			"byteOffset":10656,
			"target":34962
		},
		{
			"buffer":0,
			"byteLength":1092,
			"byteOffset":14208,
			"target":34963
		},
		{
			"buffer":0,
			"byteLength":2184,
			"byteOffset":15300,
			"target":34962
		},
		{
			"buffer":0,
			"byteLength":2184,
			"byteOffset":17484,
			"target":34962
		},
		{
			"buffer":0,
			"byteLength":1456,
			"byteOffset":19668,
			"target":34962
		},
		{
			"buffer":0,
			"byteLength":728,
			"byteOffset":21124,
			"target":34962
		},
		{
			"buffer":0,
			"byteLength":2184,
			"byteOffset":21852,
			"target":34962
		},
		{
			"buffer":0,
			"byteLength":588,
			"byteOffset":24036,
			"target":34963
		}
	],
	"samplers":[
		{
			"magFilter":9729,
			"minFilter":9987
		}
	],
	"buffers":[
		{
			"byteLength":24624,
			"uri":"SM_Env_Fern_Part_02.bin"
		}
	]
}
