{
	"asset":{
		"generator":"Khronos glTF Blender I/O v4.2.70",
		"version":"2.0"
	},
	"scene":0,
	"scenes":[
		{
			"name":"Scene",
			"nodes":[
				3
			]
		}
	],
	"nodes":[
		{
			"mesh":0,
			"name":"SM_Env_Seaweed_03_LOD0"
		},
		{
			"mesh":1,
			"name":"SM_Env_Seaweed_03_LOD1"
		},
		{
			"mesh":2,
			"name":"SM_Env_Seaweed_03_LOD2"
		},
		{
			"children":[
				0,
				1,
				2
			],
			"name":"SM_Env_Seaweed_03",
			"rotation":[
				0.7071068286895752,
				0,
				0,
				0.7071068286895752
			],
			"scale":[
				0.009999999776482582,
				0.009999999776482582,
				0.009999999776482582
			]
		}
	],
	"materials":[
		{
			"alphaMode":"BLEND",
			"doubleSided":true,
			"name":"seaweed2",
			"pbrMetallicRoughness":{
				"baseColorTexture":{
					"index":0
				},
				"metallicFactor":0,
				"roughnessFactor":0.5527864098548889
			}
		}
	],
	"meshes":[
		{
			"name":"Mesh.002",
			"primitives":[
				{
					"attributes":{
						"POSITION":0,
						"NORMAL":1,
						"TEXCOORD_0":2,
						"COLOR_0":3,
						"COLOR_1":4
					},
					"indices":5,
					"material":0
				}
			]
		},
		{
			"name":"Mesh.001",
			"primitives":[
				{
					"attributes":{
						"POSITION":6,
						"NORMAL":7,
						"TEXCOORD_0":8,
						"COLOR_0":9,
						"COLOR_1":10
					},
					"indices":11,
					"material":0
				}
			]
		},
		{
			"name":"Mesh",
			"primitives":[
				{
					"attributes":{
						"POSITION":12,
						"NORMAL":13,
						"TEXCOORD_0":14,
						"COLOR_0":15,
						"COLOR_1":16
					},
					"indices":17,
					"material":0
				}
			]
		}
	],
	"textures":[
		{
			"sampler":0,
			"source":0
		}
	],
	"images":[
		{
			"mimeType":"image/png",
			"name":"Gradient_Biolumin_01",
			"uri":"Gradient_Biolumin_01.png"
		}
	],
	"accessors":[
		{
			"bufferView":0,
			"componentType":5126,
			"count":730,
			"max":[
				201.2874755859375,
				149.7149200439453,
				0.7828992605209351
			],
			"min":[
				-169.0285186767578,
				-149.1709747314453,
				-219.49705505371094
			],
			"type":"VEC3"
		},
		{
			"bufferView":1,
			"componentType":5126,
			"count":730,
			"type":"VEC3"
		},
		{
			"bufferView":2,
			"componentType":5126,
			"count":730,
			"type":"VEC2"
		},
		{
			"bufferView":3,
			"componentType":5121,
			"count":730,
			"normalized":true,
			"type":"VEC4"
		},
		{
			"bufferView":4,
			"componentType":5126,
			"count":730,
			"type":"VEC3"
		},
		{
			"bufferView":5,
			"componentType":5123,
			"count":2340,
			"type":"SCALAR"
		},
		{
			"bufferView":6,
			"componentType":5126,
			"count":158,
			"max":[
				195.9960479736328,
				146.6598358154297,
				0.7828992605209351
			],
			"min":[
				-160.22305297851562,
				-143.11289978027344,
				-219.49705505371094
			],
			"type":"VEC3"
		},
		{
			"bufferView":7,
			"componentType":5126,
			"count":158,
			"type":"VEC3"
		},
		{
			"bufferView":8,
			"componentType":5126,
			"count":158,
			"type":"VEC2"
		},
		{
			"bufferView":9,
			"componentType":5121,
			"count":158,
			"normalized":true,
			"type":"VEC4"
		},
		{
			"bufferView":10,
			"componentType":5126,
			"count":158,
			"type":"VEC3"
		},
		{
			"bufferView":11,
			"componentType":5123,
			"count":240,
			"type":"SCALAR"
		},
		{
			"bufferView":12,
			"componentType":5126,
			"count":106,
			"max":[
				195.9960479736328,
				146.6598358154297,
				0.7828992605209351
			],
			"min":[
				-155.5584716796875,
				-143.11289978027344,
				-219.49705505371094
			],
			"type":"VEC3"
		},
		{
			"bufferView":13,
			"componentType":5126,
			"count":106,
			"type":"VEC3"
		},
		{
			"bufferView":14,
			"componentType":5126,
			"count":106,
			"type":"VEC2"
		},
		{
			"bufferView":15,
			"componentType":5121,
			"count":106,
			"normalized":true,
			"type":"VEC4"
		},
		{
			"bufferView":16,
			"componentType":5126,
			"count":106,
			"type":"VEC3"
		},
		{
			"bufferView":17,
			"componentType":5123,
			"count":162,
			"type":"SCALAR"
		}
	],
	"bufferViews":[
		{
			"buffer":0,
			"byteLength":8760,
			"byteOffset":0,
			"target":34962
		},
		{
			"buffer":0,
			"byteLength":8760,
			"byteOffset":8760,
			"target":34962
		},
		{
			"buffer":0,
			"byteLength":5840,
			"byteOffset":17520,
			"target":34962
		},
		{
			"buffer":0,
			"byteLength":2920,
			"byteOffset":23360,
			"target":34962
		},
		{
			"buffer":0,
			"byteLength":8760,
			"byteOffset":26280,
			"target":34962
		},
		{
			"buffer":0,
			"byteLength":4680,
			"byteOffset":35040,
			"target":34963
		},
		{
			"buffer":0,
			"byteLength":1896,
			"byteOffset":39720,
			"target":34962
		},
		{
			"buffer":0,
			"byteLength":1896,
			"byteOffset":41616,
			"target":34962
		},
		{
			"buffer":0,
			"byteLength":1264,
			"byteOffset":43512,
			"target":34962
		},
		{
			"buffer":0,
			"byteLength":632,
			"byteOffset":44776,
			"target":34962
		},
		{
			"buffer":0,
			"byteLength":1896,
			"byteOffset":45408,
			"target":34962
		},
		{
			"buffer":0,
			"byteLength":480,
			"byteOffset":47304,
			"target":34963
		},
		{
			"buffer":0,
			"byteLength":1272,
			"byteOffset":47784,
			"target":34962
		},
		{
			"buffer":0,
			"byteLength":1272,
			"byteOffset":49056,
			"target":34962
		},
		{
			"buffer":0,
			"byteLength":848,
			"byteOffset":50328,
			"target":34962
		},
		{
			"buffer":0,
			"byteLength":424,
			"byteOffset":51176,
			"target":34962
		},
		{
			"buffer":0,
			"byteLength":1272,
			"byteOffset":51600,
			"target":34962
		},
		{
			"buffer":0,
			"byteLength":324,
			"byteOffset":52872,
			"target":34963
		}
	],
	"samplers":[
		{
			"magFilter":9729,
			"minFilter":9987
		}
	],
	"buffers":[
		{
			"byteLength":53196,
			"uri":"SM_Env_Seaweed_03.bin"
		}
	]
}
