{
	"asset":{
		"generator":"Khronos glTF Blender I/O v4.2.70",
		"version":"2.0"
	},
	"scene":0,
	"scenes":[
		{
			"name":"Scene",
			"nodes":[
				3
			]
		}
	],
	"nodes":[
		{
			"mesh":0,
			"name":"SM_Env_Ground_Cover_02_LOD0"
		},
		{
			"mesh":1,
			"name":"SM_Env_Ground_Cover_02_LOD1"
		},
		{
			"mesh":2,
			"name":"SM_Env_Ground_Cover_02_LOD2"
		},
		{
			"children":[
				0,
				1,
				2
			],
			"name":"SM_Env_Ground_Cover_02",
			"rotation":[
				0.7071068286895752,
				0,
				0,
				0.7071068286895752
			],
			"scale":[
				0.009999999776482582,
				0.009999999776482582,
				0.009999999776482582
			]
		}
	],
	"materials":[
		{
			"alphaMode":"BLEND",
			"doubleSided":true,
			"name":"pasted__groundCoverSHD1",
			"pbrMetallicRoughness":{
				"baseColorTexture":{
					"index":0
				},
				"metallicFactor":0,
				"roughnessFactor":0.5527864098548889
			}
		}
	],
	"meshes":[
		{
			"name":"Mesh",
			"primitives":[
				{
					"attributes":{
						"POSITION":0,
						"NORMAL":1,
						"TEXCOORD_0":2,
						"COLOR_0":3,
						"COLOR_1":4
					},
					"indices":5,
					"material":0
				}
			]
		},
		{
			"name":"Mesh.001",
			"primitives":[
				{
					"attributes":{
						"POSITION":6,
						"NORMAL":7,
						"TEXCOORD_0":8,
						"COLOR_0":9,
						"COLOR_1":10
					},
					"indices":11,
					"material":0
				}
			]
		},
		{
			"name":"Mesh.002",
			"primitives":[
				{
					"attributes":{
						"POSITION":12,
						"NORMAL":13,
						"TEXCOORD_0":14,
						"COLOR_0":15,
						"COLOR_1":16
					},
					"indices":17,
					"material":0
				}
			]
		}
	],
	"textures":[
		{
			"sampler":0,
			"source":0
		}
	],
	"images":[
		{
			"mimeType":"image/png",
			"name":"Gradient_Biolumin_01",
			"uri":"Gradient_Biolumin_01.png"
		}
	],
	"accessors":[
		{
			"bufferView":0,
			"componentType":5126,
			"count":96,
			"max":[
				103.33418273925781,
				96.97481536865234,
				4.167461395263672
			],
			"min":[
				-83.77986145019531,
				-94.26760864257812,
				-52.874176025390625
			],
			"type":"VEC3"
		},
		{
			"bufferView":1,
			"componentType":5126,
			"count":96,
			"type":"VEC3"
		},
		{
			"bufferView":2,
			"componentType":5126,
			"count":96,
			"type":"VEC2"
		},
		{
			"bufferView":3,
			"componentType":5121,
			"count":96,
			"normalized":true,
			"type":"VEC4"
		},
		{
			"bufferView":4,
			"componentType":5126,
			"count":96,
			"type":"VEC3"
		},
		{
			"bufferView":5,
			"componentType":5123,
			"count":198,
			"type":"SCALAR"
		},
		{
			"bufferView":6,
			"componentType":5126,
			"count":28,
			"max":[
				82.85204315185547,
				83.37490844726562,
				2.6230239868164062
			],
			"min":[
				-87.83834838867188,
				-82.54911804199219,
				-52.874176025390625
			],
			"type":"VEC3"
		},
		{
			"bufferView":7,
			"componentType":5126,
			"count":28,
			"type":"VEC3"
		},
		{
			"bufferView":8,
			"componentType":5126,
			"count":28,
			"type":"VEC2"
		},
		{
			"bufferView":9,
			"componentType":5121,
			"count":28,
			"normalized":true,
			"type":"VEC4"
		},
		{
			"bufferView":10,
			"componentType":5126,
			"count":28,
			"type":"VEC3"
		},
		{
			"bufferView":11,
			"componentType":5123,
			"count":66,
			"type":"SCALAR"
		},
		{
			"bufferView":12,
			"componentType":5126,
			"count":8,
			"max":[
				63.10532760620117,
				57.41827392578125,
				-0.27585405111312866
			],
			"min":[
				-59.60057830810547,
				-76.07194519042969,
				-34.11822509765625
			],
			"type":"VEC3"
		},
		{
			"bufferView":13,
			"componentType":5126,
			"count":8,
			"type":"VEC3"
		},
		{
			"bufferView":14,
			"componentType":5126,
			"count":8,
			"type":"VEC2"
		},
		{
			"bufferView":15,
			"componentType":5121,
			"count":8,
			"normalized":true,
			"type":"VEC4"
		},
		{
			"bufferView":16,
			"componentType":5126,
			"count":8,
			"type":"VEC3"
		},
		{
			"bufferView":17,
			"componentType":5123,
			"count":12,
			"type":"SCALAR"
		}
	],
	"bufferViews":[
		{
			"buffer":0,
			"byteLength":1152,
			"byteOffset":0,
			"target":34962
		},
		{
			"buffer":0,
			"byteLength":1152,
			"byteOffset":1152,
			"target":34962
		},
		{
			"buffer":0,
			"byteLength":768,
			"byteOffset":2304,
			"target":34962
		},
		{
			"buffer":0,
			"byteLength":384,
			"byteOffset":3072,
			"target":34962
		},
		{
			"buffer":0,
			"byteLength":1152,
			"byteOffset":3456,
			"target":34962
		},
		{
			"buffer":0,
			"byteLength":396,
			"byteOffset":4608,
			"target":34963
		},
		{
			"buffer":0,
			"byteLength":336,
			"byteOffset":5004,
			"target":34962
		},
		{
			"buffer":0,
			"byteLength":336,
			"byteOffset":5340,
			"target":34962
		},
		{
			"buffer":0,
			"byteLength":224,
			"byteOffset":5676,
			"target":34962
		},
		{
			"buffer":0,
			"byteLength":112,
			"byteOffset":5900,
			"target":34962
		},
		{
			"buffer":0,
			"byteLength":336,
			"byteOffset":6012,
			"target":34962
		},
		{
			"buffer":0,
			"byteLength":132,
			"byteOffset":6348,
			"target":34963
		},
		{
			"buffer":0,
			"byteLength":96,
			"byteOffset":6480,
			"target":34962
		},
		{
			"buffer":0,
			"byteLength":96,
			"byteOffset":6576,
			"target":34962
		},
		{
			"buffer":0,
			"byteLength":64,
			"byteOffset":6672,
			"target":34962
		},
		{
			"buffer":0,
			"byteLength":32,
			"byteOffset":6736,
			"target":34962
		},
		{
			"buffer":0,
			"byteLength":96,
			"byteOffset":6768,
			"target":34962
		},
		{
			"buffer":0,
			"byteLength":24,
			"byteOffset":6864,
			"target":34963
		}
	],
	"samplers":[
		{
			"magFilter":9729,
			"minFilter":9987
		}
	],
	"buffers":[
		{
			"byteLength":6888,
			"uri":"SM_Env_Ground_Cover_02.bin"
		}
	]
}
