{
	"asset":{
		"generator":"Khronos glTF Blender I/O v4.2.70",
		"version":"2.0"
	},
	"scene":0,
	"scenes":[
		{
			"name":"Scene",
			"nodes":[
				4
			]
		}
	],
	"nodes":[
		{
			"mesh":0,
			"name":"SM_Env_Tree_Palm_04_LOD0"
		},
		{
			"mesh":1,
			"name":"SM_Env_Tree_Palm_04_LOD1"
		},
		{
			"mesh":2,
			"name":"SM_Env_Tree_Palm_04_LOD2"
		},
		{
			"mesh":3,
			"name":"SM_Env_Tree_Palm_04_LOD3"
		},
		{
			"children":[
				0,
				1,
				2,
				3
			],
			"name":"SM_Env_Tree_Palm_04",
			"rotation":[
				0.7071068286895752,
				0,
				0,
				0.7071068286895752
			],
			"scale":[
				0.009999999776482582,
				0.009999999776482582,
				0.009999999776482582
			]
		}
	],
	"materials":[
		{
			"doubleSided":true,
			"name":"lambert30",
			"pbrMetallicRoughness":{
				"baseColorTexture":{
					"index":0
				},
				"metallicFactor":0,
				"roughnessFactor":0.5527864098548889
			}
		}
	],
	"meshes":[
		{
			"name":"Mesh",
			"primitives":[
				{
					"attributes":{
						"POSITION":0,
						"NORMAL":1,
						"TEXCOORD_0":2,
						"COLOR_0":3,
						"COLOR_1":4
					},
					"indices":5,
					"material":0
				}
			]
		},
		{
			"name":"Mesh.001",
			"primitives":[
				{
					"attributes":{
						"POSITION":6,
						"NORMAL":7,
						"TEXCOORD_0":8,
						"COLOR_0":9,
						"COLOR_1":10,
						"COLOR_2":11
					},
					"indices":12,
					"material":0
				}
			]
		},
		{
			"name":"Mesh.002",
			"primitives":[
				{
					"attributes":{
						"POSITION":13,
						"NORMAL":14,
						"TEXCOORD_0":15,
						"COLOR_0":16,
						"COLOR_1":17,
						"COLOR_2":18
					},
					"indices":19,
					"material":0
				}
			]
		},
		{
			"name":"Mesh.003",
			"primitives":[
				{
					"attributes":{
						"POSITION":20,
						"NORMAL":21,
						"TEXCOORD_0":22,
						"COLOR_0":23,
						"COLOR_1":24
					},
					"indices":25,
					"material":0
				}
			]
		}
	],
	"textures":[
		{
			"sampler":0,
			"source":0
		}
	],
	"images":[
		{
			"mimeType":"image/png",
			"name":"Gradient 2",
			"uri":"Gradient%202.png"
		}
	],
	"accessors":[
		{
			"bufferView":0,
			"componentType":5126,
			"count":1038,
			"max":[
				254.17662048339844,
				602.6405639648438,
				40.84968185424805
			],
			"min":[
				-277.56402587890625,
				-49.91064453125,
				-628.4390869140625
			],
			"type":"VEC3"
		},
		{
			"bufferView":1,
			"componentType":5126,
			"count":1038,
			"type":"VEC3"
		},
		{
			"bufferView":2,
			"componentType":5126,
			"count":1038,
			"type":"VEC2"
		},
		{
			"bufferView":3,
			"componentType":5121,
			"count":1038,
			"normalized":true,
			"type":"VEC4"
		},
		{
			"bufferView":4,
			"componentType":5126,
			"count":1038,
			"type":"VEC3"
		},
		{
			"bufferView":5,
			"componentType":5123,
			"count":1956,
			"type":"SCALAR"
		},
		{
			"bufferView":6,
			"componentType":5126,
			"count":816,
			"max":[
				254.17662048339844,
				602.5543212890625,
				40.84968185424805
			],
			"min":[
				-277.56402587890625,
				-49.91064453125,
				-627.8260498046875
			],
			"type":"VEC3"
		},
		{
			"bufferView":7,
			"componentType":5126,
			"count":816,
			"type":"VEC3"
		},
		{
			"bufferView":8,
			"componentType":5126,
			"count":816,
			"type":"VEC2"
		},
		{
			"bufferView":9,
			"componentType":5121,
			"count":816,
			"normalized":true,
			"type":"VEC4"
		},
		{
			"bufferView":10,
			"componentType":5126,
			"count":816,
			"type":"VEC3"
		},
		{
			"bufferView":11,
			"componentType":5126,
			"count":816,
			"type":"VEC3"
		},
		{
			"bufferView":12,
			"componentType":5123,
			"count":1344,
			"type":"SCALAR"
		},
		{
			"bufferView":13,
			"componentType":5126,
			"count":548,
			"max":[
				254.17662048339844,
				602.0376586914062,
				40.84968185424805
			],
			"min":[
				-277.56402587890625,
				-50.0013542175293,
				-610.4752197265625
			],
			"type":"VEC3"
		},
		{
			"bufferView":14,
			"componentType":5126,
			"count":548,
			"type":"VEC3"
		},
		{
			"bufferView":15,
			"componentType":5126,
			"count":548,
			"type":"VEC2"
		},
		{
			"bufferView":16,
			"componentType":5121,
			"count":548,
			"normalized":true,
			"type":"VEC4"
		},
		{
			"bufferView":17,
			"componentType":5126,
			"count":548,
			"type":"VEC3"
		},
		{
			"bufferView":18,
			"componentType":5126,
			"count":548,
			"type":"VEC3"
		},
		{
			"bufferView":19,
			"componentType":5123,
			"count":852,
			"type":"SCALAR"
		},
		{
			"bufferView":20,
			"componentType":5126,
			"count":32,
			"max":[
				312.44677734375,
				619.590576171875,
				46.083194732666016
			],
			"min":[
				-322.044677734375,
				-81.05487060546875,
				-654.206298828125
			],
			"type":"VEC3"
		},
		{
			"bufferView":21,
			"componentType":5126,
			"count":32,
			"type":"VEC3"
		},
		{
			"bufferView":22,
			"componentType":5126,
			"count":32,
			"type":"VEC2"
		},
		{
			"bufferView":23,
			"componentType":5121,
			"count":32,
			"normalized":true,
			"type":"VEC4"
		},
		{
			"bufferView":24,
			"componentType":5126,
			"count":32,
			"type":"VEC3"
		},
		{
			"bufferView":25,
			"componentType":5123,
			"count":48,
			"type":"SCALAR"
		}
	],
	"bufferViews":[
		{
			"buffer":0,
			"byteLength":12456,
			"byteOffset":0,
			"target":34962
		},
		{
			"buffer":0,
			"byteLength":12456,
			"byteOffset":12456,
			"target":34962
		},
		{
			"buffer":0,
			"byteLength":8304,
			"byteOffset":24912,
			"target":34962
		},
		{
			"buffer":0,
			"byteLength":4152,
			"byteOffset":33216,
			"target":34962
		},
		{
			"buffer":0,
			"byteLength":12456,
			"byteOffset":37368,
			"target":34962
		},
		{
			"buffer":0,
			"byteLength":3912,
			"byteOffset":49824,
			"target":34963
		},
		{
			"buffer":0,
			"byteLength":9792,
			"byteOffset":53736,
			"target":34962
		},
		{
			"buffer":0,
			"byteLength":9792,
			"byteOffset":63528,
			"target":34962
		},
		{
			"buffer":0,
			"byteLength":6528,
			"byteOffset":73320,
			"target":34962
		},
		{
			"buffer":0,
			"byteLength":3264,
			"byteOffset":79848,
			"target":34962
		},
		{
			"buffer":0,
			"byteLength":9792,
			"byteOffset":83112,
			"target":34962
		},
		{
			"buffer":0,
			"byteLength":9792,
			"byteOffset":92904,
			"target":34962
		},
		{
			"buffer":0,
			"byteLength":2688,
			"byteOffset":102696,
			"target":34963
		},
		{
			"buffer":0,
			"byteLength":6576,
			"byteOffset":105384,
			"target":34962
		},
		{
			"buffer":0,
			"byteLength":6576,
			"byteOffset":111960,
			"target":34962
		},
		{
			"buffer":0,
			"byteLength":4384,
			"byteOffset":118536,
			"target":34962
		},
		{
			"buffer":0,
			"byteLength":2192,
			"byteOffset":122920,
			"target":34962
		},
		{
			"buffer":0,
			"byteLength":6576,
			"byteOffset":125112,
			"target":34962
		},
		{
			"buffer":0,
			"byteLength":6576,
			"byteOffset":131688,
			"target":34962
		},
		{
			"buffer":0,
			"byteLength":1704,
			"byteOffset":138264,
			"target":34963
		},
		{
			"buffer":0,
			"byteLength":384,
			"byteOffset":139968,
			"target":34962
		},
		{
			"buffer":0,
			"byteLength":384,
			"byteOffset":140352,
			"target":34962
		},
		{
			"buffer":0,
			"byteLength":256,
			"byteOffset":140736,
			"target":34962
		},
		{
			"buffer":0,
			"byteLength":128,
			"byteOffset":140992,
			"target":34962
		},
		{
			"buffer":0,
			"byteLength":384,
			"byteOffset":141120,
			"target":34962
		},
		{
			"buffer":0,
			"byteLength":96,
			"byteOffset":141504,
			"target":34963
		}
	],
	"samplers":[
		{
			"magFilter":9729,
			"minFilter":9987
		}
	],
	"buffers":[
		{
			"byteLength":141600,
			"uri":"SM_Env_Tree_Palm_04.bin"
		}
	]
}
