{
	"asset":{
		"generator":"Khronos glTF Blender I/O v4.2.70",
		"version":"2.0"
	},
	"scene":0,
	"scenes":[
		{
			"name":"Scene",
			"nodes":[
				4
			]
		}
	],
	"nodes":[
		{
			"mesh":0,
			"name":"SM_Env_Tree_Palm_01_LOD0"
		},
		{
			"mesh":1,
			"name":"SM_Env_Tree_Palm_01_LOD1"
		},
		{
			"mesh":2,
			"name":"SM_Env_Tree_Palm_01_LOD2"
		},
		{
			"mesh":3,
			"name":"SM_Env_Tree_Palm_01_LOD3"
		},
		{
			"children":[
				0,
				1,
				2,
				3
			],
			"name":"SM_Env_Tree_Palm_01",
			"rotation":[
				0.7071068286895752,
				0,
				0,
				0.7071068286895752
			],
			"scale":[
				0.009999999776482582,
				0.009999999776482582,
				0.009999999776482582
			]
		}
	],
	"materials":[
		{
			"doubleSided":true,
			"name":"lambert27",
			"pbrMetallicRoughness":{
				"baseColorTexture":{
					"index":0
				},
				"metallicFactor":0,
				"roughnessFactor":0.5527864098548889
			}
		}
	],
	"meshes":[
		{
			"name":"Mesh",
			"primitives":[
				{
					"attributes":{
						"POSITION":0,
						"NORMAL":1,
						"TEXCOORD_0":2,
						"COLOR_0":3,
						"COLOR_1":4
					},
					"indices":5,
					"material":0
				}
			]
		},
		{
			"name":"Mesh.001",
			"primitives":[
				{
					"attributes":{
						"POSITION":6,
						"NORMAL":7,
						"TEXCOORD_0":8,
						"COLOR_0":9,
						"COLOR_1":10,
						"COLOR_2":11
					},
					"indices":12,
					"material":0
				}
			]
		},
		{
			"name":"Mesh.002",
			"primitives":[
				{
					"attributes":{
						"POSITION":13,
						"NORMAL":14,
						"TEXCOORD_0":15,
						"COLOR_0":16,
						"COLOR_1":17,
						"COLOR_2":18
					},
					"indices":19,
					"material":0
				}
			]
		},
		{
			"name":"Mesh.003",
			"primitives":[
				{
					"attributes":{
						"POSITION":20,
						"NORMAL":21,
						"TEXCOORD_0":22,
						"COLOR_0":23,
						"COLOR_1":24
					},
					"indices":25,
					"material":0
				}
			]
		}
	],
	"textures":[
		{
			"sampler":0,
			"source":0
		}
	],
	"images":[
		{
			"mimeType":"image/png",
			"name":"Gradient 2",
			"uri":"Gradient%202.png"
		}
	],
	"accessors":[
		{
			"bufferView":0,
			"componentType":5126,
			"count":1017,
			"max":[
				396.6747741699219,
				277.5640563964844,
				40.84968185424805
			],
			"min":[
				-149.76841735839844,
				-254.1766357421875,
				-749.33154296875
			],
			"type":"VEC3"
		},
		{
			"bufferView":1,
			"componentType":5126,
			"count":1017,
			"type":"VEC3"
		},
		{
			"bufferView":2,
			"componentType":5126,
			"count":1017,
			"type":"VEC2"
		},
		{
			"bufferView":3,
			"componentType":5121,
			"count":1017,
			"normalized":true,
			"type":"VEC4"
		},
		{
			"bufferView":4,
			"componentType":5126,
			"count":1017,
			"type":"VEC3"
		},
		{
			"bufferView":5,
			"componentType":5123,
			"count":1956,
			"type":"SCALAR"
		},
		{
			"bufferView":6,
			"componentType":5126,
			"count":795,
			"max":[
				396.6747741699219,
				277.5640563964844,
				40.84968185424805
			],
			"min":[
				-149.76841735839844,
				-254.1766357421875,
				-747.7772827148438
			],
			"type":"VEC3"
		},
		{
			"bufferView":7,
			"componentType":5126,
			"count":795,
			"type":"VEC3"
		},
		{
			"bufferView":8,
			"componentType":5126,
			"count":795,
			"type":"VEC2"
		},
		{
			"bufferView":9,
			"componentType":5121,
			"count":795,
			"normalized":true,
			"type":"VEC4"
		},
		{
			"bufferView":10,
			"componentType":5126,
			"count":795,
			"type":"VEC3"
		},
		{
			"bufferView":11,
			"componentType":5126,
			"count":795,
			"type":"VEC3"
		},
		{
			"bufferView":12,
			"componentType":5123,
			"count":1344,
			"type":"SCALAR"
		},
		{
			"bufferView":13,
			"componentType":5126,
			"count":558,
			"max":[
				396.6747741699219,
				277.5640563964844,
				40.84968185424805
			],
			"min":[
				-149.76841735839844,
				-254.1766357421875,
				-733.0774536132812
			],
			"type":"VEC3"
		},
		{
			"bufferView":14,
			"componentType":5126,
			"count":558,
			"type":"VEC3"
		},
		{
			"bufferView":15,
			"componentType":5126,
			"count":558,
			"type":"VEC2"
		},
		{
			"bufferView":16,
			"componentType":5121,
			"count":558,
			"normalized":true,
			"type":"VEC4"
		},
		{
			"bufferView":17,
			"componentType":5126,
			"count":558,
			"type":"VEC3"
		},
		{
			"bufferView":18,
			"componentType":5126,
			"count":558,
			"type":"VEC3"
		},
		{
			"bufferView":19,
			"componentType":5123,
			"count":852,
			"type":"SCALAR"
		},
		{
			"bufferView":20,
			"componentType":5126,
			"count":24,
			"max":[
				426.4404602050781,
				322.044677734375,
				46.083194732666016
			],
			"min":[
				-170.3182373046875,
				-312.44677734375,
				-779.9981079101562
			],
			"type":"VEC3"
		},
		{
			"bufferView":21,
			"componentType":5126,
			"count":24,
			"type":"VEC3"
		},
		{
			"bufferView":22,
			"componentType":5126,
			"count":24,
			"type":"VEC2"
		},
		{
			"bufferView":23,
			"componentType":5121,
			"count":24,
			"normalized":true,
			"type":"VEC4"
		},
		{
			"bufferView":24,
			"componentType":5126,
			"count":24,
			"type":"VEC3"
		},
		{
			"bufferView":25,
			"componentType":5123,
			"count":36,
			"type":"SCALAR"
		}
	],
	"bufferViews":[
		{
			"buffer":0,
			"byteLength":12204,
			"byteOffset":0,
			"target":34962
		},
		{
			"buffer":0,
			"byteLength":12204,
			"byteOffset":12204,
			"target":34962
		},
		{
			"buffer":0,
			"byteLength":8136,
			"byteOffset":24408,
			"target":34962
		},
		{
			"buffer":0,
			"byteLength":4068,
			"byteOffset":32544,
			"target":34962
		},
		{
			"buffer":0,
			"byteLength":12204,
			"byteOffset":36612,
			"target":34962
		},
		{
			"buffer":0,
			"byteLength":3912,
			"byteOffset":48816,
			"target":34963
		},
		{
			"buffer":0,
			"byteLength":9540,
			"byteOffset":52728,
			"target":34962
		},
		{
			"buffer":0,
			"byteLength":9540,
			"byteOffset":62268,
			"target":34962
		},
		{
			"buffer":0,
			"byteLength":6360,
			"byteOffset":71808,
			"target":34962
		},
		{
			"buffer":0,
			"byteLength":3180,
			"byteOffset":78168,
			"target":34962
		},
		{
			"buffer":0,
			"byteLength":9540,
			"byteOffset":81348,
			"target":34962
		},
		{
			"buffer":0,
			"byteLength":9540,
			"byteOffset":90888,
			"target":34962
		},
		{
			"buffer":0,
			"byteLength":2688,
			"byteOffset":100428,
			"target":34963
		},
		{
			"buffer":0,
			"byteLength":6696,
			"byteOffset":103116,
			"target":34962
		},
		{
			"buffer":0,
			"byteLength":6696,
			"byteOffset":109812,
			"target":34962
		},
		{
			"buffer":0,
			"byteLength":4464,
			"byteOffset":116508,
			"target":34962
		},
		{
			"buffer":0,
			"byteLength":2232,
			"byteOffset":120972,
			"target":34962
		},
		{
			"buffer":0,
			"byteLength":6696,
			"byteOffset":123204,
			"target":34962
		},
		{
			"buffer":0,
			"byteLength":6696,
			"byteOffset":129900,
			"target":34962
		},
		{
			"buffer":0,
			"byteLength":1704,
			"byteOffset":136596,
			"target":34963
		},
		{
			"buffer":0,
			"byteLength":288,
			"byteOffset":138300,
			"target":34962
		},
		{
			"buffer":0,
			"byteLength":288,
			"byteOffset":138588,
			"target":34962
		},
		{
			"buffer":0,
			"byteLength":192,
			"byteOffset":138876,
			"target":34962
		},
		{
			"buffer":0,
			"byteLength":96,
			"byteOffset":139068,
			"target":34962
		},
		{
			"buffer":0,
			"byteLength":288,
			"byteOffset":139164,
			"target":34962
		},
		{
			"buffer":0,
			"byteLength":72,
			"byteOffset":139452,
			"target":34963
		}
	],
	"samplers":[
		{
			"magFilter":9729,
			"minFilter":9987
		}
	],
	"buffers":[
		{
			"byteLength":139524,
			"uri":"SM_Env_Tree_Palm_01.bin"
		}
	]
}
