{
	"asset":{
		"generator":"Khronos glTF Blender I/O v4.2.70",
		"version":"2.0"
	},
	"scene":0,
	"scenes":[
		{
			"name":"Scene",
			"nodes":[
				3
			]
		}
	],
	"nodes":[
		{
			"mesh":0,
			"name":"SM_Env_Tree_Banana_03_LOD0"
		},
		{
			"mesh":1,
			"name":"SM_Env_Tree_Banana_03_LOD1"
		},
		{
			"mesh":2,
			"name":"SM_Env_Tree_Banana_03_LOD2"
		},
		{
			"children":[
				0,
				1,
				2
			],
			"name":"SM_Env_Tree_Banana_03",
			"rotation":[
				0.7071068286895752,
				0,
				0,
				0.7071068286895752
			],
			"scale":[
				0.009999999776482582,
				0.009999999776482582,
				0.009999999776482582
			]
		}
	],
	"materials":[
		{
			"doubleSided":true,
			"name":"lambert23",
			"pbrMetallicRoughness":{
				"baseColorTexture":{
					"index":0
				},
				"metallicFactor":0,
				"roughnessFactor":0.5527864098548889
			}
		}
	],
	"meshes":[
		{
			"name":"Mesh",
			"primitives":[
				{
					"attributes":{
						"POSITION":0,
						"NORMAL":1,
						"TEXCOORD_0":2,
						"TEXCOORD_1":3,
						"COLOR_0":4,
						"COLOR_1":5
					},
					"indices":6,
					"material":0
				}
			]
		},
		{
			"name":"Mesh.001",
			"primitives":[
				{
					"attributes":{
						"POSITION":7,
						"NORMAL":8,
						"TEXCOORD_0":9,
						"TEXCOORD_1":10,
						"COLOR_0":11,
						"COLOR_1":12
					},
					"indices":13,
					"material":0
				}
			]
		},
		{
			"name":"Mesh.002",
			"primitives":[
				{
					"attributes":{
						"POSITION":14,
						"NORMAL":15,
						"TEXCOORD_0":16,
						"COLOR_0":17,
						"COLOR_1":18
					},
					"indices":19,
					"material":0
				}
			]
		}
	],
	"textures":[
		{
			"sampler":0,
			"source":0
		}
	],
	"images":[
		{
			"mimeType":"image/png",
			"name":"Leaf_Palm_01_Normals",
			"uri":"Leaf_Palm_01_Normals.png"
		}
	],
	"accessors":[
		{
			"bufferView":0,
			"componentType":5126,
			"count":936,
			"max":[
				288.8177490234375,
				232.12057495117188,
				32.90586853027344
			],
			"min":[
				-205.0043182373047,
				-273.55169677734375,
				-735.8042602539062
			],
			"type":"VEC3"
		},
		{
			"bufferView":1,
			"componentType":5126,
			"count":936,
			"type":"VEC3"
		},
		{
			"bufferView":2,
			"componentType":5126,
			"count":936,
			"type":"VEC2"
		},
		{
			"bufferView":3,
			"componentType":5126,
			"count":936,
			"type":"VEC2"
		},
		{
			"bufferView":4,
			"componentType":5121,
			"count":936,
			"normalized":true,
			"type":"VEC4"
		},
		{
			"bufferView":5,
			"componentType":5126,
			"count":936,
			"type":"VEC3"
		},
		{
			"bufferView":6,
			"componentType":5123,
			"count":1548,
			"type":"SCALAR"
		},
		{
			"bufferView":7,
			"componentType":5126,
			"count":581,
			"max":[
				288.8177490234375,
				232.12057495117188,
				32.90586853027344
			],
			"min":[
				-205.0043182373047,
				-273.55169677734375,
				-731.8485107421875
			],
			"type":"VEC3"
		},
		{
			"bufferView":8,
			"componentType":5126,
			"count":581,
			"type":"VEC3"
		},
		{
			"bufferView":9,
			"componentType":5126,
			"count":581,
			"type":"VEC2"
		},
		{
			"bufferView":10,
			"componentType":5126,
			"count":581,
			"type":"VEC2"
		},
		{
			"bufferView":11,
			"componentType":5121,
			"count":581,
			"normalized":true,
			"type":"VEC4"
		},
		{
			"bufferView":12,
			"componentType":5126,
			"count":581,
			"type":"VEC3"
		},
		{
			"bufferView":13,
			"componentType":5123,
			"count":846,
			"type":"SCALAR"
		},
		{
			"bufferView":14,
			"componentType":5126,
			"count":32,
			"max":[
				281.55950927734375,
				237.52911376953125,
				42.23769760131836
			],
			"min":[
				-234.07733154296875,
				-286.70172119140625,
				-747.2327880859375
			],
			"type":"VEC3"
		},
		{
			"bufferView":15,
			"componentType":5126,
			"count":32,
			"type":"VEC3"
		},
		{
			"bufferView":16,
			"componentType":5126,
			"count":32,
			"type":"VEC2"
		},
		{
			"bufferView":17,
			"componentType":5121,
			"count":32,
			"normalized":true,
			"type":"VEC4"
		},
		{
			"bufferView":18,
			"componentType":5126,
			"count":32,
			"type":"VEC3"
		},
		{
			"bufferView":19,
			"componentType":5123,
			"count":48,
			"type":"SCALAR"
		}
	],
	"bufferViews":[
		{
			"buffer":0,
			"byteLength":11232,
			"byteOffset":0,
			"target":34962
		},
		{
			"buffer":0,
			"byteLength":11232,
			"byteOffset":11232,
			"target":34962
		},
		{
			"buffer":0,
			"byteLength":7488,
			"byteOffset":22464,
			"target":34962
		},
		{
			"buffer":0,
			"byteLength":7488,
			"byteOffset":29952,
			"target":34962
		},
		{
			"buffer":0,
			"byteLength":3744,
			"byteOffset":37440,
			"target":34962
		},
		{
			"buffer":0,
			"byteLength":11232,
			"byteOffset":41184,
			"target":34962
		},
		{
			"buffer":0,
			"byteLength":3096,
			"byteOffset":52416,
			"target":34963
		},
		{
			"buffer":0,
			"byteLength":6972,
			"byteOffset":55512,
			"target":34962
		},
		{
			"buffer":0,
			"byteLength":6972,
			"byteOffset":62484,
			"target":34962
		},
		{
			"buffer":0,
			"byteLength":4648,
			"byteOffset":69456,
			"target":34962
		},
		{
			"buffer":0,
			"byteLength":4648,
			"byteOffset":74104,
			"target":34962
		},
		{
			"buffer":0,
			"byteLength":2324,
			"byteOffset":78752,
			"target":34962
		},
		{
			"buffer":0,
			"byteLength":6972,
			"byteOffset":81076,
			"target":34962
		},
		{
			"buffer":0,
			"byteLength":1692,
			"byteOffset":88048,
			"target":34963
		},
		{
			"buffer":0,
			"byteLength":384,
			"byteOffset":89740,
			"target":34962
		},
		{
			"buffer":0,
			"byteLength":384,
			"byteOffset":90124,
			"target":34962
		},
		{
			"buffer":0,
			"byteLength":256,
			"byteOffset":90508,
			"target":34962
		},
		{
			"buffer":0,
			"byteLength":128,
			"byteOffset":90764,
			"target":34962
		},
		{
			"buffer":0,
			"byteLength":384,
			"byteOffset":90892,
			"target":34962
		},
		{
			"buffer":0,
			"byteLength":96,
			"byteOffset":91276,
			"target":34963
		}
	],
	"samplers":[
		{
			"magFilter":9729,
			"minFilter":9987
		}
	],
	"buffers":[
		{
			"byteLength":91372,
			"uri":"SM_Env_Tree_Banana_03.bin"
		}
	]
}
