{
	"asset":{
		"generator":"Khronos glTF Blender I/O v4.2.70",
		"version":"2.0"
	},
	"scene":0,
	"scenes":[
		{
			"name":"Scene",
			"nodes":[
				2
			]
		}
	],
	"nodes":[
		{
			"mesh":0,
			"name":"SM_Env_Fern_Part_01_LOD0"
		},
		{
			"mesh":1,
			"name":"SM_Env_Fern_Part_01_LOD1"
		},
		{
			"children":[
				0,
				1
			],
			"name":"SM_Env_Fern_Part_01",
			"rotation":[
				0.7071068286895752,
				0,
				0,
				0.7071068286895752
			],
			"scale":[
				0.009999999776482582,
				0.009999999776482582,
				0.009999999776482582
			]
		}
	],
	"materials":[
		{
			"doubleSided":true,
			"name":"Leaf12",
			"pbrMetallicRoughness":{
				"baseColorTexture":{
					"index":0
				},
				"metallicFactor":0,
				"roughnessFactor":0.5527864098548889
			}
		}
	],
	"meshes":[
		{
			"name":"Mesh",
			"primitives":[
				{
					"attributes":{
						"POSITION":0,
						"NORMAL":1,
						"TEXCOORD_0":2,
						"COLOR_0":3,
						"COLOR_1":4
					},
					"indices":5,
					"material":0
				}
			]
		},
		{
			"name":"Mesh.001",
			"primitives":[
				{
					"attributes":{
						"POSITION":6,
						"NORMAL":7,
						"TEXCOORD_0":8,
						"COLOR_0":9,
						"COLOR_1":10
					},
					"indices":11,
					"material":0
				}
			]
		}
	],
	"textures":[
		{
			"sampler":0,
			"source":0
		}
	],
	"images":[
		{
			"mimeType":"image/png",
			"name":"Gradient 2",
			"uri":"Gradient%202.png"
		}
	],
	"accessors":[
		{
			"bufferView":0,
			"componentType":5126,
			"count":157,
			"max":[
				139.59402465820312,
				117.9716567993164,
				19.62193489074707
			],
			"min":[
				-115.19633483886719,
				-42.205902099609375,
				-96.06623840332031
			],
			"type":"VEC3"
		},
		{
			"bufferView":1,
			"componentType":5126,
			"count":157,
			"type":"VEC3"
		},
		{
			"bufferView":2,
			"componentType":5126,
			"count":157,
			"type":"VEC2"
		},
		{
			"bufferView":3,
			"componentType":5121,
			"count":157,
			"normalized":true,
			"type":"VEC4"
		},
		{
			"bufferView":4,
			"componentType":5126,
			"count":157,
			"type":"VEC3"
		},
		{
			"bufferView":5,
			"componentType":5123,
			"count":312,
			"type":"SCALAR"
		},
		{
			"bufferView":6,
			"componentType":5126,
			"count":104,
			"max":[
				139.59402465820312,
				117.9716567993164,
				19.62193489074707
			],
			"min":[
				-112.22026062011719,
				-41.102787017822266,
				-95.41769409179688
			],
			"type":"VEC3"
		},
		{
			"bufferView":7,
			"componentType":5126,
			"count":104,
			"type":"VEC3"
		},
		{
			"bufferView":8,
			"componentType":5126,
			"count":104,
			"type":"VEC2"
		},
		{
			"bufferView":9,
			"componentType":5121,
			"count":104,
			"normalized":true,
			"type":"VEC4"
		},
		{
			"bufferView":10,
			"componentType":5126,
			"count":104,
			"type":"VEC3"
		},
		{
			"bufferView":11,
			"componentType":5123,
			"count":168,
			"type":"SCALAR"
		}
	],
	"bufferViews":[
		{
			"buffer":0,
			"byteLength":1884,
			"byteOffset":0,
			"target":34962
		},
		{
			"buffer":0,
			"byteLength":1884,
			"byteOffset":1884,
			"target":34962
		},
		{
			"buffer":0,
			"byteLength":1256,
			"byteOffset":3768,
			"target":34962
		},
		{
			"buffer":0,
			"byteLength":628,
			"byteOffset":5024,
			"target":34962
		},
		{
			"buffer":0,
			"byteLength":1884,
			"byteOffset":5652,
			"target":34962
		},
		{
			"buffer":0,
			"byteLength":624,
			"byteOffset":7536,
			"target":34963
		},
		{
			"buffer":0,
			"byteLength":1248,
			"byteOffset":8160,
			"target":34962
		},
		{
			"buffer":0,
			"byteLength":1248,
			"byteOffset":9408,
			"target":34962
		},
		{
			"buffer":0,
			"byteLength":832,
			"byteOffset":10656,
			"target":34962
		},
		{
			"buffer":0,
			"byteLength":416,
			"byteOffset":11488,
			"target":34962
		},
		{
			"buffer":0,
			"byteLength":1248,
			"byteOffset":11904,
			"target":34962
		},
		{
			"buffer":0,
			"byteLength":336,
			"byteOffset":13152,
			"target":34963
		}
	],
	"samplers":[
		{
			"magFilter":9729,
			"minFilter":9987
		}
	],
	"buffers":[
		{
			"byteLength":13488,
			"uri":"SM_Env_Fern_Part_01.bin"
		}
	]
}
