{
	"asset":{
		"generator":"Khronos glTF Blender I/O v4.2.70",
		"version":"2.0"
	},
	"scene":0,
	"scenes":[
		{
			"name":"Scene",
			"nodes":[
				3
			]
		}
	],
	"nodes":[
		{
			"mesh":0,
			"name":"SM_Env_Fern_03_LOD0"
		},
		{
			"mesh":1,
			"name":"SM_Env_Fern_03_LOD1"
		},
		{
			"mesh":2,
			"name":"SM_Env_Fern_03_LOD2"
		},
		{
			"children":[
				0,
				1,
				2
			],
			"name":"SM_Env_Fern_03",
			"rotation":[
				0.7071068286895752,
				0,
				0,
				0.7071068286895752
			],
			"scale":[
				0.009999999776482582,
				0.009999999776482582,
				0.009999999776482582
			]
		}
	],
	"materials":[
		{
			"doubleSided":true,
			"name":"Leaf14",
			"pbrMetallicRoughness":{
				"baseColorTexture":{
					"index":0
				},
				"metallicFactor":0,
				"roughnessFactor":0.5527864098548889
			}
		}
	],
	"meshes":[
		{
			"name":"Mesh",
			"primitives":[
				{
					"attributes":{
						"POSITION":0,
						"NORMAL":1,
						"TEXCOORD_0":2,
						"COLOR_0":3,
						"COLOR_1":4
					},
					"indices":5,
					"material":0
				}
			]
		},
		{
			"name":"Mesh.001",
			"primitives":[
				{
					"attributes":{
						"POSITION":6,
						"NORMAL":7,
						"TEXCOORD_0":8,
						"COLOR_0":9,
						"COLOR_1":10
					},
					"indices":11,
					"material":0
				}
			]
		},
		{
			"name":"Mesh.002",
			"primitives":[
				{
					"attributes":{
						"POSITION":12,
						"NORMAL":13,
						"TEXCOORD_0":14,
						"COLOR_0":15,
						"COLOR_1":16
					},
					"indices":17,
					"material":0
				}
			]
		}
	],
	"textures":[
		{
			"sampler":0,
			"source":0
		}
	],
	"images":[
		{
			"mimeType":"image/png",
			"name":"Gradient 2",
			"uri":"Gradient%202.png"
		}
	],
	"accessors":[
		{
			"bufferView":0,
			"componentType":5126,
			"count":252,
			"max":[
				110.22404479980469,
				120.05628967285156,
				12.168384552001953
			],
			"min":[
				-113.44734191894531,
				-113.70457458496094,
				-107.64070129394531
			],
			"type":"VEC3"
		},
		{
			"bufferView":1,
			"componentType":5126,
			"count":252,
			"type":"VEC3"
		},
		{
			"bufferView":2,
			"componentType":5126,
			"count":252,
			"type":"VEC2"
		},
		{
			"bufferView":3,
			"componentType":5121,
			"count":252,
			"normalized":true,
			"type":"VEC4"
		},
		{
			"bufferView":4,
			"componentType":5126,
			"count":252,
			"type":"VEC3"
		},
		{
			"bufferView":5,
			"componentType":5123,
			"count":468,
			"type":"SCALAR"
		},
		{
			"bufferView":6,
			"componentType":5126,
			"count":190,
			"max":[
				110.22404479980469,
				120.05628967285156,
				12.168384552001953
			],
			"min":[
				-113.44734191894531,
				-113.70457458496094,
				-104.49368286132812
			],
			"type":"VEC3"
		},
		{
			"bufferView":7,
			"componentType":5126,
			"count":190,
			"type":"VEC3"
		},
		{
			"bufferView":8,
			"componentType":5126,
			"count":190,
			"type":"VEC2"
		},
		{
			"bufferView":9,
			"componentType":5121,
			"count":190,
			"normalized":true,
			"type":"VEC4"
		},
		{
			"bufferView":10,
			"componentType":5126,
			"count":190,
			"type":"VEC3"
		},
		{
			"bufferView":11,
			"componentType":5123,
			"count":324,
			"type":"SCALAR"
		},
		{
			"bufferView":12,
			"componentType":5126,
			"count":155,
			"max":[
				110.22404479980469,
				120.05628967285156,
				12.168384552001953
			],
			"min":[
				-113.44734191894531,
				-113.70457458496094,
				-109.20210266113281
			],
			"type":"VEC3"
		},
		{
			"bufferView":13,
			"componentType":5126,
			"count":155,
			"type":"VEC3"
		},
		{
			"bufferView":14,
			"componentType":5126,
			"count":155,
			"type":"VEC2"
		},
		{
			"bufferView":15,
			"componentType":5121,
			"count":155,
			"normalized":true,
			"type":"VEC4"
		},
		{
			"bufferView":16,
			"componentType":5126,
			"count":155,
			"type":"VEC3"
		},
		{
			"bufferView":17,
			"componentType":5123,
			"count":252,
			"type":"SCALAR"
		}
	],
	"bufferViews":[
		{
			"buffer":0,
			"byteLength":3024,
			"byteOffset":0,
			"target":34962
		},
		{
			"buffer":0,
			"byteLength":3024,
			"byteOffset":3024,
			"target":34962
		},
		{
			"buffer":0,
			"byteLength":2016,
			"byteOffset":6048,
			"target":34962
		},
		{
			"buffer":0,
			"byteLength":1008,
			"byteOffset":8064,
			"target":34962
		},
		{
			"buffer":0,
			"byteLength":3024,
			"byteOffset":9072,
			"target":34962
		},
		{
			"buffer":0,
			"byteLength":936,
			"byteOffset":12096,
			"target":34963
		},
		{
			"buffer":0,
			"byteLength":2280,
			"byteOffset":13032,
			"target":34962
		},
		{
			"buffer":0,
			"byteLength":2280,
			"byteOffset":15312,
			"target":34962
		},
		{
			"buffer":0,
			"byteLength":1520,
			"byteOffset":17592,
			"target":34962
		},
		{
			"buffer":0,
			"byteLength":760,
			"byteOffset":19112,
			"target":34962
		},
		{
			"buffer":0,
			"byteLength":2280,
			"byteOffset":19872,
			"target":34962
		},
		{
			"buffer":0,
			"byteLength":648,
			"byteOffset":22152,
			"target":34963
		},
		{
			"buffer":0,
			"byteLength":1860,
			"byteOffset":22800,
			"target":34962
		},
		{
			"buffer":0,
			"byteLength":1860,
			"byteOffset":24660,
			"target":34962
		},
		{
			"buffer":0,
			"byteLength":1240,
			"byteOffset":26520,
			"target":34962
		},
		{
			"buffer":0,
			"byteLength":620,
			"byteOffset":27760,
			"target":34962
		},
		{
			"buffer":0,
			"byteLength":1860,
			"byteOffset":28380,
			"target":34962
		},
		{
			"buffer":0,
			"byteLength":504,
			"byteOffset":30240,
			"target":34963
		}
	],
	"samplers":[
		{
			"magFilter":9729,
			"minFilter":9987
		}
	],
	"buffers":[
		{
			"byteLength":30744,
			"uri":"SM_Env_Fern_03.bin"
		}
	]
}
