{
	"asset":{
		"generator":"Khronos glTF Blender I/O v4.2.70",
		"version":"2.0"
	},
	"extensionsUsed":[
		"KHR_materials_specular"
	],
	"scene":0,
	"scenes":[
		{
			"name":"Scene",
			"nodes":[
				0
			]
		}
	],
	"nodes":[
		{
			"mesh":0,
			"name":"SM_Env_Skydome_01",
			"rotation":[
				0.7071068286895752,
				0,
				0,
				0.7071068286895752
			],
			"scale":[
				0.009999999776482582,
				0.009999999776482582,
				0.009999999776482582
			]
		}
	],
	"materials":[
		{
			"doubleSided":true,
			"extensions":{
				"KHR_materials_specular":{
					"specularColorFactor":[
						2.0,
						2.0,
						2.0
					]
				}
			},
			"name":"blinn1",
			"pbrMetallicRoughness":{
				"metallicFactor":0.5,
				"roughnessFactor":0.7487671971321106
			}
		}
	],
	"meshes":[
		{
			"name":"Mesh",
			"primitives":[
				{
					"attributes":{
						"POSITION":0,
						"NORMAL":1,
						"TEXCOORD_0":2
					},
					"indices":3,
					"material":0
				}
			]
		}
	],
	"accessors":[
		{
			"bufferView":0,
			"componentType":5126,
			"count":91,
			"max":[
				3294.014404296875,
				3294.014404296875,
				0
			],
			"min":[
				-3294.014404296875,
				-3294.014404296875,
				-2612.848388671875
			],
			"type":"VEC3"
		},
		{
			"bufferView":1,
			"componentType":5126,
			"count":91,
			"type":"VEC3"
		},
		{
			"bufferView":2,
			"componentType":5126,
			"count":91,
			"type":"VEC2"
		},
		{
			"bufferView":3,
			"componentType":5123,
			"count":480,
			"type":"SCALAR"
		}
	],
	"bufferViews":[
		{
			"buffer":0,
			"byteLength":1092,
			"byteOffset":0,
			"target":34962
		},
		{
			"buffer":0,
			"byteLength":1092,
			"byteOffset":1092,
			"target":34962
		},
		{
			"buffer":0,
			"byteLength":728,
			"byteOffset":2184,
			"target":34962
		},
		{
			"buffer":0,
			"byteLength":960,
			"byteOffset":2912,
			"target":34963
		}
	],
	"buffers":[
		{
			"byteLength":3872,
			"uri":"SM_Env_Skydome_01.bin"
		}
	]
}
