{
	"asset":{
		"generator":"Khronos glTF Blender I/O v4.2.70",
		"version":"2.0"
	},
	"scene":0,
	"scenes":[
		{
			"name":"Scene",
			"nodes":[
				0
			]
		}
	],
	"nodes":[
		{
			"mesh":0,
			"name":"SM_Env_Water_Plane_02",
			"rotation":[
				0.7071068286895752,
				0,
				0,
				0.7071068286895752
			],
			"scale":[
				0.009999999776482582,
				0.009999999776482582,
				0.009999999776482582
			]
		}
	],
	"materials":[
		{
			"doubleSided":true,
			"name":"lambert2",
			"pbrMetallicRoughness":{
				"baseColorFactor":[
					0.5,
					0.5,
					0.5,
					1
				],
				"metallicFactor":0,
				"roughnessFactor":0.5527864098548889
			}
		}
	],
	"meshes":[
		{
			"name":"Mesh",
			"primitives":[
				{
					"attributes":{
						"POSITION":0,
						"NORMAL":1,
						"TEXCOORD_0":2
					},
					"indices":3,
					"material":0
				}
			]
		}
	],
	"accessors":[
		{
			"bufferView":0,
			"componentType":5126,
			"count":10201,
			"max":[
				80000,
				80000,
				0
			],
			"min":[
				-80000,
				-80000,
				0
			],
			"type":"VEC3"
		},
		{
			"bufferView":1,
			"componentType":5126,
			"count":10201,
			"type":"VEC3"
		},
		{
			"bufferView":2,
			"componentType":5126,
			"count":10201,
			"type":"VEC2"
		},
		{
			"bufferView":3,
			"componentType":5123,
			"count":60000,
			"type":"SCALAR"
		}
	],
	"bufferViews":[
		{
			"buffer":0,
			"byteLength":122412,
			"byteOffset":0,
			"target":34962
		},
		{
			"buffer":0,
			"byteLength":122412,
			"byteOffset":122412,
			"target":34962
		},
		{
			"buffer":0,
			"byteLength":81608,
			"byteOffset":244824,
			"target":34962
		},
		{
			"buffer":0,
			"byteLength":120000,
			"byteOffset":326432,
			"target":34963
		}
	],
	"buffers":[
		{
			"byteLength":446432,
			"uri":"SM_Env_Water_Plane_02.bin"
		}
	]
}
