{
	"asset":{
		"generator":"Khronos glTF Blender I/O v4.2.70",
		"version":"2.0"
	},
	"scene":0,
	"scenes":[
		{
			"name":"Scene",
			"nodes":[
				3
			]
		}
	],
	"nodes":[
		{
			"mesh":0,
			"name":"SM_Env_Tubes_01_LOD0"
		},
		{
			"mesh":1,
			"name":"SM_Env_Tubes_01_LOD1"
		},
		{
			"mesh":2,
			"name":"SM_Env_Tubes_01_LOD2"
		},
		{
			"children":[
				0,
				1,
				2
			],
			"name":"SM_Env_Tubes_01",
			"rotation":[
				0.7071068286895752,
				0,
				0,
				0.7071068286895752
			],
			"scale":[
				0.009999999776482582,
				0.009999999776482582,
				0.009999999776482582
			]
		}
	],
	"materials":[
		{
			"doubleSided":true,
			"name":"Nature42",
			"pbrMetallicRoughness":{
				"baseColorTexture":{
					"index":0
				},
				"metallicFactor":0,
				"roughnessFactor":0.5527864098548889
			}
		}
	],
	"meshes":[
		{
			"name":"Mesh",
			"primitives":[
				{
					"attributes":{
						"POSITION":0,
						"NORMAL":1,
						"TEXCOORD_0":2,
						"COLOR_0":3,
						"COLOR_1":4
					},
					"indices":5,
					"material":0
				}
			]
		},
		{
			"name":"Mesh.001",
			"primitives":[
				{
					"attributes":{
						"POSITION":6,
						"NORMAL":7,
						"TEXCOORD_0":8,
						"COLOR_0":9,
						"COLOR_1":10
					},
					"indices":11,
					"material":0
				}
			]
		},
		{
			"name":"Mesh.002",
			"primitives":[
				{
					"attributes":{
						"POSITION":12,
						"NORMAL":13,
						"TEXCOORD_0":14,
						"COLOR_0":15,
						"COLOR_1":16
					},
					"indices":17,
					"material":0
				}
			]
		}
	],
	"textures":[
		{
			"sampler":0,
			"source":0
		}
	],
	"images":[
		{
			"mimeType":"image/png",
			"name":"PolygonNatureBiomes_Tropical_Texture_01",
			"uri":"PolygonNatureBiomes_Tropical_Texture_01.png"
		}
	],
	"accessors":[
		{
			"bufferView":0,
			"componentType":5126,
			"count":659,
			"max":[
				73.91588592529297,
				56.46241760253906,
				7.628693580627441
			],
			"min":[
				-77.55465698242188,
				-63.31681442260742,
				-125.91478729248047
			],
			"type":"VEC3"
		},
		{
			"bufferView":1,
			"componentType":5126,
			"count":659,
			"type":"VEC3"
		},
		{
			"bufferView":2,
			"componentType":5126,
			"count":659,
			"type":"VEC2"
		},
		{
			"bufferView":3,
			"componentType":5121,
			"count":659,
			"normalized":true,
			"type":"VEC4"
		},
		{
			"bufferView":4,
			"componentType":5126,
			"count":659,
			"type":"VEC3"
		},
		{
			"bufferView":5,
			"componentType":5123,
			"count":1344,
			"type":"SCALAR"
		},
		{
			"bufferView":6,
			"componentType":5126,
			"count":483,
			"max":[
				73.91588592529297,
				56.46241760253906,
				7.628693580627441
			],
			"min":[
				-77.55465698242188,
				-63.31681442260742,
				-125.91478729248047
			],
			"type":"VEC3"
		},
		{
			"bufferView":7,
			"componentType":5126,
			"count":483,
			"type":"VEC3"
		},
		{
			"bufferView":8,
			"componentType":5126,
			"count":483,
			"type":"VEC2"
		},
		{
			"bufferView":9,
			"componentType":5121,
			"count":483,
			"normalized":true,
			"type":"VEC4"
		},
		{
			"bufferView":10,
			"componentType":5126,
			"count":483,
			"type":"VEC3"
		},
		{
			"bufferView":11,
			"componentType":5123,
			"count":1008,
			"type":"SCALAR"
		},
		{
			"bufferView":12,
			"componentType":5126,
			"count":278,
			"max":[
				71.96055603027344,
				55.25646209716797,
				37.42811584472656
			],
			"min":[
				-75.3965835571289,
				-61.516456604003906,
				-123.91429901123047
			],
			"type":"VEC3"
		},
		{
			"bufferView":13,
			"componentType":5126,
			"count":278,
			"type":"VEC3"
		},
		{
			"bufferView":14,
			"componentType":5126,
			"count":278,
			"type":"VEC2"
		},
		{
			"bufferView":15,
			"componentType":5121,
			"count":278,
			"normalized":true,
			"type":"VEC4"
		},
		{
			"bufferView":16,
			"componentType":5126,
			"count":278,
			"type":"VEC3"
		},
		{
			"bufferView":17,
			"componentType":5123,
			"count":420,
			"type":"SCALAR"
		}
	],
	"bufferViews":[
		{
			"buffer":0,
			"byteLength":7908,
			"byteOffset":0,
			"target":34962
		},
		{
			"buffer":0,
			"byteLength":7908,
			"byteOffset":7908,
			"target":34962
		},
		{
			"buffer":0,
			"byteLength":5272,
			"byteOffset":15816,
			"target":34962
		},
		{
			"buffer":0,
			"byteLength":2636,
			"byteOffset":21088,
			"target":34962
		},
		{
			"buffer":0,
			"byteLength":7908,
			"byteOffset":23724,
			"target":34962
		},
		{
			"buffer":0,
			"byteLength":2688,
			"byteOffset":31632,
			"target":34963
		},
		{
			"buffer":0,
			"byteLength":5796,
			"byteOffset":34320,
			"target":34962
		},
		{
			"buffer":0,
			"byteLength":5796,
			"byteOffset":40116,
			"target":34962
		},
		{
			"buffer":0,
			"byteLength":3864,
			"byteOffset":45912,
			"target":34962
		},
		{
			"buffer":0,
			"byteLength":1932,
			"byteOffset":49776,
			"target":34962
		},
		{
			"buffer":0,
			"byteLength":5796,
			"byteOffset":51708,
			"target":34962
		},
		{
			"buffer":0,
			"byteLength":2016,
			"byteOffset":57504,
			"target":34963
		},
		{
			"buffer":0,
			"byteLength":3336,
			"byteOffset":59520,
			"target":34962
		},
		{
			"buffer":0,
			"byteLength":3336,
			"byteOffset":62856,
			"target":34962
		},
		{
			"buffer":0,
			"byteLength":2224,
			"byteOffset":66192,
			"target":34962
		},
		{
			"buffer":0,
			"byteLength":1112,
			"byteOffset":68416,
			"target":34962
		},
		{
			"buffer":0,
			"byteLength":3336,
			"byteOffset":69528,
			"target":34962
		},
		{
			"buffer":0,
			"byteLength":840,
			"byteOffset":72864,
			"target":34963
		}
	],
	"samplers":[
		{
			"magFilter":9729,
			"minFilter":9987
		}
	],
	"buffers":[
		{
			"byteLength":73704,
			"uri":"SM_Env_Tubes_01.bin"
		}
	]
}
