{
	"asset":{
		"generator":"Khronos glTF Blender I/O v4.2.70",
		"version":"2.0"
	},
	"scene":0,
	"scenes":[
		{
			"name":"Scene",
			"nodes":[
				3
			]
		}
	],
	"nodes":[
		{
			"mesh":0,
			"name":"SM_Env_Bush_Palm_02_LOD0"
		},
		{
			"mesh":1,
			"name":"SM_Env_Bush_Palm_02_LOD1"
		},
		{
			"mesh":2,
			"name":"SM_Env_Bush_Palm_02_LOD2"
		},
		{
			"children":[
				0,
				1,
				2
			],
			"name":"SM_Env_Bush_Palm_02",
			"rotation":[
				0.7071068286895752,
				0,
				0,
				0.7071068286895752
			],
			"scale":[
				0.009999999776482582,
				0.009999999776482582,
				0.009999999776482582
			]
		}
	],
	"materials":[
		{
			"doubleSided":true,
			"name":"lambert8",
			"pbrMetallicRoughness":{
				"baseColorTexture":{
					"index":0
				},
				"metallicFactor":0,
				"roughnessFactor":0.5527864098548889
			}
		}
	],
	"meshes":[
		{
			"name":"Mesh",
			"primitives":[
				{
					"attributes":{
						"POSITION":0,
						"NORMAL":1,
						"TEXCOORD_0":2,
						"COLOR_0":3,
						"COLOR_1":4
					},
					"indices":5,
					"material":0
				}
			]
		},
		{
			"name":"Mesh.001",
			"primitives":[
				{
					"attributes":{
						"POSITION":6,
						"NORMAL":7,
						"TEXCOORD_0":8,
						"COLOR_0":9,
						"COLOR_1":10
					},
					"indices":11,
					"material":0
				}
			]
		},
		{
			"name":"Mesh.002",
			"primitives":[
				{
					"attributes":{
						"POSITION":12,
						"NORMAL":13,
						"TEXCOORD_0":14,
						"COLOR_0":15,
						"COLOR_1":16
					},
					"indices":17,
					"material":0
				}
			]
		}
	],
	"textures":[
		{
			"sampler":0,
			"source":0
		}
	],
	"images":[
		{
			"mimeType":"image/png",
			"name":"Leaf_Banana_01_Normals",
			"uri":"Leaf_Banana_01_Normals.png"
		}
	],
	"accessors":[
		{
			"bufferView":0,
			"componentType":5126,
			"count":990,
			"max":[
				193.71519470214844,
				195.67982482910156,
				20.645061492919922
			],
			"min":[
				-158.451171875,
				-166.50437927246094,
				-344.9486083984375
			],
			"type":"VEC3"
		},
		{
			"bufferView":1,
			"componentType":5126,
			"count":990,
			"type":"VEC3"
		},
		{
			"bufferView":2,
			"componentType":5126,
			"count":990,
			"type":"VEC2"
		},
		{
			"bufferView":3,
			"componentType":5121,
			"count":990,
			"normalized":true,
			"type":"VEC4"
		},
		{
			"bufferView":4,
			"componentType":5126,
			"count":990,
			"type":"VEC3"
		},
		{
			"bufferView":5,
			"componentType":5123,
			"count":1800,
			"type":"SCALAR"
		},
		{
			"bufferView":6,
			"componentType":5126,
			"count":608,
			"max":[
				193.71519470214844,
				195.67982482910156,
				20.645061492919922
			],
			"min":[
				-158.451171875,
				-166.50437927246094,
				-344.9486083984375
			],
			"type":"VEC3"
		},
		{
			"bufferView":7,
			"componentType":5126,
			"count":608,
			"type":"VEC3"
		},
		{
			"bufferView":8,
			"componentType":5126,
			"count":608,
			"type":"VEC2"
		},
		{
			"bufferView":9,
			"componentType":5121,
			"count":608,
			"normalized":true,
			"type":"VEC4"
		},
		{
			"bufferView":10,
			"componentType":5126,
			"count":608,
			"type":"VEC3"
		},
		{
			"bufferView":11,
			"componentType":5123,
			"count":1032,
			"type":"SCALAR"
		},
		{
			"bufferView":12,
			"componentType":5126,
			"count":442,
			"max":[
				193.71519470214844,
				195.67982482910156,
				20.645061492919922
			],
			"min":[
				-158.451171875,
				-166.50437927246094,
				-344.9486083984375
			],
			"type":"VEC3"
		},
		{
			"bufferView":13,
			"componentType":5126,
			"count":442,
			"type":"VEC3"
		},
		{
			"bufferView":14,
			"componentType":5126,
			"count":442,
			"type":"VEC2"
		},
		{
			"bufferView":15,
			"componentType":5121,
			"count":442,
			"normalized":true,
			"type":"VEC4"
		},
		{
			"bufferView":16,
			"componentType":5126,
			"count":442,
			"type":"VEC3"
		},
		{
			"bufferView":17,
			"componentType":5123,
			"count":702,
			"type":"SCALAR"
		}
	],
	"bufferViews":[
		{
			"buffer":0,
			"byteLength":11880,
			"byteOffset":0,
			"target":34962
		},
		{
			"buffer":0,
			"byteLength":11880,
			"byteOffset":11880,
			"target":34962
		},
		{
			"buffer":0,
			"byteLength":7920,
			"byteOffset":23760,
			"target":34962
		},
		{
			"buffer":0,
			"byteLength":3960,
			"byteOffset":31680,
			"target":34962
		},
		{
			"buffer":0,
			"byteLength":11880,
			"byteOffset":35640,
			"target":34962
		},
		{
			"buffer":0,
			"byteLength":3600,
			"byteOffset":47520,
			"target":34963
		},
		{
			"buffer":0,
			"byteLength":7296,
			"byteOffset":51120,
			"target":34962
		},
		{
			"buffer":0,
			"byteLength":7296,
			"byteOffset":58416,
			"target":34962
		},
		{
			"buffer":0,
			"byteLength":4864,
			"byteOffset":65712,
			"target":34962
		},
		{
			"buffer":0,
			"byteLength":2432,
			"byteOffset":70576,
			"target":34962
		},
		{
			"buffer":0,
			"byteLength":7296,
			"byteOffset":73008,
			"target":34962
		},
		{
			"buffer":0,
			"byteLength":2064,
			"byteOffset":80304,
			"target":34963
		},
		{
			"buffer":0,
			"byteLength":5304,
			"byteOffset":82368,
			"target":34962
		},
		{
			"buffer":0,
			"byteLength":5304,
			"byteOffset":87672,
			"target":34962
		},
		{
			"buffer":0,
			"byteLength":3536,
			"byteOffset":92976,
			"target":34962
		},
		{
			"buffer":0,
			"byteLength":1768,
			"byteOffset":96512,
			"target":34962
		},
		{
			"buffer":0,
			"byteLength":5304,
			"byteOffset":98280,
			"target":34962
		},
		{
			"buffer":0,
			"byteLength":1404,
			"byteOffset":103584,
			"target":34963
		}
	],
	"samplers":[
		{
			"magFilter":9729,
			"minFilter":9987
		}
	],
	"buffers":[
		{
			"byteLength":104988,
			"uri":"SM_Env_Bush_Palm_02.bin"
		}
	]
}
