{
	"asset":{
		"generator":"Khronos glTF Blender I/O v4.2.70",
		"version":"2.0"
	},
	"scene":0,
	"scenes":[
		{
			"name":"Scene",
			"nodes":[
				3
			]
		}
	],
	"nodes":[
		{
			"mesh":0,
			"name":"SM_Env_Tree_Pohutukawa_03_LOD0"
		},
		{
			"mesh":1,
			"name":"SM_Env_Tree_Pohutukawa_03_LOD1"
		},
		{
			"mesh":2,
			"name":"SM_Env_Tree_Pohutukawa_03_LOD2"
		},
		{
			"children":[
				0,
				1,
				2
			],
			"name":"SM_Env_Tree_Pohutukawa_03",
			"rotation":[
				0.7071068286895752,
				0,
				0,
				0.7071068286895752
			],
			"scale":[
				0.009999999776482582,
				0.009999999776482582,
				0.009999999776482582
			]
		}
	],
	"materials":[
		{
			"doubleSided":true,
			"name":"lambert33",
			"pbrMetallicRoughness":{
				"baseColorTexture":{
					"index":0
				},
				"metallicFactor":0,
				"roughnessFactor":0.5527864098548889
			}
		}
	],
	"meshes":[
		{
			"name":"Mesh",
			"primitives":[
				{
					"attributes":{
						"POSITION":0,
						"NORMAL":1,
						"TEXCOORD_0":2,
						"COLOR_0":3,
						"COLOR_1":4
					},
					"indices":5,
					"material":0
				}
			]
		},
		{
			"name":"Mesh.001",
			"primitives":[
				{
					"attributes":{
						"POSITION":6,
						"NORMAL":7,
						"TEXCOORD_0":8,
						"COLOR_0":9,
						"COLOR_1":10
					},
					"indices":11,
					"material":0
				}
			]
		},
		{
			"name":"Mesh.002",
			"primitives":[
				{
					"attributes":{
						"POSITION":12,
						"NORMAL":13,
						"TEXCOORD_0":14,
						"COLOR_0":15,
						"COLOR_1":16
					},
					"indices":17,
					"material":0
				}
			]
		}
	],
	"textures":[
		{
			"sampler":0,
			"source":0
		}
	],
	"images":[
		{
			"mimeType":"image/png",
			"name":"treePohutukawa_03_Normals",
			"uri":"treePohutukawa_03_Normals.png"
		}
	],
	"accessors":[
		{
			"bufferView":0,
			"componentType":5126,
			"count":5992,
			"max":[
				209.0706024169922,
				165.6007080078125,
				39.192535400390625
			],
			"min":[
				-210.5623016357422,
				-221.37522888183594,
				-450.1965026855469
			],
			"type":"VEC3"
		},
		{
			"bufferView":1,
			"componentType":5126,
			"count":5992,
			"type":"VEC3"
		},
		{
			"bufferView":2,
			"componentType":5126,
			"count":5992,
			"type":"VEC2"
		},
		{
			"bufferView":3,
			"componentType":5121,
			"count":5992,
			"normalized":true,
			"type":"VEC4"
		},
		{
			"bufferView":4,
			"componentType":5126,
			"count":5992,
			"type":"VEC3"
		},
		{
			"bufferView":5,
			"componentType":5123,
			"count":8832,
			"type":"SCALAR"
		},
		{
			"bufferView":6,
			"componentType":5126,
			"count":7910,
			"max":[
				206.27784729003906,
				162.88421630859375,
				39.192535400390625
			],
			"min":[
				-212.52850341796875,
				-220.17481994628906,
				-441.42242431640625
			],
			"type":"VEC3"
		},
		{
			"bufferView":7,
			"componentType":5126,
			"count":7910,
			"type":"VEC3"
		},
		{
			"bufferView":8,
			"componentType":5126,
			"count":7910,
			"type":"VEC2"
		},
		{
			"bufferView":9,
			"componentType":5121,
			"count":7910,
			"normalized":true,
			"type":"VEC4"
		},
		{
			"bufferView":10,
			"componentType":5126,
			"count":7910,
			"type":"VEC3"
		},
		{
			"bufferView":11,
			"componentType":5123,
			"count":11742,
			"type":"SCALAR"
		},
		{
			"bufferView":12,
			"componentType":5126,
			"count":16,
			"max":[
				230.9842071533203,
				183.5977020263672,
				53.68118667602539
			],
			"min":[
				-236.8240203857422,
				-241.47308349609375,
				-460.864013671875
			],
			"type":"VEC3"
		},
		{
			"bufferView":13,
			"componentType":5126,
			"count":16,
			"type":"VEC3"
		},
		{
			"bufferView":14,
			"componentType":5126,
			"count":16,
			"type":"VEC2"
		},
		{
			"bufferView":15,
			"componentType":5121,
			"count":16,
			"normalized":true,
			"type":"VEC4"
		},
		{
			"bufferView":16,
			"componentType":5126,
			"count":16,
			"type":"VEC3"
		},
		{
			"bufferView":17,
			"componentType":5123,
			"count":24,
			"type":"SCALAR"
		}
	],
	"bufferViews":[
		{
			"buffer":0,
			"byteLength":71904,
			"byteOffset":0,
			"target":34962
		},
		{
			"buffer":0,
			"byteLength":71904,
			"byteOffset":71904,
			"target":34962
		},
		{
			"buffer":0,
			"byteLength":47936,
			"byteOffset":143808,
			"target":34962
		},
		{
			"buffer":0,
			"byteLength":23968,
			"byteOffset":191744,
			"target":34962
		},
		{
			"buffer":0,
			"byteLength":71904,
			"byteOffset":215712,
			"target":34962
		},
		{
			"buffer":0,
			"byteLength":17664,
			"byteOffset":287616,
			"target":34963
		},
		{
			"buffer":0,
			"byteLength":94920,
			"byteOffset":305280,
			"target":34962
		},
		{
			"buffer":0,
			"byteLength":94920,
			"byteOffset":400200,
			"target":34962
		},
		{
			"buffer":0,
			"byteLength":63280,
			"byteOffset":495120,
			"target":34962
		},
		{
			"buffer":0,
			"byteLength":31640,
			"byteOffset":558400,
			"target":34962
		},
		{
			"buffer":0,
			"byteLength":94920,
			"byteOffset":590040,
			"target":34962
		},
		{
			"buffer":0,
			"byteLength":23484,
			"byteOffset":684960,
			"target":34963
		},
		{
			"buffer":0,
			"byteLength":192,
			"byteOffset":708444,
			"target":34962
		},
		{
			"buffer":0,
			"byteLength":192,
			"byteOffset":708636,
			"target":34962
		},
		{
			"buffer":0,
			"byteLength":128,
			"byteOffset":708828,
			"target":34962
		},
		{
			"buffer":0,
			"byteLength":64,
			"byteOffset":708956,
			"target":34962
		},
		{
			"buffer":0,
			"byteLength":192,
			"byteOffset":709020,
			"target":34962
		},
		{
			"buffer":0,
			"byteLength":48,
			"byteOffset":709212,
			"target":34963
		}
	],
	"samplers":[
		{
			"magFilter":9729,
			"minFilter":9987
		}
	],
	"buffers":[
		{
			"byteLength":709260,
			"uri":"SM_Env_Tree_Pohutukawa_03.bin"
		}
	]
}
