{
	"asset":{
		"generator":"Khronos glTF Blender I/O v4.2.70",
		"version":"2.0"
	},
	"scene":0,
	"scenes":[
		{
			"name":"Scene",
			"nodes":[
				3
			]
		}
	],
	"nodes":[
		{
			"mesh":0,
			"name":"SM_Env_Flower_Pitcher_01_LOD0"
		},
		{
			"mesh":1,
			"name":"SM_Env_Flower_Pitcher_01_LOD1"
		},
		{
			"mesh":2,
			"name":"SM_Env_Flower_Pitcher_01_LOD2"
		},
		{
			"children":[
				0,
				1,
				2
			],
			"name":"SM_Env_Flower_Pitcher_01",
			"rotation":[
				0.7071068286895752,
				0,
				0,
				0.7071068286895752
			],
			"scale":[
				0.009999999776482582,
				0.009999999776482582,
				0.009999999776482582
			]
		}
	],
	"materials":[
		{
			"doubleSided":true,
			"name":"Nature6",
			"pbrMetallicRoughness":{
				"baseColorTexture":{
					"index":0
				},
				"metallicFactor":0,
				"roughnessFactor":0.5527864098548889
			}
		}
	],
	"meshes":[
		{
			"name":"Mesh",
			"primitives":[
				{
					"attributes":{
						"POSITION":0,
						"NORMAL":1,
						"TEXCOORD_0":2,
						"COLOR_0":3,
						"COLOR_1":4
					},
					"indices":5,
					"material":0
				}
			]
		},
		{
			"name":"Mesh.001",
			"primitives":[
				{
					"attributes":{
						"POSITION":6,
						"NORMAL":7,
						"TEXCOORD_0":8,
						"COLOR_0":9,
						"COLOR_1":10
					},
					"indices":11,
					"material":0
				}
			]
		},
		{
			"name":"Mesh.002",
			"primitives":[
				{
					"attributes":{
						"POSITION":12,
						"NORMAL":13,
						"TEXCOORD_0":14,
						"COLOR_0":15,
						"COLOR_1":16
					},
					"indices":17,
					"material":0
				}
			]
		}
	],
	"textures":[
		{
			"sampler":0,
			"source":0
		}
	],
	"images":[
		{
			"mimeType":"image/png",
			"name":"PolygonNatureBiomes_Tropical_Texture_01",
			"uri":"PolygonNatureBiomes_Tropical_Texture_01.png"
		}
	],
	"accessors":[
		{
			"bufferView":0,
			"componentType":5126,
			"count":1232,
			"max":[
				90.15283203125,
				107.19052124023438,
				15.498748779296875
			],
			"min":[
				-88.8816909790039,
				-43.694679260253906,
				-239.83343505859375
			],
			"type":"VEC3"
		},
		{
			"bufferView":1,
			"componentType":5126,
			"count":1232,
			"type":"VEC3"
		},
		{
			"bufferView":2,
			"componentType":5126,
			"count":1232,
			"type":"VEC2"
		},
		{
			"bufferView":3,
			"componentType":5121,
			"count":1232,
			"normalized":true,
			"type":"VEC4"
		},
		{
			"bufferView":4,
			"componentType":5126,
			"count":1232,
			"type":"VEC3"
		},
		{
			"bufferView":5,
			"componentType":5123,
			"count":2574,
			"type":"SCALAR"
		},
		{
			"bufferView":6,
			"componentType":5126,
			"count":1010,
			"max":[
				90.15283203125,
				107.19052124023438,
				15.498748779296875
			],
			"min":[
				-88.8816909790039,
				-43.694679260253906,
				-239.83343505859375
			],
			"type":"VEC3"
		},
		{
			"bufferView":7,
			"componentType":5126,
			"count":1010,
			"type":"VEC3"
		},
		{
			"bufferView":8,
			"componentType":5126,
			"count":1010,
			"type":"VEC2"
		},
		{
			"bufferView":9,
			"componentType":5121,
			"count":1010,
			"normalized":true,
			"type":"VEC4"
		},
		{
			"bufferView":10,
			"componentType":5126,
			"count":1010,
			"type":"VEC3"
		},
		{
			"bufferView":11,
			"componentType":5123,
			"count":2052,
			"type":"SCALAR"
		},
		{
			"bufferView":12,
			"componentType":5126,
			"count":427,
			"max":[
				82.24925231933594,
				101.08035278320312,
				15.498748779296875
			],
			"min":[
				-84.47504425048828,
				-43.84769058227539,
				-241.48141479492188
			],
			"type":"VEC3"
		},
		{
			"bufferView":13,
			"componentType":5126,
			"count":427,
			"type":"VEC3"
		},
		{
			"bufferView":14,
			"componentType":5126,
			"count":427,
			"type":"VEC2"
		},
		{
			"bufferView":15,
			"componentType":5121,
			"count":427,
			"normalized":true,
			"type":"VEC4"
		},
		{
			"bufferView":16,
			"componentType":5126,
			"count":427,
			"type":"VEC3"
		},
		{
			"bufferView":17,
			"componentType":5123,
			"count":882,
			"type":"SCALAR"
		}
	],
	"bufferViews":[
		{
			"buffer":0,
			"byteLength":14784,
			"byteOffset":0,
			"target":34962
		},
		{
			"buffer":0,
			"byteLength":14784,
			"byteOffset":14784,
			"target":34962
		},
		{
			"buffer":0,
			"byteLength":9856,
			"byteOffset":29568,
			"target":34962
		},
		{
			"buffer":0,
			"byteLength":4928,
			"byteOffset":39424,
			"target":34962
		},
		{
			"buffer":0,
			"byteLength":14784,
			"byteOffset":44352,
			"target":34962
		},
		{
			"buffer":0,
			"byteLength":5148,
			"byteOffset":59136,
			"target":34963
		},
		{
			"buffer":0,
			"byteLength":12120,
			"byteOffset":64284,
			"target":34962
		},
		{
			"buffer":0,
			"byteLength":12120,
			"byteOffset":76404,
			"target":34962
		},
		{
			"buffer":0,
			"byteLength":8080,
			"byteOffset":88524,
			"target":34962
		},
		{
			"buffer":0,
			"byteLength":4040,
			"byteOffset":96604,
			"target":34962
		},
		{
			"buffer":0,
			"byteLength":12120,
			"byteOffset":100644,
			"target":34962
		},
		{
			"buffer":0,
			"byteLength":4104,
			"byteOffset":112764,
			"target":34963
		},
		{
			"buffer":0,
			"byteLength":5124,
			"byteOffset":116868,
			"target":34962
		},
		{
			"buffer":0,
			"byteLength":5124,
			"byteOffset":121992,
			"target":34962
		},
		{
			"buffer":0,
			"byteLength":3416,
			"byteOffset":127116,
			"target":34962
		},
		{
			"buffer":0,
			"byteLength":1708,
			"byteOffset":130532,
			"target":34962
		},
		{
			"buffer":0,
			"byteLength":5124,
			"byteOffset":132240,
			"target":34962
		},
		{
			"buffer":0,
			"byteLength":1764,
			"byteOffset":137364,
			"target":34963
		}
	],
	"samplers":[
		{
			"magFilter":9729,
			"minFilter":9987
		}
	],
	"buffers":[
		{
			"byteLength":139128,
			"uri":"SM_Env_Flower_Pitcher_01.bin"
		}
	]
}
