{
	"asset":{
		"generator":"Khronos glTF Blender I/O v4.2.70",
		"version":"2.0"
	},
	"scene":0,
	"scenes":[
		{
			"name":"Scene",
			"nodes":[
				0
			]
		}
	],
	"nodes":[
		{
			"mesh":0,
			"name":"SM_Gen_Env_Dirt_Cliff_03",
			"rotation":[
				0.7071068286895752,
				0,
				0,
				0.7071068286895752
			],
			"scale":[
				0.009999999776482582,
				0.009999999776482582,
				0.009999999776482582
			]
		}
	],
	"materials":[
		{
			"doubleSided":true,
			"name":"PolygonNatureBiomesS2_Texture_01A2",
			"pbrMetallicRoughness":{
				"metallicFactor":0,
				"roughnessFactor":0.5527864098548889
			}
		}
	],
	"meshes":[
		{
			"name":"Mesh",
			"primitives":[
				{
					"attributes":{
						"POSITION":0,
						"NORMAL":1,
						"TEXCOORD_0":2
					},
					"indices":3,
					"material":0
				}
			]
		}
	],
	"accessors":[
		{
			"bufferView":0,
			"componentType":5126,
			"count":3276,
			"max":[
				1310.138671875,
				672.5670776367188,
				114.8592529296875
			],
			"min":[
				-1234.160888671875,
				-738.0584106445312,
				-892.3097534179688
			],
			"type":"VEC3"
		},
		{
			"bufferView":1,
			"componentType":5126,
			"count":3276,
			"type":"VEC3"
		},
		{
			"bufferView":2,
			"componentType":5126,
			"count":3276,
			"type":"VEC2"
		},
		{
			"bufferView":3,
			"componentType":5123,
			"count":3276,
			"type":"SCALAR"
		}
	],
	"bufferViews":[
		{
			"buffer":0,
			"byteLength":39312,
			"byteOffset":0,
			"target":34962
		},
		{
			"buffer":0,
			"byteLength":39312,
			"byteOffset":39312,
			"target":34962
		},
		{
			"buffer":0,
			"byteLength":26208,
			"byteOffset":78624,
			"target":34962
		},
		{
			"buffer":0,
			"byteLength":6552,
			"byteOffset":104832,
			"target":34963
		}
	],
	"buffers":[
		{
			"byteLength":111384,
			"uri":"SM_Gen_Env_Dirt_Cliff_03.bin"
		}
	]
}
