{
	"asset":{
		"generator":"Khronos glTF Blender I/O v4.2.70",
		"version":"2.0"
	},
	"scene":0,
	"scenes":[
		{
			"name":"Scene",
			"nodes":[
				0
			]
		}
	],
	"nodes":[
		{
			"mesh":0,
			"name":"SM_Gen_Prop_Aircon_Roof_02",
			"rotation":[
				0.7071068286895752,
				0,
				0,
				0.7071068286895752
			],
			"scale":[
				0.009999999776482582,
				0.009999999776482582,
				0.009999999776482582
			]
		}
	],
	"materials":[
		{
			"doubleSided":true,
			"name":"Polygon_Generic_01A",
			"pbrMetallicRoughness":{
				"baseColorTexture":{
					"index":0
				},
				"metallicFactor":0,
				"roughnessFactor":0.5527864098548889
			}
		}
	],
	"meshes":[
		{
			"name":"Mesh",
			"primitives":[
				{
					"attributes":{
						"POSITION":0,
						"NORMAL":1,
						"TEXCOORD_0":2,
						"TEXCOORD_1":3
					},
					"indices":4,
					"material":0
				}
			]
		}
	],
	"textures":[
		{
			"sampler":0,
			"source":0
		}
	],
	"images":[
		{
			"mimeType":"image/png",
			"name":"Generic_01_A",
			"uri":"Generic_01_A.png"
		}
	],
	"accessors":[
		{
			"bufferView":0,
			"componentType":5126,
			"count":661,
			"max":[
				60.46186828613281,
				39.90945816040039,
				1.0453736782073975
			],
			"min":[
				-99.55279541015625,
				-39.90955352783203,
				-107.34356689453125
			],
			"type":"VEC3"
		},
		{
			"bufferView":1,
			"componentType":5126,
			"count":661,
			"type":"VEC3"
		},
		{
			"bufferView":2,
			"componentType":5126,
			"count":661,
			"type":"VEC2"
		},
		{
			"bufferView":3,
			"componentType":5126,
			"count":661,
			"type":"VEC2"
		},
		{
			"bufferView":4,
			"componentType":5123,
			"count":1113,
			"type":"SCALAR"
		}
	],
	"bufferViews":[
		{
			"buffer":0,
			"byteLength":7932,
			"byteOffset":0,
			"target":34962
		},
		{
			"buffer":0,
			"byteLength":7932,
			"byteOffset":7932,
			"target":34962
		},
		{
			"buffer":0,
			"byteLength":5288,
			"byteOffset":15864,
			"target":34962
		},
		{
			"buffer":0,
			"byteLength":5288,
			"byteOffset":21152,
			"target":34962
		},
		{
			"buffer":0,
			"byteLength":2226,
			"byteOffset":26440,
			"target":34963
		}
	],
	"samplers":[
		{
			"magFilter":9729,
			"minFilter":9987
		}
	],
	"buffers":[
		{
			"byteLength":28668,
			"uri":"SM_Gen_Prop_Aircon_Roof_02.bin"
		}
	]
}
