{
	"asset":{
		"generator":"Khronos glTF Blender I/O v4.2.70",
		"version":"2.0"
	},
	"scene":0,
	"scenes":[
		{
			"name":"Scene",
			"nodes":[
				0
			]
		}
	],
	"nodes":[
		{
			"mesh":0,
			"name":"SM_Gen_Env_Hill_05",
			"rotation":[
				0.7071068286895752,
				0,
				0,
				0.7071068286895752
			],
			"scale":[
				0.009999999776482582,
				0.013555067591369152,
				0.009999999776482582
			]
		}
	],
	"materials":[
		{
			"doubleSided":true,
			"name":"Polygon_Generic_01A41",
			"pbrMetallicRoughness":{
				"metallicFactor":0,
				"roughnessFactor":0.5527864098548889
			}
		}
	],
	"meshes":[
		{
			"name":"Mesh",
			"primitives":[
				{
					"attributes":{
						"POSITION":0,
						"NORMAL":1,
						"TEXCOORD_0":2,
						"TEXCOORD_1":3
					},
					"indices":4,
					"material":0
				}
			]
		}
	],
	"accessors":[
		{
			"bufferView":0,
			"componentType":5126,
			"count":465,
			"max":[
				1253.80029296875,
				1562.5780029296875,
				5.684341886080802e-14
			],
			"min":[
				-1200.3277587890625,
				-1589.3851318359375,
				-419.764404296875
			],
			"type":"VEC3"
		},
		{
			"bufferView":1,
			"componentType":5126,
			"count":465,
			"type":"VEC3"
		},
		{
			"bufferView":2,
			"componentType":5126,
			"count":465,
			"type":"VEC2"
		},
		{
			"bufferView":3,
			"componentType":5126,
			"count":465,
			"type":"VEC2"
		},
		{
			"bufferView":4,
			"componentType":5123,
			"count":489,
			"type":"SCALAR"
		}
	],
	"bufferViews":[
		{
			"buffer":0,
			"byteLength":5580,
			"byteOffset":0,
			"target":34962
		},
		{
			"buffer":0,
			"byteLength":5580,
			"byteOffset":5580,
			"target":34962
		},
		{
			"buffer":0,
			"byteLength":3720,
			"byteOffset":11160,
			"target":34962
		},
		{
			"buffer":0,
			"byteLength":3720,
			"byteOffset":14880,
			"target":34962
		},
		{
			"buffer":0,
			"byteLength":978,
			"byteOffset":18600,
			"target":34963
		}
	],
	"buffers":[
		{
			"byteLength":19580,
			"uri":"SM_Gen_Env_Hill_05.bin"
		}
	]
}
