{
	"asset":{
		"generator":"Khronos glTF Blender I/O v4.2.70",
		"version":"2.0"
	},
	"scene":0,
	"scenes":[
		{
			"name":"Scene",
			"nodes":[
				0
			]
		}
	],
	"nodes":[
		{
			"mesh":0,
			"name":"SM_Gen_Env_Ground_Edge_04",
			"rotation":[
				0.7071068286895752,
				0,
				0,
				0.7071068286895752
			],
			"scale":[
				0.009999999776482582,
				0.009999999776482582,
				0.009999999776482582
			]
		}
	],
	"materials":[
		{
			"doubleSided":true,
			"name":"Polygon_Generic_01A",
			"pbrMetallicRoughness":{
				"metallicFactor":0,
				"roughnessFactor":0.5527864098548889
			}
		}
	],
	"meshes":[
		{
			"name":"Mesh",
			"primitives":[
				{
					"attributes":{
						"POSITION":0,
						"NORMAL":1,
						"TEXCOORD_0":2,
						"TEXCOORD_1":3
					},
					"indices":4,
					"material":0
				}
			]
		}
	],
	"accessors":[
		{
			"bufferView":0,
			"componentType":5126,
			"count":174,
			"max":[
				122.2222900390625,
				97.97305297851562,
				5.986682891845703
			],
			"min":[
				-152.36514282226562,
				-4.990962028503418,
				-31.318275451660156
			],
			"type":"VEC3"
		},
		{
			"bufferView":1,
			"componentType":5126,
			"count":174,
			"type":"VEC3"
		},
		{
			"bufferView":2,
			"componentType":5126,
			"count":174,
			"type":"VEC2"
		},
		{
			"bufferView":3,
			"componentType":5126,
			"count":174,
			"type":"VEC2"
		},
		{
			"bufferView":4,
			"componentType":5123,
			"count":219,
			"type":"SCALAR"
		}
	],
	"bufferViews":[
		{
			"buffer":0,
			"byteLength":2088,
			"byteOffset":0,
			"target":34962
		},
		{
			"buffer":0,
			"byteLength":2088,
			"byteOffset":2088,
			"target":34962
		},
		{
			"buffer":0,
			"byteLength":1392,
			"byteOffset":4176,
			"target":34962
		},
		{
			"buffer":0,
			"byteLength":1392,
			"byteOffset":5568,
			"target":34962
		},
		{
			"buffer":0,
			"byteLength":438,
			"byteOffset":6960,
			"target":34963
		}
	],
	"buffers":[
		{
			"byteLength":7400,
			"uri":"SM_Gen_Env_Ground_Edge_04.bin"
		}
	]
}
