{
	"asset":{
		"generator":"Khronos glTF Blender I/O v4.2.70",
		"version":"2.0"
	},
	"scene":0,
	"scenes":[
		{
			"name":"Scene",
			"nodes":[
				0
			]
		}
	],
	"nodes":[
		{
			"mesh":0,
			"name":"SM_Gen_Env_Flowers_08",
			"rotation":[
				0.7071068286895752,
				0,
				0,
				0.7071068286895752
			],
			"scale":[
				0.009999999776482582,
				0.009999999776482582,
				0.009999999776482582
			]
		}
	],
	"materials":[
		{
			"doubleSided":true,
			"name":"Polygon_Generic_01A7",
			"pbrMetallicRoughness":{
				"baseColorTexture":{
					"index":0
				},
				"metallicFactor":0,
				"roughnessFactor":0.5527864098548889
			}
		}
	],
	"meshes":[
		{
			"name":"Mesh",
			"primitives":[
				{
					"attributes":{
						"POSITION":0,
						"NORMAL":1,
						"TEXCOORD_0":2,
						"TEXCOORD_1":3
					},
					"indices":4,
					"material":0
				}
			]
		}
	],
	"textures":[
		{
			"sampler":0,
			"source":0
		}
	],
	"images":[
		{
			"mimeType":"image/png",
			"name":"Generic_01_A",
			"uri":"Generic_01_A.png"
		}
	],
	"accessors":[
		{
			"bufferView":0,
			"componentType":5126,
			"count":985,
			"max":[
				30.575632095336914,
				33.600685119628906,
				10.304183006286621
			],
			"min":[
				-30.575716018676758,
				-33.600685119628906,
				-110.75057983398438
			],
			"type":"VEC3"
		},
		{
			"bufferView":1,
			"componentType":5126,
			"count":985,
			"type":"VEC3"
		},
		{
			"bufferView":2,
			"componentType":5126,
			"count":985,
			"type":"VEC2"
		},
		{
			"bufferView":3,
			"componentType":5126,
			"count":985,
			"type":"VEC2"
		},
		{
			"bufferView":4,
			"componentType":5123,
			"count":1053,
			"type":"SCALAR"
		}
	],
	"bufferViews":[
		{
			"buffer":0,
			"byteLength":11820,
			"byteOffset":0,
			"target":34962
		},
		{
			"buffer":0,
			"byteLength":11820,
			"byteOffset":11820,
			"target":34962
		},
		{
			"buffer":0,
			"byteLength":7880,
			"byteOffset":23640,
			"target":34962
		},
		{
			"buffer":0,
			"byteLength":7880,
			"byteOffset":31520,
			"target":34962
		},
		{
			"buffer":0,
			"byteLength":2106,
			"byteOffset":39400,
			"target":34963
		}
	],
	"samplers":[
		{
			"magFilter":9729,
			"minFilter":9987
		}
	],
	"buffers":[
		{
			"byteLength":41508,
			"uri":"SM_Gen_Env_Flowers_08.bin"
		}
	]
}
