{
	"asset":{
		"generator":"Khronos glTF Blender I/O v4.2.70",
		"version":"2.0"
	},
	"scene":0,
	"scenes":[
		{
			"name":"Scene",
			"nodes":[
				2
			]
		}
	],
	"nodes":[
		{
			"mesh":0,
			"name":"SM_Gen_Prop_Chest_01_Latch_01"
		},
		{
			"children":[
				0
			],
			"mesh":1,
			"name":"SM_Gen_Prop_Chest_01_Lid_01"
		},
		{
			"children":[
				1
			],
			"mesh":2,
			"name":"SM_Gen_Prop_Chest_01",
			"rotation":[
				0.7071068286895752,
				0,
				0,
				0.7071068286895752
			],
			"scale":[
				0.009999999776482582,
				0.009999999776482582,
				0.009999999776482582
			]
		}
	],
	"materials":[
		{
			"doubleSided":true,
			"name":"Polygon_Generic_01A",
			"pbrMetallicRoughness":{
				"baseColorTexture":{
					"index":0
				},
				"metallicFactor":0,
				"roughnessFactor":0.5527864098548889
			}
		}
	],
	"meshes":[
		{
			"name":"Mesh.002",
			"primitives":[
				{
					"attributes":{
						"POSITION":0,
						"NORMAL":1,
						"TEXCOORD_0":2,
						"TEXCOORD_1":3
					},
					"indices":4,
					"material":0
				}
			]
		},
		{
			"name":"Mesh.001",
			"primitives":[
				{
					"attributes":{
						"POSITION":5,
						"NORMAL":6,
						"TEXCOORD_0":7,
						"TEXCOORD_1":8
					},
					"indices":9,
					"material":0
				}
			]
		},
		{
			"name":"Mesh",
			"primitives":[
				{
					"attributes":{
						"POSITION":10,
						"NORMAL":11,
						"TEXCOORD_0":12,
						"TEXCOORD_1":13
					},
					"indices":14,
					"material":0
				}
			]
		}
	],
	"textures":[
		{
			"sampler":0,
			"source":0
		}
	],
	"images":[
		{
			"mimeType":"image/png",
			"name":"Generic_01_A",
			"uri":"Generic_01_A.png"
		}
	],
	"accessors":[
		{
			"bufferView":0,
			"componentType":5126,
			"count":152,
			"max":[
				3.053595542907715,
				27.932931900024414,
				-26.953420639038086
			],
			"min":[
				-3.100219488143921,
				24.108152389526367,
				-50.26426315307617
			],
			"type":"VEC3"
		},
		{
			"bufferView":1,
			"componentType":5126,
			"count":152,
			"type":"VEC3"
		},
		{
			"bufferView":2,
			"componentType":5126,
			"count":152,
			"type":"VEC2"
		},
		{
			"bufferView":3,
			"componentType":5126,
			"count":152,
			"type":"VEC2"
		},
		{
			"bufferView":4,
			"componentType":5123,
			"count":294,
			"type":"SCALAR"
		},
		{
			"bufferView":5,
			"componentType":5126,
			"count":1887,
			"max":[
				47.399314880371094,
				27.22900390625,
				-43.848167419433594
			],
			"min":[
				-47.43184280395508,
				-29.809917449951172,
				-76.02961730957031
			],
			"type":"VEC3"
		},
		{
			"bufferView":6,
			"componentType":5126,
			"count":1887,
			"type":"VEC3"
		},
		{
			"bufferView":7,
			"componentType":5126,
			"count":1887,
			"type":"VEC2"
		},
		{
			"bufferView":8,
			"componentType":5126,
			"count":1887,
			"type":"VEC2"
		},
		{
			"bufferView":9,
			"componentType":5123,
			"count":2985,
			"type":"SCALAR"
		},
		{
			"bufferView":10,
			"componentType":5126,
			"count":2053,
			"max":[
				48.23244857788086,
				29.86150360107422,
				0
			],
			"min":[
				-48.745338439941406,
				-29.861515045166016,
				-47.68190383911133
			],
			"type":"VEC3"
		},
		{
			"bufferView":11,
			"componentType":5126,
			"count":2053,
			"type":"VEC3"
		},
		{
			"bufferView":12,
			"componentType":5126,
			"count":2053,
			"type":"VEC2"
		},
		{
			"bufferView":13,
			"componentType":5126,
			"count":2053,
			"type":"VEC2"
		},
		{
			"bufferView":14,
			"componentType":5123,
			"count":3276,
			"type":"SCALAR"
		}
	],
	"bufferViews":[
		{
			"buffer":0,
			"byteLength":1824,
			"byteOffset":0,
			"target":34962
		},
		{
			"buffer":0,
			"byteLength":1824,
			"byteOffset":1824,
			"target":34962
		},
		{
			"buffer":0,
			"byteLength":1216,
			"byteOffset":3648,
			"target":34962
		},
		{
			"buffer":0,
			"byteLength":1216,
			"byteOffset":4864,
			"target":34962
		},
		{
			"buffer":0,
			"byteLength":588,
			"byteOffset":6080,
			"target":34963
		},
		{
			"buffer":0,
			"byteLength":22644,
			"byteOffset":6668,
			"target":34962
		},
		{
			"buffer":0,
			"byteLength":22644,
			"byteOffset":29312,
			"target":34962
		},
		{
			"buffer":0,
			"byteLength":15096,
			"byteOffset":51956,
			"target":34962
		},
		{
			"buffer":0,
			"byteLength":15096,
			"byteOffset":67052,
			"target":34962
		},
		{
			"buffer":0,
			"byteLength":5970,
			"byteOffset":82148,
			"target":34963
		},
		{
			"buffer":0,
			"byteLength":24636,
			"byteOffset":88120,
			"target":34962
		},
		{
			"buffer":0,
			"byteLength":24636,
			"byteOffset":112756,
			"target":34962
		},
		{
			"buffer":0,
			"byteLength":16424,
			"byteOffset":137392,
			"target":34962
		},
		{
			"buffer":0,
			"byteLength":16424,
			"byteOffset":153816,
			"target":34962
		},
		{
			"buffer":0,
			"byteLength":6552,
			"byteOffset":170240,
			"target":34963
		}
	],
	"samplers":[
		{
			"magFilter":9729,
			"minFilter":9987
		}
	],
	"buffers":[
		{
			"byteLength":176792,
			"uri":"SM_Gen_Prop_Chest_01.bin"
		}
	]
}
