{
	"asset":{
		"generator":"Khronos glTF Blender I/O v4.2.70",
		"version":"2.0"
	},
	"scene":0,
	"scenes":[
		{
			"name":"Scene",
			"nodes":[
				0
			]
		}
	],
	"nodes":[
		{
			"mesh":0,
			"name":"SM_Gen_Prop_Barrel_Wood_03",
			"rotation":[
				0.7071068286895752,
				0,
				0,
				0.7071068286895752
			],
			"scale":[
				0.009999999776482582,
				0.009999999776482582,
				0.009999999776482582
			]
		}
	],
	"materials":[
		{
			"doubleSided":true,
			"name":"Polygon_Generic_01A",
			"pbrMetallicRoughness":{
				"baseColorTexture":{
					"index":0
				},
				"metallicFactor":0,
				"roughnessFactor":0.5527864098548889
			}
		}
	],
	"meshes":[
		{
			"name":"Mesh",
			"primitives":[
				{
					"attributes":{
						"POSITION":0,
						"NORMAL":1,
						"TEXCOORD_0":2
					},
					"indices":3,
					"material":0
				}
			]
		}
	],
	"textures":[
		{
			"sampler":0,
			"source":0
		}
	],
	"images":[
		{
			"mimeType":"image/png",
			"name":"Generic_01_A",
			"uri":"Generic_01_A.png"
		}
	],
	"accessors":[
		{
			"bufferView":0,
			"componentType":5126,
			"count":1701,
			"max":[
				36.66344451904297,
				37.44603729248047,
				-0.6111767292022705
			],
			"min":[
				-36.70684051513672,
				-37.47260284423828,
				-95.76276397705078
			],
			"type":"VEC3"
		},
		{
			"bufferView":1,
			"componentType":5126,
			"count":1701,
			"type":"VEC3"
		},
		{
			"bufferView":2,
			"componentType":5126,
			"count":1701,
			"type":"VEC2"
		},
		{
			"bufferView":3,
			"componentType":5123,
			"count":2526,
			"type":"SCALAR"
		}
	],
	"bufferViews":[
		{
			"buffer":0,
			"byteLength":20412,
			"byteOffset":0,
			"target":34962
		},
		{
			"buffer":0,
			"byteLength":20412,
			"byteOffset":20412,
			"target":34962
		},
		{
			"buffer":0,
			"byteLength":13608,
			"byteOffset":40824,
			"target":34962
		},
		{
			"buffer":0,
			"byteLength":5052,
			"byteOffset":54432,
			"target":34963
		}
	],
	"samplers":[
		{
			"magFilter":9729,
			"minFilter":9987
		}
	],
	"buffers":[
		{
			"byteLength":59484,
			"uri":"SM_Gen_Prop_Barrel_Wood_03.bin"
		}
	]
}
