{
	"asset":{
		"generator":"Khronos glTF Blender I/O v4.2.70",
		"version":"2.0"
	},
	"scene":0,
	"scenes":[
		{
			"name":"Scene",
			"nodes":[
				0
			]
		}
	],
	"nodes":[
		{
			"mesh":0,
			"name":"SM_Gen_Env_Dirt_Cliff_06",
			"rotation":[
				0.7071068286895752,
				0,
				0,
				0.7071068286895752
			],
			"scale":[
				0.009999999776482582,
				0.009999999776482582,
				0.009999999776482582
			]
		}
	],
	"materials":[
		{
			"doubleSided":true,
			"name":"PolygonNatureBiomesS2_Texture_01A6",
			"pbrMetallicRoughness":{
				"metallicFactor":0,
				"roughnessFactor":0.5527864098548889
			}
		}
	],
	"meshes":[
		{
			"name":"Mesh",
			"primitives":[
				{
					"attributes":{
						"POSITION":0,
						"NORMAL":1,
						"TEXCOORD_0":2
					},
					"indices":3,
					"material":0
				}
			]
		}
	],
	"accessors":[
		{
			"bufferView":0,
			"componentType":5126,
			"count":1908,
			"max":[
				607.6552124023438,
				852.5490112304688,
				107.46217346191406
			],
			"min":[
				-611.8538208007812,
				-985.6921997070312,
				-502.89776611328125
			],
			"type":"VEC3"
		},
		{
			"bufferView":1,
			"componentType":5126,
			"count":1908,
			"type":"VEC3"
		},
		{
			"bufferView":2,
			"componentType":5126,
			"count":1908,
			"type":"VEC2"
		},
		{
			"bufferView":3,
			"componentType":5123,
			"count":1908,
			"type":"SCALAR"
		}
	],
	"bufferViews":[
		{
			"buffer":0,
			"byteLength":22896,
			"byteOffset":0,
			"target":34962
		},
		{
			"buffer":0,
			"byteLength":22896,
			"byteOffset":22896,
			"target":34962
		},
		{
			"buffer":0,
			"byteLength":15264,
			"byteOffset":45792,
			"target":34962
		},
		{
			"buffer":0,
			"byteLength":3816,
			"byteOffset":61056,
			"target":34963
		}
	],
	"buffers":[
		{
			"byteLength":64872,
			"uri":"SM_Gen_Env_Dirt_Cliff_06.bin"
		}
	]
}
