{
	"asset":{
		"generator":"Khronos glTF Blender I/O v4.2.70",
		"version":"2.0"
	},
	"scene":0,
	"scenes":[
		{
			"name":"Scene",
			"nodes":[
				0
			]
		}
	],
	"nodes":[
		{
			"mesh":0,
			"name":"SM_Gen_Env_Tree_03",
			"rotation":[
				0.7071068286895752,
				0,
				0,
				0.7071068286895752
			],
			"scale":[
				0.009999999776482582,
				0.009999999776482582,
				0.009999999776482582
			]
		}
	],
	"materials":[
		{
			"doubleSided":true,
			"name":"Polygon_Generic_01A",
			"pbrMetallicRoughness":{
				"baseColorTexture":{
					"index":0
				},
				"metallicFactor":0,
				"roughnessFactor":0.5527864098548889
			}
		}
	],
	"meshes":[
		{
			"name":"Mesh",
			"primitives":[
				{
					"attributes":{
						"POSITION":0,
						"NORMAL":1,
						"TEXCOORD_0":2
					},
					"indices":3,
					"material":0
				}
			]
		}
	],
	"textures":[
		{
			"sampler":0,
			"source":0
		}
	],
	"images":[
		{
			"mimeType":"image/png",
			"name":"Generic_01_A",
			"uri":"Generic_01_A.png"
		}
	],
	"accessors":[
		{
			"bufferView":0,
			"componentType":5126,
			"count":1425,
			"max":[
				137.61752319335938,
				128.44656372070312,
				11.71346664428711
			],
			"min":[
				-136.6273193359375,
				-130.48699951171875,
				-603.6764526367188
			],
			"type":"VEC3"
		},
		{
			"bufferView":1,
			"componentType":5126,
			"count":1425,
			"type":"VEC3"
		},
		{
			"bufferView":2,
			"componentType":5126,
			"count":1425,
			"type":"VEC2"
		},
		{
			"bufferView":3,
			"componentType":5123,
			"count":1590,
			"type":"SCALAR"
		}
	],
	"bufferViews":[
		{
			"buffer":0,
			"byteLength":17100,
			"byteOffset":0,
			"target":34962
		},
		{
			"buffer":0,
			"byteLength":17100,
			"byteOffset":17100,
			"target":34962
		},
		{
			"buffer":0,
			"byteLength":11400,
			"byteOffset":34200,
			"target":34962
		},
		{
			"buffer":0,
			"byteLength":3180,
			"byteOffset":45600,
			"target":34963
		}
	],
	"samplers":[
		{
			"magFilter":9729,
			"minFilter":9987
		}
	],
	"buffers":[
		{
			"byteLength":48780,
			"uri":"SM_Gen_Env_Tree_03.bin"
		}
	]
}
