{
	"asset":{
		"generator":"Khronos glTF Blender I/O v4.2.70",
		"version":"2.0"
	},
	"scene":0,
	"scenes":[
		{
			"name":"Scene",
			"nodes":[
				0
			]
		}
	],
	"nodes":[
		{
			"mesh":0,
			"name":"SM_Gen_Env_Dirt_Cliff_02",
			"rotation":[
				0.7071068286895752,
				0,
				0,
				0.7071068286895752
			],
			"scale":[
				0.009999999776482582,
				0.009999999776482582,
				0.009999999776482582
			]
		}
	],
	"materials":[
		{
			"doubleSided":true,
			"name":"PolygonNatureBiomesS2_Texture_01A1",
			"pbrMetallicRoughness":{
				"metallicFactor":0,
				"roughnessFactor":0.5527864098548889
			}
		}
	],
	"meshes":[
		{
			"name":"Mesh",
			"primitives":[
				{
					"attributes":{
						"POSITION":0,
						"NORMAL":1,
						"TEXCOORD_0":2
					},
					"indices":3,
					"material":0
				}
			]
		}
	],
	"accessors":[
		{
			"bufferView":0,
			"componentType":5126,
			"count":2476,
			"max":[
				667.6087646484375,
				433.6621398925781,
				130.24856567382812
			],
			"min":[
				-669.795166015625,
				-501.4503479003906,
				-891.5029907226562
			],
			"type":"VEC3"
		},
		{
			"bufferView":1,
			"componentType":5126,
			"count":2476,
			"type":"VEC3"
		},
		{
			"bufferView":2,
			"componentType":5126,
			"count":2476,
			"type":"VEC2"
		},
		{
			"bufferView":3,
			"componentType":5123,
			"count":2478,
			"type":"SCALAR"
		}
	],
	"bufferViews":[
		{
			"buffer":0,
			"byteLength":29712,
			"byteOffset":0,
			"target":34962
		},
		{
			"buffer":0,
			"byteLength":29712,
			"byteOffset":29712,
			"target":34962
		},
		{
			"buffer":0,
			"byteLength":19808,
			"byteOffset":59424,
			"target":34962
		},
		{
			"buffer":0,
			"byteLength":4956,
			"byteOffset":79232,
			"target":34963
		}
	],
	"buffers":[
		{
			"byteLength":84188,
			"uri":"SM_Gen_Env_Dirt_Cliff_02.bin"
		}
	]
}
