{
	"asset":{
		"generator":"Khronos glTF Blender I/O v4.2.70",
		"version":"2.0"
	},
	"scene":0,
	"scenes":[
		{
			"name":"Scene",
			"nodes":[
				0
			]
		}
	],
	"nodes":[
		{
			"mesh":0,
			"name":"SM_Gen_Bld_Background_04",
			"rotation":[
				0.7071068286895752,
				0,
				0,
				0.7071068286895752
			],
			"scale":[
				0.009999999776482582,
				0.009999999776482582,
				0.009999999776482582
			]
		}
	],
	"materials":[
		{
			"doubleSided":true,
			"name":"Polygon8",
			"pbrMetallicRoughness":{
				"metallicFactor":0,
				"roughnessFactor":0.5527864098548889
			}
		},
		{
			"doubleSided":true,
			"name":"A_Glass19",
			"pbrMetallicRoughness":{
				"metallicFactor":0,
				"roughnessFactor":0.5527864098548889
			}
		}
	],
	"meshes":[
		{
			"name":"Mesh",
			"primitives":[
				{
					"attributes":{
						"POSITION":0,
						"NORMAL":1,
						"TEXCOORD_0":2
					},
					"indices":3,
					"material":0
				},
				{
					"attributes":{
						"POSITION":4,
						"NORMAL":5,
						"TEXCOORD_0":6
					},
					"indices":7,
					"material":1
				}
			]
		}
	],
	"accessors":[
		{
			"bufferView":0,
			"componentType":5126,
			"count":374,
			"max":[
				420.232421875,
				260.2298889160156,
				0
			],
			"min":[
				-420.23291015625,
				-260.2298889160156,
				-1338.6400146484375
			],
			"type":"VEC3"
		},
		{
			"bufferView":1,
			"componentType":5126,
			"count":374,
			"type":"VEC3"
		},
		{
			"bufferView":2,
			"componentType":5126,
			"count":374,
			"type":"VEC2"
		},
		{
			"bufferView":3,
			"componentType":5123,
			"count":600,
			"type":"SCALAR"
		},
		{
			"bufferView":4,
			"componentType":5126,
			"count":4,
			"max":[
				374.99951171875,
				209.77780151367188,
				-23.56740951538086
			],
			"min":[
				-375.00048828125,
				209.77780151367188,
				-1274.0328369140625
			],
			"type":"VEC3"
		},
		{
			"bufferView":5,
			"componentType":5126,
			"count":4,
			"type":"VEC3"
		},
		{
			"bufferView":6,
			"componentType":5126,
			"count":4,
			"type":"VEC2"
		},
		{
			"bufferView":7,
			"componentType":5123,
			"count":6,
			"type":"SCALAR"
		}
	],
	"bufferViews":[
		{
			"buffer":0,
			"byteLength":4488,
			"byteOffset":0,
			"target":34962
		},
		{
			"buffer":0,
			"byteLength":4488,
			"byteOffset":4488,
			"target":34962
		},
		{
			"buffer":0,
			"byteLength":2992,
			"byteOffset":8976,
			"target":34962
		},
		{
			"buffer":0,
			"byteLength":1200,
			"byteOffset":11968,
			"target":34963
		},
		{
			"buffer":0,
			"byteLength":48,
			"byteOffset":13168,
			"target":34962
		},
		{
			"buffer":0,
			"byteLength":48,
			"byteOffset":13216,
			"target":34962
		},
		{
			"buffer":0,
			"byteLength":32,
			"byteOffset":13264,
			"target":34962
		},
		{
			"buffer":0,
			"byteLength":12,
			"byteOffset":13296,
			"target":34963
		}
	],
	"buffers":[
		{
			"byteLength":13308,
			"uri":"SM_Gen_Bld_Background_04.bin"
		}
	]
}
