{
	"asset":{
		"generator":"Khronos glTF Blender I/O v4.2.70",
		"version":"2.0"
	},
	"scene":0,
	"scenes":[
		{
			"name":"Scene",
			"nodes":[
				0
			]
		}
	],
	"nodes":[
		{
			"mesh":0,
			"name":"SM_Gen_Env_Road_Intersection_02",
			"rotation":[
				0.7071068286895752,
				0,
				0,
				0.7071068286895752
			],
			"scale":[
				0.009999999776482582,
				0.009999999776482582,
				0.009999999776482582
			]
		}
	],
	"materials":[
		{
			"doubleSided":true,
			"name":"PolygonGeneric_Road_01",
			"pbrMetallicRoughness":{
				"metallicFactor":0,
				"roughnessFactor":0.5527864098548889
			}
		}
	],
	"meshes":[
		{
			"name":"Mesh",
			"primitives":[
				{
					"attributes":{
						"POSITION":0,
						"NORMAL":1,
						"TEXCOORD_0":2
					},
					"indices":3,
					"material":0
				}
			]
		}
	],
	"accessors":[
		{
			"bufferView":0,
			"componentType":5126,
			"count":23,
			"max":[
				499.99853515625,
				500,
				0
			],
			"min":[
				0,
				-2.2204395440372782e-13,
				0
			],
			"type":"VEC3"
		},
		{
			"bufferView":1,
			"componentType":5126,
			"count":23,
			"type":"VEC3"
		},
		{
			"bufferView":2,
			"componentType":5126,
			"count":23,
			"type":"VEC2"
		},
		{
			"bufferView":3,
			"componentType":5123,
			"count":54,
			"type":"SCALAR"
		}
	],
	"bufferViews":[
		{
			"buffer":0,
			"byteLength":276,
			"byteOffset":0,
			"target":34962
		},
		{
			"buffer":0,
			"byteLength":276,
			"byteOffset":276,
			"target":34962
		},
		{
			"buffer":0,
			"byteLength":184,
			"byteOffset":552,
			"target":34962
		},
		{
			"buffer":0,
			"byteLength":108,
			"byteOffset":736,
			"target":34963
		}
	],
	"buffers":[
		{
			"byteLength":844,
			"uri":"SM_Gen_Env_Road_Intersection_02.bin"
		}
	]
}
