{
	"asset":{
		"generator":"Khronos glTF Blender I/O v4.2.70",
		"version":"2.0"
	},
	"scene":0,
	"scenes":[
		{
			"name":"Scene",
			"nodes":[
				0
			]
		}
	],
	"nodes":[
		{
			"mesh":0,
			"name":"SM_Gen_Prop_Barrel_Wood_02",
			"rotation":[
				0.7071068286895752,
				0,
				0,
				0.7071068286895752
			],
			"scale":[
				0.009999999776482582,
				0.009999999776482582,
				0.009999999776482582
			]
		}
	],
	"materials":[
		{
			"doubleSided":true,
			"name":"Polygon_Generic_01A",
			"pbrMetallicRoughness":{
				"baseColorTexture":{
					"index":0
				},
				"metallicFactor":0,
				"roughnessFactor":0.5527864098548889
			}
		}
	],
	"meshes":[
		{
			"name":"Mesh",
			"primitives":[
				{
					"attributes":{
						"POSITION":0,
						"NORMAL":1,
						"TEXCOORD_0":2,
						"TEXCOORD_1":3
					},
					"indices":4,
					"material":0
				}
			]
		}
	],
	"textures":[
		{
			"sampler":0,
			"source":0
		}
	],
	"images":[
		{
			"mimeType":"image/png",
			"name":"Generic_01_A",
			"uri":"Generic_01_A.png"
		}
	],
	"accessors":[
		{
			"bufferView":0,
			"componentType":5126,
			"count":3688,
			"max":[
				38.67555618286133,
				40.04328918457031,
				0
			],
			"min":[
				-38.67559814453125,
				-40.04328536987305,
				-97.14534759521484
			],
			"type":"VEC3"
		},
		{
			"bufferView":1,
			"componentType":5126,
			"count":3688,
			"type":"VEC3"
		},
		{
			"bufferView":2,
			"componentType":5126,
			"count":3688,
			"type":"VEC2"
		},
		{
			"bufferView":3,
			"componentType":5126,
			"count":3688,
			"type":"VEC2"
		},
		{
			"bufferView":4,
			"componentType":5123,
			"count":5379,
			"type":"SCALAR"
		}
	],
	"bufferViews":[
		{
			"buffer":0,
			"byteLength":44256,
			"byteOffset":0,
			"target":34962
		},
		{
			"buffer":0,
			"byteLength":44256,
			"byteOffset":44256,
			"target":34962
		},
		{
			"buffer":0,
			"byteLength":29504,
			"byteOffset":88512,
			"target":34962
		},
		{
			"buffer":0,
			"byteLength":29504,
			"byteOffset":118016,
			"target":34962
		},
		{
			"buffer":0,
			"byteLength":10758,
			"byteOffset":147520,
			"target":34963
		}
	],
	"samplers":[
		{
			"magFilter":9729,
			"minFilter":9987
		}
	],
	"buffers":[
		{
			"byteLength":158280,
			"uri":"SM_Gen_Prop_Barrel_Wood_02.bin"
		}
	]
}
