{
	"asset":{
		"generator":"Khronos glTF Blender I/O v4.2.70",
		"version":"2.0"
	},
	"scene":0,
	"scenes":[
		{
			"name":"Scene",
			"nodes":[
				0
			]
		}
	],
	"nodes":[
		{
			"mesh":0,
			"name":"SM_Gen_Env_Stalactite_04",
			"rotation":[
				0.7071068286895752,
				0,
				0,
				0.7071068286895752
			],
			"scale":[
				0.009999999776482582,
				0.009999999776482582,
				0.009999999776482582
			]
		}
	],
	"materials":[
		{
			"doubleSided":true,
			"name":"Polygon_Generic_01A",
			"pbrMetallicRoughness":{
				"metallicFactor":0,
				"roughnessFactor":0.5527864098548889
			}
		}
	],
	"meshes":[
		{
			"name":"Mesh",
			"primitives":[
				{
					"attributes":{
						"POSITION":0,
						"NORMAL":1,
						"TEXCOORD_0":2
					},
					"indices":3,
					"material":0
				}
			]
		}
	],
	"accessors":[
		{
			"bufferView":0,
			"componentType":5126,
			"count":1389,
			"max":[
				154.97714233398438,
				63.30617141723633,
				260.7442626953125
			],
			"min":[
				-154.97714233398438,
				-63.30617141723633,
				-22.297269821166992
			],
			"type":"VEC3"
		},
		{
			"bufferView":1,
			"componentType":5126,
			"count":1389,
			"type":"VEC3"
		},
		{
			"bufferView":2,
			"componentType":5126,
			"count":1389,
			"type":"VEC2"
		},
		{
			"bufferView":3,
			"componentType":5123,
			"count":1914,
			"type":"SCALAR"
		}
	],
	"bufferViews":[
		{
			"buffer":0,
			"byteLength":16668,
			"byteOffset":0,
			"target":34962
		},
		{
			"buffer":0,
			"byteLength":16668,
			"byteOffset":16668,
			"target":34962
		},
		{
			"buffer":0,
			"byteLength":11112,
			"byteOffset":33336,
			"target":34962
		},
		{
			"buffer":0,
			"byteLength":3828,
			"byteOffset":44448,
			"target":34963
		}
	],
	"buffers":[
		{
			"byteLength":48276,
			"uri":"SM_Gen_Env_Stalactite_04.bin"
		}
	]
}
