{
	"asset":{
		"generator":"Khronos glTF Blender I/O v4.2.70",
		"version":"2.0"
	},
	"scene":0,
	"scenes":[
		{
			"name":"Scene",
			"nodes":[
				0
			]
		}
	],
	"nodes":[
		{
			"mesh":0,
			"name":"SM_Gen_Env_Flowers_01",
			"rotation":[
				0.7071068286895752,
				0,
				0,
				0.7071068286895752
			],
			"scale":[
				0.009999999776482582,
				0.009999999776482582,
				0.009999999776482582
			]
		}
	],
	"materials":[
		{
			"doubleSided":true,
			"name":"Polygon_Generic_01A",
			"pbrMetallicRoughness":{
				"baseColorTexture":{
					"index":0
				},
				"metallicFactor":0,
				"roughnessFactor":0.5527864098548889
			}
		}
	],
	"meshes":[
		{
			"name":"Mesh",
			"primitives":[
				{
					"attributes":{
						"POSITION":0,
						"NORMAL":1,
						"TEXCOORD_0":2
					},
					"indices":3,
					"material":0
				}
			]
		}
	],
	"textures":[
		{
			"sampler":0,
			"source":0
		}
	],
	"images":[
		{
			"mimeType":"image/png",
			"name":"Generic_01_A",
			"uri":"Generic_01_A.png"
		}
	],
	"accessors":[
		{
			"bufferView":0,
			"componentType":5126,
			"count":901,
			"max":[
				53.327484130859375,
				76.05804443359375,
				7.07118034362793
			],
			"min":[
				-50.74913024902344,
				-71.65802001953125,
				-47.56967544555664
			],
			"type":"VEC3"
		},
		{
			"bufferView":1,
			"componentType":5126,
			"count":901,
			"type":"VEC3"
		},
		{
			"bufferView":2,
			"componentType":5126,
			"count":901,
			"type":"VEC2"
		},
		{
			"bufferView":3,
			"componentType":5123,
			"count":1347,
			"type":"SCALAR"
		}
	],
	"bufferViews":[
		{
			"buffer":0,
			"byteLength":10812,
			"byteOffset":0,
			"target":34962
		},
		{
			"buffer":0,
			"byteLength":10812,
			"byteOffset":10812,
			"target":34962
		},
		{
			"buffer":0,
			"byteLength":7208,
			"byteOffset":21624,
			"target":34962
		},
		{
			"buffer":0,
			"byteLength":2694,
			"byteOffset":28832,
			"target":34963
		}
	],
	"samplers":[
		{
			"magFilter":9729,
			"minFilter":9987
		}
	],
	"buffers":[
		{
			"byteLength":31528,
			"uri":"SM_Gen_Env_Flowers_01.bin"
		}
	]
}
