{
	"asset":{
		"generator":"Khronos glTF Blender I/O v4.2.70",
		"version":"2.0"
	},
	"scene":0,
	"scenes":[
		{
			"name":"Scene",
			"nodes":[
				0
			]
		}
	],
	"nodes":[
		{
			"mesh":0,
			"name":"SM_Gen_Prop_Statue_03",
			"rotation":[
				0.7071068286895752,
				0,
				0,
				0.7071068286895752
			],
			"scale":[
				0.009999999776482582,
				0.009999999776482582,
				0.009999999776482582
			]
		}
	],
	"materials":[
		{
			"doubleSided":true,
			"name":"Viking_01A",
			"pbrMetallicRoughness":{
				"baseColorTexture":{
					"index":0
				},
				"metallicFactor":0,
				"roughnessFactor":0.5527864098548889
			}
		}
	],
	"meshes":[
		{
			"name":"Mesh",
			"primitives":[
				{
					"attributes":{
						"POSITION":0,
						"NORMAL":1,
						"TEXCOORD_0":2,
						"COLOR_0":3,
						"COLOR_1":4
					},
					"indices":5,
					"material":0
				}
			]
		}
	],
	"textures":[
		{
			"sampler":0,
			"source":0
		}
	],
	"images":[
		{
			"mimeType":"image/png",
			"name":"Generic_01_A",
			"uri":"Generic_01_A.png"
		}
	],
	"accessors":[
		{
			"bufferView":0,
			"componentType":5126,
			"count":2762,
			"max":[
				35.08001708984375,
				53.07959747314453,
				3.8503270149230957
			],
			"min":[
				-37.12346649169922,
				-46.07462692260742,
				-173.75660705566406
			],
			"type":"VEC3"
		},
		{
			"bufferView":1,
			"componentType":5126,
			"count":2762,
			"type":"VEC3"
		},
		{
			"bufferView":2,
			"componentType":5126,
			"count":2762,
			"type":"VEC2"
		},
		{
			"bufferView":3,
			"componentType":5121,
			"count":2762,
			"normalized":true,
			"type":"VEC4"
		},
		{
			"bufferView":4,
			"componentType":5126,
			"count":2762,
			"type":"VEC3"
		},
		{
			"bufferView":5,
			"componentType":5123,
			"count":2982,
			"type":"SCALAR"
		}
	],
	"bufferViews":[
		{
			"buffer":0,
			"byteLength":33144,
			"byteOffset":0,
			"target":34962
		},
		{
			"buffer":0,
			"byteLength":33144,
			"byteOffset":33144,
			"target":34962
		},
		{
			"buffer":0,
			"byteLength":22096,
			"byteOffset":66288,
			"target":34962
		},
		{
			"buffer":0,
			"byteLength":11048,
			"byteOffset":88384,
			"target":34962
		},
		{
			"buffer":0,
			"byteLength":33144,
			"byteOffset":99432,
			"target":34962
		},
		{
			"buffer":0,
			"byteLength":5964,
			"byteOffset":132576,
			"target":34963
		}
	],
	"samplers":[
		{
			"magFilter":9729,
			"minFilter":9987
		}
	],
	"buffers":[
		{
			"byteLength":138540,
			"uri":"SM_Gen_Prop_Statue_03.bin"
		}
	]
}
