{
	"asset":{
		"generator":"Khronos glTF Blender I/O v4.2.70",
		"version":"2.0"
	},
	"scene":0,
	"scenes":[
		{
			"name":"Scene",
			"nodes":[
				2
			]
		}
	],
	"nodes":[
		{
			"mesh":0,
			"name":"SM_Gen_Prop_Clock_01_Hand_01"
		},
		{
			"mesh":1,
			"name":"SM_Gen_Prop_Clock_01_Hand_02"
		},
		{
			"children":[
				0,
				1
			],
			"mesh":2,
			"name":"SM_Gen_Prop_Clock_01",
			"rotation":[
				0.7071068286895752,
				0,
				0,
				0.7071068286895752
			],
			"scale":[
				0.009999999776482582,
				0.009999999776482582,
				0.009999999776482582
			]
		}
	],
	"materials":[
		{
			"doubleSided":true,
			"name":"Polygon_Generic_01A",
			"pbrMetallicRoughness":{
				"baseColorTexture":{
					"index":0
				},
				"metallicFactor":0,
				"roughnessFactor":0.5527864098548889
			}
		}
	],
	"meshes":[
		{
			"name":"Mesh.001",
			"primitives":[
				{
					"attributes":{
						"POSITION":0,
						"NORMAL":1,
						"TEXCOORD_0":2
					},
					"indices":3,
					"material":0
				}
			]
		},
		{
			"name":"Mesh.002",
			"primitives":[
				{
					"attributes":{
						"POSITION":4,
						"NORMAL":5,
						"TEXCOORD_0":6
					},
					"indices":7,
					"material":0
				}
			]
		},
		{
			"name":"Mesh",
			"primitives":[
				{
					"attributes":{
						"POSITION":8,
						"NORMAL":9,
						"TEXCOORD_0":10
					},
					"indices":11,
					"material":0
				}
			]
		}
	],
	"textures":[
		{
			"sampler":0,
			"source":0
		}
	],
	"images":[
		{
			"mimeType":"image/png",
			"name":"Generic_01_A",
			"uri":"Generic_01_A.png"
		}
	],
	"accessors":[
		{
			"bufferView":0,
			"componentType":5126,
			"count":28,
			"max":[
				10.98737621307373,
				4.895280838012695,
				6.727593421936035
			],
			"min":[
				-0.8169468641281128,
				3.64481258392334,
				-1.0336673259735107
			],
			"type":"VEC3"
		},
		{
			"bufferView":1,
			"componentType":5126,
			"count":28,
			"type":"VEC3"
		},
		{
			"bufferView":2,
			"componentType":5126,
			"count":28,
			"type":"VEC2"
		},
		{
			"bufferView":3,
			"componentType":5123,
			"count":42,
			"type":"SCALAR"
		},
		{
			"bufferView":4,
			"componentType":5126,
			"count":24,
			"max":[
				0.9819297194480896,
				4.862740993499756,
				0.4191145896911621
			],
			"min":[
				-1.0289711952209473,
				3.64481258392334,
				-7.602273941040039
			],
			"type":"VEC3"
		},
		{
			"bufferView":5,
			"componentType":5126,
			"count":24,
			"type":"VEC3"
		},
		{
			"bufferView":6,
			"componentType":5126,
			"count":24,
			"type":"VEC2"
		},
		{
			"bufferView":7,
			"componentType":5123,
			"count":36,
			"type":"SCALAR"
		},
		{
			"bufferView":8,
			"componentType":5126,
			"count":152,
			"max":[
				19.564746856689453,
				5.417227745056152,
				18.607192993164062
			],
			"min":[
				-19.564748764038086,
				0,
				-18.607194900512695
			],
			"type":"VEC3"
		},
		{
			"bufferView":9,
			"componentType":5126,
			"count":152,
			"type":"VEC3"
		},
		{
			"bufferView":10,
			"componentType":5126,
			"count":152,
			"type":"VEC2"
		},
		{
			"bufferView":11,
			"componentType":5123,
			"count":258,
			"type":"SCALAR"
		}
	],
	"bufferViews":[
		{
			"buffer":0,
			"byteLength":336,
			"byteOffset":0,
			"target":34962
		},
		{
			"buffer":0,
			"byteLength":336,
			"byteOffset":336,
			"target":34962
		},
		{
			"buffer":0,
			"byteLength":224,
			"byteOffset":672,
			"target":34962
		},
		{
			"buffer":0,
			"byteLength":84,
			"byteOffset":896,
			"target":34963
		},
		{
			"buffer":0,
			"byteLength":288,
			"byteOffset":980,
			"target":34962
		},
		{
			"buffer":0,
			"byteLength":288,
			"byteOffset":1268,
			"target":34962
		},
		{
			"buffer":0,
			"byteLength":192,
			"byteOffset":1556,
			"target":34962
		},
		{
			"buffer":0,
			"byteLength":72,
			"byteOffset":1748,
			"target":34963
		},
		{
			"buffer":0,
			"byteLength":1824,
			"byteOffset":1820,
			"target":34962
		},
		{
			"buffer":0,
			"byteLength":1824,
			"byteOffset":3644,
			"target":34962
		},
		{
			"buffer":0,
			"byteLength":1216,
			"byteOffset":5468,
			"target":34962
		},
		{
			"buffer":0,
			"byteLength":516,
			"byteOffset":6684,
			"target":34963
		}
	],
	"samplers":[
		{
			"magFilter":9729,
			"minFilter":9987
		}
	],
	"buffers":[
		{
			"byteLength":7200,
			"uri":"SM_Gen_Prop_Clock_01.bin"
		}
	]
}
