{
	"asset":{
		"generator":"Khronos glTF Blender I/O v4.2.70",
		"version":"2.0"
	},
	"scene":0,
	"scenes":[
		{
			"name":"Scene",
			"nodes":[
				0
			]
		}
	],
	"nodes":[
		{
			"mesh":0,
			"name":"SM_Gen_Env_Fern_01",
			"rotation":[
				0.7071068286895752,
				0,
				0,
				0.7071068286895752
			],
			"scale":[
				0.009999999776482582,
				0.009999999776482582,
				0.009999999776482582
			]
		}
	],
	"materials":[
		{
			"doubleSided":true,
			"name":"Polygon_Generic_01A",
			"pbrMetallicRoughness":{
				"baseColorTexture":{
					"index":0
				},
				"metallicFactor":0,
				"roughnessFactor":0.5527864098548889
			}
		}
	],
	"meshes":[
		{
			"name":"Mesh",
			"primitives":[
				{
					"attributes":{
						"POSITION":0,
						"NORMAL":1,
						"TEXCOORD_0":2,
						"COLOR_0":3,
						"COLOR_1":4
					},
					"indices":5,
					"material":0
				}
			]
		}
	],
	"textures":[
		{
			"sampler":0,
			"source":0
		}
	],
	"images":[
		{
			"mimeType":"image/png",
			"name":"Generic_01_A",
			"uri":"Generic_01_A.png"
		}
	],
	"accessors":[
		{
			"bufferView":0,
			"componentType":5126,
			"count":988,
			"max":[
				56.58652114868164,
				53.51200866699219,
				1.7221767902374268
			],
			"min":[
				-62.04359817504883,
				-54.96372985839844,
				-70.43080139160156
			],
			"type":"VEC3"
		},
		{
			"bufferView":1,
			"componentType":5126,
			"count":988,
			"type":"VEC3"
		},
		{
			"bufferView":2,
			"componentType":5126,
			"count":988,
			"type":"VEC2"
		},
		{
			"bufferView":3,
			"componentType":5121,
			"count":988,
			"normalized":true,
			"type":"VEC4"
		},
		{
			"bufferView":4,
			"componentType":5126,
			"count":988,
			"type":"VEC3"
		},
		{
			"bufferView":5,
			"componentType":5123,
			"count":1344,
			"type":"SCALAR"
		}
	],
	"bufferViews":[
		{
			"buffer":0,
			"byteLength":11856,
			"byteOffset":0,
			"target":34962
		},
		{
			"buffer":0,
			"byteLength":11856,
			"byteOffset":11856,
			"target":34962
		},
		{
			"buffer":0,
			"byteLength":7904,
			"byteOffset":23712,
			"target":34962
		},
		{
			"buffer":0,
			"byteLength":3952,
			"byteOffset":31616,
			"target":34962
		},
		{
			"buffer":0,
			"byteLength":11856,
			"byteOffset":35568,
			"target":34962
		},
		{
			"buffer":0,
			"byteLength":2688,
			"byteOffset":47424,
			"target":34963
		}
	],
	"samplers":[
		{
			"magFilter":9729,
			"minFilter":9987
		}
	],
	"buffers":[
		{
			"byteLength":50112,
			"uri":"SM_Gen_Env_Fern_01.bin"
		}
	]
}
