{
	"asset":{
		"generator":"Khronos glTF Blender I/O v4.2.70",
		"version":"2.0"
	},
	"scene":0,
	"scenes":[
		{
			"name":"Scene",
			"nodes":[
				0
			]
		}
	],
	"nodes":[
		{
			"mesh":0,
			"name":"SM_Gen_Env_Ground_Edge_02",
			"rotation":[
				0.7071068286895752,
				0,
				0,
				0.7071068286895752
			],
			"scale":[
				0.009999999776482582,
				0.009999999776482582,
				0.009999999776482582
			]
		}
	],
	"materials":[
		{
			"doubleSided":true,
			"name":"Polygon_Generic_01A",
			"pbrMetallicRoughness":{
				"metallicFactor":0,
				"roughnessFactor":0.5527864098548889
			}
		}
	],
	"meshes":[
		{
			"name":"Mesh",
			"primitives":[
				{
					"attributes":{
						"POSITION":0,
						"NORMAL":1,
						"TEXCOORD_0":2,
						"TEXCOORD_1":3
					},
					"indices":4,
					"material":0
				}
			]
		}
	],
	"accessors":[
		{
			"bufferView":0,
			"componentType":5126,
			"count":124,
			"max":[
				152.04776000976562,
				48.891448974609375,
				5.98674201965332
			],
			"min":[
				-122.22193908691406,
				-4.944668769836426,
				-23.186077117919922
			],
			"type":"VEC3"
		},
		{
			"bufferView":1,
			"componentType":5126,
			"count":124,
			"type":"VEC3"
		},
		{
			"bufferView":2,
			"componentType":5126,
			"count":124,
			"type":"VEC2"
		},
		{
			"bufferView":3,
			"componentType":5126,
			"count":124,
			"type":"VEC2"
		},
		{
			"bufferView":4,
			"componentType":5123,
			"count":144,
			"type":"SCALAR"
		}
	],
	"bufferViews":[
		{
			"buffer":0,
			"byteLength":1488,
			"byteOffset":0,
			"target":34962
		},
		{
			"buffer":0,
			"byteLength":1488,
			"byteOffset":1488,
			"target":34962
		},
		{
			"buffer":0,
			"byteLength":992,
			"byteOffset":2976,
			"target":34962
		},
		{
			"buffer":0,
			"byteLength":992,
			"byteOffset":3968,
			"target":34962
		},
		{
			"buffer":0,
			"byteLength":288,
			"byteOffset":4960,
			"target":34963
		}
	],
	"buffers":[
		{
			"byteLength":5248,
			"uri":"SM_Gen_Env_Ground_Edge_02.bin"
		}
	]
}
