{
	"asset":{
		"generator":"Khronos glTF Blender I/O v4.2.70",
		"version":"2.0"
	},
	"scene":0,
	"scenes":[
		{
			"name":"Scene",
			"nodes":[
				0
			]
		}
	],
	"nodes":[
		{
			"mesh":0,
			"name":"SM_Gen_Env_Cloud_02",
			"rotation":[
				0.7071068286895752,
				0,
				0,
				0.7071068286895752
			],
			"scale":[
				0.009999999776482582,
				0.009999999776482582,
				0.009999999776482582
			]
		}
	],
	"materials":[
		{
			"doubleSided":true,
			"name":"Polygon_Generic_01A",
			"pbrMetallicRoughness":{
				"metallicFactor":0,
				"roughnessFactor":0.5527864098548889
			}
		}
	],
	"meshes":[
		{
			"name":"Mesh",
			"primitives":[
				{
					"attributes":{
						"POSITION":0,
						"NORMAL":1,
						"TEXCOORD_0":2
					},
					"indices":3,
					"material":0
				}
			]
		}
	],
	"accessors":[
		{
			"bufferView":0,
			"componentType":5126,
			"count":752,
			"max":[
				2290.37451171875,
				807.4483032226562,
				-8.15497409184518e-13
			],
			"min":[
				-2290.37548828125,
				-807.4483032226562,
				-994.8026733398438
			],
			"type":"VEC3"
		},
		{
			"bufferView":1,
			"componentType":5126,
			"count":752,
			"type":"VEC3"
		},
		{
			"bufferView":2,
			"componentType":5126,
			"count":752,
			"type":"VEC2"
		},
		{
			"bufferView":3,
			"componentType":5123,
			"count":756,
			"type":"SCALAR"
		}
	],
	"bufferViews":[
		{
			"buffer":0,
			"byteLength":9024,
			"byteOffset":0,
			"target":34962
		},
		{
			"buffer":0,
			"byteLength":9024,
			"byteOffset":9024,
			"target":34962
		},
		{
			"buffer":0,
			"byteLength":6016,
			"byteOffset":18048,
			"target":34962
		},
		{
			"buffer":0,
			"byteLength":1512,
			"byteOffset":24064,
			"target":34963
		}
	],
	"buffers":[
		{
			"byteLength":25576,
			"uri":"SM_Gen_Env_Cloud_02.bin"
		}
	]
}
