{
	"asset":{
		"generator":"Khronos glTF Blender I/O v4.2.70",
		"version":"2.0"
	},
	"scene":0,
	"scenes":[
		{
			"name":"Scene",
			"nodes":[
				0
			]
		}
	],
	"nodes":[
		{
			"mesh":0,
			"name":"SM_Gen_Env_Ground_River_Grass_Large_02",
			"rotation":[
				0.7071068286895752,
				0,
				0,
				0.7071068286895752
			],
			"scale":[
				0.009999999776482582,
				0.009999999776482582,
				0.009999999776482582
			]
		}
	],
	"materials":[
		{
			"doubleSided":true,
			"name":"Polygon_Generic_01A33",
			"pbrMetallicRoughness":{
				"baseColorTexture":{
					"index":0
				},
				"metallicFactor":0,
				"roughnessFactor":0.5527864098548889
			}
		}
	],
	"meshes":[
		{
			"name":"Mesh",
			"primitives":[
				{
					"attributes":{
						"POSITION":0,
						"NORMAL":1,
						"TEXCOORD_0":2
					},
					"indices":3,
					"material":0
				}
			]
		}
	],
	"textures":[
		{
			"sampler":0,
			"source":0
		}
	],
	"images":[
		{
			"mimeType":"image/png",
			"name":"Generic_01_A",
			"uri":"Generic_01_A.png"
		}
	],
	"accessors":[
		{
			"bufferView":0,
			"componentType":5126,
			"count":2343,
			"max":[
				1632.989990234375,
				1926.8822021484375,
				473.34857177734375
			],
			"min":[
				-1204.3778076171875,
				-1363.9600830078125,
				-102.25414276123047
			],
			"type":"VEC3"
		},
		{
			"bufferView":1,
			"componentType":5126,
			"count":2343,
			"type":"VEC3"
		},
		{
			"bufferView":2,
			"componentType":5126,
			"count":2343,
			"type":"VEC2"
		},
		{
			"bufferView":3,
			"componentType":5123,
			"count":2538,
			"type":"SCALAR"
		}
	],
	"bufferViews":[
		{
			"buffer":0,
			"byteLength":28116,
			"byteOffset":0,
			"target":34962
		},
		{
			"buffer":0,
			"byteLength":28116,
			"byteOffset":28116,
			"target":34962
		},
		{
			"buffer":0,
			"byteLength":18744,
			"byteOffset":56232,
			"target":34962
		},
		{
			"buffer":0,
			"byteLength":5076,
			"byteOffset":74976,
			"target":34963
		}
	],
	"samplers":[
		{
			"magFilter":9729,
			"minFilter":9987
		}
	],
	"buffers":[
		{
			"byteLength":80052,
			"uri":"SM_Gen_Env_Ground_River_Grass_Large_02.bin"
		}
	]
}
