{
	"asset":{
		"generator":"Khronos glTF Blender I/O v4.2.70",
		"version":"2.0"
	},
	"scene":0,
	"scenes":[
		{
			"name":"Scene",
			"nodes":[
				3
			]
		}
	],
	"nodes":[
		{
			"mesh":0,
			"name":"SM_Gen_Env_Skyline_02"
		},
		{
			"mesh":1,
			"name":"SM_Gen_Env_Skyline_03"
		},
		{
			"mesh":2,
			"name":"SM_Gen_Env_Skyline_04"
		},
		{
			"children":[
				0,
				1,
				2
			],
			"mesh":3,
			"name":"SM_Gen_Env_Skyline_01",
			"rotation":[
				0.7071068286895752,
				0,
				0,
				0.7071068286895752
			],
			"scale":[
				0.009999999776482582,
				0.009999999776482582,
				0.009999999776482582
			]
		}
	],
	"materials":[
		{
			"alphaMode":"BLEND",
			"doubleSided":true,
			"name":"lambert2133",
			"pbrMetallicRoughness":{
				"baseColorTexture":{
					"index":0
				},
				"metallicFactor":0,
				"roughnessFactor":0.5527864098548889
			}
		}
	],
	"meshes":[
		{
			"name":"Mesh.001",
			"primitives":[
				{
					"attributes":{
						"POSITION":0,
						"NORMAL":1,
						"TEXCOORD_0":2
					},
					"indices":3,
					"material":0
				}
			]
		},
		{
			"name":"Mesh.002",
			"primitives":[
				{
					"attributes":{
						"POSITION":4,
						"NORMAL":5,
						"TEXCOORD_0":6
					},
					"indices":3,
					"material":0
				}
			]
		},
		{
			"name":"Mesh.003",
			"primitives":[
				{
					"attributes":{
						"POSITION":7,
						"NORMAL":8,
						"TEXCOORD_0":9
					},
					"indices":3,
					"material":0
				}
			]
		},
		{
			"name":"Mesh",
			"primitives":[
				{
					"attributes":{
						"POSITION":10,
						"NORMAL":11,
						"TEXCOORD_0":12
					},
					"indices":3,
					"material":0
				}
			]
		}
	],
	"textures":[
		{
			"sampler":0,
			"source":0
		}
	],
	"images":[
		{
			"mimeType":"image/png",
			"name":"Generic_Skyline",
			"uri":"Generic_Skyline.png"
		}
	],
	"accessors":[
		{
			"bufferView":0,
			"componentType":5126,
			"count":98,
			"max":[
				18303.150390625,
				18303.146484375,
				0
			],
			"min":[
				-18303.15234375,
				-18303.150390625,
				-3129.84423828125
			],
			"type":"VEC3"
		},
		{
			"bufferView":1,
			"componentType":5126,
			"count":98,
			"type":"VEC3"
		},
		{
			"bufferView":2,
			"componentType":5126,
			"count":98,
			"type":"VEC2"
		},
		{
			"bufferView":3,
			"componentType":5123,
			"count":288,
			"type":"SCALAR"
		},
		{
			"bufferView":4,
			"componentType":5126,
			"count":98,
			"max":[
				21840.1953125,
				21840.19140625,
				0
			],
			"min":[
				-21840.197265625,
				-21840.19140625,
				-2720.260986328125
			],
			"type":"VEC3"
		},
		{
			"bufferView":5,
			"componentType":5126,
			"count":98,
			"type":"VEC3"
		},
		{
			"bufferView":6,
			"componentType":5126,
			"count":98,
			"type":"VEC2"
		},
		{
			"bufferView":7,
			"componentType":5126,
			"count":98,
			"max":[
				19965.77734375,
				19965.771484375,
				0
			],
			"min":[
				-19965.78125,
				-19965.771484375,
				-3879.193603515625
			],
			"type":"VEC3"
		},
		{
			"bufferView":8,
			"componentType":5126,
			"count":98,
			"type":"VEC3"
		},
		{
			"bufferView":9,
			"componentType":5126,
			"count":98,
			"type":"VEC2"
		},
		{
			"bufferView":10,
			"componentType":5126,
			"count":98,
			"max":[
				16662.18359375,
				16662.1875,
				0
			],
			"min":[
				-16662.18359375,
				-16662.189453125,
				-2290.162353515625
			],
			"type":"VEC3"
		},
		{
			"bufferView":11,
			"componentType":5126,
			"count":98,
			"type":"VEC3"
		},
		{
			"bufferView":12,
			"componentType":5126,
			"count":98,
			"type":"VEC2"
		}
	],
	"bufferViews":[
		{
			"buffer":0,
			"byteLength":1176,
			"byteOffset":0,
			"target":34962
		},
		{
			"buffer":0,
			"byteLength":1176,
			"byteOffset":1176,
			"target":34962
		},
		{
			"buffer":0,
			"byteLength":784,
			"byteOffset":2352,
			"target":34962
		},
		{
			"buffer":0,
			"byteLength":576,
			"byteOffset":3136,
			"target":34963
		},
		{
			"buffer":0,
			"byteLength":1176,
			"byteOffset":3712,
			"target":34962
		},
		{
			"buffer":0,
			"byteLength":1176,
			"byteOffset":4888,
			"target":34962
		},
		{
			"buffer":0,
			"byteLength":784,
			"byteOffset":6064,
			"target":34962
		},
		{
			"buffer":0,
			"byteLength":1176,
			"byteOffset":6848,
			"target":34962
		},
		{
			"buffer":0,
			"byteLength":1176,
			"byteOffset":8024,
			"target":34962
		},
		{
			"buffer":0,
			"byteLength":784,
			"byteOffset":9200,
			"target":34962
		},
		{
			"buffer":0,
			"byteLength":1176,
			"byteOffset":9984,
			"target":34962
		},
		{
			"buffer":0,
			"byteLength":1176,
			"byteOffset":11160,
			"target":34962
		},
		{
			"buffer":0,
			"byteLength":784,
			"byteOffset":12336,
			"target":34962
		}
	],
	"samplers":[
		{
			"magFilter":9729,
			"minFilter":9987
		}
	],
	"buffers":[
		{
			"byteLength":13120,
			"uri":"SM_Gen_Env_Skyline_01.bin"
		}
	]
}
