{
	"asset":{
		"generator":"Khronos glTF Blender I/O v4.2.70",
		"version":"2.0"
	},
	"scene":0,
	"scenes":[
		{
			"name":"Scene",
			"nodes":[
				0
			]
		}
	],
	"nodes":[
		{
			"mesh":0,
			"name":"SM_Gen_Env_Dirt_Cliff_07",
			"rotation":[
				0.7071068286895752,
				0,
				0,
				0.7071068286895752
			],
			"scale":[
				0.009999999776482582,
				0.009999999776482582,
				0.009999999776482582
			]
		}
	],
	"materials":[
		{
			"doubleSided":true,
			"name":"PolygonNatureBiomesS2_Texture_01A7",
			"pbrMetallicRoughness":{
				"metallicFactor":0,
				"roughnessFactor":0.5527864098548889
			}
		}
	],
	"meshes":[
		{
			"name":"Mesh",
			"primitives":[
				{
					"attributes":{
						"POSITION":0,
						"NORMAL":1,
						"TEXCOORD_0":2
					},
					"indices":3,
					"material":0
				}
			]
		}
	],
	"accessors":[
		{
			"bufferView":0,
			"componentType":5126,
			"count":2586,
			"max":[
				627.5701293945312,
				627.8429565429688,
				117.36854553222656
			],
			"min":[
				-592.4063720703125,
				-574.8471069335938,
				-696.5802001953125
			],
			"type":"VEC3"
		},
		{
			"bufferView":1,
			"componentType":5126,
			"count":2586,
			"type":"VEC3"
		},
		{
			"bufferView":2,
			"componentType":5126,
			"count":2586,
			"type":"VEC2"
		},
		{
			"bufferView":3,
			"componentType":5123,
			"count":2586,
			"type":"SCALAR"
		}
	],
	"bufferViews":[
		{
			"buffer":0,
			"byteLength":31032,
			"byteOffset":0,
			"target":34962
		},
		{
			"buffer":0,
			"byteLength":31032,
			"byteOffset":31032,
			"target":34962
		},
		{
			"buffer":0,
			"byteLength":20688,
			"byteOffset":62064,
			"target":34962
		},
		{
			"buffer":0,
			"byteLength":5172,
			"byteOffset":82752,
			"target":34963
		}
	],
	"buffers":[
		{
			"byteLength":87924,
			"uri":"SM_Gen_Env_Dirt_Cliff_07.bin"
		}
	]
}
