{
	"asset":{
		"generator":"Khronos glTF Blender I/O v4.2.70",
		"version":"2.0"
	},
	"scene":0,
	"scenes":[
		{
			"name":"Scene",
			"nodes":[
				0
			]
		}
	],
	"nodes":[
		{
			"mesh":0,
			"name":"SM_Gen_Env_Grass_Tall_04",
			"rotation":[
				0.7071068286895752,
				0,
				0,
				0.7071068286895752
			],
			"scale":[
				0.009999999776482582,
				0.009999999776482582,
				0.009999999776482582
			]
		}
	],
	"materials":[
		{
			"doubleSided":true,
			"name":"Polygon_Generic_01A",
			"pbrMetallicRoughness":{
				"baseColorTexture":{
					"index":0
				},
				"metallicFactor":0,
				"roughnessFactor":0.5527864098548889
			}
		}
	],
	"meshes":[
		{
			"name":"Mesh",
			"primitives":[
				{
					"attributes":{
						"POSITION":0,
						"NORMAL":1,
						"TEXCOORD_0":2
					},
					"indices":3,
					"material":0
				}
			]
		}
	],
	"textures":[
		{
			"sampler":0,
			"source":0
		}
	],
	"images":[
		{
			"mimeType":"image/png",
			"name":"Generic_01_A",
			"uri":"Generic_01_A.png"
		}
	],
	"accessors":[
		{
			"bufferView":0,
			"componentType":5126,
			"count":1543,
			"max":[
				191.58740234375,
				156.93649291992188,
				7.887214660644531
			],
			"min":[
				-191.58740234375,
				-156.93655395507812,
				-164.05258178710938
			],
			"type":"VEC3"
		},
		{
			"bufferView":1,
			"componentType":5126,
			"count":1543,
			"type":"VEC3"
		},
		{
			"bufferView":2,
			"componentType":5126,
			"count":1543,
			"type":"VEC2"
		},
		{
			"bufferView":3,
			"componentType":5123,
			"count":2214,
			"type":"SCALAR"
		}
	],
	"bufferViews":[
		{
			"buffer":0,
			"byteLength":18516,
			"byteOffset":0,
			"target":34962
		},
		{
			"buffer":0,
			"byteLength":18516,
			"byteOffset":18516,
			"target":34962
		},
		{
			"buffer":0,
			"byteLength":12344,
			"byteOffset":37032,
			"target":34962
		},
		{
			"buffer":0,
			"byteLength":4428,
			"byteOffset":49376,
			"target":34963
		}
	],
	"samplers":[
		{
			"magFilter":9729,
			"minFilter":9987
		}
	],
	"buffers":[
		{
			"byteLength":53804,
			"uri":"SM_Gen_Env_Grass_Tall_04.bin"
		}
	]
}
