{
	"asset":{
		"generator":"Khronos glTF Blender I/O v4.2.70",
		"version":"2.0"
	},
	"scene":0,
	"scenes":[
		{
			"name":"Scene",
			"nodes":[
				10
			]
		}
	],
	"nodes":[
		{
			"mesh":0,
			"name":"SM_Gen_Prop_Keypad_01_Key_01"
		},
		{
			"mesh":1,
			"name":"SM_Gen_Prop_Keypad_01_Key_02"
		},
		{
			"mesh":2,
			"name":"SM_Gen_Prop_Keypad_01_Key_03"
		},
		{
			"mesh":3,
			"name":"SM_Gen_Prop_Keypad_01_Key_04"
		},
		{
			"mesh":4,
			"name":"SM_Gen_Prop_Keypad_01_Key_05"
		},
		{
			"mesh":5,
			"name":"SM_Gen_Prop_Keypad_01_Key_06"
		},
		{
			"mesh":6,
			"name":"SM_Gen_Prop_Keypad_01_Key_07"
		},
		{
			"mesh":7,
			"name":"SM_Gen_Prop_Keypad_01_Key_08"
		},
		{
			"mesh":8,
			"name":"SM_Gen_Prop_Keypad_01_Key_09"
		},
		{
			"mesh":9,
			"name":"SM_Gen_Prop_Keypad_01_Light_01"
		},
		{
			"children":[
				0,
				1,
				2,
				3,
				4,
				5,
				6,
				7,
				8,
				9
			],
			"mesh":10,
			"name":"SM_Gen_Prop_Keypad_01",
			"rotation":[
				0.7071068286895752,
				0,
				0,
				0.7071068286895752
			],
			"scale":[
				0.009999999776482582,
				0.009999999776482582,
				0.009999999776482582
			]
		}
	],
	"materials":[
		{
			"doubleSided":true,
			"name":"Polygon_Generic_01A",
			"pbrMetallicRoughness":{
				"baseColorTexture":{
					"index":0
				},
				"metallicFactor":0,
				"roughnessFactor":0.5527864098548889
			}
		}
	],
	"meshes":[
		{
			"name":"Mesh.001",
			"primitives":[
				{
					"attributes":{
						"POSITION":0,
						"NORMAL":1,
						"TEXCOORD_0":2
					},
					"indices":3,
					"material":0
				}
			]
		},
		{
			"name":"Mesh.002",
			"primitives":[
				{
					"attributes":{
						"POSITION":4,
						"NORMAL":5,
						"TEXCOORD_0":6
					},
					"indices":3,
					"material":0
				}
			]
		},
		{
			"name":"Mesh.003",
			"primitives":[
				{
					"attributes":{
						"POSITION":7,
						"NORMAL":8,
						"TEXCOORD_0":9
					},
					"indices":3,
					"material":0
				}
			]
		},
		{
			"name":"Mesh.004",
			"primitives":[
				{
					"attributes":{
						"POSITION":10,
						"NORMAL":11,
						"TEXCOORD_0":12
					},
					"indices":3,
					"material":0
				}
			]
		},
		{
			"name":"Mesh.005",
			"primitives":[
				{
					"attributes":{
						"POSITION":13,
						"NORMAL":14,
						"TEXCOORD_0":15
					},
					"indices":3,
					"material":0
				}
			]
		},
		{
			"name":"Mesh.006",
			"primitives":[
				{
					"attributes":{
						"POSITION":16,
						"NORMAL":17,
						"TEXCOORD_0":18
					},
					"indices":3,
					"material":0
				}
			]
		},
		{
			"name":"Mesh.007",
			"primitives":[
				{
					"attributes":{
						"POSITION":19,
						"NORMAL":20,
						"TEXCOORD_0":21
					},
					"indices":3,
					"material":0
				}
			]
		},
		{
			"name":"Mesh.008",
			"primitives":[
				{
					"attributes":{
						"POSITION":22,
						"NORMAL":23,
						"TEXCOORD_0":24
					},
					"indices":3,
					"material":0
				}
			]
		},
		{
			"name":"Mesh.009",
			"primitives":[
				{
					"attributes":{
						"POSITION":25,
						"NORMAL":26,
						"TEXCOORD_0":27
					},
					"indices":3,
					"material":0
				}
			]
		},
		{
			"name":"Mesh.010",
			"primitives":[
				{
					"attributes":{
						"POSITION":28,
						"NORMAL":29,
						"TEXCOORD_0":30
					},
					"indices":3,
					"material":0
				}
			]
		},
		{
			"name":"Mesh",
			"primitives":[
				{
					"attributes":{
						"POSITION":31,
						"NORMAL":32,
						"TEXCOORD_0":33
					},
					"indices":34,
					"material":0
				}
			]
		}
	],
	"textures":[
		{
			"sampler":0,
			"source":0
		}
	],
	"images":[
		{
			"mimeType":"image/png",
			"name":"Generic_01_A",
			"uri":"Generic_01_A.png"
		}
	],
	"accessors":[
		{
			"bufferView":0,
			"componentType":5126,
			"count":36,
			"max":[
				-3.317423105239868,
				7.120965957641602,
				-3.8011605739593506
			],
			"min":[
				-7.395055770874023,
				5.848219871520996,
				-7.661347389221191
			],
			"type":"VEC3"
		},
		{
			"bufferView":1,
			"componentType":5126,
			"count":36,
			"type":"VEC3"
		},
		{
			"bufferView":2,
			"componentType":5126,
			"count":36,
			"type":"VEC2"
		},
		{
			"bufferView":3,
			"componentType":5123,
			"count":54,
			"type":"SCALAR"
		},
		{
			"bufferView":4,
			"componentType":5126,
			"count":36,
			"max":[
				1.7120630741119385,
				7.120965003967285,
				-3.8011605739593506
			],
			"min":[
				-2.365569829940796,
				5.848220348358154,
				-7.661347389221191
			],
			"type":"VEC3"
		},
		{
			"bufferView":5,
			"componentType":5126,
			"count":36,
			"type":"VEC3"
		},
		{
			"bufferView":6,
			"componentType":5126,
			"count":36,
			"type":"VEC2"
		},
		{
			"bufferView":7,
			"componentType":5126,
			"count":36,
			"max":[
				6.67510986328125,
				7.120965003967285,
				-3.8011605739593506
			],
			"min":[
				2.5974764823913574,
				5.848220348358154,
				-7.661347389221191
			],
			"type":"VEC3"
		},
		{
			"bufferView":8,
			"componentType":5126,
			"count":36,
			"type":"VEC3"
		},
		{
			"bufferView":9,
			"componentType":5126,
			"count":36,
			"type":"VEC2"
		},
		{
			"bufferView":10,
			"componentType":5126,
			"count":36,
			"max":[
				-3.317423105239868,
				7.120965003967285,
				0.7522115707397461
			],
			"min":[
				-7.395055770874023,
				5.848220348358154,
				-3.107975482940674
			],
			"type":"VEC3"
		},
		{
			"bufferView":11,
			"componentType":5126,
			"count":36,
			"type":"VEC3"
		},
		{
			"bufferView":12,
			"componentType":5126,
			"count":36,
			"type":"VEC2"
		},
		{
			"bufferView":13,
			"componentType":5126,
			"count":36,
			"max":[
				1.7120630741119385,
				7.120965003967285,
				0.7522115707397461
			],
			"min":[
				-2.365569829940796,
				5.848220348358154,
				-3.107975482940674
			],
			"type":"VEC3"
		},
		{
			"bufferView":14,
			"componentType":5126,
			"count":36,
			"type":"VEC3"
		},
		{
			"bufferView":15,
			"componentType":5126,
			"count":36,
			"type":"VEC2"
		},
		{
			"bufferView":16,
			"componentType":5126,
			"count":36,
			"max":[
				6.67510986328125,
				7.120965003967285,
				0.7522115707397461
			],
			"min":[
				2.5974764823913574,
				5.848220348358154,
				-3.107975482940674
			],
			"type":"VEC3"
		},
		{
			"bufferView":17,
			"componentType":5126,
			"count":36,
			"type":"VEC3"
		},
		{
			"bufferView":18,
			"componentType":5126,
			"count":36,
			"type":"VEC2"
		},
		{
			"bufferView":19,
			"componentType":5126,
			"count":36,
			"max":[
				-3.317423105239868,
				7.120965003967285,
				5.242810249328613
			],
			"min":[
				-7.395055770874023,
				5.848220348358154,
				1.3826227188110352
			],
			"type":"VEC3"
		},
		{
			"bufferView":20,
			"componentType":5126,
			"count":36,
			"type":"VEC3"
		},
		{
			"bufferView":21,
			"componentType":5126,
			"count":36,
			"type":"VEC2"
		},
		{
			"bufferView":22,
			"componentType":5126,
			"count":36,
			"max":[
				1.7120630741119385,
				7.120965003967285,
				5.242810249328613
			],
			"min":[
				-2.365569829940796,
				5.848220348358154,
				1.3826227188110352
			],
			"type":"VEC3"
		},
		{
			"bufferView":23,
			"componentType":5126,
			"count":36,
			"type":"VEC3"
		},
		{
			"bufferView":24,
			"componentType":5126,
			"count":36,
			"type":"VEC2"
		},
		{
			"bufferView":25,
			"componentType":5126,
			"count":36,
			"max":[
				6.67510986328125,
				7.120965003967285,
				5.242810249328613
			],
			"min":[
				2.5974764823913574,
				5.848220348358154,
				1.3826227188110352
			],
			"type":"VEC3"
		},
		{
			"bufferView":26,
			"componentType":5126,
			"count":36,
			"type":"VEC3"
		},
		{
			"bufferView":27,
			"componentType":5126,
			"count":36,
			"type":"VEC2"
		},
		{
			"bufferView":28,
			"componentType":5126,
			"count":36,
			"max":[
				6.62421989440918,
				6.552074432373047,
				7.77791690826416
			],
			"min":[
				3.6553940773010254,
				5.479971408843994,
				5.662513732910156
			],
			"type":"VEC3"
		},
		{
			"bufferView":29,
			"componentType":5126,
			"count":36,
			"type":"VEC3"
		},
		{
			"bufferView":30,
			"componentType":5126,
			"count":36,
			"type":"VEC2"
		},
		{
			"bufferView":31,
			"componentType":5126,
			"count":58,
			"max":[
				9.887481689453125,
				6.175434589385986,
				9.88739013671875
			],
			"min":[
				-9.887481689453125,
				0,
				-9.887561798095703
			],
			"type":"VEC3"
		},
		{
			"bufferView":32,
			"componentType":5126,
			"count":58,
			"type":"VEC3"
		},
		{
			"bufferView":33,
			"componentType":5126,
			"count":58,
			"type":"VEC2"
		},
		{
			"bufferView":34,
			"componentType":5123,
			"count":96,
			"type":"SCALAR"
		}
	],
	"bufferViews":[
		{
			"buffer":0,
			"byteLength":432,
			"byteOffset":0,
			"target":34962
		},
		{
			"buffer":0,
			"byteLength":432,
			"byteOffset":432,
			"target":34962
		},
		{
			"buffer":0,
			"byteLength":288,
			"byteOffset":864,
			"target":34962
		},
		{
			"buffer":0,
			"byteLength":108,
			"byteOffset":1152,
			"target":34963
		},
		{
			"buffer":0,
			"byteLength":432,
			"byteOffset":1260,
			"target":34962
		},
		{
			"buffer":0,
			"byteLength":432,
			"byteOffset":1692,
			"target":34962
		},
		{
			"buffer":0,
			"byteLength":288,
			"byteOffset":2124,
			"target":34962
		},
		{
			"buffer":0,
			"byteLength":432,
			"byteOffset":2412,
			"target":34962
		},
		{
			"buffer":0,
			"byteLength":432,
			"byteOffset":2844,
			"target":34962
		},
		{
			"buffer":0,
			"byteLength":288,
			"byteOffset":3276,
			"target":34962
		},
		{
			"buffer":0,
			"byteLength":432,
			"byteOffset":3564,
			"target":34962
		},
		{
			"buffer":0,
			"byteLength":432,
			"byteOffset":3996,
			"target":34962
		},
		{
			"buffer":0,
			"byteLength":288,
			"byteOffset":4428,
			"target":34962
		},
		{
			"buffer":0,
			"byteLength":432,
			"byteOffset":4716,
			"target":34962
		},
		{
			"buffer":0,
			"byteLength":432,
			"byteOffset":5148,
			"target":34962
		},
		{
			"buffer":0,
			"byteLength":288,
			"byteOffset":5580,
			"target":34962
		},
		{
			"buffer":0,
			"byteLength":432,
			"byteOffset":5868,
			"target":34962
		},
		{
			"buffer":0,
			"byteLength":432,
			"byteOffset":6300,
			"target":34962
		},
		{
			"buffer":0,
			"byteLength":288,
			"byteOffset":6732,
			"target":34962
		},
		{
			"buffer":0,
			"byteLength":432,
			"byteOffset":7020,
			"target":34962
		},
		{
			"buffer":0,
			"byteLength":432,
			"byteOffset":7452,
			"target":34962
		},
		{
			"buffer":0,
			"byteLength":288,
			"byteOffset":7884,
			"target":34962
		},
		{
			"buffer":0,
			"byteLength":432,
			"byteOffset":8172,
			"target":34962
		},
		{
			"buffer":0,
			"byteLength":432,
			"byteOffset":8604,
			"target":34962
		},
		{
			"buffer":0,
			"byteLength":288,
			"byteOffset":9036,
			"target":34962
		},
		{
			"buffer":0,
			"byteLength":432,
			"byteOffset":9324,
			"target":34962
		},
		{
			"buffer":0,
			"byteLength":432,
			"byteOffset":9756,
			"target":34962
		},
		{
			"buffer":0,
			"byteLength":288,
			"byteOffset":10188,
			"target":34962
		},
		{
			"buffer":0,
			"byteLength":432,
			"byteOffset":10476,
			"target":34962
		},
		{
			"buffer":0,
			"byteLength":432,
			"byteOffset":10908,
			"target":34962
		},
		{
			"buffer":0,
			"byteLength":288,
			"byteOffset":11340,
			"target":34962
		},
		{
			"buffer":0,
			"byteLength":696,
			"byteOffset":11628,
			"target":34962
		},
		{
			"buffer":0,
			"byteLength":696,
			"byteOffset":12324,
			"target":34962
		},
		{
			"buffer":0,
			"byteLength":464,
			"byteOffset":13020,
			"target":34962
		},
		{
			"buffer":0,
			"byteLength":192,
			"byteOffset":13484,
			"target":34963
		}
	],
	"samplers":[
		{
			"magFilter":9729,
			"minFilter":9987
		}
	],
	"buffers":[
		{
			"byteLength":13676,
			"uri":"SM_Gen_Prop_Keypad_01.bin"
		}
	]
}
