{
	"asset":{
		"generator":"Khronos glTF Blender I/O v4.2.70",
		"version":"2.0"
	},
	"scene":0,
	"scenes":[
		{
			"name":"Scene",
			"nodes":[
				0
			]
		}
	],
	"nodes":[
		{
			"mesh":0,
			"name":"SM_Gen_Env_Ground_Dirt_Large_03",
			"rotation":[
				0.7071068286895752,
				0,
				0,
				0.7071068286895752
			],
			"scale":[
				0.009999999776482582,
				0.009999999776482582,
				0.009999999776482582
			]
		}
	],
	"materials":[
		{
			"doubleSided":true,
			"name":"Polygon_Generic_01A7",
			"pbrMetallicRoughness":{
				"baseColorTexture":{
					"index":0
				},
				"metallicFactor":0,
				"roughnessFactor":0.5527864098548889
			}
		}
	],
	"meshes":[
		{
			"name":"Mesh",
			"primitives":[
				{
					"attributes":{
						"POSITION":0,
						"NORMAL":1,
						"TEXCOORD_0":2
					},
					"indices":3,
					"material":0
				}
			]
		}
	],
	"textures":[
		{
			"sampler":0,
			"source":0
		}
	],
	"images":[
		{
			"mimeType":"image/png",
			"name":"Generic_01_A",
			"uri":"Generic_01_A.png"
		}
	],
	"accessors":[
		{
			"bufferView":0,
			"componentType":5126,
			"count":3596,
			"max":[
				2047.9501953125,
				2089.7392578125,
				26.344745635986328
			],
			"min":[
				-2161.486083984375,
				-2128.595947265625,
				-92.57703399658203
			],
			"type":"VEC3"
		},
		{
			"bufferView":1,
			"componentType":5126,
			"count":3596,
			"type":"VEC3"
		},
		{
			"bufferView":2,
			"componentType":5126,
			"count":3596,
			"type":"VEC2"
		},
		{
			"bufferView":3,
			"componentType":5123,
			"count":3708,
			"type":"SCALAR"
		}
	],
	"bufferViews":[
		{
			"buffer":0,
			"byteLength":43152,
			"byteOffset":0,
			"target":34962
		},
		{
			"buffer":0,
			"byteLength":43152,
			"byteOffset":43152,
			"target":34962
		},
		{
			"buffer":0,
			"byteLength":28768,
			"byteOffset":86304,
			"target":34962
		},
		{
			"buffer":0,
			"byteLength":7416,
			"byteOffset":115072,
			"target":34963
		}
	],
	"samplers":[
		{
			"magFilter":9729,
			"minFilter":9987
		}
	],
	"buffers":[
		{
			"byteLength":122488,
			"uri":"SM_Gen_Env_Ground_Dirt_Large_03.bin"
		}
	]
}
