{
	"asset":{
		"generator":"Khronos glTF Blender I/O v4.2.70",
		"version":"2.0"
	},
	"scene":0,
	"scenes":[
		{
			"name":"Scene",
			"nodes":[
				0
			]
		}
	],
	"nodes":[
		{
			"mesh":0,
			"name":"SM_Gen_Prop_Statue_02",
			"rotation":[
				0.7071068286895752,
				0,
				0,
				0.7071068286895752
			],
			"scale":[
				0.009999999776482582,
				0.009999999776482582,
				0.009999999776482582
			]
		}
	],
	"materials":[
		{
			"doubleSided":true,
			"name":"Viking_01A",
			"pbrMetallicRoughness":{
				"baseColorTexture":{
					"index":0
				},
				"metallicFactor":0,
				"roughnessFactor":0.5527864098548889
			}
		}
	],
	"meshes":[
		{
			"name":"Mesh",
			"primitives":[
				{
					"attributes":{
						"POSITION":0,
						"NORMAL":1,
						"TEXCOORD_0":2,
						"COLOR_0":3,
						"COLOR_1":4
					},
					"indices":5,
					"material":0
				}
			]
		}
	],
	"textures":[
		{
			"sampler":0,
			"source":0
		}
	],
	"images":[
		{
			"mimeType":"image/png",
			"name":"Generic_01_A",
			"uri":"Generic_01_A.png"
		}
	],
	"accessors":[
		{
			"bufferView":0,
			"componentType":5126,
			"count":2788,
			"max":[
				30.440597534179688,
				25.95392417907715,
				0.8956747651100159
			],
			"min":[
				-36.59054183959961,
				-16.628841400146484,
				-178.59971618652344
			],
			"type":"VEC3"
		},
		{
			"bufferView":1,
			"componentType":5126,
			"count":2788,
			"type":"VEC3"
		},
		{
			"bufferView":2,
			"componentType":5126,
			"count":2788,
			"type":"VEC2"
		},
		{
			"bufferView":3,
			"componentType":5121,
			"count":2788,
			"normalized":true,
			"type":"VEC4"
		},
		{
			"bufferView":4,
			"componentType":5126,
			"count":2788,
			"type":"VEC3"
		},
		{
			"bufferView":5,
			"componentType":5123,
			"count":2982,
			"type":"SCALAR"
		}
	],
	"bufferViews":[
		{
			"buffer":0,
			"byteLength":33456,
			"byteOffset":0,
			"target":34962
		},
		{
			"buffer":0,
			"byteLength":33456,
			"byteOffset":33456,
			"target":34962
		},
		{
			"buffer":0,
			"byteLength":22304,
			"byteOffset":66912,
			"target":34962
		},
		{
			"buffer":0,
			"byteLength":11152,
			"byteOffset":89216,
			"target":34962
		},
		{
			"buffer":0,
			"byteLength":33456,
			"byteOffset":100368,
			"target":34962
		},
		{
			"buffer":0,
			"byteLength":5964,
			"byteOffset":133824,
			"target":34963
		}
	],
	"samplers":[
		{
			"magFilter":9729,
			"minFilter":9987
		}
	],
	"buffers":[
		{
			"byteLength":139788,
			"uri":"SM_Gen_Prop_Statue_02.bin"
		}
	]
}
