{
	"asset":{
		"generator":"Khronos glTF Blender I/O v4.2.70",
		"version":"2.0"
	},
	"scene":0,
	"scenes":[
		{
			"name":"Scene",
			"nodes":[
				0
			]
		}
	],
	"nodes":[
		{
			"mesh":0,
			"name":"SM_Gen_Env_Cloud_Ring_01",
			"rotation":[
				0.7071068286895752,
				0,
				0,
				0.7071068286895752
			],
			"scale":[
				0.009999999776482582,
				0.009999999776482582,
				0.009999999776482582
			]
		}
	],
	"materials":[
		{
			"doubleSided":true,
			"name":"Polygon_Generic_01A",
			"pbrMetallicRoughness":{
				"metallicFactor":0,
				"roughnessFactor":0.5527864098548889
			}
		}
	],
	"meshes":[
		{
			"name":"Mesh",
			"primitives":[
				{
					"attributes":{
						"POSITION":0,
						"NORMAL":1,
						"TEXCOORD_0":2
					},
					"indices":3,
					"material":0
				}
			]
		}
	],
	"accessors":[
		{
			"bufferView":0,
			"componentType":5126,
			"count":43366,
			"max":[
				16366.8125,
				15630.4765625,
				-2295.54541015625
			],
			"min":[
				-18025.546875,
				-16525.96875,
				-5324.353515625
			],
			"type":"VEC3"
		},
		{
			"bufferView":1,
			"componentType":5126,
			"count":43366,
			"type":"VEC3"
		},
		{
			"bufferView":2,
			"componentType":5126,
			"count":43366,
			"type":"VEC2"
		},
		{
			"bufferView":3,
			"componentType":5123,
			"count":43368,
			"type":"SCALAR"
		}
	],
	"bufferViews":[
		{
			"buffer":0,
			"byteLength":520392,
			"byteOffset":0,
			"target":34962
		},
		{
			"buffer":0,
			"byteLength":520392,
			"byteOffset":520392,
			"target":34962
		},
		{
			"buffer":0,
			"byteLength":346928,
			"byteOffset":1040784,
			"target":34962
		},
		{
			"buffer":0,
			"byteLength":86736,
			"byteOffset":1387712,
			"target":34963
		}
	],
	"buffers":[
		{
			"byteLength":1474448,
			"uri":"SM_Gen_Env_Cloud_Ring_01.bin"
		}
	]
}
