{
	"asset":{
		"generator":"Khronos glTF Blender I/O v4.2.70",
		"version":"2.0"
	},
	"scene":0,
	"scenes":[
		{
			"name":"Scene",
			"nodes":[
				0
			]
		}
	],
	"nodes":[
		{
			"mesh":0,
			"name":"SM_Gen_Env_Road_Gravel_Straight_02",
			"rotation":[
				0.7071068286895752,
				0,
				0,
				0.7071068286895752
			],
			"scale":[
				0.009999999776482582,
				0.009999999776482582,
				0.009999999776482582
			]
		}
	],
	"materials":[
		{
			"doubleSided":true,
			"name":"Polygon_Generic_01A48",
			"pbrMetallicRoughness":{
				"baseColorTexture":{
					"index":0
				},
				"metallicFactor":0,
				"roughnessFactor":0.5527864098548889
			}
		}
	],
	"meshes":[
		{
			"name":"Mesh",
			"primitives":[
				{
					"attributes":{
						"POSITION":0,
						"NORMAL":1,
						"TEXCOORD_0":2,
						"TEXCOORD_1":3
					},
					"indices":4,
					"material":0
				}
			]
		}
	],
	"textures":[
		{
			"sampler":0,
			"source":0
		}
	],
	"images":[
		{
			"mimeType":"image/png",
			"name":"Generic_01_A",
			"uri":"Generic_01_A.png"
		}
	],
	"accessors":[
		{
			"bufferView":0,
			"componentType":5126,
			"count":467,
			"max":[
				169.6332244873047,
				49.25519561767578,
				8.503124237060547
			],
			"min":[
				-144.9471893310547,
				-568.1187133789062,
				-16.535959243774414
			],
			"type":"VEC3"
		},
		{
			"bufferView":1,
			"componentType":5126,
			"count":467,
			"type":"VEC3"
		},
		{
			"bufferView":2,
			"componentType":5126,
			"count":467,
			"type":"VEC2"
		},
		{
			"bufferView":3,
			"componentType":5126,
			"count":467,
			"type":"VEC2"
		},
		{
			"bufferView":4,
			"componentType":5123,
			"count":489,
			"type":"SCALAR"
		}
	],
	"bufferViews":[
		{
			"buffer":0,
			"byteLength":5604,
			"byteOffset":0,
			"target":34962
		},
		{
			"buffer":0,
			"byteLength":5604,
			"byteOffset":5604,
			"target":34962
		},
		{
			"buffer":0,
			"byteLength":3736,
			"byteOffset":11208,
			"target":34962
		},
		{
			"buffer":0,
			"byteLength":3736,
			"byteOffset":14944,
			"target":34962
		},
		{
			"buffer":0,
			"byteLength":978,
			"byteOffset":18680,
			"target":34963
		}
	],
	"samplers":[
		{
			"magFilter":9729,
			"minFilter":9987
		}
	],
	"buffers":[
		{
			"byteLength":19660,
			"uri":"SM_Gen_Env_Road_Gravel_Straight_02.bin"
		}
	]
}
