{
	"asset":{
		"generator":"Khronos glTF Blender I/O v4.2.70",
		"version":"2.0"
	},
	"scene":0,
	"scenes":[
		{
			"name":"Scene",
			"nodes":[
				0
			]
		}
	],
	"nodes":[
		{
			"mesh":0,
			"name":"SM_Gen_Prop_Plinth_02",
			"rotation":[
				0.7071068286895752,
				0,
				0,
				0.7071068286895752
			],
			"scale":[
				0.009999999776482582,
				0.009999999776482582,
				0.009999999776482582
			]
		}
	],
	"materials":[
		{
			"doubleSided":true,
			"name":"Viking_01A",
			"pbrMetallicRoughness":{
				"baseColorTexture":{
					"index":0
				},
				"metallicFactor":0,
				"roughnessFactor":0.5527864098548889
			}
		}
	],
	"meshes":[
		{
			"name":"Mesh",
			"primitives":[
				{
					"attributes":{
						"POSITION":0,
						"NORMAL":1,
						"TEXCOORD_0":2
					},
					"indices":3,
					"material":0
				}
			]
		}
	],
	"textures":[
		{
			"sampler":0,
			"source":0
		}
	],
	"images":[
		{
			"mimeType":"image/png",
			"name":"Generic_01_A",
			"uri":"Generic_01_A.png"
		}
	],
	"accessors":[
		{
			"bufferView":0,
			"componentType":5126,
			"count":352,
			"max":[
				40.61055374145508,
				40.610599517822266,
				2.989943027496338
			],
			"min":[
				-40.61055374145508,
				-40.610599517822266,
				-67.87181854248047
			],
			"type":"VEC3"
		},
		{
			"bufferView":1,
			"componentType":5126,
			"count":352,
			"type":"VEC3"
		},
		{
			"bufferView":2,
			"componentType":5126,
			"count":352,
			"type":"VEC2"
		},
		{
			"bufferView":3,
			"componentType":5123,
			"count":654,
			"type":"SCALAR"
		}
	],
	"bufferViews":[
		{
			"buffer":0,
			"byteLength":4224,
			"byteOffset":0,
			"target":34962
		},
		{
			"buffer":0,
			"byteLength":4224,
			"byteOffset":4224,
			"target":34962
		},
		{
			"buffer":0,
			"byteLength":2816,
			"byteOffset":8448,
			"target":34962
		},
		{
			"buffer":0,
			"byteLength":1308,
			"byteOffset":11264,
			"target":34963
		}
	],
	"samplers":[
		{
			"magFilter":9729,
			"minFilter":9987
		}
	],
	"buffers":[
		{
			"byteLength":12572,
			"uri":"SM_Gen_Prop_Plinth_02.bin"
		}
	]
}
