{
	"asset":{
		"generator":"Khronos glTF Blender I/O v4.2.70",
		"version":"2.0"
	},
	"scene":0,
	"scenes":[
		{
			"name":"Scene",
			"nodes":[
				0
			]
		}
	],
	"nodes":[
		{
			"mesh":0,
			"name":"SM_Gen_Bld_Background_09",
			"rotation":[
				0.7071068286895752,
				0,
				0,
				0.7071068286895752
			],
			"scale":[
				0.009999999776482582,
				0.009999999776482582,
				0.009999999776482582
			]
		}
	],
	"materials":[
		{
			"doubleSided":true,
			"name":"Polygon1",
			"pbrMetallicRoughness":{
				"metallicFactor":0,
				"roughnessFactor":0.5527864098548889
			}
		},
		{
			"doubleSided":true,
			"name":"A_Glass5",
			"pbrMetallicRoughness":{
				"metallicFactor":0,
				"roughnessFactor":0.5527864098548889
			}
		}
	],
	"meshes":[
		{
			"name":"Mesh",
			"primitives":[
				{
					"attributes":{
						"POSITION":0,
						"NORMAL":1,
						"TEXCOORD_0":2
					},
					"indices":3,
					"material":0
				},
				{
					"attributes":{
						"POSITION":4,
						"NORMAL":5,
						"TEXCOORD_0":6
					},
					"indices":7,
					"material":1
				}
			]
		}
	],
	"accessors":[
		{
			"bufferView":0,
			"componentType":5126,
			"count":1396,
			"max":[
				691.8525390625,
				403.0401611328125,
				0
			],
			"min":[
				-691.8525390625,
				-403.0401611328125,
				-2198.0830078125
			],
			"type":"VEC3"
		},
		{
			"bufferView":1,
			"componentType":5126,
			"count":1396,
			"type":"VEC3"
		},
		{
			"bufferView":2,
			"componentType":5126,
			"count":1396,
			"type":"VEC2"
		},
		{
			"bufferView":3,
			"componentType":5123,
			"count":2124,
			"type":"SCALAR"
		},
		{
			"bufferView":4,
			"componentType":5126,
			"count":16,
			"max":[
				650.53515625,
				364.3836669921875,
				-9.884262084960938
			],
			"min":[
				-650.5419921875,
				-370.17608642578125,
				-1956.7379150390625
			],
			"type":"VEC3"
		},
		{
			"bufferView":5,
			"componentType":5126,
			"count":16,
			"type":"VEC3"
		},
		{
			"bufferView":6,
			"componentType":5126,
			"count":16,
			"type":"VEC2"
		},
		{
			"bufferView":7,
			"componentType":5123,
			"count":24,
			"type":"SCALAR"
		}
	],
	"bufferViews":[
		{
			"buffer":0,
			"byteLength":16752,
			"byteOffset":0,
			"target":34962
		},
		{
			"buffer":0,
			"byteLength":16752,
			"byteOffset":16752,
			"target":34962
		},
		{
			"buffer":0,
			"byteLength":11168,
			"byteOffset":33504,
			"target":34962
		},
		{
			"buffer":0,
			"byteLength":4248,
			"byteOffset":44672,
			"target":34963
		},
		{
			"buffer":0,
			"byteLength":192,
			"byteOffset":48920,
			"target":34962
		},
		{
			"buffer":0,
			"byteLength":192,
			"byteOffset":49112,
			"target":34962
		},
		{
			"buffer":0,
			"byteLength":128,
			"byteOffset":49304,
			"target":34962
		},
		{
			"buffer":0,
			"byteLength":48,
			"byteOffset":49432,
			"target":34963
		}
	],
	"buffers":[
		{
			"byteLength":49480,
			"uri":"SM_Gen_Bld_Background_09.bin"
		}
	]
}
