{
	"asset":{
		"generator":"Khronos glTF Blender I/O v4.2.70",
		"version":"2.0"
	},
	"scene":0,
	"scenes":[
		{
			"name":"Scene",
			"nodes":[
				0
			]
		}
	],
	"nodes":[
		{
			"mesh":0,
			"name":"SM_Gen_Env_Dirt_Cliff_01",
			"rotation":[
				0.7071068286895752,
				0,
				0,
				0.7071068286895752
			],
			"scale":[
				0.009999999776482582,
				0.009999999776482582,
				0.009999999776482582
			]
		}
	],
	"materials":[
		{
			"doubleSided":true,
			"name":"PolygonNatureBiomesS2_Texture_01A",
			"pbrMetallicRoughness":{
				"metallicFactor":0,
				"roughnessFactor":0.5527864098548889
			}
		}
	],
	"meshes":[
		{
			"name":"Mesh",
			"primitives":[
				{
					"attributes":{
						"POSITION":0,
						"NORMAL":1,
						"TEXCOORD_0":2
					},
					"indices":3,
					"material":0
				}
			]
		}
	],
	"accessors":[
		{
			"bufferView":0,
			"componentType":5126,
			"count":2292,
			"max":[
				574.8493041992188,
				394.58349609375,
				120.87015533447266
			],
			"min":[
				-582.7548828125,
				-793.6991577148438,
				-794.5916137695312
			],
			"type":"VEC3"
		},
		{
			"bufferView":1,
			"componentType":5126,
			"count":2292,
			"type":"VEC3"
		},
		{
			"bufferView":2,
			"componentType":5126,
			"count":2292,
			"type":"VEC2"
		},
		{
			"bufferView":3,
			"componentType":5123,
			"count":2292,
			"type":"SCALAR"
		}
	],
	"bufferViews":[
		{
			"buffer":0,
			"byteLength":27504,
			"byteOffset":0,
			"target":34962
		},
		{
			"buffer":0,
			"byteLength":27504,
			"byteOffset":27504,
			"target":34962
		},
		{
			"buffer":0,
			"byteLength":18336,
			"byteOffset":55008,
			"target":34962
		},
		{
			"buffer":0,
			"byteLength":4584,
			"byteOffset":73344,
			"target":34963
		}
	],
	"buffers":[
		{
			"byteLength":77928,
			"uri":"SM_Gen_Env_Dirt_Cliff_01.bin"
		}
	]
}
