{
	"asset":{
		"generator":"Khronos glTF Blender I/O v4.2.70",
		"version":"2.0"
	},
	"scene":0,
	"scenes":[
		{
			"name":"Scene",
			"nodes":[
				0
			]
		}
	],
	"nodes":[
		{
			"mesh":0,
			"name":"SM_Gen_Env_Waterfall_02",
			"rotation":[
				0.7071068286895752,
				0,
				0,
				0.7071068286895752
			],
			"scale":[
				0.009999999776482582,
				0.009999999776482582,
				0.009999999776482582
			]
		}
	],
	"materials":[
		{
			"doubleSided":true,
			"name":"T_ELVEN44",
			"pbrMetallicRoughness":{
				"metallicFactor":0,
				"roughnessFactor":0.5527864098548889
			}
		}
	],
	"meshes":[
		{
			"name":"Mesh",
			"primitives":[
				{
					"attributes":{
						"POSITION":0,
						"NORMAL":1,
						"TEXCOORD_0":2,
						"COLOR_0":3,
						"COLOR_1":4
					},
					"indices":5,
					"material":0
				}
			]
		}
	],
	"accessors":[
		{
			"bufferView":0,
			"componentType":5126,
			"count":1037,
			"max":[
				427.3037414550781,
				490.0189208984375,
				3237.0517578125
			],
			"min":[
				-423.0352478027344,
				17.981216430664062,
				-5.595101356506348
			],
			"type":"VEC3"
		},
		{
			"bufferView":1,
			"componentType":5126,
			"count":1037,
			"type":"VEC3"
		},
		{
			"bufferView":2,
			"componentType":5126,
			"count":1037,
			"type":"VEC2"
		},
		{
			"bufferView":3,
			"componentType":5121,
			"count":1037,
			"normalized":true,
			"type":"VEC4"
		},
		{
			"bufferView":4,
			"componentType":5126,
			"count":1037,
			"type":"VEC3"
		},
		{
			"bufferView":5,
			"componentType":5123,
			"count":6210,
			"type":"SCALAR"
		}
	],
	"bufferViews":[
		{
			"buffer":0,
			"byteLength":12444,
			"byteOffset":0,
			"target":34962
		},
		{
			"buffer":0,
			"byteLength":12444,
			"byteOffset":12444,
			"target":34962
		},
		{
			"buffer":0,
			"byteLength":8296,
			"byteOffset":24888,
			"target":34962
		},
		{
			"buffer":0,
			"byteLength":4148,
			"byteOffset":33184,
			"target":34962
		},
		{
			"buffer":0,
			"byteLength":12444,
			"byteOffset":37332,
			"target":34962
		},
		{
			"buffer":0,
			"byteLength":12420,
			"byteOffset":49776,
			"target":34963
		}
	],
	"buffers":[
		{
			"byteLength":62196,
			"uri":"SM_Gen_Env_Waterfall_02.bin"
		}
	]
}
