{
	"asset":{
		"generator":"Khronos glTF Blender I/O v4.2.70",
		"version":"2.0"
	},
	"scene":0,
	"scenes":[
		{
			"name":"Scene",
			"nodes":[
				0
			]
		}
	],
	"nodes":[
		{
			"mesh":0,
			"name":"SM_Gen_Env_Flowers_06",
			"rotation":[
				0.7071068286895752,
				0,
				0,
				0.7071068286895752
			],
			"scale":[
				0.009999999776482582,
				0.009999999776482582,
				0.009999999776482582
			]
		}
	],
	"materials":[
		{
			"doubleSided":true,
			"name":"Polygon_Generic_01A5",
			"pbrMetallicRoughness":{
				"baseColorTexture":{
					"index":0
				},
				"metallicFactor":0,
				"roughnessFactor":0.5527864098548889
			}
		}
	],
	"meshes":[
		{
			"name":"Mesh",
			"primitives":[
				{
					"attributes":{
						"POSITION":0,
						"NORMAL":1,
						"TEXCOORD_0":2,
						"TEXCOORD_1":3
					},
					"indices":4,
					"material":0
				}
			]
		}
	],
	"textures":[
		{
			"sampler":0,
			"source":0
		}
	],
	"images":[
		{
			"mimeType":"image/png",
			"name":"Generic_01_A",
			"uri":"Generic_01_A.png"
		}
	],
	"accessors":[
		{
			"bufferView":0,
			"componentType":5126,
			"count":385,
			"max":[
				15.726318359375,
				16.818038940429688,
				8.810338973999023
			],
			"min":[
				-23.47732925415039,
				-25.50420379638672,
				-88.22457122802734
			],
			"type":"VEC3"
		},
		{
			"bufferView":1,
			"componentType":5126,
			"count":385,
			"type":"VEC3"
		},
		{
			"bufferView":2,
			"componentType":5126,
			"count":385,
			"type":"VEC2"
		},
		{
			"bufferView":3,
			"componentType":5126,
			"count":385,
			"type":"VEC2"
		},
		{
			"bufferView":4,
			"componentType":5123,
			"count":411,
			"type":"SCALAR"
		}
	],
	"bufferViews":[
		{
			"buffer":0,
			"byteLength":4620,
			"byteOffset":0,
			"target":34962
		},
		{
			"buffer":0,
			"byteLength":4620,
			"byteOffset":4620,
			"target":34962
		},
		{
			"buffer":0,
			"byteLength":3080,
			"byteOffset":9240,
			"target":34962
		},
		{
			"buffer":0,
			"byteLength":3080,
			"byteOffset":12320,
			"target":34962
		},
		{
			"buffer":0,
			"byteLength":822,
			"byteOffset":15400,
			"target":34963
		}
	],
	"samplers":[
		{
			"magFilter":9729,
			"minFilter":9987
		}
	],
	"buffers":[
		{
			"byteLength":16224,
			"uri":"SM_Gen_Env_Flowers_06.bin"
		}
	]
}
