{
	"asset":{
		"generator":"Khronos glTF Blender I/O v4.2.70",
		"version":"2.0"
	},
	"scene":0,
	"scenes":[
		{
			"name":"Scene",
			"nodes":[
				0
			]
		}
	],
	"nodes":[
		{
			"mesh":0,
			"name":"SM_Gen_Env_Ground_River_Grass_Large_01",
			"rotation":[
				0.7071068286895752,
				0,
				0,
				0.7071068286895752
			],
			"scale":[
				0.009999999776482582,
				0.009999999776482582,
				0.009999999776482582
			]
		}
	],
	"materials":[
		{
			"doubleSided":true,
			"name":"Polygon_Generic_01A32",
			"pbrMetallicRoughness":{
				"baseColorTexture":{
					"index":0
				},
				"metallicFactor":0,
				"roughnessFactor":0.5527864098548889
			}
		}
	],
	"meshes":[
		{
			"name":"Mesh",
			"primitives":[
				{
					"attributes":{
						"POSITION":0,
						"NORMAL":1,
						"TEXCOORD_0":2
					},
					"indices":3,
					"material":0
				}
			]
		}
	],
	"textures":[
		{
			"sampler":0,
			"source":0
		}
	],
	"images":[
		{
			"mimeType":"image/png",
			"name":"Generic_01_A",
			"uri":"Generic_01_A.png"
		}
	],
	"accessors":[
		{
			"bufferView":0,
			"componentType":5126,
			"count":2458,
			"max":[
				1547.762939453125,
				1969.5078125,
				520.5072021484375
			],
			"min":[
				-1213.3433837890625,
				-1361.73193359375,
				-63.8626594543457
			],
			"type":"VEC3"
		},
		{
			"bufferView":1,
			"componentType":5126,
			"count":2458,
			"type":"VEC3"
		},
		{
			"bufferView":2,
			"componentType":5126,
			"count":2458,
			"type":"VEC2"
		},
		{
			"bufferView":3,
			"componentType":5123,
			"count":2766,
			"type":"SCALAR"
		}
	],
	"bufferViews":[
		{
			"buffer":0,
			"byteLength":29496,
			"byteOffset":0,
			"target":34962
		},
		{
			"buffer":0,
			"byteLength":29496,
			"byteOffset":29496,
			"target":34962
		},
		{
			"buffer":0,
			"byteLength":19664,
			"byteOffset":58992,
			"target":34962
		},
		{
			"buffer":0,
			"byteLength":5532,
			"byteOffset":78656,
			"target":34963
		}
	],
	"samplers":[
		{
			"magFilter":9729,
			"minFilter":9987
		}
	],
	"buffers":[
		{
			"byteLength":84188,
			"uri":"SM_Gen_Env_Ground_River_Grass_Large_01.bin"
		}
	]
}
