{
	"asset":{
		"generator":"Khronos glTF Blender I/O v4.2.70",
		"version":"2.0"
	},
	"scene":0,
	"scenes":[
		{
			"name":"Scene",
			"nodes":[
				0
			]
		}
	],
	"nodes":[
		{
			"mesh":0,
			"name":"SM_Gen_Bld_Background_05",
			"rotation":[
				0.7071068286895752,
				0,
				0,
				0.7071068286895752
			],
			"scale":[
				0.009999999776482582,
				0.009999999776482582,
				0.009999999776482582
			]
		}
	],
	"materials":[
		{
			"doubleSided":true,
			"name":"Polygon9",
			"pbrMetallicRoughness":{
				"metallicFactor":0,
				"roughnessFactor":0.5527864098548889
			}
		},
		{
			"doubleSided":true,
			"name":"A_Glass20",
			"pbrMetallicRoughness":{
				"metallicFactor":0,
				"roughnessFactor":0.5527864098548889
			}
		}
	],
	"meshes":[
		{
			"name":"Mesh",
			"primitives":[
				{
					"attributes":{
						"POSITION":0,
						"NORMAL":1,
						"TEXCOORD_0":2
					},
					"indices":3,
					"material":0
				},
				{
					"attributes":{
						"POSITION":4,
						"NORMAL":5,
						"TEXCOORD_0":6
					},
					"indices":7,
					"material":1
				}
			]
		}
	],
	"accessors":[
		{
			"bufferView":0,
			"componentType":5126,
			"count":866,
			"max":[
				438.1865234375,
				264.4801025390625,
				0
			],
			"min":[
				-438.185546875,
				-264.4801025390625,
				-1298.30419921875
			],
			"type":"VEC3"
		},
		{
			"bufferView":1,
			"componentType":5126,
			"count":866,
			"type":"VEC3"
		},
		{
			"bufferView":2,
			"componentType":5126,
			"count":866,
			"type":"VEC2"
		},
		{
			"bufferView":3,
			"componentType":5123,
			"count":1623,
			"type":"SCALAR"
		},
		{
			"bufferView":4,
			"componentType":5126,
			"count":24,
			"max":[
				396.541015625,
				199.0045166015625,
				-18.00103759765625
			],
			"min":[
				-389.58935546875,
				-203.36767578125,
				-1265.5738525390625
			],
			"type":"VEC3"
		},
		{
			"bufferView":5,
			"componentType":5126,
			"count":24,
			"type":"VEC3"
		},
		{
			"bufferView":6,
			"componentType":5126,
			"count":24,
			"type":"VEC2"
		},
		{
			"bufferView":7,
			"componentType":5123,
			"count":36,
			"type":"SCALAR"
		}
	],
	"bufferViews":[
		{
			"buffer":0,
			"byteLength":10392,
			"byteOffset":0,
			"target":34962
		},
		{
			"buffer":0,
			"byteLength":10392,
			"byteOffset":10392,
			"target":34962
		},
		{
			"buffer":0,
			"byteLength":6928,
			"byteOffset":20784,
			"target":34962
		},
		{
			"buffer":0,
			"byteLength":3246,
			"byteOffset":27712,
			"target":34963
		},
		{
			"buffer":0,
			"byteLength":288,
			"byteOffset":30960,
			"target":34962
		},
		{
			"buffer":0,
			"byteLength":288,
			"byteOffset":31248,
			"target":34962
		},
		{
			"buffer":0,
			"byteLength":192,
			"byteOffset":31536,
			"target":34962
		},
		{
			"buffer":0,
			"byteLength":72,
			"byteOffset":31728,
			"target":34963
		}
	],
	"buffers":[
		{
			"byteLength":31800,
			"uri":"SM_Gen_Bld_Background_05.bin"
		}
	]
}
