{
	"asset":{
		"generator":"Khronos glTF Blender I/O v4.2.70",
		"version":"2.0"
	},
	"scene":0,
	"scenes":[
		{
			"name":"Scene",
			"nodes":[
				0
			]
		}
	],
	"nodes":[
		{
			"mesh":0,
			"name":"SM_Gen_Env_Grass_07",
			"rotation":[
				0.7071068286895752,
				0,
				0,
				0.7071068286895752
			],
			"scale":[
				0.009999999776482582,
				0.009999999776482582,
				0.009999999776482582
			]
		}
	],
	"materials":[
		{
			"doubleSided":true,
			"name":"Polygon_Generic_01A",
			"pbrMetallicRoughness":{
				"baseColorTexture":{
					"index":0
				},
				"metallicFactor":0,
				"roughnessFactor":0.5527864098548889
			}
		}
	],
	"meshes":[
		{
			"name":"Mesh",
			"primitives":[
				{
					"attributes":{
						"POSITION":0,
						"NORMAL":1,
						"TEXCOORD_0":2,
						"TEXCOORD_1":3
					},
					"indices":4,
					"material":0
				}
			]
		}
	],
	"textures":[
		{
			"sampler":0,
			"source":0
		}
	],
	"images":[
		{
			"mimeType":"image/png",
			"name":"Generic_01_A",
			"uri":"Generic_01_A.png"
		}
	],
	"accessors":[
		{
			"bufferView":0,
			"componentType":5126,
			"count":12504,
			"max":[
				372.19482421875,
				375.132568359375,
				10.586307525634766
			],
			"min":[
				-436.110107421875,
				-385.48065185546875,
				-74.46549224853516
			],
			"type":"VEC3"
		},
		{
			"bufferView":1,
			"componentType":5126,
			"count":12504,
			"type":"VEC3"
		},
		{
			"bufferView":2,
			"componentType":5126,
			"count":12504,
			"type":"VEC2"
		},
		{
			"bufferView":3,
			"componentType":5126,
			"count":12504,
			"type":"VEC2"
		},
		{
			"bufferView":4,
			"componentType":5123,
			"count":16998,
			"type":"SCALAR"
		}
	],
	"bufferViews":[
		{
			"buffer":0,
			"byteLength":150048,
			"byteOffset":0,
			"target":34962
		},
		{
			"buffer":0,
			"byteLength":150048,
			"byteOffset":150048,
			"target":34962
		},
		{
			"buffer":0,
			"byteLength":100032,
			"byteOffset":300096,
			"target":34962
		},
		{
			"buffer":0,
			"byteLength":100032,
			"byteOffset":400128,
			"target":34962
		},
		{
			"buffer":0,
			"byteLength":33996,
			"byteOffset":500160,
			"target":34963
		}
	],
	"samplers":[
		{
			"magFilter":9729,
			"minFilter":9987
		}
	],
	"buffers":[
		{
			"byteLength":534156,
			"uri":"SM_Gen_Env_Grass_07.bin"
		}
	]
}
