{
	"asset":{
		"generator":"Khronos glTF Blender I/O v4.2.70",
		"version":"2.0"
	},
	"scene":0,
	"scenes":[
		{
			"name":"Scene",
			"nodes":[
				0
			]
		}
	],
	"nodes":[
		{
			"mesh":0,
			"name":"SM_Gen_Env_Tree_Pine_01",
			"rotation":[
				0.7071068286895752,
				0,
				0,
				0.7071068286895752
			],
			"scale":[
				0.009999999776482582,
				0.009999999776482582,
				0.009999999776482582
			]
		}
	],
	"materials":[
		{
			"doubleSided":true,
			"name":"Polygon_Generic_01A",
			"pbrMetallicRoughness":{
				"baseColorTexture":{
					"index":0
				},
				"metallicFactor":0,
				"roughnessFactor":0.5527864098548889
			}
		}
	],
	"meshes":[
		{
			"name":"Mesh",
			"primitives":[
				{
					"attributes":{
						"POSITION":0,
						"NORMAL":1,
						"TEXCOORD_0":2,
						"COLOR_0":3,
						"COLOR_1":4
					},
					"indices":5,
					"material":0
				}
			]
		}
	],
	"textures":[
		{
			"sampler":0,
			"source":0
		}
	],
	"images":[
		{
			"mimeType":"image/png",
			"name":"Generic_01_A",
			"uri":"Generic_01_A.png"
		}
	],
	"accessors":[
		{
			"bufferView":0,
			"componentType":5126,
			"count":1665,
			"max":[
				94.5125503540039,
				89.6385726928711,
				20.684906005859375
			],
			"min":[
				-93.09925842285156,
				-90.95067596435547,
				-926.3251342773438
			],
			"type":"VEC3"
		},
		{
			"bufferView":1,
			"componentType":5126,
			"count":1665,
			"type":"VEC3"
		},
		{
			"bufferView":2,
			"componentType":5126,
			"count":1665,
			"type":"VEC2"
		},
		{
			"bufferView":3,
			"componentType":5121,
			"count":1665,
			"normalized":true,
			"type":"VEC4"
		},
		{
			"bufferView":4,
			"componentType":5126,
			"count":1665,
			"type":"VEC3"
		},
		{
			"bufferView":5,
			"componentType":5123,
			"count":1677,
			"type":"SCALAR"
		}
	],
	"bufferViews":[
		{
			"buffer":0,
			"byteLength":19980,
			"byteOffset":0,
			"target":34962
		},
		{
			"buffer":0,
			"byteLength":19980,
			"byteOffset":19980,
			"target":34962
		},
		{
			"buffer":0,
			"byteLength":13320,
			"byteOffset":39960,
			"target":34962
		},
		{
			"buffer":0,
			"byteLength":6660,
			"byteOffset":53280,
			"target":34962
		},
		{
			"buffer":0,
			"byteLength":19980,
			"byteOffset":59940,
			"target":34962
		},
		{
			"buffer":0,
			"byteLength":3354,
			"byteOffset":79920,
			"target":34963
		}
	],
	"samplers":[
		{
			"magFilter":9729,
			"minFilter":9987
		}
	],
	"buffers":[
		{
			"byteLength":83276,
			"uri":"SM_Gen_Env_Tree_Pine_01.bin"
		}
	]
}
