{
	"asset":{
		"generator":"Khronos glTF Blender I/O v4.2.70",
		"version":"2.0"
	},
	"scene":0,
	"scenes":[
		{
			"name":"Scene",
			"nodes":[
				0
			]
		}
	],
	"nodes":[
		{
			"mesh":0,
			"name":"SM_Gen_Env_Water_Plane_01",
			"rotation":[
				0.7071068286895752,
				0,
				0,
				0.7071068286895752
			],
			"scale":[
				0.009999999776482582,
				0.009999999776482582,
				0.009999999776482582
			]
		}
	],
	"materials":[
		{
			"doubleSided":true,
			"name":"Polygon_Generic_01A",
			"pbrMetallicRoughness":{
				"baseColorTexture":{
					"index":0
				},
				"metallicFactor":0,
				"roughnessFactor":0.5527864098548889
			}
		}
	],
	"meshes":[
		{
			"name":"Mesh",
			"primitives":[
				{
					"attributes":{
						"POSITION":0,
						"NORMAL":1,
						"TEXCOORD_0":2
					},
					"indices":3,
					"material":0
				}
			]
		}
	],
	"textures":[
		{
			"sampler":0,
			"source":0
		}
	],
	"images":[
		{
			"mimeType":"image/png",
			"name":"Generic_Water_Texture_02",
			"uri":"Generic_Water_Texture_02.png"
		}
	],
	"accessors":[
		{
			"bufferView":0,
			"componentType":5126,
			"count":1089,
			"max":[
				2500,
				2500,
				0
			],
			"min":[
				-2500,
				-2500,
				0
			],
			"type":"VEC3"
		},
		{
			"bufferView":1,
			"componentType":5126,
			"count":1089,
			"type":"VEC3"
		},
		{
			"bufferView":2,
			"componentType":5126,
			"count":1089,
			"type":"VEC2"
		},
		{
			"bufferView":3,
			"componentType":5123,
			"count":6144,
			"type":"SCALAR"
		}
	],
	"bufferViews":[
		{
			"buffer":0,
			"byteLength":13068,
			"byteOffset":0,
			"target":34962
		},
		{
			"buffer":0,
			"byteLength":13068,
			"byteOffset":13068,
			"target":34962
		},
		{
			"buffer":0,
			"byteLength":8712,
			"byteOffset":26136,
			"target":34962
		},
		{
			"buffer":0,
			"byteLength":12288,
			"byteOffset":34848,
			"target":34963
		}
	],
	"samplers":[
		{
			"magFilter":9729,
			"minFilter":9987
		}
	],
	"buffers":[
		{
			"byteLength":47136,
			"uri":"SM_Gen_Env_Water_Plane_01.bin"
		}
	]
}
