{
	"asset":{
		"generator":"Khronos glTF Blender I/O v4.2.70",
		"version":"2.0"
	},
	"scene":0,
	"scenes":[
		{
			"name":"Scene",
			"nodes":[
				0
			]
		}
	],
	"nodes":[
		{
			"mesh":0,
			"name":"SM_Gen_Bld_Background_06",
			"rotation":[
				0.7071068286895752,
				0,
				0,
				0.7071068286895752
			],
			"scale":[
				0.009999999776482582,
				0.009999999776482582,
				0.009999999776482582
			]
		}
	],
	"materials":[
		{
			"doubleSided":true,
			"name":"Polygon10",
			"pbrMetallicRoughness":{
				"metallicFactor":0,
				"roughnessFactor":0.5527864098548889
			}
		},
		{
			"doubleSided":true,
			"name":"A_Glass21",
			"pbrMetallicRoughness":{
				"metallicFactor":0,
				"roughnessFactor":0.5527864098548889
			}
		}
	],
	"meshes":[
		{
			"name":"Mesh",
			"primitives":[
				{
					"attributes":{
						"POSITION":0,
						"NORMAL":1,
						"TEXCOORD_0":2
					},
					"indices":3,
					"material":0
				},
				{
					"attributes":{
						"POSITION":4,
						"NORMAL":5,
						"TEXCOORD_0":6
					},
					"indices":7,
					"material":1
				}
			]
		}
	],
	"accessors":[
		{
			"bufferView":0,
			"componentType":5126,
			"count":1488,
			"max":[
				413.2958984375,
				412.68408203125,
				0
			],
			"min":[
				-413.2958984375,
				-412.68408203125,
				-2292.552001953125
			],
			"type":"VEC3"
		},
		{
			"bufferView":1,
			"componentType":5126,
			"count":1488,
			"type":"VEC3"
		},
		{
			"bufferView":2,
			"componentType":5126,
			"count":1488,
			"type":"VEC2"
		},
		{
			"bufferView":3,
			"componentType":5123,
			"count":2340,
			"type":"SCALAR"
		},
		{
			"bufferView":4,
			"componentType":5126,
			"count":16,
			"max":[
				385.677734375,
				383.9494934082031,
				-15.909492492675781
			],
			"min":[
				-385.681640625,
				-387.4094543457031,
				-2126.253662109375
			],
			"type":"VEC3"
		},
		{
			"bufferView":5,
			"componentType":5126,
			"count":16,
			"type":"VEC3"
		},
		{
			"bufferView":6,
			"componentType":5126,
			"count":16,
			"type":"VEC2"
		},
		{
			"bufferView":7,
			"componentType":5123,
			"count":24,
			"type":"SCALAR"
		}
	],
	"bufferViews":[
		{
			"buffer":0,
			"byteLength":17856,
			"byteOffset":0,
			"target":34962
		},
		{
			"buffer":0,
			"byteLength":17856,
			"byteOffset":17856,
			"target":34962
		},
		{
			"buffer":0,
			"byteLength":11904,
			"byteOffset":35712,
			"target":34962
		},
		{
			"buffer":0,
			"byteLength":4680,
			"byteOffset":47616,
			"target":34963
		},
		{
			"buffer":0,
			"byteLength":192,
			"byteOffset":52296,
			"target":34962
		},
		{
			"buffer":0,
			"byteLength":192,
			"byteOffset":52488,
			"target":34962
		},
		{
			"buffer":0,
			"byteLength":128,
			"byteOffset":52680,
			"target":34962
		},
		{
			"buffer":0,
			"byteLength":48,
			"byteOffset":52808,
			"target":34963
		}
	],
	"buffers":[
		{
			"byteLength":52856,
			"uri":"SM_Gen_Bld_Background_06.bin"
		}
	]
}
