{
	"asset":{
		"generator":"Khronos glTF Blender I/O v4.2.70",
		"version":"2.0"
	},
	"scene":0,
	"scenes":[
		{
			"name":"Scene",
			"nodes":[
				0
			]
		}
	],
	"nodes":[
		{
			"mesh":0,
			"name":"SM_Gen_Prop_Manhole_01",
			"rotation":[
				0.7071068286895752,
				0,
				0,
				0.7071068286895752
			],
			"scale":[
				0.009999999776482582,
				0.009999999776482582,
				0.009999999776482582
			]
		}
	],
	"materials":[
		{
			"doubleSided":true,
			"name":"Polygon_Generic_01A",
			"pbrMetallicRoughness":{
				"metallicFactor":0,
				"roughnessFactor":0.5527864098548889
			}
		}
	],
	"meshes":[
		{
			"name":"Mesh",
			"primitives":[
				{
					"attributes":{
						"POSITION":0,
						"NORMAL":1,
						"TEXCOORD_0":2,
						"TEXCOORD_1":3
					},
					"indices":4,
					"material":0
				}
			]
		}
	],
	"accessors":[
		{
			"bufferView":0,
			"componentType":5126,
			"count":561,
			"max":[
				73.58272552490234,
				71.46442413330078,
				0
			],
			"min":[
				-73.58263397216797,
				-72.01116943359375,
				-5.36188268661499
			],
			"type":"VEC3"
		},
		{
			"bufferView":1,
			"componentType":5126,
			"count":561,
			"type":"VEC3"
		},
		{
			"bufferView":2,
			"componentType":5126,
			"count":561,
			"type":"VEC2"
		},
		{
			"bufferView":3,
			"componentType":5126,
			"count":561,
			"type":"VEC2"
		},
		{
			"bufferView":4,
			"componentType":5123,
			"count":1032,
			"type":"SCALAR"
		}
	],
	"bufferViews":[
		{
			"buffer":0,
			"byteLength":6732,
			"byteOffset":0,
			"target":34962
		},
		{
			"buffer":0,
			"byteLength":6732,
			"byteOffset":6732,
			"target":34962
		},
		{
			"buffer":0,
			"byteLength":4488,
			"byteOffset":13464,
			"target":34962
		},
		{
			"buffer":0,
			"byteLength":4488,
			"byteOffset":17952,
			"target":34962
		},
		{
			"buffer":0,
			"byteLength":2064,
			"byteOffset":22440,
			"target":34963
		}
	],
	"buffers":[
		{
			"byteLength":24504,
			"uri":"SM_Gen_Prop_Manhole_01.bin"
		}
	]
}
