{
	"asset":{
		"generator":"Khronos glTF Blender I/O v4.2.70",
		"version":"2.0"
	},
	"scene":0,
	"scenes":[
		{
			"name":"Scene",
			"nodes":[
				0
			]
		}
	],
	"nodes":[
		{
			"mesh":0,
			"name":"SM_Gen_Env_Ground_Slope__Grass_01",
			"rotation":[
				0.7071068286895752,
				0,
				0,
				0.7071068286895752
			],
			"scale":[
				0.009999999776482582,
				0.009999999776482582,
				0.009999999776482582
			]
		}
	],
	"materials":[
		{
			"doubleSided":true,
			"name":"Polygon_Generic_01A36",
			"pbrMetallicRoughness":{
				"baseColorTexture":{
					"index":0
				},
				"metallicFactor":0,
				"roughnessFactor":0.5527864098548889
			}
		}
	],
	"meshes":[
		{
			"name":"Mesh",
			"primitives":[
				{
					"attributes":{
						"POSITION":0,
						"NORMAL":1,
						"TEXCOORD_0":2,
						"TEXCOORD_1":3
					},
					"indices":4,
					"material":0
				}
			]
		}
	],
	"textures":[
		{
			"sampler":0,
			"source":0
		}
	],
	"images":[
		{
			"mimeType":"image/png",
			"name":"Generic_01_A",
			"uri":"Generic_01_A.png"
		}
	],
	"accessors":[
		{
			"bufferView":0,
			"componentType":5126,
			"count":1022,
			"max":[
				639.8269653320312,
				1372.5723876953125,
				148.70314025878906
			],
			"min":[
				-611.4617309570312,
				-1124.14599609375,
				-349.4850158691406
			],
			"type":"VEC3"
		},
		{
			"bufferView":1,
			"componentType":5126,
			"count":1022,
			"type":"VEC3"
		},
		{
			"bufferView":2,
			"componentType":5126,
			"count":1022,
			"type":"VEC2"
		},
		{
			"bufferView":3,
			"componentType":5126,
			"count":1022,
			"type":"VEC2"
		},
		{
			"bufferView":4,
			"componentType":5123,
			"count":1128,
			"type":"SCALAR"
		}
	],
	"bufferViews":[
		{
			"buffer":0,
			"byteLength":12264,
			"byteOffset":0,
			"target":34962
		},
		{
			"buffer":0,
			"byteLength":12264,
			"byteOffset":12264,
			"target":34962
		},
		{
			"buffer":0,
			"byteLength":8176,
			"byteOffset":24528,
			"target":34962
		},
		{
			"buffer":0,
			"byteLength":8176,
			"byteOffset":32704,
			"target":34962
		},
		{
			"buffer":0,
			"byteLength":2256,
			"byteOffset":40880,
			"target":34963
		}
	],
	"samplers":[
		{
			"magFilter":9729,
			"minFilter":9987
		}
	],
	"buffers":[
		{
			"byteLength":43136,
			"uri":"SM_Gen_Env_Ground_Slope_Grass_01.bin"
		}
	]
}
