{
	"asset":{
		"generator":"Khronos glTF Blender I/O v4.2.70",
		"version":"2.0"
	},
	"scene":0,
	"scenes":[
		{
			"name":"Scene",
			"nodes":[
				0
			]
		}
	],
	"nodes":[
		{
			"mesh":0,
			"name":"SM_Gen_Env_Leaves_Pile_01",
			"rotation":[
				0.7071068286895752,
				0,
				0,
				0.7071068286895752
			],
			"scale":[
				0.009999999776482582,
				0.009999999776482582,
				0.009999999776482582
			]
		}
	],
	"materials":[
		{
			"doubleSided":true,
			"name":"Polygon_Generic_01A",
			"pbrMetallicRoughness":{
				"baseColorTexture":{
					"index":0
				},
				"metallicFactor":0,
				"roughnessFactor":0.5527864098548889
			}
		}
	],
	"meshes":[
		{
			"name":"Mesh",
			"primitives":[
				{
					"attributes":{
						"POSITION":0,
						"NORMAL":1,
						"TEXCOORD_0":2
					},
					"indices":3,
					"material":0
				}
			]
		}
	],
	"textures":[
		{
			"sampler":0,
			"source":0
		}
	],
	"images":[
		{
			"mimeType":"image/png",
			"name":"Generic_01_A",
			"uri":"Generic_01_A.png"
		}
	],
	"accessors":[
		{
			"bufferView":0,
			"componentType":5126,
			"count":999,
			"max":[
				129.49554443359375,
				73.88993835449219,
				7.005861759185791
			],
			"min":[
				-113.8314208984375,
				-114.90579986572266,
				-24.371925354003906
			],
			"type":"VEC3"
		},
		{
			"bufferView":1,
			"componentType":5126,
			"count":999,
			"type":"VEC3"
		},
		{
			"bufferView":2,
			"componentType":5126,
			"count":999,
			"type":"VEC2"
		},
		{
			"bufferView":3,
			"componentType":5123,
			"count":999,
			"type":"SCALAR"
		}
	],
	"bufferViews":[
		{
			"buffer":0,
			"byteLength":11988,
			"byteOffset":0,
			"target":34962
		},
		{
			"buffer":0,
			"byteLength":11988,
			"byteOffset":11988,
			"target":34962
		},
		{
			"buffer":0,
			"byteLength":7992,
			"byteOffset":23976,
			"target":34962
		},
		{
			"buffer":0,
			"byteLength":1998,
			"byteOffset":31968,
			"target":34963
		}
	],
	"samplers":[
		{
			"magFilter":9729,
			"minFilter":9987
		}
	],
	"buffers":[
		{
			"byteLength":33968,
			"uri":"SM_Gen_Env_Leaves_Pile_01.bin"
		}
	]
}
