{
	"asset":{
		"generator":"Khronos glTF Blender I/O v4.2.70",
		"version":"2.0"
	},
	"scene":0,
	"scenes":[
		{
			"name":"Scene",
			"nodes":[
				0
			]
		}
	],
	"nodes":[
		{
			"mesh":0,
			"name":"SM_Gen_Env_Ivy_11",
			"rotation":[
				0.7071068286895752,
				0,
				0,
				0.7071068286895752
			],
			"scale":[
				0.009999999776482582,
				0.009999999776482582,
				0.009999999776482582
			]
		}
	],
	"materials":[
		{
			"doubleSided":true,
			"name":"Polygon_Generic_01A",
			"pbrMetallicRoughness":{
				"baseColorTexture":{
					"index":0
				},
				"metallicFactor":0,
				"roughnessFactor":0.5527864098548889
			}
		}
	],
	"meshes":[
		{
			"name":"Mesh",
			"primitives":[
				{
					"attributes":{
						"POSITION":0,
						"NORMAL":1,
						"TEXCOORD_0":2
					},
					"indices":3,
					"material":0
				}
			]
		}
	],
	"textures":[
		{
			"sampler":0,
			"source":0
		}
	],
	"images":[
		{
			"mimeType":"image/png",
			"name":"Generic_Ivy",
			"uri":"Generic_Ivy.png"
		}
	],
	"accessors":[
		{
			"bufferView":0,
			"componentType":5126,
			"count":390,
			"max":[
				140.6234588623047,
				9.76637077331543,
				56.4228515625
			],
			"min":[
				-156.86154174804688,
				0.327130526304245,
				-85.58447265625
			],
			"type":"VEC3"
		},
		{
			"bufferView":1,
			"componentType":5126,
			"count":390,
			"type":"VEC3"
		},
		{
			"bufferView":2,
			"componentType":5126,
			"count":390,
			"type":"VEC2"
		},
		{
			"bufferView":3,
			"componentType":5123,
			"count":414,
			"type":"SCALAR"
		}
	],
	"bufferViews":[
		{
			"buffer":0,
			"byteLength":4680,
			"byteOffset":0,
			"target":34962
		},
		{
			"buffer":0,
			"byteLength":4680,
			"byteOffset":4680,
			"target":34962
		},
		{
			"buffer":0,
			"byteLength":3120,
			"byteOffset":9360,
			"target":34962
		},
		{
			"buffer":0,
			"byteLength":828,
			"byteOffset":12480,
			"target":34963
		}
	],
	"samplers":[
		{
			"magFilter":9729,
			"minFilter":9987
		}
	],
	"buffers":[
		{
			"byteLength":13308,
			"uri":"SM_Gen_Env_Ivy_11.bin"
		}
	]
}
