{
	"asset":{
		"generator":"Khronos glTF Blender I/O v4.2.70",
		"version":"2.0"
	},
	"scene":0,
	"scenes":[
		{
			"name":"Scene",
			"nodes":[
				0
			]
		}
	],
	"nodes":[
		{
			"mesh":0,
			"name":"SM_Gen_Env_Hill_04",
			"rotation":[
				0.7071068286895752,
				0,
				0,
				0.7071068286895752
			],
			"scale":[
				0.009999999776482582,
				0.009999999776482582,
				0.009999999776482582
			]
		}
	],
	"materials":[
		{
			"doubleSided":true,
			"name":"Polygon_Generic_01A41",
			"pbrMetallicRoughness":{
				"metallicFactor":0,
				"roughnessFactor":0.5527864098548889
			}
		}
	],
	"meshes":[
		{
			"name":"Mesh",
			"primitives":[
				{
					"attributes":{
						"POSITION":0,
						"NORMAL":1,
						"TEXCOORD_0":2,
						"TEXCOORD_1":3
					},
					"indices":4,
					"material":0
				}
			]
		}
	],
	"accessors":[
		{
			"bufferView":0,
			"componentType":5126,
			"count":459,
			"max":[
				1260.500244140625,
				1682.9117431640625,
				2.296905222465284e-05
			],
			"min":[
				-745.5818481445312,
				-1707.1116943359375,
				-515.849853515625
			],
			"type":"VEC3"
		},
		{
			"bufferView":1,
			"componentType":5126,
			"count":459,
			"type":"VEC3"
		},
		{
			"bufferView":2,
			"componentType":5126,
			"count":459,
			"type":"VEC2"
		},
		{
			"bufferView":3,
			"componentType":5126,
			"count":459,
			"type":"VEC2"
		},
		{
			"bufferView":4,
			"componentType":5123,
			"count":489,
			"type":"SCALAR"
		}
	],
	"bufferViews":[
		{
			"buffer":0,
			"byteLength":5508,
			"byteOffset":0,
			"target":34962
		},
		{
			"buffer":0,
			"byteLength":5508,
			"byteOffset":5508,
			"target":34962
		},
		{
			"buffer":0,
			"byteLength":3672,
			"byteOffset":11016,
			"target":34962
		},
		{
			"buffer":0,
			"byteLength":3672,
			"byteOffset":14688,
			"target":34962
		},
		{
			"buffer":0,
			"byteLength":978,
			"byteOffset":18360,
			"target":34963
		}
	],
	"buffers":[
		{
			"byteLength":19340,
			"uri":"SM_Gen_Env_Hill_04.bin"
		}
	]
}
