{
	"asset":{
		"generator":"Khronos glTF Blender I/O v4.2.70",
		"version":"2.0"
	},
	"scene":0,
	"scenes":[
		{
			"name":"Scene",
			"nodes":[
				0
			]
		}
	],
	"nodes":[
		{
			"mesh":0,
			"name":"SM_Gen_Prop_Crate_03",
			"rotation":[
				0.7071068286895752,
				0,
				0,
				0.7071068286895752
			],
			"scale":[
				0.009999999776482582,
				0.009999999776482582,
				0.009999999776482582
			]
		}
	],
	"materials":[
		{
			"doubleSided":true,
			"name":"Polygon_Generic_01A",
			"pbrMetallicRoughness":{
				"baseColorTexture":{
					"index":0
				},
				"metallicFactor":0,
				"roughnessFactor":0.5527864098548889
			}
		}
	],
	"meshes":[
		{
			"name":"Mesh",
			"primitives":[
				{
					"attributes":{
						"POSITION":0,
						"NORMAL":1,
						"TEXCOORD_0":2,
						"TEXCOORD_1":3
					},
					"indices":4,
					"material":0
				}
			]
		}
	],
	"textures":[
		{
			"sampler":0,
			"source":0
		}
	],
	"images":[
		{
			"mimeType":"image/png",
			"name":"Generic_01_A",
			"uri":"Generic_01_A.png"
		}
	],
	"accessors":[
		{
			"bufferView":0,
			"componentType":5126,
			"count":1527,
			"max":[
				42.86387252807617,
				42.863948822021484,
				0
			],
			"min":[
				-42.86390686035156,
				-42.86363983154297,
				-85.72784423828125
			],
			"type":"VEC3"
		},
		{
			"bufferView":1,
			"componentType":5126,
			"count":1527,
			"type":"VEC3"
		},
		{
			"bufferView":2,
			"componentType":5126,
			"count":1527,
			"type":"VEC2"
		},
		{
			"bufferView":3,
			"componentType":5126,
			"count":1527,
			"type":"VEC2"
		},
		{
			"bufferView":4,
			"componentType":5123,
			"count":2901,
			"type":"SCALAR"
		}
	],
	"bufferViews":[
		{
			"buffer":0,
			"byteLength":18324,
			"byteOffset":0,
			"target":34962
		},
		{
			"buffer":0,
			"byteLength":18324,
			"byteOffset":18324,
			"target":34962
		},
		{
			"buffer":0,
			"byteLength":12216,
			"byteOffset":36648,
			"target":34962
		},
		{
			"buffer":0,
			"byteLength":12216,
			"byteOffset":48864,
			"target":34962
		},
		{
			"buffer":0,
			"byteLength":5802,
			"byteOffset":61080,
			"target":34963
		}
	],
	"samplers":[
		{
			"magFilter":9729,
			"minFilter":9987
		}
	],
	"buffers":[
		{
			"byteLength":66884,
			"uri":"SM_Gen_Prop_Crate_03.bin"
		}
	]
}
