{
	"asset":{
		"generator":"Khronos glTF Blender I/O v4.2.70",
		"version":"2.0"
	},
	"scene":0,
	"scenes":[
		{
			"name":"Scene",
			"nodes":[
				0
			]
		}
	],
	"nodes":[
		{
			"mesh":0,
			"name":"SM_Gen_Prop_Statue_01",
			"rotation":[
				0.7071068286895752,
				0,
				0,
				0.7071068286895752
			],
			"scale":[
				0.009999999776482582,
				0.009999999776482582,
				0.009999999776482582
			]
		}
	],
	"materials":[
		{
			"doubleSided":true,
			"name":"Viking_01A",
			"pbrMetallicRoughness":{
				"baseColorTexture":{
					"index":0
				},
				"metallicFactor":0,
				"roughnessFactor":0.5527864098548889
			}
		}
	],
	"meshes":[
		{
			"name":"Mesh",
			"primitives":[
				{
					"attributes":{
						"POSITION":0,
						"NORMAL":1,
						"TEXCOORD_0":2,
						"COLOR_0":3,
						"COLOR_1":4
					},
					"indices":5,
					"material":0
				}
			]
		}
	],
	"textures":[
		{
			"sampler":0,
			"source":0
		}
	],
	"images":[
		{
			"mimeType":"image/png",
			"name":"Generic_01_A",
			"uri":"Generic_01_A.png"
		}
	],
	"accessors":[
		{
			"bufferView":0,
			"componentType":5126,
			"count":2990,
			"max":[
				58.52143859863281,
				40.082984924316406,
				1.7141178846359253
			],
			"min":[
				-50.26787567138672,
				-22.856966018676758,
				-178.53866577148438
			],
			"type":"VEC3"
		},
		{
			"bufferView":1,
			"componentType":5126,
			"count":2990,
			"type":"VEC3"
		},
		{
			"bufferView":2,
			"componentType":5126,
			"count":2990,
			"type":"VEC2"
		},
		{
			"bufferView":3,
			"componentType":5121,
			"count":2990,
			"normalized":true,
			"type":"VEC4"
		},
		{
			"bufferView":4,
			"componentType":5126,
			"count":2990,
			"type":"VEC3"
		},
		{
			"bufferView":5,
			"componentType":5123,
			"count":3024,
			"type":"SCALAR"
		}
	],
	"bufferViews":[
		{
			"buffer":0,
			"byteLength":35880,
			"byteOffset":0,
			"target":34962
		},
		{
			"buffer":0,
			"byteLength":35880,
			"byteOffset":35880,
			"target":34962
		},
		{
			"buffer":0,
			"byteLength":23920,
			"byteOffset":71760,
			"target":34962
		},
		{
			"buffer":0,
			"byteLength":11960,
			"byteOffset":95680,
			"target":34962
		},
		{
			"buffer":0,
			"byteLength":35880,
			"byteOffset":107640,
			"target":34962
		},
		{
			"buffer":0,
			"byteLength":6048,
			"byteOffset":143520,
			"target":34963
		}
	],
	"samplers":[
		{
			"magFilter":9729,
			"minFilter":9987
		}
	],
	"buffers":[
		{
			"byteLength":149568,
			"uri":"SM_Gen_Prop_Statue_01.bin"
		}
	]
}
