{
	"asset":{
		"generator":"Khronos glTF Blender I/O v4.2.70",
		"version":"2.0"
	},
	"scene":0,
	"scenes":[
		{
			"name":"Scene",
			"nodes":[
				0
			]
		}
	],
	"nodes":[
		{
			"mesh":0,
			"name":"SM_Gen_Env_Cliff_Pillar_01",
			"rotation":[
				0.7071068286895752,
				0,
				0,
				0.7071068286895752
			],
			"scale":[
				0.009999999776482582,
				0.009999999776482582,
				0.009999999776482582
			]
		}
	],
	"materials":[
		{
			"doubleSided":true,
			"name":"Polygon_Generic_01A",
			"pbrMetallicRoughness":{
				"metallicFactor":0,
				"roughnessFactor":0.5527864098548889
			}
		}
	],
	"meshes":[
		{
			"name":"Mesh",
			"primitives":[
				{
					"attributes":{
						"POSITION":0,
						"NORMAL":1,
						"TEXCOORD_0":2,
						"TEXCOORD_1":3
					},
					"indices":4,
					"material":0
				}
			]
		}
	],
	"accessors":[
		{
			"bufferView":0,
			"componentType":5126,
			"count":654,
			"max":[
				153.56512451171875,
				162.88223266601562,
				-3.818400131673505e-14
			],
			"min":[
				-149.9356689453125,
				-162.88209533691406,
				-955.7344970703125
			],
			"type":"VEC3"
		},
		{
			"bufferView":1,
			"componentType":5126,
			"count":654,
			"type":"VEC3"
		},
		{
			"bufferView":2,
			"componentType":5126,
			"count":654,
			"type":"VEC2"
		},
		{
			"bufferView":3,
			"componentType":5126,
			"count":654,
			"type":"VEC2"
		},
		{
			"bufferView":4,
			"componentType":5123,
			"count":894,
			"type":"SCALAR"
		}
	],
	"bufferViews":[
		{
			"buffer":0,
			"byteLength":7848,
			"byteOffset":0,
			"target":34962
		},
		{
			"buffer":0,
			"byteLength":7848,
			"byteOffset":7848,
			"target":34962
		},
		{
			"buffer":0,
			"byteLength":5232,
			"byteOffset":15696,
			"target":34962
		},
		{
			"buffer":0,
			"byteLength":5232,
			"byteOffset":20928,
			"target":34962
		},
		{
			"buffer":0,
			"byteLength":1788,
			"byteOffset":26160,
			"target":34963
		}
	],
	"buffers":[
		{
			"byteLength":27948,
			"uri":"SM_Gen_Env_Cliff_Pillar_01.bin"
		}
	]
}
