{
	"asset":{
		"generator":"Khronos glTF Blender I/O v4.2.70",
		"version":"2.0"
	},
	"scene":0,
	"scenes":[
		{
			"name":"Scene",
			"nodes":[
				0
			]
		}
	],
	"nodes":[
		{
			"mesh":0,
			"name":"SM_Gen_Env_Cloud_03",
			"rotation":[
				0.7071068286895752,
				0,
				0,
				0.7071068286895752
			],
			"scale":[
				0.009999999776482582,
				0.009999999776482582,
				0.009999999776482582
			]
		}
	],
	"materials":[
		{
			"doubleSided":true,
			"name":"Polygon_Generic_01A",
			"pbrMetallicRoughness":{
				"metallicFactor":0,
				"roughnessFactor":0.5527864098548889
			}
		}
	],
	"meshes":[
		{
			"name":"Mesh",
			"primitives":[
				{
					"attributes":{
						"POSITION":0,
						"NORMAL":1,
						"TEXCOORD_0":2
					},
					"indices":3,
					"material":0
				}
			]
		}
	],
	"accessors":[
		{
			"bufferView":0,
			"componentType":5126,
			"count":1470,
			"max":[
				2208.1796875,
				1221.0465087890625,
				-1.2141177820057525e-13
			],
			"min":[
				-2208.1796875,
				-1221.0465087890625,
				-720.183837890625
			],
			"type":"VEC3"
		},
		{
			"bufferView":1,
			"componentType":5126,
			"count":1470,
			"type":"VEC3"
		},
		{
			"bufferView":2,
			"componentType":5126,
			"count":1470,
			"type":"VEC2"
		},
		{
			"bufferView":3,
			"componentType":5123,
			"count":1470,
			"type":"SCALAR"
		}
	],
	"bufferViews":[
		{
			"buffer":0,
			"byteLength":17640,
			"byteOffset":0,
			"target":34962
		},
		{
			"buffer":0,
			"byteLength":17640,
			"byteOffset":17640,
			"target":34962
		},
		{
			"buffer":0,
			"byteLength":11760,
			"byteOffset":35280,
			"target":34962
		},
		{
			"buffer":0,
			"byteLength":2940,
			"byteOffset":47040,
			"target":34963
		}
	],
	"buffers":[
		{
			"byteLength":49980,
			"uri":"SM_Gen_Env_Cloud_03.bin"
		}
	]
}
