{
	"asset":{
		"generator":"Khronos glTF Blender I/O v4.2.70",
		"version":"2.0"
	},
	"scene":0,
	"scenes":[
		{
			"name":"Scene",
			"nodes":[
				0
			]
		}
	],
	"nodes":[
		{
			"mesh":0,
			"name":"SM_Gen_Env_Mushroom_03",
			"rotation":[
				0.7071068286895752,
				0,
				0,
				0.7071068286895752
			],
			"scale":[
				0.009999999776482582,
				0.009999999776482582,
				0.009999999776482582
			]
		}
	],
	"materials":[
		{
			"doubleSided":true,
			"name":"Polygon_Generic_01A",
			"pbrMetallicRoughness":{
				"baseColorTexture":{
					"index":0
				},
				"metallicFactor":0,
				"roughnessFactor":0.5527864098548889
			}
		}
	],
	"meshes":[
		{
			"name":"Mesh",
			"primitives":[
				{
					"attributes":{
						"POSITION":0,
						"NORMAL":1,
						"TEXCOORD_0":2,
						"TEXCOORD_1":3
					},
					"indices":4,
					"material":0
				}
			]
		}
	],
	"textures":[
		{
			"sampler":0,
			"source":0
		}
	],
	"images":[
		{
			"mimeType":"image/png",
			"name":"Generic_01_A",
			"uri":"Generic_01_A.png"
		}
	],
	"accessors":[
		{
			"bufferView":0,
			"componentType":5126,
			"count":240,
			"max":[
				26.015804290771484,
				26.627017974853516,
				3.0369887351989746
			],
			"min":[
				-30.745197296142578,
				-24.959251403808594,
				-56.68571853637695
			],
			"type":"VEC3"
		},
		{
			"bufferView":1,
			"componentType":5126,
			"count":240,
			"type":"VEC3"
		},
		{
			"bufferView":2,
			"componentType":5126,
			"count":240,
			"type":"VEC2"
		},
		{
			"bufferView":3,
			"componentType":5126,
			"count":240,
			"type":"VEC2"
		},
		{
			"bufferView":4,
			"componentType":5123,
			"count":354,
			"type":"SCALAR"
		}
	],
	"bufferViews":[
		{
			"buffer":0,
			"byteLength":2880,
			"byteOffset":0,
			"target":34962
		},
		{
			"buffer":0,
			"byteLength":2880,
			"byteOffset":2880,
			"target":34962
		},
		{
			"buffer":0,
			"byteLength":1920,
			"byteOffset":5760,
			"target":34962
		},
		{
			"buffer":0,
			"byteLength":1920,
			"byteOffset":7680,
			"target":34962
		},
		{
			"buffer":0,
			"byteLength":708,
			"byteOffset":9600,
			"target":34963
		}
	],
	"samplers":[
		{
			"magFilter":9729,
			"minFilter":9987
		}
	],
	"buffers":[
		{
			"byteLength":10308,
			"uri":"SM_Gen_Env_Mushroom_03.bin"
		}
	]
}
