{
	"asset":{
		"generator":"Khronos glTF Blender I/O v4.2.70",
		"version":"2.0"
	},
	"scene":0,
	"scenes":[
		{
			"name":"Scene",
			"nodes":[
				0
			]
		}
	],
	"nodes":[
		{
			"mesh":0,
			"name":"SM_Gen_Env_Cliff_Arch_01",
			"rotation":[
				0.7071068286895752,
				0,
				0,
				0.7071068286895752
			],
			"scale":[
				0.009999999776482582,
				0.009999999776482582,
				0.009999999776482582
			]
		}
	],
	"materials":[
		{
			"doubleSided":true,
			"name":"Polygon_Generic_01A",
			"pbrMetallicRoughness":{
				"metallicFactor":0,
				"roughnessFactor":0.5527864098548889
			}
		}
	],
	"meshes":[
		{
			"name":"Mesh",
			"primitives":[
				{
					"attributes":{
						"POSITION":0,
						"NORMAL":1,
						"TEXCOORD_0":2,
						"TEXCOORD_1":3
					},
					"indices":4,
					"material":0
				}
			]
		}
	],
	"accessors":[
		{
			"bufferView":0,
			"componentType":5126,
			"count":894,
			"max":[
				292.710205078125,
				232.0996551513672,
				172.10714721679688
			],
			"min":[
				-892.5911865234375,
				-238.98867797851562,
				-493.43963623046875
			],
			"type":"VEC3"
		},
		{
			"bufferView":1,
			"componentType":5126,
			"count":894,
			"type":"VEC3"
		},
		{
			"bufferView":2,
			"componentType":5126,
			"count":894,
			"type":"VEC2"
		},
		{
			"bufferView":3,
			"componentType":5126,
			"count":894,
			"type":"VEC2"
		},
		{
			"bufferView":4,
			"componentType":5123,
			"count":1224,
			"type":"SCALAR"
		}
	],
	"bufferViews":[
		{
			"buffer":0,
			"byteLength":10728,
			"byteOffset":0,
			"target":34962
		},
		{
			"buffer":0,
			"byteLength":10728,
			"byteOffset":10728,
			"target":34962
		},
		{
			"buffer":0,
			"byteLength":7152,
			"byteOffset":21456,
			"target":34962
		},
		{
			"buffer":0,
			"byteLength":7152,
			"byteOffset":28608,
			"target":34962
		},
		{
			"buffer":0,
			"byteLength":2448,
			"byteOffset":35760,
			"target":34963
		}
	],
	"buffers":[
		{
			"byteLength":38208,
			"uri":"SM_Gen_Env_Cliff_Arch_01.bin"
		}
	]
}
