{
	"asset":{
		"generator":"Khronos glTF Blender I/O v4.2.70",
		"version":"2.0"
	},
	"scene":0,
	"scenes":[
		{
			"name":"Scene",
			"nodes":[
				0
			]
		}
	],
	"nodes":[
		{
			"mesh":0,
			"name":"SM_Gen_Env_Cliff_02",
			"rotation":[
				0.7071068286895752,
				0,
				0,
				0.7071068286895752
			],
			"scale":[
				0.009999999776482582,
				0.009999999776482582,
				0.009999999776482582
			]
		}
	],
	"materials":[
		{
			"doubleSided":true,
			"name":"Polygon_Generic_01A",
			"pbrMetallicRoughness":{
				"metallicFactor":0,
				"roughnessFactor":0.5527864098548889
			}
		}
	],
	"meshes":[
		{
			"name":"Mesh",
			"primitives":[
				{
					"attributes":{
						"POSITION":0,
						"NORMAL":1,
						"TEXCOORD_0":2,
						"TEXCOORD_1":3
					},
					"indices":4,
					"material":0
				}
			]
		}
	],
	"accessors":[
		{
			"bufferView":0,
			"componentType":5126,
			"count":1168,
			"max":[
				437.4114990234375,
				343.7078552246094,
				135.4734649658203
			],
			"min":[
				-411.70068359375,
				-341.94757080078125,
				-861.9696044921875
			],
			"type":"VEC3"
		},
		{
			"bufferView":1,
			"componentType":5126,
			"count":1168,
			"type":"VEC3"
		},
		{
			"bufferView":2,
			"componentType":5126,
			"count":1168,
			"type":"VEC2"
		},
		{
			"bufferView":3,
			"componentType":5126,
			"count":1168,
			"type":"VEC2"
		},
		{
			"bufferView":4,
			"componentType":5123,
			"count":1590,
			"type":"SCALAR"
		}
	],
	"bufferViews":[
		{
			"buffer":0,
			"byteLength":14016,
			"byteOffset":0,
			"target":34962
		},
		{
			"buffer":0,
			"byteLength":14016,
			"byteOffset":14016,
			"target":34962
		},
		{
			"buffer":0,
			"byteLength":9344,
			"byteOffset":28032,
			"target":34962
		},
		{
			"buffer":0,
			"byteLength":9344,
			"byteOffset":37376,
			"target":34962
		},
		{
			"buffer":0,
			"byteLength":3180,
			"byteOffset":46720,
			"target":34963
		}
	],
	"buffers":[
		{
			"byteLength":49900,
			"uri":"SM_Gen_Env_Cliff_02.bin"
		}
	]
}
