{
	"asset":{
		"generator":"Khronos glTF Blender I/O v4.2.70",
		"version":"2.0"
	},
	"scene":0,
	"scenes":[
		{
			"name":"Scene",
			"nodes":[
				0
			]
		}
	],
	"nodes":[
		{
			"mesh":0,
			"name":"SM_Gen_Prop_Key_01",
			"rotation":[
				0.7071068286895752,
				0,
				0,
				0.7071068286895752
			],
			"scale":[
				0.009999999776482582,
				0.009999999776482582,
				0.009999999776482582
			]
		}
	],
	"materials":[
		{
			"doubleSided":true,
			"name":"Polygon_Generic_01A",
			"pbrMetallicRoughness":{
				"baseColorTexture":{
					"index":0
				},
				"metallicFactor":0,
				"roughnessFactor":0.5527864098548889
			}
		}
	],
	"meshes":[
		{
			"name":"Mesh",
			"primitives":[
				{
					"attributes":{
						"POSITION":0,
						"NORMAL":1,
						"TEXCOORD_0":2
					},
					"indices":3,
					"material":0
				}
			]
		}
	],
	"textures":[
		{
			"sampler":0,
			"source":0
		}
	],
	"images":[
		{
			"mimeType":"image/png",
			"name":"Generic_01_A",
			"uri":"Generic_01_A.png"
		}
	],
	"accessors":[
		{
			"bufferView":0,
			"componentType":5126,
			"count":314,
			"max":[
				11.163665771484375,
				1.1800575256347656,
				3.7362747192382812
			],
			"min":[
				-12.317977905273438,
				-1.1800575256347656,
				-3.3692855834960938
			],
			"type":"VEC3"
		},
		{
			"bufferView":1,
			"componentType":5126,
			"count":314,
			"type":"VEC3"
		},
		{
			"bufferView":2,
			"componentType":5126,
			"count":314,
			"type":"VEC2"
		},
		{
			"bufferView":3,
			"componentType":5123,
			"count":492,
			"type":"SCALAR"
		}
	],
	"bufferViews":[
		{
			"buffer":0,
			"byteLength":3768,
			"byteOffset":0,
			"target":34962
		},
		{
			"buffer":0,
			"byteLength":3768,
			"byteOffset":3768,
			"target":34962
		},
		{
			"buffer":0,
			"byteLength":2512,
			"byteOffset":7536,
			"target":34962
		},
		{
			"buffer":0,
			"byteLength":984,
			"byteOffset":10048,
			"target":34963
		}
	],
	"samplers":[
		{
			"magFilter":9729,
			"minFilter":9987
		}
	],
	"buffers":[
		{
			"byteLength":11032,
			"uri":"SM_Gen_Prop_Key_01.bin"
		}
	]
}
