{
	"asset":{
		"generator":"Khronos glTF Blender I/O v4.2.70",
		"version":"2.0"
	},
	"scene":0,
	"scenes":[
		{
			"name":"Scene",
			"nodes":[
				0
			]
		}
	],
	"nodes":[
		{
			"mesh":0,
			"name":"SM_Gen_Env_Lilypads_02",
			"rotation":[
				0.7071068286895752,
				0,
				0,
				0.7071068286895752
			],
			"scale":[
				0.009999999776482582,
				0.009999999776482582,
				0.009999999776482582
			]
		}
	],
	"materials":[
		{
			"doubleSided":true,
			"name":"Polygon_Generic_01A",
			"pbrMetallicRoughness":{
				"baseColorTexture":{
					"index":0
				},
				"metallicFactor":0,
				"roughnessFactor":0.5527864098548889
			}
		}
	],
	"meshes":[
		{
			"name":"Mesh",
			"primitives":[
				{
					"attributes":{
						"POSITION":0,
						"NORMAL":1,
						"TEXCOORD_0":2
					},
					"indices":3,
					"material":0
				}
			]
		}
	],
	"textures":[
		{
			"sampler":0,
			"source":0
		}
	],
	"images":[
		{
			"mimeType":"image/png",
			"name":"Generic_01_A",
			"uri":"Generic_01_A.png"
		}
	],
	"accessors":[
		{
			"bufferView":0,
			"componentType":5126,
			"count":760,
			"max":[
				70.09939575195312,
				74.0936279296875,
				0.7528073787689209
			],
			"min":[
				-61.62579345703125,
				-101.70077514648438,
				-9.9547758102417
			],
			"type":"VEC3"
		},
		{
			"bufferView":1,
			"componentType":5126,
			"count":760,
			"type":"VEC3"
		},
		{
			"bufferView":2,
			"componentType":5126,
			"count":760,
			"type":"VEC2"
		},
		{
			"bufferView":3,
			"componentType":5123,
			"count":1104,
			"type":"SCALAR"
		}
	],
	"bufferViews":[
		{
			"buffer":0,
			"byteLength":9120,
			"byteOffset":0,
			"target":34962
		},
		{
			"buffer":0,
			"byteLength":9120,
			"byteOffset":9120,
			"target":34962
		},
		{
			"buffer":0,
			"byteLength":6080,
			"byteOffset":18240,
			"target":34962
		},
		{
			"buffer":0,
			"byteLength":2208,
			"byteOffset":24320,
			"target":34963
		}
	],
	"samplers":[
		{
			"magFilter":9729,
			"minFilter":9987
		}
	],
	"buffers":[
		{
			"byteLength":26528,
			"uri":"SM_Gen_Env_Lilypads_02.bin"
		}
	]
}
