{
	"asset":{
		"generator":"Khronos glTF Blender I/O v4.2.70",
		"version":"2.0"
	},
	"scene":0,
	"scenes":[
		{
			"name":"Scene",
			"nodes":[
				0
			]
		}
	],
	"nodes":[
		{
			"mesh":0,
			"name":"SM_Gen_Prop_Light_Roof_03",
			"rotation":[
				0.7071068286895752,
				0,
				0,
				0.7071068286895752
			],
			"scale":[
				0.009999999776482582,
				0.009999999776482582,
				0.009999999776482582
			]
		}
	],
	"materials":[
		{
			"doubleSided":true,
			"name":"Polygon_Generic_01A",
			"pbrMetallicRoughness":{
				"baseColorTexture":{
					"index":0
				},
				"metallicFactor":0,
				"roughnessFactor":0.5527864098548889
			}
		}
	],
	"meshes":[
		{
			"name":"Mesh",
			"primitives":[
				{
					"attributes":{
						"POSITION":0,
						"NORMAL":1,
						"TEXCOORD_0":2
					},
					"indices":3,
					"material":0
				}
			]
		}
	],
	"textures":[
		{
			"sampler":0,
			"source":0
		}
	],
	"images":[
		{
			"mimeType":"image/png",
			"name":"Generic_01_A",
			"uri":"Generic_01_A.png"
		}
	],
	"accessors":[
		{
			"bufferView":0,
			"componentType":5126,
			"count":105,
			"max":[
				18.009815216064453,
				18.009828567504883,
				8.987752914428711
			],
			"min":[
				-18.009822845458984,
				-18.00982666015625,
				-1.0728826964623295e-06
			],
			"type":"VEC3"
		},
		{
			"bufferView":1,
			"componentType":5126,
			"count":105,
			"type":"VEC3"
		},
		{
			"bufferView":2,
			"componentType":5126,
			"count":105,
			"type":"VEC2"
		},
		{
			"bufferView":3,
			"componentType":5123,
			"count":192,
			"type":"SCALAR"
		}
	],
	"bufferViews":[
		{
			"buffer":0,
			"byteLength":1260,
			"byteOffset":0,
			"target":34962
		},
		{
			"buffer":0,
			"byteLength":1260,
			"byteOffset":1260,
			"target":34962
		},
		{
			"buffer":0,
			"byteLength":840,
			"byteOffset":2520,
			"target":34962
		},
		{
			"buffer":0,
			"byteLength":384,
			"byteOffset":3360,
			"target":34963
		}
	],
	"samplers":[
		{
			"magFilter":9729,
			"minFilter":9987
		}
	],
	"buffers":[
		{
			"byteLength":3744,
			"uri":"SM_Gen_Prop_Light_Roof_03.bin"
		}
	]
}
