{
	"asset":{
		"generator":"Khronos glTF Blender I/O v4.2.70",
		"version":"2.0"
	},
	"scene":0,
	"scenes":[
		{
			"name":"Scene",
			"nodes":[
				0
			]
		}
	],
	"nodes":[
		{
			"mesh":0,
			"name":"SM_Gen_Bld_Background_11",
			"rotation":[
				0.7071068286895752,
				0,
				0,
				0.7071068286895752
			],
			"scale":[
				0.009999999776482582,
				0.009999999776482582,
				0.009999999776482582
			]
		}
	],
	"materials":[
		{
			"doubleSided":true,
			"name":"Polygon3",
			"pbrMetallicRoughness":{
				"metallicFactor":0,
				"roughnessFactor":0.5527864098548889
			}
		},
		{
			"doubleSided":true,
			"name":"A_Glass16",
			"pbrMetallicRoughness":{
				"metallicFactor":0,
				"roughnessFactor":0.5527864098548889
			}
		}
	],
	"meshes":[
		{
			"name":"Mesh",
			"primitives":[
				{
					"attributes":{
						"POSITION":0,
						"NORMAL":1,
						"TEXCOORD_0":2
					},
					"indices":3,
					"material":0
				},
				{
					"attributes":{
						"POSITION":4,
						"NORMAL":5,
						"TEXCOORD_0":6
					},
					"indices":7,
					"material":1
				}
			]
		}
	],
	"accessors":[
		{
			"bufferView":0,
			"componentType":5126,
			"count":1527,
			"max":[
				472.767578125,
				334.49420166015625,
				0
			],
			"min":[
				-472.76953125,
				-334.49420166015625,
				-2005.4730224609375
			],
			"type":"VEC3"
		},
		{
			"bufferView":1,
			"componentType":5126,
			"count":1527,
			"type":"VEC3"
		},
		{
			"bufferView":2,
			"componentType":5126,
			"count":1527,
			"type":"VEC2"
		},
		{
			"bufferView":3,
			"componentType":5123,
			"count":2424,
			"type":"SCALAR"
		},
		{
			"bufferView":4,
			"componentType":5126,
			"count":32,
			"max":[
				429.328125,
				302.412109375,
				-9.884262084960938
			],
			"min":[
				-429.337890625,
				-307.2193908691406,
				-1897.7015380859375
			],
			"type":"VEC3"
		},
		{
			"bufferView":5,
			"componentType":5126,
			"count":32,
			"type":"VEC3"
		},
		{
			"bufferView":6,
			"componentType":5126,
			"count":32,
			"type":"VEC2"
		},
		{
			"bufferView":7,
			"componentType":5123,
			"count":48,
			"type":"SCALAR"
		}
	],
	"bufferViews":[
		{
			"buffer":0,
			"byteLength":18324,
			"byteOffset":0,
			"target":34962
		},
		{
			"buffer":0,
			"byteLength":18324,
			"byteOffset":18324,
			"target":34962
		},
		{
			"buffer":0,
			"byteLength":12216,
			"byteOffset":36648,
			"target":34962
		},
		{
			"buffer":0,
			"byteLength":4848,
			"byteOffset":48864,
			"target":34963
		},
		{
			"buffer":0,
			"byteLength":384,
			"byteOffset":53712,
			"target":34962
		},
		{
			"buffer":0,
			"byteLength":384,
			"byteOffset":54096,
			"target":34962
		},
		{
			"buffer":0,
			"byteLength":256,
			"byteOffset":54480,
			"target":34962
		},
		{
			"buffer":0,
			"byteLength":96,
			"byteOffset":54736,
			"target":34963
		}
	],
	"buffers":[
		{
			"byteLength":54832,
			"uri":"SM_Gen_Bld_Background_11.bin"
		}
	]
}
