{
	"asset":{
		"generator":"Khronos glTF Blender I/O v4.2.70",
		"version":"2.0"
	},
	"scene":0,
	"scenes":[
		{
			"name":"Scene",
			"nodes":[
				0
			]
		}
	],
	"nodes":[
		{
			"mesh":0,
			"name":"SM_Gen_Prop_Sack_04",
			"rotation":[
				0.7071068286895752,
				0,
				0,
				0.7071068286895752
			],
			"scale":[
				0.009999999776482582,
				0.009999999776482582,
				0.009999999776482582
			]
		}
	],
	"materials":[
		{
			"doubleSided":true,
			"name":"Polygon_Generic_01A",
			"pbrMetallicRoughness":{
				"baseColorTexture":{
					"index":0
				},
				"metallicFactor":0,
				"roughnessFactor":0.5527864098548889
			}
		}
	],
	"meshes":[
		{
			"name":"Mesh",
			"primitives":[
				{
					"attributes":{
						"POSITION":0,
						"NORMAL":1,
						"TEXCOORD_0":2,
						"TEXCOORD_1":3
					},
					"indices":4,
					"material":0
				}
			]
		}
	],
	"textures":[
		{
			"sampler":0,
			"source":0
		}
	],
	"images":[
		{
			"mimeType":"image/png",
			"name":"Generic_01_A",
			"uri":"Generic_01_A.png"
		}
	],
	"accessors":[
		{
			"bufferView":0,
			"componentType":5126,
			"count":510,
			"max":[
				35.67953872680664,
				20.315738677978516,
				2.1159043312072754
			],
			"min":[
				-31.06238555908203,
				-20.315738677978516,
				-23.154565811157227
			],
			"type":"VEC3"
		},
		{
			"bufferView":1,
			"componentType":5126,
			"count":510,
			"type":"VEC3"
		},
		{
			"bufferView":2,
			"componentType":5126,
			"count":510,
			"type":"VEC2"
		},
		{
			"bufferView":3,
			"componentType":5126,
			"count":510,
			"type":"VEC2"
		},
		{
			"bufferView":4,
			"componentType":5123,
			"count":714,
			"type":"SCALAR"
		}
	],
	"bufferViews":[
		{
			"buffer":0,
			"byteLength":6120,
			"byteOffset":0,
			"target":34962
		},
		{
			"buffer":0,
			"byteLength":6120,
			"byteOffset":6120,
			"target":34962
		},
		{
			"buffer":0,
			"byteLength":4080,
			"byteOffset":12240,
			"target":34962
		},
		{
			"buffer":0,
			"byteLength":4080,
			"byteOffset":16320,
			"target":34962
		},
		{
			"buffer":0,
			"byteLength":1428,
			"byteOffset":20400,
			"target":34963
		}
	],
	"samplers":[
		{
			"magFilter":9729,
			"minFilter":9987
		}
	],
	"buffers":[
		{
			"byteLength":21828,
			"uri":"SM_Gen_Prop_Sack_04.bin"
		}
	]
}
