{
	"asset":{
		"generator":"Khronos glTF Blender I/O v4.2.70",
		"version":"2.0"
	},
	"scene":0,
	"scenes":[
		{
			"name":"Scene",
			"nodes":[
				0
			]
		}
	],
	"nodes":[
		{
			"mesh":0,
			"name":"SM_Gen_Prop_Sack_Stack_01",
			"rotation":[
				0.7071068286895752,
				0,
				0,
				0.7071068286895752
			],
			"scale":[
				0.009999999776482582,
				0.009999999776482582,
				0.009999999776482582
			]
		}
	],
	"materials":[
		{
			"doubleSided":true,
			"name":"Polygon_Generic_01A",
			"pbrMetallicRoughness":{
				"baseColorTexture":{
					"index":0
				},
				"metallicFactor":0,
				"roughnessFactor":0.5527864098548889
			}
		}
	],
	"meshes":[
		{
			"name":"Mesh",
			"primitives":[
				{
					"attributes":{
						"POSITION":0,
						"NORMAL":1,
						"TEXCOORD_0":2,
						"TEXCOORD_1":3
					},
					"indices":4,
					"material":0
				}
			]
		}
	],
	"textures":[
		{
			"sampler":0,
			"source":0
		}
	],
	"images":[
		{
			"mimeType":"image/png",
			"name":"Generic_01_A",
			"uri":"Generic_01_A.png"
		}
	],
	"accessors":[
		{
			"bufferView":0,
			"componentType":5126,
			"count":3080,
			"max":[
				50.118309020996094,
				49.941558837890625,
				0
			],
			"min":[
				-50.118309020996094,
				-49.941558837890625,
				-96.2160415649414
			],
			"type":"VEC3"
		},
		{
			"bufferView":1,
			"componentType":5126,
			"count":3080,
			"type":"VEC3"
		},
		{
			"bufferView":2,
			"componentType":5126,
			"count":3080,
			"type":"VEC2"
		},
		{
			"bufferView":3,
			"componentType":5126,
			"count":3080,
			"type":"VEC2"
		},
		{
			"bufferView":4,
			"componentType":5123,
			"count":4356,
			"type":"SCALAR"
		}
	],
	"bufferViews":[
		{
			"buffer":0,
			"byteLength":36960,
			"byteOffset":0,
			"target":34962
		},
		{
			"buffer":0,
			"byteLength":36960,
			"byteOffset":36960,
			"target":34962
		},
		{
			"buffer":0,
			"byteLength":24640,
			"byteOffset":73920,
			"target":34962
		},
		{
			"buffer":0,
			"byteLength":24640,
			"byteOffset":98560,
			"target":34962
		},
		{
			"buffer":0,
			"byteLength":8712,
			"byteOffset":123200,
			"target":34963
		}
	],
	"samplers":[
		{
			"magFilter":9729,
			"minFilter":9987
		}
	],
	"buffers":[
		{
			"byteLength":131912,
			"uri":"SM_Gen_Prop_Sack_Stack_01.bin"
		}
	]
}
