{
	"asset":{
		"generator":"Khronos glTF Blender I/O v4.2.70",
		"version":"2.0"
	},
	"scene":0,
	"scenes":[
		{
			"name":"Scene",
			"nodes":[
				0
			]
		}
	],
	"nodes":[
		{
			"mesh":0,
			"name":"SM_Gen_Env_Road_Gravel_Straight_03",
			"rotation":[
				0.7071068286895752,
				0,
				0,
				0.7071068286895752
			],
			"scale":[
				0.009999999776482582,
				0.009999999776482582,
				0.009999999776482582
			]
		}
	],
	"materials":[
		{
			"doubleSided":true,
			"name":"Polygon_Generic_01A49",
			"pbrMetallicRoughness":{
				"baseColorTexture":{
					"index":0
				},
				"metallicFactor":0,
				"roughnessFactor":0.5527864098548889
			}
		}
	],
	"meshes":[
		{
			"name":"Mesh",
			"primitives":[
				{
					"attributes":{
						"POSITION":0,
						"NORMAL":1,
						"TEXCOORD_0":2,
						"TEXCOORD_1":3
					},
					"indices":4,
					"material":0
				}
			]
		}
	],
	"textures":[
		{
			"sampler":0,
			"source":0
		}
	],
	"images":[
		{
			"mimeType":"image/png",
			"name":"Generic_01_A",
			"uri":"Generic_01_A.png"
		}
	],
	"accessors":[
		{
			"bufferView":0,
			"componentType":5126,
			"count":659,
			"max":[
				181.125244140625,
				48.22601318359375,
				8.11540412902832
			],
			"min":[
				-152.72128295898438,
				-790.884765625,
				-26.17991065979004
			],
			"type":"VEC3"
		},
		{
			"bufferView":1,
			"componentType":5126,
			"count":659,
			"type":"VEC3"
		},
		{
			"bufferView":2,
			"componentType":5126,
			"count":659,
			"type":"VEC2"
		},
		{
			"bufferView":3,
			"componentType":5126,
			"count":659,
			"type":"VEC2"
		},
		{
			"bufferView":4,
			"componentType":5123,
			"count":711,
			"type":"SCALAR"
		}
	],
	"bufferViews":[
		{
			"buffer":0,
			"byteLength":7908,
			"byteOffset":0,
			"target":34962
		},
		{
			"buffer":0,
			"byteLength":7908,
			"byteOffset":7908,
			"target":34962
		},
		{
			"buffer":0,
			"byteLength":5272,
			"byteOffset":15816,
			"target":34962
		},
		{
			"buffer":0,
			"byteLength":5272,
			"byteOffset":21088,
			"target":34962
		},
		{
			"buffer":0,
			"byteLength":1422,
			"byteOffset":26360,
			"target":34963
		}
	],
	"samplers":[
		{
			"magFilter":9729,
			"minFilter":9987
		}
	],
	"buffers":[
		{
			"byteLength":27784,
			"uri":"SM_Gen_Env_Road_Gravel_Straight_03.bin"
		}
	]
}
