{
	"asset":{
		"generator":"Khronos glTF Blender I/O v4.2.70",
		"version":"2.0"
	},
	"scene":0,
	"scenes":[
		{
			"name":"Scene",
			"nodes":[
				0
			]
		}
	],
	"nodes":[
		{
			"mesh":0,
			"name":"SM_Gen_Env_Tree_Dead_02",
			"rotation":[
				0.7071068286895752,
				0,
				0,
				0.7071068286895752
			],
			"scale":[
				0.009999999776482582,
				0.009999999776482582,
				0.009999999776482582
			]
		}
	],
	"materials":[
		{
			"doubleSided":true,
			"name":"Polygon_Generic_01A",
			"pbrMetallicRoughness":{
				"baseColorTexture":{
					"index":0
				},
				"metallicFactor":0,
				"roughnessFactor":0.5527864098548889
			}
		}
	],
	"meshes":[
		{
			"name":"Mesh",
			"primitives":[
				{
					"attributes":{
						"POSITION":0,
						"NORMAL":1,
						"TEXCOORD_0":2,
						"TEXCOORD_1":3
					},
					"indices":4,
					"material":0
				}
			]
		}
	],
	"textures":[
		{
			"sampler":0,
			"source":0
		}
	],
	"images":[
		{
			"mimeType":"image/png",
			"name":"Generic_01_A",
			"uri":"Generic_01_A.png"
		}
	],
	"accessors":[
		{
			"bufferView":0,
			"componentType":5126,
			"count":444,
			"max":[
				226.9127197265625,
				214.39869689941406,
				49.23578643798828
			],
			"min":[
				-149.70826721191406,
				-216.77273559570312,
				-934.884521484375
			],
			"type":"VEC3"
		},
		{
			"bufferView":1,
			"componentType":5126,
			"count":444,
			"type":"VEC3"
		},
		{
			"bufferView":2,
			"componentType":5126,
			"count":444,
			"type":"VEC2"
		},
		{
			"bufferView":3,
			"componentType":5126,
			"count":444,
			"type":"VEC2"
		},
		{
			"bufferView":4,
			"componentType":5123,
			"count":648,
			"type":"SCALAR"
		}
	],
	"bufferViews":[
		{
			"buffer":0,
			"byteLength":5328,
			"byteOffset":0,
			"target":34962
		},
		{
			"buffer":0,
			"byteLength":5328,
			"byteOffset":5328,
			"target":34962
		},
		{
			"buffer":0,
			"byteLength":3552,
			"byteOffset":10656,
			"target":34962
		},
		{
			"buffer":0,
			"byteLength":3552,
			"byteOffset":14208,
			"target":34962
		},
		{
			"buffer":0,
			"byteLength":1296,
			"byteOffset":17760,
			"target":34963
		}
	],
	"samplers":[
		{
			"magFilter":9729,
			"minFilter":9987
		}
	],
	"buffers":[
		{
			"byteLength":19056,
			"uri":"SM_Gen_Env_Tree_Dead_02.bin"
		}
	]
}
