{
	"asset":{
		"generator":"Khronos glTF Blender I/O v4.2.70",
		"version":"2.0"
	},
	"scene":0,
	"scenes":[
		{
			"name":"Scene",
			"nodes":[
				0
			]
		}
	],
	"nodes":[
		{
			"mesh":0,
			"name":"SM_Gen_Env_Road_Gravel_End_01",
			"rotation":[
				0.7071068286895752,
				0,
				0,
				0.7071068286895752
			],
			"scale":[
				0.009999999776482582,
				0.009999999776482582,
				0.009999999776482582
			]
		}
	],
	"materials":[
		{
			"doubleSided":true,
			"name":"Polygon_Generic_01A46",
			"pbrMetallicRoughness":{
				"baseColorTexture":{
					"index":0
				},
				"metallicFactor":0,
				"roughnessFactor":0.5527864098548889
			}
		}
	],
	"meshes":[
		{
			"name":"Mesh",
			"primitives":[
				{
					"attributes":{
						"POSITION":0,
						"NORMAL":1,
						"TEXCOORD_0":2
					},
					"indices":3,
					"material":0
				}
			]
		}
	],
	"textures":[
		{
			"sampler":0,
			"source":0
		}
	],
	"images":[
		{
			"mimeType":"image/png",
			"name":"Generic_01_A",
			"uri":"Generic_01_A.png"
		}
	],
	"accessors":[
		{
			"bufferView":0,
			"componentType":5126,
			"count":1166,
			"max":[
				436.1763916015625,
				103.88172912597656,
				8.030533790588379
			],
			"min":[
				-488.467041015625,
				-962.1422729492188,
				-24.517723083496094
			],
			"type":"VEC3"
		},
		{
			"bufferView":1,
			"componentType":5126,
			"count":1166,
			"type":"VEC3"
		},
		{
			"bufferView":2,
			"componentType":5126,
			"count":1166,
			"type":"VEC2"
		},
		{
			"bufferView":3,
			"componentType":5123,
			"count":1212,
			"type":"SCALAR"
		}
	],
	"bufferViews":[
		{
			"buffer":0,
			"byteLength":13992,
			"byteOffset":0,
			"target":34962
		},
		{
			"buffer":0,
			"byteLength":13992,
			"byteOffset":13992,
			"target":34962
		},
		{
			"buffer":0,
			"byteLength":9328,
			"byteOffset":27984,
			"target":34962
		},
		{
			"buffer":0,
			"byteLength":2424,
			"byteOffset":37312,
			"target":34963
		}
	],
	"samplers":[
		{
			"magFilter":9729,
			"minFilter":9987
		}
	],
	"buffers":[
		{
			"byteLength":39736,
			"uri":"SM_Gen_Env_Road_Gravel_End_01.bin"
		}
	]
}
