{
	"asset":{
		"generator":"Khronos glTF Blender I/O v4.2.70",
		"version":"2.0"
	},
	"scene":0,
	"scenes":[
		{
			"name":"Scene",
			"nodes":[
				0
			]
		}
	],
	"nodes":[
		{
			"mesh":0,
			"name":"SM_Gen_Env_Lilypads_03",
			"rotation":[
				0.7071068286895752,
				0,
				0,
				0.7071068286895752
			],
			"scale":[
				0.009999999776482582,
				0.009999999776482582,
				0.009999999776482582
			]
		}
	],
	"materials":[
		{
			"doubleSided":true,
			"name":"Polygon_Generic_01A",
			"pbrMetallicRoughness":{
				"baseColorTexture":{
					"index":0
				},
				"metallicFactor":0,
				"roughnessFactor":0.5527864098548889
			}
		}
	],
	"meshes":[
		{
			"name":"Mesh",
			"primitives":[
				{
					"attributes":{
						"POSITION":0,
						"NORMAL":1,
						"TEXCOORD_0":2
					},
					"indices":3,
					"material":0
				}
			]
		}
	],
	"textures":[
		{
			"sampler":0,
			"source":0
		}
	],
	"images":[
		{
			"mimeType":"image/png",
			"name":"Generic_01_A",
			"uri":"Generic_01_A.png"
		}
	],
	"accessors":[
		{
			"bufferView":0,
			"componentType":5126,
			"count":1140,
			"max":[
				148.7735595703125,
				86.74090576171875,
				0.7528092861175537
			],
			"min":[
				-142.3162841796875,
				-80.60244750976562,
				-12.854531288146973
			],
			"type":"VEC3"
		},
		{
			"bufferView":1,
			"componentType":5126,
			"count":1140,
			"type":"VEC3"
		},
		{
			"bufferView":2,
			"componentType":5126,
			"count":1140,
			"type":"VEC2"
		},
		{
			"bufferView":3,
			"componentType":5123,
			"count":1656,
			"type":"SCALAR"
		}
	],
	"bufferViews":[
		{
			"buffer":0,
			"byteLength":13680,
			"byteOffset":0,
			"target":34962
		},
		{
			"buffer":0,
			"byteLength":13680,
			"byteOffset":13680,
			"target":34962
		},
		{
			"buffer":0,
			"byteLength":9120,
			"byteOffset":27360,
			"target":34962
		},
		{
			"buffer":0,
			"byteLength":3312,
			"byteOffset":36480,
			"target":34963
		}
	],
	"samplers":[
		{
			"magFilter":9729,
			"minFilter":9987
		}
	],
	"buffers":[
		{
			"byteLength":39792,
			"uri":"SM_Gen_Env_Lilypads_03.bin"
		}
	]
}
