{
	"asset":{
		"generator":"Khronos glTF Blender I/O v4.2.70",
		"version":"2.0"
	},
	"scene":0,
	"scenes":[
		{
			"name":"Scene",
			"nodes":[
				0
			]
		}
	],
	"nodes":[
		{
			"mesh":0,
			"name":"SM_Gen_Env_Road_Gravel_Corner_Large_02",
			"rotation":[
				0.7071068286895752,
				0,
				0,
				0.7071068286895752
			],
			"scale":[
				0.009999999776482582,
				0.009999999776482582,
				0.009999999776482582
			]
		}
	],
	"materials":[
		{
			"doubleSided":true,
			"name":"Polygon_Generic_01A43",
			"pbrMetallicRoughness":{
				"baseColorTexture":{
					"index":0
				},
				"metallicFactor":0,
				"roughnessFactor":0.5527864098548889
			}
		}
	],
	"meshes":[
		{
			"name":"Mesh",
			"primitives":[
				{
					"attributes":{
						"POSITION":0,
						"NORMAL":1,
						"TEXCOORD_0":2,
						"TEXCOORD_1":3
					},
					"indices":4,
					"material":0
				}
			]
		}
	],
	"textures":[
		{
			"sampler":0,
			"source":0
		}
	],
	"images":[
		{
			"mimeType":"image/png",
			"name":"Generic_01_A",
			"uri":"Generic_01_A.png"
		}
	],
	"accessors":[
		{
			"bufferView":0,
			"componentType":5126,
			"count":839,
			"max":[
				552.23193359375,
				19.755918502807617,
				6.6948137283325195
			],
			"min":[
				-2.4906959533691406,
				-521.4456176757812,
				-17.990798950195312
			],
			"type":"VEC3"
		},
		{
			"bufferView":1,
			"componentType":5126,
			"count":839,
			"type":"VEC3"
		},
		{
			"bufferView":2,
			"componentType":5126,
			"count":839,
			"type":"VEC2"
		},
		{
			"bufferView":3,
			"componentType":5126,
			"count":839,
			"type":"VEC2"
		},
		{
			"bufferView":4,
			"componentType":5123,
			"count":903,
			"type":"SCALAR"
		}
	],
	"bufferViews":[
		{
			"buffer":0,
			"byteLength":10068,
			"byteOffset":0,
			"target":34962
		},
		{
			"buffer":0,
			"byteLength":10068,
			"byteOffset":10068,
			"target":34962
		},
		{
			"buffer":0,
			"byteLength":6712,
			"byteOffset":20136,
			"target":34962
		},
		{
			"buffer":0,
			"byteLength":6712,
			"byteOffset":26848,
			"target":34962
		},
		{
			"buffer":0,
			"byteLength":1806,
			"byteOffset":33560,
			"target":34963
		}
	],
	"samplers":[
		{
			"magFilter":9729,
			"minFilter":9987
		}
	],
	"buffers":[
		{
			"byteLength":35368,
			"uri":"SM_Gen_Env_Road_Gravel_Corner_Large_02.bin"
		}
	]
}
