{
	"asset":{
		"generator":"Khronos glTF Blender I/O v4.2.70",
		"version":"2.0"
	},
	"scene":0,
	"scenes":[
		{
			"name":"Scene",
			"nodes":[
				0
			]
		}
	],
	"nodes":[
		{
			"mesh":0,
			"name":"SM_Gen_Prop_Barrel_Metal_02",
			"rotation":[
				0.7071068286895752,
				0,
				0,
				0.7071068286895752
			],
			"scale":[
				0.009999999776482582,
				0.009999999776482582,
				0.009999999776482582
			]
		}
	],
	"materials":[
		{
			"doubleSided":true,
			"name":"Polygon_Generic_01A",
			"pbrMetallicRoughness":{
				"baseColorTexture":{
					"index":0
				},
				"metallicFactor":0,
				"roughnessFactor":0.5527864098548889
			}
		}
	],
	"meshes":[
		{
			"name":"Mesh",
			"primitives":[
				{
					"attributes":{
						"POSITION":0,
						"NORMAL":1,
						"TEXCOORD_0":2,
						"TEXCOORD_1":3
					},
					"indices":4,
					"material":0
				}
			]
		}
	],
	"textures":[
		{
			"sampler":0,
			"source":0
		}
	],
	"images":[
		{
			"mimeType":"image/png",
			"name":"Generic_01_A",
			"uri":"Generic_01_A.png"
		}
	],
	"accessors":[
		{
			"bufferView":0,
			"componentType":5126,
			"count":547,
			"max":[
				36.306884765625,
				35.258209228515625,
				0
			],
			"min":[
				-36.3067626953125,
				-35.2581787109375,
				-104.96600341796875
			],
			"type":"VEC3"
		},
		{
			"bufferView":1,
			"componentType":5126,
			"count":547,
			"type":"VEC3"
		},
		{
			"bufferView":2,
			"componentType":5126,
			"count":547,
			"type":"VEC2"
		},
		{
			"bufferView":3,
			"componentType":5126,
			"count":547,
			"type":"VEC2"
		},
		{
			"bufferView":4,
			"componentType":5123,
			"count":870,
			"type":"SCALAR"
		}
	],
	"bufferViews":[
		{
			"buffer":0,
			"byteLength":6564,
			"byteOffset":0,
			"target":34962
		},
		{
			"buffer":0,
			"byteLength":6564,
			"byteOffset":6564,
			"target":34962
		},
		{
			"buffer":0,
			"byteLength":4376,
			"byteOffset":13128,
			"target":34962
		},
		{
			"buffer":0,
			"byteLength":4376,
			"byteOffset":17504,
			"target":34962
		},
		{
			"buffer":0,
			"byteLength":1740,
			"byteOffset":21880,
			"target":34963
		}
	],
	"samplers":[
		{
			"magFilter":9729,
			"minFilter":9987
		}
	],
	"buffers":[
		{
			"byteLength":23620,
			"uri":"SM_Gen_Prop_Barrel_Metal_02.bin"
		}
	]
}
