{
	"asset":{
		"generator":"Khronos glTF Blender I/O v4.2.70",
		"version":"2.0"
	},
	"scene":0,
	"scenes":[
		{
			"name":"Scene",
			"nodes":[
				0
			]
		}
	],
	"nodes":[
		{
			"mesh":0,
			"name":"SM_Gen_Prop_Light_Wall_01",
			"rotation":[
				0.7071068286895752,
				0,
				0,
				0.7071068286895752
			],
			"scale":[
				0.009999999776482582,
				0.009999999776482582,
				0.009999999776482582
			]
		}
	],
	"materials":[
		{
			"doubleSided":true,
			"name":"Polygon_Generic_01A",
			"pbrMetallicRoughness":{
				"baseColorTexture":{
					"index":0
				},
				"metallicFactor":0,
				"roughnessFactor":0.5527864098548889
			}
		}
	],
	"meshes":[
		{
			"name":"Mesh",
			"primitives":[
				{
					"attributes":{
						"POSITION":0,
						"NORMAL":1,
						"TEXCOORD_0":2
					},
					"indices":3,
					"material":0
				}
			]
		}
	],
	"textures":[
		{
			"sampler":0,
			"source":0
		}
	],
	"images":[
		{
			"mimeType":"image/png",
			"name":"Generic_01_A",
			"uri":"Generic_01_A.png"
		}
	],
	"accessors":[
		{
			"bufferView":0,
			"componentType":5126,
			"count":1418,
			"max":[
				16.343481063842773,
				57.51987075805664,
				48.98989486694336
			],
			"min":[
				-16.343481063842773,
				-9.797334671020508,
				-54.68693161010742
			],
			"type":"VEC3"
		},
		{
			"bufferView":1,
			"componentType":5126,
			"count":1418,
			"type":"VEC3"
		},
		{
			"bufferView":2,
			"componentType":5126,
			"count":1418,
			"type":"VEC2"
		},
		{
			"bufferView":3,
			"componentType":5123,
			"count":2220,
			"type":"SCALAR"
		}
	],
	"bufferViews":[
		{
			"buffer":0,
			"byteLength":17016,
			"byteOffset":0,
			"target":34962
		},
		{
			"buffer":0,
			"byteLength":17016,
			"byteOffset":17016,
			"target":34962
		},
		{
			"buffer":0,
			"byteLength":11344,
			"byteOffset":34032,
			"target":34962
		},
		{
			"buffer":0,
			"byteLength":4440,
			"byteOffset":45376,
			"target":34963
		}
	],
	"samplers":[
		{
			"magFilter":9729,
			"minFilter":9987
		}
	],
	"buffers":[
		{
			"byteLength":49816,
			"uri":"SM_Gen_Prop_Light_Wall_01.bin"
		}
	]
}
