{
	"asset":{
		"generator":"Khronos glTF Blender I/O v4.2.70",
		"version":"2.0"
	},
	"scene":0,
	"scenes":[
		{
			"name":"Scene",
			"nodes":[
				0
			]
		}
	],
	"nodes":[
		{
			"mesh":0,
			"name":"SM_Gen_Bld_Background_03",
			"rotation":[
				0.7071068286895752,
				0,
				0,
				0.7071068286895752
			],
			"scale":[
				0.009999999776482582,
				0.009999999776482582,
				0.009999999776482582
			]
		}
	],
	"materials":[
		{
			"doubleSided":true,
			"name":"Polygon12",
			"pbrMetallicRoughness":{
				"metallicFactor":0,
				"roughnessFactor":0.5527864098548889
			}
		},
		{
			"doubleSided":true,
			"name":"Polygon13",
			"pbrMetallicRoughness":{
				"metallicFactor":0,
				"roughnessFactor":0.5527864098548889
			}
		}
	],
	"meshes":[
		{
			"name":"Mesh",
			"primitives":[
				{
					"attributes":{
						"POSITION":0,
						"NORMAL":1,
						"TEXCOORD_0":2
					},
					"indices":3,
					"material":0
				},
				{
					"attributes":{
						"POSITION":4,
						"NORMAL":5,
						"TEXCOORD_0":6
					},
					"indices":7,
					"material":1
				}
			]
		}
	],
	"accessors":[
		{
			"bufferView":0,
			"componentType":5126,
			"count":968,
			"max":[
				417.273193359375,
				325.234619140625,
				0
			],
			"min":[
				-417.273193359375,
				-325.234619140625,
				-1738.5164794921875
			],
			"type":"VEC3"
		},
		{
			"bufferView":1,
			"componentType":5126,
			"count":968,
			"type":"VEC3"
		},
		{
			"bufferView":2,
			"componentType":5126,
			"count":968,
			"type":"VEC2"
		},
		{
			"bufferView":3,
			"componentType":5123,
			"count":1950,
			"type":"SCALAR"
		},
		{
			"bufferView":4,
			"componentType":5126,
			"count":22,
			"max":[
				352.414794921875,
				235.74949645996094,
				-13.763961791992188
			],
			"min":[
				-369.021240234375,
				-266.31536865234375,
				-1625.09912109375
			],
			"type":"VEC3"
		},
		{
			"bufferView":5,
			"componentType":5126,
			"count":22,
			"type":"VEC3"
		},
		{
			"bufferView":6,
			"componentType":5126,
			"count":22,
			"type":"VEC2"
		},
		{
			"bufferView":7,
			"componentType":5123,
			"count":36,
			"type":"SCALAR"
		}
	],
	"bufferViews":[
		{
			"buffer":0,
			"byteLength":11616,
			"byteOffset":0,
			"target":34962
		},
		{
			"buffer":0,
			"byteLength":11616,
			"byteOffset":11616,
			"target":34962
		},
		{
			"buffer":0,
			"byteLength":7744,
			"byteOffset":23232,
			"target":34962
		},
		{
			"buffer":0,
			"byteLength":3900,
			"byteOffset":30976,
			"target":34963
		},
		{
			"buffer":0,
			"byteLength":264,
			"byteOffset":34876,
			"target":34962
		},
		{
			"buffer":0,
			"byteLength":264,
			"byteOffset":35140,
			"target":34962
		},
		{
			"buffer":0,
			"byteLength":176,
			"byteOffset":35404,
			"target":34962
		},
		{
			"buffer":0,
			"byteLength":72,
			"byteOffset":35580,
			"target":34963
		}
	],
	"buffers":[
		{
			"byteLength":35652,
			"uri":"SM_Gen_Bld_Background_03.bin"
		}
	]
}
