{
	"asset":{
		"generator":"Khronos glTF Blender I/O v4.2.70",
		"version":"2.0"
	},
	"scene":0,
	"scenes":[
		{
			"name":"Scene",
			"nodes":[
				1
			]
		}
	],
	"nodes":[
		{
			"mesh":0,
			"name":"SM_Gen_Prop_Chest_02_Lid_01"
		},
		{
			"children":[
				0
			],
			"mesh":1,
			"name":"SM_Gen_Prop_Chest_02",
			"rotation":[
				0.7071068286895752,
				0,
				0,
				0.7071068286895752
			],
			"scale":[
				0.009999999776482582,
				0.009999999776482582,
				0.009999999776482582
			]
		}
	],
	"materials":[
		{
			"doubleSided":true,
			"name":"Polygon_Generic_01A",
			"pbrMetallicRoughness":{
				"baseColorTexture":{
					"index":0
				},
				"metallicFactor":0,
				"roughnessFactor":0.5527864098548889
			}
		}
	],
	"meshes":[
		{
			"name":"Mesh.001",
			"primitives":[
				{
					"attributes":{
						"POSITION":0,
						"NORMAL":1,
						"TEXCOORD_0":2
					},
					"indices":3,
					"material":0
				}
			]
		},
		{
			"name":"Mesh",
			"primitives":[
				{
					"attributes":{
						"POSITION":4,
						"NORMAL":5,
						"TEXCOORD_0":6
					},
					"indices":7,
					"material":0
				}
			]
		}
	],
	"textures":[
		{
			"sampler":0,
			"source":0
		}
	],
	"images":[
		{
			"mimeType":"image/png",
			"name":"Generic_01_A",
			"uri":"Generic_01_A.png"
		}
	],
	"accessors":[
		{
			"bufferView":0,
			"componentType":5126,
			"count":342,
			"max":[
				59.39903259277344,
				40.966339111328125,
				-38.84438705444336
			],
			"min":[
				-60.69916534423828,
				-38.8323974609375,
				-58.201026916503906
			],
			"type":"VEC3"
		},
		{
			"bufferView":1,
			"componentType":5126,
			"count":342,
			"type":"VEC3"
		},
		{
			"bufferView":2,
			"componentType":5126,
			"count":342,
			"type":"VEC2"
		},
		{
			"bufferView":3,
			"componentType":5123,
			"count":582,
			"type":"SCALAR"
		},
		{
			"bufferView":4,
			"componentType":5126,
			"count":1069,
			"max":[
				59.39903259277344,
				38.83247375488281,
				0
			],
			"min":[
				-60.69831848144531,
				-40.96626281738281,
				-46.15022659301758
			],
			"type":"VEC3"
		},
		{
			"bufferView":5,
			"componentType":5126,
			"count":1069,
			"type":"VEC3"
		},
		{
			"bufferView":6,
			"componentType":5126,
			"count":1069,
			"type":"VEC2"
		},
		{
			"bufferView":7,
			"componentType":5123,
			"count":1884,
			"type":"SCALAR"
		}
	],
	"bufferViews":[
		{
			"buffer":0,
			"byteLength":4104,
			"byteOffset":0,
			"target":34962
		},
		{
			"buffer":0,
			"byteLength":4104,
			"byteOffset":4104,
			"target":34962
		},
		{
			"buffer":0,
			"byteLength":2736,
			"byteOffset":8208,
			"target":34962
		},
		{
			"buffer":0,
			"byteLength":1164,
			"byteOffset":10944,
			"target":34963
		},
		{
			"buffer":0,
			"byteLength":12828,
			"byteOffset":12108,
			"target":34962
		},
		{
			"buffer":0,
			"byteLength":12828,
			"byteOffset":24936,
			"target":34962
		},
		{
			"buffer":0,
			"byteLength":8552,
			"byteOffset":37764,
			"target":34962
		},
		{
			"buffer":0,
			"byteLength":3768,
			"byteOffset":46316,
			"target":34963
		}
	],
	"samplers":[
		{
			"magFilter":9729,
			"minFilter":9987
		}
	],
	"buffers":[
		{
			"byteLength":50084,
			"uri":"SM_Gen_Prop_Chest_02.bin"
		}
	]
}
