{
	"asset":{
		"generator":"Khronos glTF Blender I/O v4.2.70",
		"version":"2.0"
	},
	"scene":0,
	"scenes":[
		{
			"name":"Scene",
			"nodes":[
				0
			]
		}
	],
	"nodes":[
		{
			"mesh":0,
			"name":"SM_Gen_Prop_Chain_01",
			"rotation":[
				0.7071068286895752,
				0,
				0,
				0.7071068286895752
			],
			"scale":[
				0.009999999776482582,
				0.009999999776482582,
				0.009999999776482582
			]
		}
	],
	"materials":[
		{
			"doubleSided":true,
			"name":"Polygon_Generic_01A",
			"pbrMetallicRoughness":{
				"baseColorTexture":{
					"index":0
				},
				"metallicFactor":0,
				"roughnessFactor":0.5527864098548889
			}
		}
	],
	"meshes":[
		{
			"name":"Mesh",
			"primitives":[
				{
					"attributes":{
						"POSITION":0,
						"NORMAL":1,
						"TEXCOORD_0":2,
						"TEXCOORD_1":3
					},
					"indices":4,
					"material":0
				}
			]
		}
	],
	"textures":[
		{
			"sampler":0,
			"source":0
		}
	],
	"images":[
		{
			"mimeType":"image/png",
			"name":"Generic_01_A",
			"uri":"Generic_01_A.png"
		}
	],
	"accessors":[
		{
			"bufferView":0,
			"componentType":5126,
			"count":1574,
			"max":[
				3.882267951965332,
				3.77626895904541,
				225.0093994140625
			],
			"min":[
				-5.358643531799316,
				-4.291553497314453,
				-4.283228397369385
			],
			"type":"VEC3"
		},
		{
			"bufferView":1,
			"componentType":5126,
			"count":1574,
			"type":"VEC3"
		},
		{
			"bufferView":2,
			"componentType":5126,
			"count":1574,
			"type":"VEC2"
		},
		{
			"bufferView":3,
			"componentType":5126,
			"count":1574,
			"type":"VEC2"
		},
		{
			"bufferView":4,
			"componentType":5123,
			"count":2688,
			"type":"SCALAR"
		}
	],
	"bufferViews":[
		{
			"buffer":0,
			"byteLength":18888,
			"byteOffset":0,
			"target":34962
		},
		{
			"buffer":0,
			"byteLength":18888,
			"byteOffset":18888,
			"target":34962
		},
		{
			"buffer":0,
			"byteLength":12592,
			"byteOffset":37776,
			"target":34962
		},
		{
			"buffer":0,
			"byteLength":12592,
			"byteOffset":50368,
			"target":34962
		},
		{
			"buffer":0,
			"byteLength":5376,
			"byteOffset":62960,
			"target":34963
		}
	],
	"samplers":[
		{
			"magFilter":9729,
			"minFilter":9987
		}
	],
	"buffers":[
		{
			"byteLength":68336,
			"uri":"SM_Gen_Prop_Chain_01.bin"
		}
	]
}
