{
	"asset":{
		"generator":"Khronos glTF Blender I/O v4.2.70",
		"version":"2.0"
	},
	"scene":0,
	"scenes":[
		{
			"name":"Scene",
			"nodes":[
				0
			]
		}
	],
	"nodes":[
		{
			"mesh":0,
			"name":"SM_Gen_Env_Flowers_04",
			"rotation":[
				0.7071068286895752,
				0,
				0,
				0.7071068286895752
			],
			"scale":[
				0.009999999776482582,
				0.009999999776482582,
				0.009999999776482582
			]
		}
	],
	"materials":[
		{
			"doubleSided":true,
			"name":"Polygon_Generic_01A3",
			"pbrMetallicRoughness":{
				"baseColorTexture":{
					"index":0
				},
				"metallicFactor":0,
				"roughnessFactor":0.5527864098548889
			}
		}
	],
	"meshes":[
		{
			"name":"Mesh",
			"primitives":[
				{
					"attributes":{
						"POSITION":0,
						"NORMAL":1,
						"TEXCOORD_0":2,
						"TEXCOORD_1":3
					},
					"indices":4,
					"material":0
				}
			]
		}
	],
	"textures":[
		{
			"sampler":0,
			"source":0
		}
	],
	"images":[
		{
			"mimeType":"image/png",
			"name":"Generic_01_A",
			"uri":"Generic_01_A.png"
		}
	],
	"accessors":[
		{
			"bufferView":0,
			"componentType":5126,
			"count":1035,
			"max":[
				37.31330490112305,
				34.140167236328125,
				11.946163177490234
			],
			"min":[
				-44.1883544921875,
				-38.11749267578125,
				-106.40240478515625
			],
			"type":"VEC3"
		},
		{
			"bufferView":1,
			"componentType":5126,
			"count":1035,
			"type":"VEC3"
		},
		{
			"bufferView":2,
			"componentType":5126,
			"count":1035,
			"type":"VEC2"
		},
		{
			"bufferView":3,
			"componentType":5126,
			"count":1035,
			"type":"VEC2"
		},
		{
			"bufferView":4,
			"componentType":5123,
			"count":1155,
			"type":"SCALAR"
		}
	],
	"bufferViews":[
		{
			"buffer":0,
			"byteLength":12420,
			"byteOffset":0,
			"target":34962
		},
		{
			"buffer":0,
			"byteLength":12420,
			"byteOffset":12420,
			"target":34962
		},
		{
			"buffer":0,
			"byteLength":8280,
			"byteOffset":24840,
			"target":34962
		},
		{
			"buffer":0,
			"byteLength":8280,
			"byteOffset":33120,
			"target":34962
		},
		{
			"buffer":0,
			"byteLength":2310,
			"byteOffset":41400,
			"target":34963
		}
	],
	"samplers":[
		{
			"magFilter":9729,
			"minFilter":9987
		}
	],
	"buffers":[
		{
			"byteLength":43712,
			"uri":"SM_Gen_Env_Flowers_04.bin"
		}
	]
}
