{
	"asset":{
		"generator":"Khronos glTF Blender I/O v4.2.70",
		"version":"2.0"
	},
	"scene":0,
	"scenes":[
		{
			"name":"Scene",
			"nodes":[
				0
			]
		}
	],
	"nodes":[
		{
			"mesh":0,
			"name":"SM_Gen_Env_Ground_River_Grass_05",
			"rotation":[
				0.7071068286895752,
				0,
				0,
				0.7071068286895752
			],
			"scale":[
				0.009999999776482582,
				0.009999999776482582,
				0.009999999776482582
			]
		}
	],
	"materials":[
		{
			"doubleSided":true,
			"name":"Polygon_Generic_01A29",
			"pbrMetallicRoughness":{
				"baseColorTexture":{
					"index":0
				},
				"metallicFactor":0,
				"roughnessFactor":0.5527864098548889
			}
		}
	],
	"meshes":[
		{
			"name":"Mesh",
			"primitives":[
				{
					"attributes":{
						"POSITION":0,
						"NORMAL":1,
						"TEXCOORD_0":2
					},
					"indices":3,
					"material":0
				}
			]
		}
	],
	"textures":[
		{
			"sampler":0,
			"source":0
		}
	],
	"images":[
		{
			"mimeType":"image/png",
			"name":"Generic_01_A",
			"uri":"Generic_01_A.png"
		}
	],
	"accessors":[
		{
			"bufferView":0,
			"componentType":5126,
			"count":1088,
			"max":[
				487.44464111328125,
				569.1260986328125,
				33.405616760253906
			],
			"min":[
				-548.0320434570312,
				-107.72492218017578,
				-173.4553680419922
			],
			"type":"VEC3"
		},
		{
			"bufferView":1,
			"componentType":5126,
			"count":1088,
			"type":"VEC3"
		},
		{
			"bufferView":2,
			"componentType":5126,
			"count":1088,
			"type":"VEC2"
		},
		{
			"bufferView":3,
			"componentType":5123,
			"count":1110,
			"type":"SCALAR"
		}
	],
	"bufferViews":[
		{
			"buffer":0,
			"byteLength":13056,
			"byteOffset":0,
			"target":34962
		},
		{
			"buffer":0,
			"byteLength":13056,
			"byteOffset":13056,
			"target":34962
		},
		{
			"buffer":0,
			"byteLength":8704,
			"byteOffset":26112,
			"target":34962
		},
		{
			"buffer":0,
			"byteLength":2220,
			"byteOffset":34816,
			"target":34963
		}
	],
	"samplers":[
		{
			"magFilter":9729,
			"minFilter":9987
		}
	],
	"buffers":[
		{
			"byteLength":37036,
			"uri":"SM_Gen_Env_Ground_River_Grass_05.bin"
		}
	]
}
