{
	"asset":{
		"generator":"Khronos glTF Blender I/O v4.2.70",
		"version":"2.0"
	},
	"scene":0,
	"scenes":[
		{
			"name":"Scene",
			"nodes":[
				0
			]
		}
	],
	"nodes":[
		{
			"mesh":0,
			"name":"SM_Gen_Env_Dirt_Cliff_04",
			"rotation":[
				0.7071068286895752,
				0,
				0,
				0.7071068286895752
			],
			"scale":[
				0.009999999776482582,
				0.009999999776482582,
				0.009999999776482582
			]
		}
	],
	"materials":[
		{
			"doubleSided":true,
			"name":"PolygonNatureBiomesS2_Texture_01A3",
			"pbrMetallicRoughness":{
				"metallicFactor":0,
				"roughnessFactor":0.5527864098548889
			}
		}
	],
	"meshes":[
		{
			"name":"Mesh",
			"primitives":[
				{
					"attributes":{
						"POSITION":0,
						"NORMAL":1,
						"TEXCOORD_0":2
					},
					"indices":3,
					"material":0
				}
			]
		}
	],
	"accessors":[
		{
			"bufferView":0,
			"componentType":5126,
			"count":5136,
			"max":[
				1257.0008544921875,
				716.7193603515625,
				157.8003387451172
			],
			"min":[
				-1297.187744140625,
				-693.5033569335938,
				-838.9326782226562
			],
			"type":"VEC3"
		},
		{
			"bufferView":1,
			"componentType":5126,
			"count":5136,
			"type":"VEC3"
		},
		{
			"bufferView":2,
			"componentType":5126,
			"count":5136,
			"type":"VEC2"
		},
		{
			"bufferView":3,
			"componentType":5123,
			"count":5136,
			"type":"SCALAR"
		}
	],
	"bufferViews":[
		{
			"buffer":0,
			"byteLength":61632,
			"byteOffset":0,
			"target":34962
		},
		{
			"buffer":0,
			"byteLength":61632,
			"byteOffset":61632,
			"target":34962
		},
		{
			"buffer":0,
			"byteLength":41088,
			"byteOffset":123264,
			"target":34962
		},
		{
			"buffer":0,
			"byteLength":10272,
			"byteOffset":164352,
			"target":34963
		}
	],
	"buffers":[
		{
			"byteLength":174624,
			"uri":"SM_Gen_Env_Dirt_Cliff_04.bin"
		}
	]
}
