{
	"asset":{
		"generator":"Khronos glTF Blender I/O v4.2.70",
		"version":"2.0"
	},
	"scene":0,
	"scenes":[
		{
			"name":"Scene",
			"nodes":[
				0
			]
		}
	],
	"nodes":[
		{
			"mesh":0,
			"name":"SM_Gen_Bld_Background_10",
			"rotation":[
				0.7071068286895752,
				0,
				0,
				0.7071068286895752
			],
			"scale":[
				0.009999999776482582,
				0.009999999776482582,
				0.009999999776482582
			]
		}
	],
	"materials":[
		{
			"doubleSided":true,
			"name":"Polygon2",
			"pbrMetallicRoughness":{
				"metallicFactor":0,
				"roughnessFactor":0.5527864098548889
			}
		},
		{
			"doubleSided":true,
			"name":"A_Glass15",
			"pbrMetallicRoughness":{
				"metallicFactor":0,
				"roughnessFactor":0.5527864098548889
			}
		}
	],
	"meshes":[
		{
			"name":"Mesh",
			"primitives":[
				{
					"attributes":{
						"POSITION":0,
						"NORMAL":1,
						"TEXCOORD_0":2
					},
					"indices":3,
					"material":0
				},
				{
					"attributes":{
						"POSITION":4,
						"NORMAL":5,
						"TEXCOORD_0":6
					},
					"indices":7,
					"material":1
				}
			]
		}
	],
	"accessors":[
		{
			"bufferView":0,
			"componentType":5126,
			"count":1464,
			"max":[
				292.623046875,
				297.64471435546875,
				0
			],
			"min":[
				-292.62109375,
				-301.10467529296875,
				-2789.714599609375
			],
			"type":"VEC3"
		},
		{
			"bufferView":1,
			"componentType":5126,
			"count":1464,
			"type":"VEC3"
		},
		{
			"bufferView":2,
			"componentType":5126,
			"count":1464,
			"type":"VEC2"
		},
		{
			"bufferView":3,
			"componentType":5123,
			"count":2202,
			"type":"SCALAR"
		},
		{
			"bufferView":4,
			"componentType":5126,
			"count":16,
			"max":[
				265.005859375,
				268.9101257324219,
				-9.884262084960938
			],
			"min":[
				-265.005859375,
				-275.8300476074219,
				-2387.537841796875
			],
			"type":"VEC3"
		},
		{
			"bufferView":5,
			"componentType":5126,
			"count":16,
			"type":"VEC3"
		},
		{
			"bufferView":6,
			"componentType":5126,
			"count":16,
			"type":"VEC2"
		},
		{
			"bufferView":7,
			"componentType":5123,
			"count":24,
			"type":"SCALAR"
		}
	],
	"bufferViews":[
		{
			"buffer":0,
			"byteLength":17568,
			"byteOffset":0,
			"target":34962
		},
		{
			"buffer":0,
			"byteLength":17568,
			"byteOffset":17568,
			"target":34962
		},
		{
			"buffer":0,
			"byteLength":11712,
			"byteOffset":35136,
			"target":34962
		},
		{
			"buffer":0,
			"byteLength":4404,
			"byteOffset":46848,
			"target":34963
		},
		{
			"buffer":0,
			"byteLength":192,
			"byteOffset":51252,
			"target":34962
		},
		{
			"buffer":0,
			"byteLength":192,
			"byteOffset":51444,
			"target":34962
		},
		{
			"buffer":0,
			"byteLength":128,
			"byteOffset":51636,
			"target":34962
		},
		{
			"buffer":0,
			"byteLength":48,
			"byteOffset":51764,
			"target":34963
		}
	],
	"buffers":[
		{
			"byteLength":51812,
			"uri":"SM_Gen_Bld_Background_10.bin"
		}
	]
}
