{
	"asset":{
		"generator":"Khronos glTF Blender I/O v4.2.70",
		"version":"2.0"
	},
	"scene":0,
	"scenes":[
		{
			"name":"Scene",
			"nodes":[
				0
			]
		}
	],
	"nodes":[
		{
			"mesh":0,
			"name":"SM_Gen_Env_Grass_06",
			"rotation":[
				0.7071068286895752,
				0,
				0,
				0.7071068286895752
			],
			"scale":[
				0.009999999776482582,
				0.009999999776482582,
				0.009999999776482582
			]
		}
	],
	"materials":[
		{
			"doubleSided":true,
			"name":"Polygon_Generic_01A",
			"pbrMetallicRoughness":{
				"baseColorTexture":{
					"index":0
				},
				"metallicFactor":0,
				"roughnessFactor":0.5527864098548889
			}
		}
	],
	"meshes":[
		{
			"name":"Mesh",
			"primitives":[
				{
					"attributes":{
						"POSITION":0,
						"NORMAL":1,
						"TEXCOORD_0":2,
						"TEXCOORD_1":3
					},
					"indices":4,
					"material":0
				}
			]
		}
	],
	"textures":[
		{
			"sampler":0,
			"source":0
		}
	],
	"images":[
		{
			"mimeType":"image/png",
			"name":"Generic_01_A",
			"uri":"Generic_01_A.png"
		}
	],
	"accessors":[
		{
			"bufferView":0,
			"componentType":5126,
			"count":10140,
			"max":[
				300.94775390625,
				331.2254943847656,
				10.67325210571289
			],
			"min":[
				-373.40972900390625,
				-390.74188232421875,
				-80.4949951171875
			],
			"type":"VEC3"
		},
		{
			"bufferView":1,
			"componentType":5126,
			"count":10140,
			"type":"VEC3"
		},
		{
			"bufferView":2,
			"componentType":5126,
			"count":10140,
			"type":"VEC2"
		},
		{
			"bufferView":3,
			"componentType":5126,
			"count":10140,
			"type":"VEC2"
		},
		{
			"bufferView":4,
			"componentType":5123,
			"count":13800,
			"type":"SCALAR"
		}
	],
	"bufferViews":[
		{
			"buffer":0,
			"byteLength":121680,
			"byteOffset":0,
			"target":34962
		},
		{
			"buffer":0,
			"byteLength":121680,
			"byteOffset":121680,
			"target":34962
		},
		{
			"buffer":0,
			"byteLength":81120,
			"byteOffset":243360,
			"target":34962
		},
		{
			"buffer":0,
			"byteLength":81120,
			"byteOffset":324480,
			"target":34962
		},
		{
			"buffer":0,
			"byteLength":27600,
			"byteOffset":405600,
			"target":34963
		}
	],
	"samplers":[
		{
			"magFilter":9729,
			"minFilter":9987
		}
	],
	"buffers":[
		{
			"byteLength":433200,
			"uri":"SM_Gen_Env_Grass_06.bin"
		}
	]
}
