{
	"asset":{
		"generator":"Khronos glTF Blender I/O v4.2.70",
		"version":"2.0"
	},
	"scene":0,
	"scenes":[
		{
			"name":"Scene",
			"nodes":[
				0
			]
		}
	],
	"nodes":[
		{
			"mesh":0,
			"name":"SM_Gen_Env_Stump_01",
			"rotation":[
				0.7071068286895752,
				0,
				0,
				0.7071068286895752
			],
			"scale":[
				0.009999999776482582,
				0.009999999776482582,
				0.009999999776482582
			]
		}
	],
	"materials":[
		{
			"doubleSided":true,
			"name":"Polygon_Generic_01A",
			"pbrMetallicRoughness":{
				"baseColorTexture":{
					"index":0
				},
				"metallicFactor":0,
				"roughnessFactor":0.5527864098548889
			}
		}
	],
	"meshes":[
		{
			"name":"Mesh",
			"primitives":[
				{
					"attributes":{
						"POSITION":0,
						"NORMAL":1,
						"TEXCOORD_0":2,
						"COLOR_0":3,
						"COLOR_1":4
					},
					"indices":5,
					"material":0
				}
			]
		}
	],
	"textures":[
		{
			"sampler":0,
			"source":0
		}
	],
	"images":[
		{
			"mimeType":"image/png",
			"name":"Generic_01_A",
			"uri":"Generic_01_A.png"
		}
	],
	"accessors":[
		{
			"bufferView":0,
			"componentType":5126,
			"count":318,
			"max":[
				31.542621612548828,
				29.062808990478516,
				34.7239990234375
			],
			"min":[
				-27.28460693359375,
				-28.95612907409668,
				-108.43028259277344
			],
			"type":"VEC3"
		},
		{
			"bufferView":1,
			"componentType":5126,
			"count":318,
			"type":"VEC3"
		},
		{
			"bufferView":2,
			"componentType":5126,
			"count":318,
			"type":"VEC2"
		},
		{
			"bufferView":3,
			"componentType":5121,
			"count":318,
			"normalized":true,
			"type":"VEC4"
		},
		{
			"bufferView":4,
			"componentType":5126,
			"count":318,
			"type":"VEC3"
		},
		{
			"bufferView":5,
			"componentType":5123,
			"count":366,
			"type":"SCALAR"
		}
	],
	"bufferViews":[
		{
			"buffer":0,
			"byteLength":3816,
			"byteOffset":0,
			"target":34962
		},
		{
			"buffer":0,
			"byteLength":3816,
			"byteOffset":3816,
			"target":34962
		},
		{
			"buffer":0,
			"byteLength":2544,
			"byteOffset":7632,
			"target":34962
		},
		{
			"buffer":0,
			"byteLength":1272,
			"byteOffset":10176,
			"target":34962
		},
		{
			"buffer":0,
			"byteLength":3816,
			"byteOffset":11448,
			"target":34962
		},
		{
			"buffer":0,
			"byteLength":732,
			"byteOffset":15264,
			"target":34963
		}
	],
	"samplers":[
		{
			"magFilter":9729,
			"minFilter":9987
		}
	],
	"buffers":[
		{
			"byteLength":15996,
			"uri":"SM_Gen_Env_Stump_01.bin"
		}
	]
}
