{
	"asset":{
		"generator":"Khronos glTF Blender I/O v4.2.70",
		"version":"2.0"
	},
	"scene":0,
	"scenes":[
		{
			"name":"Scene",
			"nodes":[
				0
			]
		}
	],
	"nodes":[
		{
			"mesh":0,
			"name":"SM_Gen_Env_Vines_05",
			"rotation":[
				0.7071068286895752,
				0,
				0,
				0.7071068286895752
			],
			"scale":[
				0.009999999776482582,
				0.009999999776482582,
				0.009999999776482582
			]
		}
	],
	"materials":[
		{
			"doubleSided":true,
			"name":"Polygon_Generic_01A",
			"pbrMetallicRoughness":{
				"metallicFactor":0,
				"roughnessFactor":0.5527864098548889
			}
		}
	],
	"meshes":[
		{
			"name":"Mesh",
			"primitives":[
				{
					"attributes":{
						"POSITION":0,
						"NORMAL":1,
						"TEXCOORD_0":2,
						"COLOR_0":3,
						"COLOR_1":4
					},
					"indices":5,
					"material":0
				}
			]
		}
	],
	"accessors":[
		{
			"bufferView":0,
			"componentType":5126,
			"count":1460,
			"max":[
				55.849815368652344,
				28.72431182861328,
				184.46621704101562
			],
			"min":[
				-55.84980392456055,
				-28.72431182861328,
				-13.422409057617188
			],
			"type":"VEC3"
		},
		{
			"bufferView":1,
			"componentType":5126,
			"count":1460,
			"type":"VEC3"
		},
		{
			"bufferView":2,
			"componentType":5126,
			"count":1460,
			"type":"VEC2"
		},
		{
			"bufferView":3,
			"componentType":5121,
			"count":1460,
			"normalized":true,
			"type":"VEC4"
		},
		{
			"bufferView":4,
			"componentType":5126,
			"count":1460,
			"type":"VEC3"
		},
		{
			"bufferView":5,
			"componentType":5123,
			"count":2148,
			"type":"SCALAR"
		}
	],
	"bufferViews":[
		{
			"buffer":0,
			"byteLength":17520,
			"byteOffset":0,
			"target":34962
		},
		{
			"buffer":0,
			"byteLength":17520,
			"byteOffset":17520,
			"target":34962
		},
		{
			"buffer":0,
			"byteLength":11680,
			"byteOffset":35040,
			"target":34962
		},
		{
			"buffer":0,
			"byteLength":5840,
			"byteOffset":46720,
			"target":34962
		},
		{
			"buffer":0,
			"byteLength":17520,
			"byteOffset":52560,
			"target":34962
		},
		{
			"buffer":0,
			"byteLength":4296,
			"byteOffset":70080,
			"target":34963
		}
	],
	"buffers":[
		{
			"byteLength":74376,
			"uri":"SM_Gen_Env_Vines_05.bin"
		}
	]
}
