{
	"asset":{
		"generator":"Khronos glTF Blender I/O v4.2.70",
		"version":"2.0"
	},
	"scene":0,
	"scenes":[
		{
			"name":"Scene",
			"nodes":[
				0
			]
		}
	],
	"nodes":[
		{
			"mesh":0,
			"name":"SM_Gen_Env_Road_Gravel_Straight_01",
			"rotation":[
				0.7071068286895752,
				0,
				0,
				0.7071068286895752
			],
			"scale":[
				0.009999999776482582,
				0.009999999776482582,
				0.009999999776482582
			]
		}
	],
	"materials":[
		{
			"doubleSided":true,
			"name":"Polygon_Generic_01A47",
			"pbrMetallicRoughness":{
				"baseColorTexture":{
					"index":0
				},
				"metallicFactor":0,
				"roughnessFactor":0.5527864098548889
			}
		}
	],
	"meshes":[
		{
			"name":"Mesh",
			"primitives":[
				{
					"attributes":{
						"POSITION":0,
						"NORMAL":1,
						"TEXCOORD_0":2,
						"TEXCOORD_1":3
					},
					"indices":4,
					"material":0
				}
			]
		}
	],
	"textures":[
		{
			"sampler":0,
			"source":0
		}
	],
	"images":[
		{
			"mimeType":"image/png",
			"name":"Generic_01_A",
			"uri":"Generic_01_A.png"
		}
	],
	"accessors":[
		{
			"bufferView":0,
			"componentType":5126,
			"count":470,
			"max":[
				172.95018005371094,
				51.966434478759766,
				8.503124237060547
			],
			"min":[
				-147.40359497070312,
				-342.58447265625,
				-16.525419235229492
			],
			"type":"VEC3"
		},
		{
			"bufferView":1,
			"componentType":5126,
			"count":470,
			"type":"VEC3"
		},
		{
			"bufferView":2,
			"componentType":5126,
			"count":470,
			"type":"VEC2"
		},
		{
			"bufferView":3,
			"componentType":5126,
			"count":470,
			"type":"VEC2"
		},
		{
			"bufferView":4,
			"componentType":5123,
			"count":492,
			"type":"SCALAR"
		}
	],
	"bufferViews":[
		{
			"buffer":0,
			"byteLength":5640,
			"byteOffset":0,
			"target":34962
		},
		{
			"buffer":0,
			"byteLength":5640,
			"byteOffset":5640,
			"target":34962
		},
		{
			"buffer":0,
			"byteLength":3760,
			"byteOffset":11280,
			"target":34962
		},
		{
			"buffer":0,
			"byteLength":3760,
			"byteOffset":15040,
			"target":34962
		},
		{
			"buffer":0,
			"byteLength":984,
			"byteOffset":18800,
			"target":34963
		}
	],
	"samplers":[
		{
			"magFilter":9729,
			"minFilter":9987
		}
	],
	"buffers":[
		{
			"byteLength":19784,
			"uri":"SM_Gen_Env_Road_Gravel_Straight_01.bin"
		}
	]
}
