{
	"asset":{
		"generator":"Khronos glTF Blender I/O v4.2.70",
		"version":"2.0"
	},
	"scene":0,
	"scenes":[
		{
			"name":"Scene",
			"nodes":[
				0
			]
		}
	],
	"nodes":[
		{
			"mesh":0,
			"name":"SM_Gen_Env_Bush_03",
			"rotation":[
				0.7071068286895752,
				0,
				0,
				0.7071068286895752
			],
			"scale":[
				0.009999999776482582,
				0.009999999776482582,
				0.009999999776482582
			]
		}
	],
	"materials":[
		{
			"doubleSided":true,
			"name":"Polygon_Generic_01A2",
			"pbrMetallicRoughness":{
				"baseColorTexture":{
					"index":0
				},
				"metallicFactor":0,
				"roughnessFactor":0.5527864098548889
			}
		}
	],
	"meshes":[
		{
			"name":"Mesh",
			"primitives":[
				{
					"attributes":{
						"POSITION":0,
						"NORMAL":1,
						"TEXCOORD_0":2,
						"TEXCOORD_1":3
					},
					"indices":4,
					"material":0
				}
			]
		}
	],
	"textures":[
		{
			"sampler":0,
			"source":0
		}
	],
	"images":[
		{
			"mimeType":"image/png",
			"name":"Generic_01_A",
			"uri":"Generic_01_A.png"
		}
	],
	"accessors":[
		{
			"bufferView":0,
			"componentType":5126,
			"count":814,
			"max":[
				153.02969360351562,
				113.72767639160156,
				22.913822174072266
			],
			"min":[
				-117.73081970214844,
				-128.14163208007812,
				-148.65065002441406
			],
			"type":"VEC3"
		},
		{
			"bufferView":1,
			"componentType":5126,
			"count":814,
			"type":"VEC3"
		},
		{
			"bufferView":2,
			"componentType":5126,
			"count":814,
			"type":"VEC2"
		},
		{
			"bufferView":3,
			"componentType":5126,
			"count":814,
			"type":"VEC2"
		},
		{
			"bufferView":4,
			"componentType":5123,
			"count":816,
			"type":"SCALAR"
		}
	],
	"bufferViews":[
		{
			"buffer":0,
			"byteLength":9768,
			"byteOffset":0,
			"target":34962
		},
		{
			"buffer":0,
			"byteLength":9768,
			"byteOffset":9768,
			"target":34962
		},
		{
			"buffer":0,
			"byteLength":6512,
			"byteOffset":19536,
			"target":34962
		},
		{
			"buffer":0,
			"byteLength":6512,
			"byteOffset":26048,
			"target":34962
		},
		{
			"buffer":0,
			"byteLength":1632,
			"byteOffset":32560,
			"target":34963
		}
	],
	"samplers":[
		{
			"magFilter":9729,
			"minFilter":9987
		}
	],
	"buffers":[
		{
			"byteLength":34192,
			"uri":"SM_Gen_Env_Bush_03.bin"
		}
	]
}
