{
	"asset":{
		"generator":"Khronos glTF Blender I/O v4.2.70",
		"version":"2.0"
	},
	"scene":0,
	"scenes":[
		{
			"name":"Scene",
			"nodes":[
				0
			]
		}
	],
	"nodes":[
		{
			"mesh":0,
			"name":"SM_Gen_Bld_Background_07",
			"rotation":[
				0.7071068286895752,
				0,
				0,
				0.7071068286895752
			],
			"scale":[
				0.009999999776482582,
				0.009999999776482582,
				0.009999999776482582
			]
		}
	],
	"materials":[
		{
			"doubleSided":true,
			"name":"Polygon11",
			"pbrMetallicRoughness":{
				"metallicFactor":0,
				"roughnessFactor":0.5527864098548889
			}
		},
		{
			"doubleSided":true,
			"name":"A_Glass22",
			"pbrMetallicRoughness":{
				"metallicFactor":0,
				"roughnessFactor":0.5527864098548889
			}
		}
	],
	"meshes":[
		{
			"name":"Mesh",
			"primitives":[
				{
					"attributes":{
						"POSITION":0,
						"NORMAL":1,
						"TEXCOORD_0":2
					},
					"indices":3,
					"material":0
				},
				{
					"attributes":{
						"POSITION":4,
						"NORMAL":5,
						"TEXCOORD_0":6
					},
					"indices":7,
					"material":1
				}
			]
		}
	],
	"accessors":[
		{
			"bufferView":0,
			"componentType":5126,
			"count":1416,
			"max":[
				691.8525390625,
				690.828369140625,
				0
			],
			"min":[
				-691.8525390625,
				-690.828369140625,
				-1726.3232421875
			],
			"type":"VEC3"
		},
		{
			"bufferView":1,
			"componentType":5126,
			"count":1416,
			"type":"VEC3"
		},
		{
			"bufferView":2,
			"componentType":5126,
			"count":1416,
			"type":"VEC2"
		},
		{
			"bufferView":3,
			"componentType":5123,
			"count":2232,
			"type":"SCALAR"
		},
		{
			"bufferView":4,
			"componentType":5126,
			"count":16,
			"max":[
				650.53515625,
				652.171875,
				-9.884262084960938
			],
			"min":[
				-650.5419921875,
				-657.9642944335938,
				-1611.078857421875
			],
			"type":"VEC3"
		},
		{
			"bufferView":5,
			"componentType":5126,
			"count":16,
			"type":"VEC3"
		},
		{
			"bufferView":6,
			"componentType":5126,
			"count":16,
			"type":"VEC2"
		},
		{
			"bufferView":7,
			"componentType":5123,
			"count":24,
			"type":"SCALAR"
		}
	],
	"bufferViews":[
		{
			"buffer":0,
			"byteLength":16992,
			"byteOffset":0,
			"target":34962
		},
		{
			"buffer":0,
			"byteLength":16992,
			"byteOffset":16992,
			"target":34962
		},
		{
			"buffer":0,
			"byteLength":11328,
			"byteOffset":33984,
			"target":34962
		},
		{
			"buffer":0,
			"byteLength":4464,
			"byteOffset":45312,
			"target":34963
		},
		{
			"buffer":0,
			"byteLength":192,
			"byteOffset":49776,
			"target":34962
		},
		{
			"buffer":0,
			"byteLength":192,
			"byteOffset":49968,
			"target":34962
		},
		{
			"buffer":0,
			"byteLength":128,
			"byteOffset":50160,
			"target":34962
		},
		{
			"buffer":0,
			"byteLength":48,
			"byteOffset":50288,
			"target":34963
		}
	],
	"buffers":[
		{
			"byteLength":50336,
			"uri":"SM_Gen_Bld_Background_07.bin"
		}
	]
}
