{
	"asset":{
		"generator":"Khronos glTF Blender I/O v4.2.70",
		"version":"2.0"
	},
	"scene":0,
	"scenes":[
		{
			"name":"Scene",
			"nodes":[
				0
			]
		}
	],
	"nodes":[
		{
			"mesh":0,
			"name":"SM_Gen_Prop_Chain_02",
			"rotation":[
				0.7071068286895752,
				0,
				0,
				0.7071068286895752
			],
			"scale":[
				0.009999999776482582,
				0.009999999776482582,
				0.009999999776482582
			]
		}
	],
	"materials":[
		{
			"doubleSided":true,
			"name":"Polygon_Generic_01A",
			"pbrMetallicRoughness":{
				"baseColorTexture":{
					"index":0
				},
				"metallicFactor":0,
				"roughnessFactor":0.5527864098548889
			}
		}
	],
	"meshes":[
		{
			"name":"Mesh",
			"primitives":[
				{
					"attributes":{
						"POSITION":0,
						"NORMAL":1,
						"TEXCOORD_0":2,
						"TEXCOORD_1":3
					},
					"indices":4,
					"material":0
				}
			]
		}
	],
	"textures":[
		{
			"sampler":0,
			"source":0
		}
	],
	"images":[
		{
			"mimeType":"image/png",
			"name":"Generic_01_A",
			"uri":"Generic_01_A.png"
		}
	],
	"accessors":[
		{
			"bufferView":0,
			"componentType":5126,
			"count":2364,
			"max":[
				107.94400024414062,
				3.9823102951049805,
				114.48109436035156
			],
			"min":[
				-108.72726440429688,
				-4.085515022277832,
				-4.350059509277344
			],
			"type":"VEC3"
		},
		{
			"bufferView":1,
			"componentType":5126,
			"count":2364,
			"type":"VEC3"
		},
		{
			"bufferView":2,
			"componentType":5126,
			"count":2364,
			"type":"VEC2"
		},
		{
			"bufferView":3,
			"componentType":5126,
			"count":2364,
			"type":"VEC2"
		},
		{
			"bufferView":4,
			"componentType":5123,
			"count":4032,
			"type":"SCALAR"
		}
	],
	"bufferViews":[
		{
			"buffer":0,
			"byteLength":28368,
			"byteOffset":0,
			"target":34962
		},
		{
			"buffer":0,
			"byteLength":28368,
			"byteOffset":28368,
			"target":34962
		},
		{
			"buffer":0,
			"byteLength":18912,
			"byteOffset":56736,
			"target":34962
		},
		{
			"buffer":0,
			"byteLength":18912,
			"byteOffset":75648,
			"target":34962
		},
		{
			"buffer":0,
			"byteLength":8064,
			"byteOffset":94560,
			"target":34963
		}
	],
	"samplers":[
		{
			"magFilter":9729,
			"minFilter":9987
		}
	],
	"buffers":[
		{
			"byteLength":102624,
			"uri":"SM_Gen_Prop_Chain_02.bin"
		}
	]
}
