{
	"asset":{
		"generator":"Khronos glTF Blender I/O v4.2.70",
		"version":"2.0"
	},
	"scene":0,
	"scenes":[
		{
			"name":"Scene",
			"nodes":[
				0
			]
		}
	],
	"nodes":[
		{
			"mesh":0,
			"name":"SM_Gen_Env_Ground_River_Dirt_03",
			"rotation":[
				0.7071068286895752,
				0,
				0,
				0.7071068286895752
			],
			"scale":[
				0.009999999776482582,
				0.009999999776482582,
				0.009999999776482582
			]
		}
	],
	"materials":[
		{
			"doubleSided":true,
			"name":"Polygon_Generic_01A17",
			"pbrMetallicRoughness":{
				"baseColorTexture":{
					"index":0
				},
				"metallicFactor":0,
				"roughnessFactor":0.5527864098548889
			}
		}
	],
	"meshes":[
		{
			"name":"Mesh",
			"primitives":[
				{
					"attributes":{
						"POSITION":0,
						"NORMAL":1,
						"TEXCOORD_0":2
					},
					"indices":3,
					"material":0
				}
			]
		}
	],
	"textures":[
		{
			"sampler":0,
			"source":0
		}
	],
	"images":[
		{
			"mimeType":"image/png",
			"name":"Generic_01_A",
			"uri":"Generic_01_A.png"
		}
	],
	"accessors":[
		{
			"bufferView":0,
			"componentType":5126,
			"count":1326,
			"max":[
				542.5946655273438,
				247.3306884765625,
				30.163799285888672
			],
			"min":[
				-581.1174926757812,
				-449.8636474609375,
				-334.2239685058594
			],
			"type":"VEC3"
		},
		{
			"bufferView":1,
			"componentType":5126,
			"count":1326,
			"type":"VEC3"
		},
		{
			"bufferView":2,
			"componentType":5126,
			"count":1326,
			"type":"VEC2"
		},
		{
			"bufferView":3,
			"componentType":5123,
			"count":1326,
			"type":"SCALAR"
		}
	],
	"bufferViews":[
		{
			"buffer":0,
			"byteLength":15912,
			"byteOffset":0,
			"target":34962
		},
		{
			"buffer":0,
			"byteLength":15912,
			"byteOffset":15912,
			"target":34962
		},
		{
			"buffer":0,
			"byteLength":10608,
			"byteOffset":31824,
			"target":34962
		},
		{
			"buffer":0,
			"byteLength":2652,
			"byteOffset":42432,
			"target":34963
		}
	],
	"samplers":[
		{
			"magFilter":9729,
			"minFilter":9987
		}
	],
	"buffers":[
		{
			"byteLength":45084,
			"uri":"SM_Gen_Env_Ground_River_Dirt_03.bin"
		}
	]
}
