{
	"asset":{
		"generator":"Khronos glTF Blender I/O v4.2.70",
		"version":"2.0"
	},
	"scene":0,
	"scenes":[
		{
			"name":"Scene",
			"nodes":[
				0
			]
		}
	],
	"nodes":[
		{
			"mesh":0,
			"name":"SM_Gen_Prop_Statue_05",
			"rotation":[
				0.7071068286895752,
				0,
				0,
				0.7071068286895752
			],
			"scale":[
				0.009999999776482582,
				0.009999999776482582,
				0.009999999776482582
			]
		}
	],
	"materials":[
		{
			"doubleSided":true,
			"name":"Viking_01A",
			"pbrMetallicRoughness":{
				"baseColorTexture":{
					"index":0
				},
				"metallicFactor":0,
				"roughnessFactor":0.5527864098548889
			}
		}
	],
	"meshes":[
		{
			"name":"Mesh",
			"primitives":[
				{
					"attributes":{
						"POSITION":0,
						"NORMAL":1,
						"TEXCOORD_0":2,
						"TEXCOORD_1":3,
						"COLOR_0":4,
						"COLOR_1":5
					},
					"indices":6,
					"material":0
				}
			]
		}
	],
	"textures":[
		{
			"sampler":0,
			"source":0
		}
	],
	"images":[
		{
			"mimeType":"image/png",
			"name":"Generic_01_A",
			"uri":"Generic_01_A.png"
		}
	],
	"accessors":[
		{
			"bufferView":0,
			"componentType":5126,
			"count":4682,
			"max":[
				44.480926513671875,
				34.347816467285156,
				0.1777181625366211
			],
			"min":[
				-29.993045806884766,
				-40.79792022705078,
				-285.00067138671875
			],
			"type":"VEC3"
		},
		{
			"bufferView":1,
			"componentType":5126,
			"count":4682,
			"type":"VEC3"
		},
		{
			"bufferView":2,
			"componentType":5126,
			"count":4682,
			"type":"VEC2"
		},
		{
			"bufferView":3,
			"componentType":5126,
			"count":4682,
			"type":"VEC2"
		},
		{
			"bufferView":4,
			"componentType":5121,
			"count":4682,
			"normalized":true,
			"type":"VEC4"
		},
		{
			"bufferView":5,
			"componentType":5126,
			"count":4682,
			"type":"VEC3"
		},
		{
			"bufferView":6,
			"componentType":5123,
			"count":5244,
			"type":"SCALAR"
		}
	],
	"bufferViews":[
		{
			"buffer":0,
			"byteLength":56184,
			"byteOffset":0,
			"target":34962
		},
		{
			"buffer":0,
			"byteLength":56184,
			"byteOffset":56184,
			"target":34962
		},
		{
			"buffer":0,
			"byteLength":37456,
			"byteOffset":112368,
			"target":34962
		},
		{
			"buffer":0,
			"byteLength":37456,
			"byteOffset":149824,
			"target":34962
		},
		{
			"buffer":0,
			"byteLength":18728,
			"byteOffset":187280,
			"target":34962
		},
		{
			"buffer":0,
			"byteLength":56184,
			"byteOffset":206008,
			"target":34962
		},
		{
			"buffer":0,
			"byteLength":10488,
			"byteOffset":262192,
			"target":34963
		}
	],
	"samplers":[
		{
			"magFilter":9729,
			"minFilter":9987
		}
	],
	"buffers":[
		{
			"byteLength":272680,
			"uri":"SM_Gen_Prop_Statue_05.bin"
		}
	]
}
