{
	"asset":{
		"generator":"Khronos glTF Blender I/O v4.2.70",
		"version":"2.0"
	},
	"scene":0,
	"scenes":[
		{
			"name":"Scene",
			"nodes":[
				0
			]
		}
	],
	"nodes":[
		{
			"mesh":0,
			"name":"SM_Gen_Env_Cliff_03",
			"rotation":[
				0.7071068286895752,
				0,
				0,
				0.7071068286895752
			],
			"scale":[
				0.009999999776482582,
				0.009999999776482582,
				0.009999999776482582
			]
		}
	],
	"materials":[
		{
			"doubleSided":true,
			"name":"Polygon_Generic_01A",
			"pbrMetallicRoughness":{
				"metallicFactor":0,
				"roughnessFactor":0.5527864098548889
			}
		}
	],
	"meshes":[
		{
			"name":"Mesh",
			"primitives":[
				{
					"attributes":{
						"POSITION":0,
						"NORMAL":1,
						"TEXCOORD_0":2,
						"TEXCOORD_1":3
					},
					"indices":4,
					"material":0
				}
			]
		}
	],
	"accessors":[
		{
			"bufferView":0,
			"componentType":5126,
			"count":885,
			"max":[
				378.7889099121094,
				526.0194091796875,
				134.3878173828125
			],
			"min":[
				-388.486083984375,
				-555.9368286132812,
				-1147.056396484375
			],
			"type":"VEC3"
		},
		{
			"bufferView":1,
			"componentType":5126,
			"count":885,
			"type":"VEC3"
		},
		{
			"bufferView":2,
			"componentType":5126,
			"count":885,
			"type":"VEC2"
		},
		{
			"bufferView":3,
			"componentType":5126,
			"count":885,
			"type":"VEC2"
		},
		{
			"bufferView":4,
			"componentType":5123,
			"count":1230,
			"type":"SCALAR"
		}
	],
	"bufferViews":[
		{
			"buffer":0,
			"byteLength":10620,
			"byteOffset":0,
			"target":34962
		},
		{
			"buffer":0,
			"byteLength":10620,
			"byteOffset":10620,
			"target":34962
		},
		{
			"buffer":0,
			"byteLength":7080,
			"byteOffset":21240,
			"target":34962
		},
		{
			"buffer":0,
			"byteLength":7080,
			"byteOffset":28320,
			"target":34962
		},
		{
			"buffer":0,
			"byteLength":2460,
			"byteOffset":35400,
			"target":34963
		}
	],
	"buffers":[
		{
			"byteLength":37860,
			"uri":"SM_Gen_Env_Cliff_03.bin"
		}
	]
}
