{
	"asset":{
		"generator":"Khronos glTF Blender I/O v4.2.70",
		"version":"2.0"
	},
	"scene":0,
	"scenes":[
		{
			"name":"Scene",
			"nodes":[
				1
			]
		}
	],
	"nodes":[
		{
			"mesh":0,
			"name":"SM_Gen_Prop_Button_02_Button_01"
		},
		{
			"children":[
				0
			],
			"mesh":1,
			"name":"SM_Gen_Prop_Button_02",
			"rotation":[
				0.7071068286895752,
				0,
				0,
				0.7071068286895752
			],
			"scale":[
				0.009999999776482582,
				0.009999999776482582,
				0.009999999776482582
			]
		}
	],
	"materials":[
		{
			"doubleSided":true,
			"name":"Polygon_Generic_01A",
			"pbrMetallicRoughness":{
				"baseColorTexture":{
					"index":0
				},
				"metallicFactor":0,
				"roughnessFactor":0.5527864098548889
			}
		}
	],
	"meshes":[
		{
			"name":"Mesh.001",
			"primitives":[
				{
					"attributes":{
						"POSITION":0,
						"NORMAL":1,
						"TEXCOORD_0":2
					},
					"indices":3,
					"material":0
				}
			]
		},
		{
			"name":"Mesh",
			"primitives":[
				{
					"attributes":{
						"POSITION":4,
						"NORMAL":5,
						"TEXCOORD_0":6
					},
					"indices":7,
					"material":0
				}
			]
		}
	],
	"textures":[
		{
			"sampler":0,
			"source":0
		}
	],
	"images":[
		{
			"mimeType":"image/png",
			"name":"Generic_01_A",
			"uri":"Generic_01_A.png"
		}
	],
	"accessors":[
		{
			"bufferView":0,
			"componentType":5126,
			"count":73,
			"max":[
				4.357607364654541,
				4.357606887817383,
				0
			],
			"min":[
				-4.35761022567749,
				-4.357606887817383,
				-3.2798614501953125
			],
			"type":"VEC3"
		},
		{
			"bufferView":1,
			"componentType":5126,
			"count":73,
			"type":"VEC3"
		},
		{
			"bufferView":2,
			"componentType":5126,
			"count":73,
			"type":"VEC2"
		},
		{
			"bufferView":3,
			"componentType":5123,
			"count":120,
			"type":"SCALAR"
		},
		{
			"bufferView":4,
			"componentType":5126,
			"count":57,
			"max":[
				6.486853122711182,
				6.486852645874023,
				0
			],
			"min":[
				-6.486852645874023,
				-6.486852645874023,
				-1.0619531869888306
			],
			"type":"VEC3"
		},
		{
			"bufferView":5,
			"componentType":5126,
			"count":57,
			"type":"VEC3"
		},
		{
			"bufferView":6,
			"componentType":5126,
			"count":57,
			"type":"VEC2"
		},
		{
			"bufferView":7,
			"componentType":5123,
			"count":120,
			"type":"SCALAR"
		}
	],
	"bufferViews":[
		{
			"buffer":0,
			"byteLength":876,
			"byteOffset":0,
			"target":34962
		},
		{
			"buffer":0,
			"byteLength":876,
			"byteOffset":876,
			"target":34962
		},
		{
			"buffer":0,
			"byteLength":584,
			"byteOffset":1752,
			"target":34962
		},
		{
			"buffer":0,
			"byteLength":240,
			"byteOffset":2336,
			"target":34963
		},
		{
			"buffer":0,
			"byteLength":684,
			"byteOffset":2576,
			"target":34962
		},
		{
			"buffer":0,
			"byteLength":684,
			"byteOffset":3260,
			"target":34962
		},
		{
			"buffer":0,
			"byteLength":456,
			"byteOffset":3944,
			"target":34962
		},
		{
			"buffer":0,
			"byteLength":240,
			"byteOffset":4400,
			"target":34963
		}
	],
	"samplers":[
		{
			"magFilter":9729,
			"minFilter":9987
		}
	],
	"buffers":[
		{
			"byteLength":4640,
			"uri":"SM_Gen_Prop_Button_02.bin"
		}
	]
}
