{
	"asset":{
		"generator":"Khronos glTF Blender I/O v4.2.70",
		"version":"2.0"
	},
	"scene":0,
	"scenes":[
		{
			"name":"Scene",
			"nodes":[
				0
			]
		}
	],
	"nodes":[
		{
			"mesh":0,
			"name":"SM_Gen_Prop_Statue_04",
			"rotation":[
				0.7071068286895752,
				0,
				0,
				0.7071068286895752
			],
			"scale":[
				0.009999999776482582,
				0.009999999776482582,
				0.009999999776482582
			]
		}
	],
	"materials":[
		{
			"doubleSided":true,
			"name":"Viking_01A",
			"pbrMetallicRoughness":{
				"baseColorTexture":{
					"index":0
				},
				"metallicFactor":0,
				"roughnessFactor":0.5527864098548889
			}
		}
	],
	"meshes":[
		{
			"name":"Mesh",
			"primitives":[
				{
					"attributes":{
						"POSITION":0,
						"NORMAL":1,
						"TEXCOORD_0":2,
						"COLOR_0":3,
						"COLOR_1":4
					},
					"indices":5,
					"material":0
				}
			]
		}
	],
	"textures":[
		{
			"sampler":0,
			"source":0
		}
	],
	"images":[
		{
			"mimeType":"image/png",
			"name":"Generic_01_A",
			"uri":"Generic_01_A.png"
		}
	],
	"accessors":[
		{
			"bufferView":0,
			"componentType":5126,
			"count":2920,
			"max":[
				49.856361389160156,
				34.02815628051758,
				2.3502254486083984
			],
			"min":[
				-60.25712966918945,
				-20.90980339050293,
				-175.91407775878906
			],
			"type":"VEC3"
		},
		{
			"bufferView":1,
			"componentType":5126,
			"count":2920,
			"type":"VEC3"
		},
		{
			"bufferView":2,
			"componentType":5126,
			"count":2920,
			"type":"VEC2"
		},
		{
			"bufferView":3,
			"componentType":5121,
			"count":2920,
			"normalized":true,
			"type":"VEC4"
		},
		{
			"bufferView":4,
			"componentType":5126,
			"count":2920,
			"type":"VEC3"
		},
		{
			"bufferView":5,
			"componentType":5123,
			"count":3084,
			"type":"SCALAR"
		}
	],
	"bufferViews":[
		{
			"buffer":0,
			"byteLength":35040,
			"byteOffset":0,
			"target":34962
		},
		{
			"buffer":0,
			"byteLength":35040,
			"byteOffset":35040,
			"target":34962
		},
		{
			"buffer":0,
			"byteLength":23360,
			"byteOffset":70080,
			"target":34962
		},
		{
			"buffer":0,
			"byteLength":11680,
			"byteOffset":93440,
			"target":34962
		},
		{
			"buffer":0,
			"byteLength":35040,
			"byteOffset":105120,
			"target":34962
		},
		{
			"buffer":0,
			"byteLength":6168,
			"byteOffset":140160,
			"target":34963
		}
	],
	"samplers":[
		{
			"magFilter":9729,
			"minFilter":9987
		}
	],
	"buffers":[
		{
			"byteLength":146328,
			"uri":"SM_Gen_Prop_Statue_04.bin"
		}
	]
}
