{
	"asset":{
		"generator":"Khronos glTF Blender I/O v4.2.70",
		"version":"2.0"
	},
	"scene":0,
	"scenes":[
		{
			"name":"Scene",
			"nodes":[
				0
			]
		}
	],
	"nodes":[
		{
			"mesh":0,
			"name":"SM_Gen_Bld_Background_02",
			"rotation":[
				0.7071068286895752,
				0,
				0,
				0.7071068286895752
			],
			"scale":[
				0.009999999776482582,
				0.009999999776482582,
				0.009999999776482582
			]
		}
	],
	"materials":[
		{
			"doubleSided":true,
			"name":"Polygon5",
			"pbrMetallicRoughness":{
				"metallicFactor":0,
				"roughnessFactor":0.5527864098548889
			}
		},
		{
			"doubleSided":true,
			"name":"A_Glass18",
			"pbrMetallicRoughness":{
				"metallicFactor":0,
				"roughnessFactor":0.5527864098548889
			}
		}
	],
	"meshes":[
		{
			"name":"Mesh",
			"primitives":[
				{
					"attributes":{
						"POSITION":0,
						"NORMAL":1,
						"TEXCOORD_0":2
					},
					"indices":3,
					"material":0
				},
				{
					"attributes":{
						"POSITION":4,
						"NORMAL":5,
						"TEXCOORD_0":6
					},
					"indices":7,
					"material":1
				}
			]
		}
	],
	"accessors":[
		{
			"bufferView":0,
			"componentType":5126,
			"count":438,
			"max":[
				263.006591796875,
				431.9058837890625,
				0
			],
			"min":[
				-263.006591796875,
				-431.9058837890625,
				-1220.4249267578125
			],
			"type":"VEC3"
		},
		{
			"bufferView":1,
			"componentType":5126,
			"count":438,
			"type":"VEC3"
		},
		{
			"bufferView":2,
			"componentType":5126,
			"count":438,
			"type":"VEC2"
		},
		{
			"bufferView":3,
			"componentType":5123,
			"count":726,
			"type":"SCALAR"
		},
		{
			"bufferView":4,
			"componentType":5126,
			"count":8,
			"max":[
				125.211669921875,
				350.03314208984375,
				-23.567485809326172
			],
			"min":[
				-124.788330078125,
				316.53265380859375,
				-1088.3248291015625
			],
			"type":"VEC3"
		},
		{
			"bufferView":5,
			"componentType":5126,
			"count":8,
			"type":"VEC3"
		},
		{
			"bufferView":6,
			"componentType":5126,
			"count":8,
			"type":"VEC2"
		},
		{
			"bufferView":7,
			"componentType":5123,
			"count":12,
			"type":"SCALAR"
		}
	],
	"bufferViews":[
		{
			"buffer":0,
			"byteLength":5256,
			"byteOffset":0,
			"target":34962
		},
		{
			"buffer":0,
			"byteLength":5256,
			"byteOffset":5256,
			"target":34962
		},
		{
			"buffer":0,
			"byteLength":3504,
			"byteOffset":10512,
			"target":34962
		},
		{
			"buffer":0,
			"byteLength":1452,
			"byteOffset":14016,
			"target":34963
		},
		{
			"buffer":0,
			"byteLength":96,
			"byteOffset":15468,
			"target":34962
		},
		{
			"buffer":0,
			"byteLength":96,
			"byteOffset":15564,
			"target":34962
		},
		{
			"buffer":0,
			"byteLength":64,
			"byteOffset":15660,
			"target":34962
		},
		{
			"buffer":0,
			"byteLength":24,
			"byteOffset":15724,
			"target":34963
		}
	],
	"buffers":[
		{
			"byteLength":15748,
			"uri":"SM_Gen_Bld_Background_02.bin"
		}
	]
}
