{
	"asset":{
		"generator":"Khronos glTF Blender I/O v4.2.70",
		"version":"2.0"
	},
	"scene":0,
	"scenes":[
		{
			"name":"Scene",
			"nodes":[
				0
			]
		}
	],
	"nodes":[
		{
			"mesh":0,
			"name":"SM_Gen_Env_Ground_Edge_05",
			"rotation":[
				0.7071068286895752,
				0,
				0,
				0.7071068286895752
			],
			"scale":[
				0.009999999776482582,
				0.009999999776482582,
				0.009999999776482582
			]
		}
	],
	"materials":[
		{
			"doubleSided":true,
			"name":"Polygon_Generic_01A",
			"pbrMetallicRoughness":{
				"metallicFactor":0,
				"roughnessFactor":0.5527864098548889
			}
		}
	],
	"meshes":[
		{
			"name":"Mesh",
			"primitives":[
				{
					"attributes":{
						"POSITION":0,
						"NORMAL":1,
						"TEXCOORD_0":2,
						"TEXCOORD_1":3
					},
					"indices":4,
					"material":0
				}
			]
		}
	],
	"accessors":[
		{
			"bufferView":0,
			"componentType":5126,
			"count":209,
			"max":[
				122.22193908691406,
				52.55219268798828,
				5.986729621887207
			],
			"min":[
				-152.04776000976562,
				-61.41954040527344,
				-23.186077117919922
			],
			"type":"VEC3"
		},
		{
			"bufferView":1,
			"componentType":5126,
			"count":209,
			"type":"VEC3"
		},
		{
			"bufferView":2,
			"componentType":5126,
			"count":209,
			"type":"VEC2"
		},
		{
			"bufferView":3,
			"componentType":5126,
			"count":209,
			"type":"VEC2"
		},
		{
			"bufferView":4,
			"componentType":5123,
			"count":225,
			"type":"SCALAR"
		}
	],
	"bufferViews":[
		{
			"buffer":0,
			"byteLength":2508,
			"byteOffset":0,
			"target":34962
		},
		{
			"buffer":0,
			"byteLength":2508,
			"byteOffset":2508,
			"target":34962
		},
		{
			"buffer":0,
			"byteLength":1672,
			"byteOffset":5016,
			"target":34962
		},
		{
			"buffer":0,
			"byteLength":1672,
			"byteOffset":6688,
			"target":34962
		},
		{
			"buffer":0,
			"byteLength":450,
			"byteOffset":8360,
			"target":34963
		}
	],
	"buffers":[
		{
			"byteLength":8812,
			"uri":"SM_Gen_Env_Ground_Edge_05.bin"
		}
	]
}
