{
	"asset":{
		"generator":"Khronos glTF Blender I/O v4.2.70",
		"version":"2.0"
	},
	"scene":0,
	"scenes":[
		{
			"name":"Scene",
			"nodes":[
				0
			]
		}
	],
	"nodes":[
		{
			"mesh":0,
			"name":"SM_Prop_Starfish_02",
			"rotation":[
				0.7071068286895752,
				0,
				0,
				0.7071068286895752
			],
			"scale":[
				0.009999999776482582,
				0.009999999776482582,
				0.009999999776482582
			]
		}
	],
	"materials":[
		{
			"doubleSided":true,
			"name":"Explorer_MAT33",
			"pbrMetallicRoughness":{
				"metallicFactor":0,
				"roughnessFactor":0.5527864098548889
			}
		}
	],
	"meshes":[
		{
			"name":"Mesh",
			"primitives":[
				{
					"attributes":{
						"POSITION":0,
						"NORMAL":1,
						"TEXCOORD_0":2
					},
					"indices":3,
					"material":0
				}
			]
		}
	],
	"accessors":[
		{
			"bufferView":0,
			"componentType":5126,
			"count":623,
			"max":[
				9.088264465332031,
				7.855926513671875,
				0.0038123875856399536
			],
			"min":[
				-9.088264465332031,
				-9.418617248535156,
				-4.207387924194336
			],
			"type":"VEC3"
		},
		{
			"bufferView":1,
			"componentType":5126,
			"count":623,
			"type":"VEC3"
		},
		{
			"bufferView":2,
			"componentType":5126,
			"count":623,
			"type":"VEC2"
		},
		{
			"bufferView":3,
			"componentType":5123,
			"count":870,
			"type":"SCALAR"
		}
	],
	"bufferViews":[
		{
			"buffer":0,
			"byteLength":7476,
			"byteOffset":0,
			"target":34962
		},
		{
			"buffer":0,
			"byteLength":7476,
			"byteOffset":7476,
			"target":34962
		},
		{
			"buffer":0,
			"byteLength":4984,
			"byteOffset":14952,
			"target":34962
		},
		{
			"buffer":0,
			"byteLength":1740,
			"byteOffset":19936,
			"target":34963
		}
	],
	"buffers":[
		{
			"byteLength":21676,
			"uri":"SM_Prop_Starfish_02.bin"
		}
	]
}
