{
	"asset":{
		"generator":"Khronos glTF Blender I/O v4.2.70",
		"version":"2.0"
	},
	"scene":0,
	"scenes":[
		{
			"name":"Scene",
			"nodes":[
				0
			]
		}
	],
	"nodes":[
		{
			"mesh":0,
			"name":"SM_Prop_Tiki_Torch_02",
			"rotation":[
				0.7071068286895752,
				0,
				0,
				0.7071068286895752
			],
			"scale":[
				0.009999999776482582,
				0.009999999776482582,
				0.009999999776482582
			]
		}
	],
	"materials":[
		{
			"alphaMode":"BLEND",
			"doubleSided":true,
			"name":"Explorer_MAT36",
			"pbrMetallicRoughness":{
				"metallicFactor":0,
				"roughnessFactor":0.5527864098548889
			}
		}
	],
	"meshes":[
		{
			"name":"Mesh",
			"primitives":[
				{
					"attributes":{
						"POSITION":0,
						"NORMAL":1,
						"TEXCOORD_0":2
					},
					"indices":3,
					"material":0
				}
			]
		}
	],
	"accessors":[
		{
			"bufferView":0,
			"componentType":5126,
			"count":1403,
			"max":[
				12.060235023498535,
				12.691398620605469,
				5.166082382202148
			],
			"min":[
				-12.691397666931152,
				-12.174943923950195,
				-225.49302673339844
			],
			"type":"VEC3"
		},
		{
			"bufferView":1,
			"componentType":5126,
			"count":1403,
			"type":"VEC3"
		},
		{
			"bufferView":2,
			"componentType":5126,
			"count":1403,
			"type":"VEC2"
		},
		{
			"bufferView":3,
			"componentType":5123,
			"count":2136,
			"type":"SCALAR"
		}
	],
	"bufferViews":[
		{
			"buffer":0,
			"byteLength":16836,
			"byteOffset":0,
			"target":34962
		},
		{
			"buffer":0,
			"byteLength":16836,
			"byteOffset":16836,
			"target":34962
		},
		{
			"buffer":0,
			"byteLength":11224,
			"byteOffset":33672,
			"target":34962
		},
		{
			"buffer":0,
			"byteLength":4272,
			"byteOffset":44896,
			"target":34963
		}
	],
	"buffers":[
		{
			"byteLength":49168,
			"uri":"SM_Prop_Tiki_Torch_02.bin"
		}
	]
}
