{
	"asset":{
		"generator":"Khronos glTF Blender I/O v4.2.70",
		"version":"2.0"
	},
	"scene":0,
	"scenes":[
		{
			"name":"Scene",
			"nodes":[
				1
			]
		}
	],
	"nodes":[
		{
			"mesh":0,
			"name":"SM_Prop_Whale_Skeleton_Skull_01_Jaw_01"
		},
		{
			"children":[
				0
			],
			"mesh":1,
			"name":"SM_Prop_Whale_Skeleton_Skull_01",
			"rotation":[
				0.7071068286895752,
				0,
				0,
				0.7071068286895752
			],
			"scale":[
				0.009999999776482582,
				0.009999999776482582,
				0.009999999776482582
			]
		}
	],
	"materials":[
		{
			"doubleSided":true,
			"name":"Nature_Base_Mat14",
			"pbrMetallicRoughness":{
				"metallicFactor":0,
				"roughnessFactor":0.5527864098548889
			}
		}
	],
	"meshes":[
		{
			"name":"Mesh.001",
			"primitives":[
				{
					"attributes":{
						"POSITION":0,
						"NORMAL":1,
						"TEXCOORD_0":2
					},
					"indices":3,
					"material":0
				}
			]
		},
		{
			"name":"Mesh",
			"primitives":[
				{
					"attributes":{
						"POSITION":4,
						"NORMAL":5,
						"TEXCOORD_0":6
					},
					"indices":7,
					"material":0
				}
			]
		}
	],
	"accessors":[
		{
			"bufferView":0,
			"componentType":5126,
			"count":960,
			"max":[
				184.224365234375,
				651.0675048828125,
				101.81111907958984
			],
			"min":[
				-184.224365234375,
				-37.985008239746094,
				-72.03235626220703
			],
			"type":"VEC3"
		},
		{
			"bufferView":1,
			"componentType":5126,
			"count":960,
			"type":"VEC3"
		},
		{
			"bufferView":2,
			"componentType":5126,
			"count":960,
			"type":"VEC2"
		},
		{
			"bufferView":3,
			"componentType":5123,
			"count":960,
			"type":"SCALAR"
		},
		{
			"bufferView":4,
			"componentType":5126,
			"count":2406,
			"max":[
				192.2215576171875,
				663.031982421875,
				-71.95271301269531
			],
			"min":[
				-192.2216796875,
				-84.41461181640625,
				-277.55401611328125
			],
			"type":"VEC3"
		},
		{
			"bufferView":5,
			"componentType":5126,
			"count":2406,
			"type":"VEC3"
		},
		{
			"bufferView":6,
			"componentType":5126,
			"count":2406,
			"type":"VEC2"
		},
		{
			"bufferView":7,
			"componentType":5123,
			"count":2430,
			"type":"SCALAR"
		}
	],
	"bufferViews":[
		{
			"buffer":0,
			"byteLength":11520,
			"byteOffset":0,
			"target":34962
		},
		{
			"buffer":0,
			"byteLength":11520,
			"byteOffset":11520,
			"target":34962
		},
		{
			"buffer":0,
			"byteLength":7680,
			"byteOffset":23040,
			"target":34962
		},
		{
			"buffer":0,
			"byteLength":1920,
			"byteOffset":30720,
			"target":34963
		},
		{
			"buffer":0,
			"byteLength":28872,
			"byteOffset":32640,
			"target":34962
		},
		{
			"buffer":0,
			"byteLength":28872,
			"byteOffset":61512,
			"target":34962
		},
		{
			"buffer":0,
			"byteLength":19248,
			"byteOffset":90384,
			"target":34962
		},
		{
			"buffer":0,
			"byteLength":4860,
			"byteOffset":109632,
			"target":34963
		}
	],
	"buffers":[
		{
			"byteLength":114492,
			"uri":"SM_Prop_Whale_Skeleton_Skull_01.bin"
		}
	]
}
