{
	"asset":{
		"generator":"Khronos glTF Blender I/O v4.2.70",
		"version":"2.0"
	},
	"scene":0,
	"scenes":[
		{
			"name":"Scene",
			"nodes":[
				0
			]
		}
	],
	"nodes":[
		{
			"mesh":0,
			"name":"SM_Prop_Tiki_Torch_03",
			"rotation":[
				0.7071068286895752,
				0,
				0,
				0.7071068286895752
			],
			"scale":[
				0.009999999776482582,
				0.009999999776482582,
				0.009999999776482582
			]
		}
	],
	"materials":[
		{
			"alphaMode":"BLEND",
			"doubleSided":true,
			"name":"Explorer_MAT37",
			"pbrMetallicRoughness":{
				"metallicFactor":0,
				"roughnessFactor":0.5527864098548889
			}
		}
	],
	"meshes":[
		{
			"name":"Mesh",
			"primitives":[
				{
					"attributes":{
						"POSITION":0,
						"NORMAL":1,
						"TEXCOORD_0":2
					},
					"indices":3,
					"material":0
				}
			]
		}
	],
	"accessors":[
		{
			"bufferView":0,
			"componentType":5126,
			"count":1459,
			"max":[
				9.473252296447754,
				13.342485427856445,
				3.6165809631347656
			],
			"min":[
				-9.473252296447754,
				-9.473252296447754,
				-213.36810302734375
			],
			"type":"VEC3"
		},
		{
			"bufferView":1,
			"componentType":5126,
			"count":1459,
			"type":"VEC3"
		},
		{
			"bufferView":2,
			"componentType":5126,
			"count":1459,
			"type":"VEC2"
		},
		{
			"bufferView":3,
			"componentType":5123,
			"count":2184,
			"type":"SCALAR"
		}
	],
	"bufferViews":[
		{
			"buffer":0,
			"byteLength":17508,
			"byteOffset":0,
			"target":34962
		},
		{
			"buffer":0,
			"byteLength":17508,
			"byteOffset":17508,
			"target":34962
		},
		{
			"buffer":0,
			"byteLength":11672,
			"byteOffset":35016,
			"target":34962
		},
		{
			"buffer":0,
			"byteLength":4368,
			"byteOffset":46688,
			"target":34963
		}
	],
	"buffers":[
		{
			"byteLength":51056,
			"uri":"SM_Prop_Tiki_Torch_03.bin"
		}
	]
}
