{
	"asset":{
		"generator":"Khronos glTF Blender I/O v4.2.70",
		"version":"2.0"
	},
	"scene":0,
	"scenes":[
		{
			"name":"Scene",
			"nodes":[
				0
			]
		}
	],
	"nodes":[
		{
			"mesh":0,
			"name":"SM_Prop_Starfish_01",
			"rotation":[
				0.7071068286895752,
				0,
				0,
				0.7071068286895752
			],
			"scale":[
				0.009999999776482582,
				0.009999999776482582,
				0.009999999776482582
			]
		}
	],
	"materials":[
		{
			"doubleSided":true,
			"name":"Explorer_MAT32",
			"pbrMetallicRoughness":{
				"metallicFactor":0,
				"roughnessFactor":0.5527864098548889
			}
		}
	],
	"meshes":[
		{
			"name":"Mesh",
			"primitives":[
				{
					"attributes":{
						"POSITION":0,
						"NORMAL":1,
						"TEXCOORD_0":2
					},
					"indices":3,
					"material":0
				}
			]
		}
	],
	"accessors":[
		{
			"bufferView":0,
			"componentType":5126,
			"count":641,
			"max":[
				9.088264465332031,
				7.855926513671875,
				0.07201385498046875
			],
			"min":[
				-9.088264465332031,
				-9.418617248535156,
				-4.340933799743652
			],
			"type":"VEC3"
		},
		{
			"bufferView":1,
			"componentType":5126,
			"count":641,
			"type":"VEC3"
		},
		{
			"bufferView":2,
			"componentType":5126,
			"count":641,
			"type":"VEC2"
		},
		{
			"bufferView":3,
			"componentType":5123,
			"count":864,
			"type":"SCALAR"
		}
	],
	"bufferViews":[
		{
			"buffer":0,
			"byteLength":7692,
			"byteOffset":0,
			"target":34962
		},
		{
			"buffer":0,
			"byteLength":7692,
			"byteOffset":7692,
			"target":34962
		},
		{
			"buffer":0,
			"byteLength":5128,
			"byteOffset":15384,
			"target":34962
		},
		{
			"buffer":0,
			"byteLength":1728,
			"byteOffset":20512,
			"target":34963
		}
	],
	"buffers":[
		{
			"byteLength":22240,
			"uri":"SM_Prop_Starfish_01.bin"
		}
	]
}
