{
	"asset":{
		"generator":"Khronos glTF Blender I/O v4.2.70",
		"version":"2.0"
	},
	"scene":0,
	"scenes":[
		{
			"name":"Scene",
			"nodes":[
				0
			]
		}
	],
	"nodes":[
		{
			"mesh":0,
			"name":"SM_Prop_ShipWreck_01",
			"rotation":[
				0.7071068286895752,
				0,
				0,
				0.7071068286895752
			],
			"scale":[
				0.009999999776482582,
				0.009999999776482582,
				0.009999999776482582
			]
		}
	],
	"materials":[
		{
			"doubleSided":true,
			"name":"Explorer_MAT2",
			"pbrMetallicRoughness":{
				"baseColorTexture":{
					"index":0
				},
				"metallicFactor":0,
				"roughnessFactor":0.5527864098548889
			}
		}
	],
	"meshes":[
		{
			"name":"Mesh",
			"primitives":[
				{
					"attributes":{
						"POSITION":0,
						"NORMAL":1,
						"TEXCOORD_0":2
					},
					"indices":3,
					"material":0
				}
			]
		}
	],
	"textures":[
		{
			"sampler":0,
			"source":0
		}
	],
	"images":[
		{
			"mimeType":"image/png",
			"name":"PolygonNatureBiomes_Tropical_Texture_01",
			"uri":"PolygonNatureBiomes_Tropical_Texture_01.png"
		}
	],
	"accessors":[
		{
			"bufferView":0,
			"componentType":5126,
			"count":5239,
			"max":[
				413.5033264160156,
				552.5144653320312,
				0
			],
			"min":[
				-413.5033264160156,
				-552.5144653320312,
				-640.94677734375
			],
			"type":"VEC3"
		},
		{
			"bufferView":1,
			"componentType":5126,
			"count":5239,
			"type":"VEC3"
		},
		{
			"bufferView":2,
			"componentType":5126,
			"count":5239,
			"type":"VEC2"
		},
		{
			"bufferView":3,
			"componentType":5123,
			"count":7719,
			"type":"SCALAR"
		}
	],
	"bufferViews":[
		{
			"buffer":0,
			"byteLength":62868,
			"byteOffset":0,
			"target":34962
		},
		{
			"buffer":0,
			"byteLength":62868,
			"byteOffset":62868,
			"target":34962
		},
		{
			"buffer":0,
			"byteLength":41912,
			"byteOffset":125736,
			"target":34962
		},
		{
			"buffer":0,
			"byteLength":15438,
			"byteOffset":167648,
			"target":34963
		}
	],
	"samplers":[
		{
			"magFilter":9729,
			"minFilter":9987
		}
	],
	"buffers":[
		{
			"byteLength":183088,
			"uri":"SM_Prop_ShipWreck_01.bin"
		}
	]
}
