{
	"asset":{
		"generator":"Khronos glTF Blender I/O v4.2.70",
		"version":"2.0"
	},
	"scene":0,
	"scenes":[
		{
			"name":"Scene",
			"nodes":[
				0
			]
		}
	],
	"nodes":[
		{
			"mesh":0,
			"name":"SM_Prop_Tiki_Torch_01",
			"rotation":[
				0.7071068286895752,
				0,
				0,
				0.7071068286895752
			],
			"scale":[
				0.009999999776482582,
				0.009999999776482582,
				0.009999999776482582
			]
		}
	],
	"materials":[
		{
			"alphaMode":"BLEND",
			"doubleSided":true,
			"name":"Explorer_MAT35",
			"pbrMetallicRoughness":{
				"metallicFactor":0,
				"roughnessFactor":0.5527864098548889
			}
		}
	],
	"meshes":[
		{
			"name":"Mesh",
			"primitives":[
				{
					"attributes":{
						"POSITION":0,
						"NORMAL":1,
						"TEXCOORD_0":2,
						"TEXCOORD_1":3,
						"TEXCOORD_2":4
					},
					"indices":5,
					"material":0
				}
			]
		}
	],
	"accessors":[
		{
			"bufferView":0,
			"componentType":5126,
			"count":2961,
			"max":[
				15.902359008789062,
				14.750484466552734,
				5.166082382202148
			],
			"min":[
				-16.12834930419922,
				-18.48370361328125,
				-217.50076293945312
			],
			"type":"VEC3"
		},
		{
			"bufferView":1,
			"componentType":5126,
			"count":2961,
			"type":"VEC3"
		},
		{
			"bufferView":2,
			"componentType":5126,
			"count":2961,
			"type":"VEC2"
		},
		{
			"bufferView":3,
			"componentType":5126,
			"count":2961,
			"type":"VEC2"
		},
		{
			"bufferView":4,
			"componentType":5126,
			"count":2961,
			"type":"VEC2"
		},
		{
			"bufferView":5,
			"componentType":5123,
			"count":4002,
			"type":"SCALAR"
		}
	],
	"bufferViews":[
		{
			"buffer":0,
			"byteLength":35532,
			"byteOffset":0,
			"target":34962
		},
		{
			"buffer":0,
			"byteLength":35532,
			"byteOffset":35532,
			"target":34962
		},
		{
			"buffer":0,
			"byteLength":23688,
			"byteOffset":71064,
			"target":34962
		},
		{
			"buffer":0,
			"byteLength":23688,
			"byteOffset":94752,
			"target":34962
		},
		{
			"buffer":0,
			"byteLength":23688,
			"byteOffset":118440,
			"target":34962
		},
		{
			"buffer":0,
			"byteLength":8004,
			"byteOffset":142128,
			"target":34963
		}
	],
	"buffers":[
		{
			"byteLength":150132,
			"uri":"SM_Prop_Tiki_Torch_01.bin"
		}
	]
}
