{
	"asset":{
		"generator":"Khronos glTF Blender I/O v4.2.70",
		"version":"2.0"
	},
	"scene":0,
	"scenes":[
		{
			"name":"Scene",
			"nodes":[
				0
			]
		}
	],
	"nodes":[
		{
			"mesh":0,
			"name":"SM_Prop_Barrel_01",
			"rotation":[
				0.7071068286895752,
				0,
				0,
				0.7071068286895752
			],
			"scale":[
				0.009999999776482582,
				0.009999999776482582,
				0.009999999776482582
			]
		}
	],
	"materials":[
		{
			"doubleSided":true,
			"name":"Explorer_MAT12",
			"pbrMetallicRoughness":{
				"metallicFactor":0,
				"roughnessFactor":0.5527864098548889
			}
		}
	],
	"meshes":[
		{
			"name":"Mesh",
			"primitives":[
				{
					"attributes":{
						"POSITION":0,
						"NORMAL":1,
						"TEXCOORD_0":2
					},
					"indices":3,
					"material":0
				}
			]
		}
	],
	"accessors":[
		{
			"bufferView":0,
			"componentType":5126,
			"count":2312,
			"max":[
				42.913700103759766,
				43.96949768066406,
				0
			],
			"min":[
				-42.913700103759766,
				-43.96949768066406,
				-107.02220153808594
			],
			"type":"VEC3"
		},
		{
			"bufferView":1,
			"componentType":5126,
			"count":2312,
			"type":"VEC3"
		},
		{
			"bufferView":2,
			"componentType":5126,
			"count":2312,
			"type":"VEC2"
		},
		{
			"bufferView":3,
			"componentType":5123,
			"count":3534,
			"type":"SCALAR"
		}
	],
	"bufferViews":[
		{
			"buffer":0,
			"byteLength":27744,
			"byteOffset":0,
			"target":34962
		},
		{
			"buffer":0,
			"byteLength":27744,
			"byteOffset":27744,
			"target":34962
		},
		{
			"buffer":0,
			"byteLength":18496,
			"byteOffset":55488,
			"target":34962
		},
		{
			"buffer":0,
			"byteLength":7068,
			"byteOffset":73984,
			"target":34963
		}
	],
	"buffers":[
		{
			"byteLength":81052,
			"uri":"SM_Prop_Barrel_01.bin"
		}
	]
}
