{
	"asset":{
		"generator":"Khronos glTF Blender I/O v4.2.70",
		"version":"2.0"
	},
	"scene":0,
	"scenes":[
		{
			"name":"Scene",
			"nodes":[
				0
			]
		}
	],
	"nodes":[
		{
			"mesh":0,
			"name":"SM_Prop_Whale_Skeleton_Ribcage_01",
			"rotation":[
				0.7071068286895752,
				0,
				0,
				0.7071068286895752
			],
			"scale":[
				0.009999999776482582,
				0.009999999776482582,
				0.009999999776482582
			]
		}
	],
	"materials":[
		{
			"doubleSided":true,
			"name":"Nature_Base_Mat11",
			"pbrMetallicRoughness":{
				"metallicFactor":0,
				"roughnessFactor":0.5527864098548889
			}
		}
	],
	"meshes":[
		{
			"name":"Mesh",
			"primitives":[
				{
					"attributes":{
						"POSITION":0,
						"NORMAL":1,
						"TEXCOORD_0":2
					},
					"indices":3,
					"material":0
				}
			]
		}
	],
	"accessors":[
		{
			"bufferView":0,
			"componentType":5126,
			"count":7233,
			"max":[
				262.0224609375,
				278.624267578125,
				134.23919677734375
			],
			"min":[
				-276.852294921875,
				-232.17962646484375,
				-493.7253723144531
			],
			"type":"VEC3"
		},
		{
			"bufferView":1,
			"componentType":5126,
			"count":7233,
			"type":"VEC3"
		},
		{
			"bufferView":2,
			"componentType":5126,
			"count":7233,
			"type":"VEC2"
		},
		{
			"bufferView":3,
			"componentType":5123,
			"count":7968,
			"type":"SCALAR"
		}
	],
	"bufferViews":[
		{
			"buffer":0,
			"byteLength":86796,
			"byteOffset":0,
			"target":34962
		},
		{
			"buffer":0,
			"byteLength":86796,
			"byteOffset":86796,
			"target":34962
		},
		{
			"buffer":0,
			"byteLength":57864,
			"byteOffset":173592,
			"target":34962
		},
		{
			"buffer":0,
			"byteLength":15936,
			"byteOffset":231456,
			"target":34963
		}
	],
	"buffers":[
		{
			"byteLength":247392,
			"uri":"SM_Prop_Whale_Skeleton_Ribcage_01.bin"
		}
	]
}
