{
	"asset":{
		"generator":"Khronos glTF Blender I/O v4.2.70",
		"version":"2.0"
	},
	"scene":0,
	"scenes":[
		{
			"name":"Scene",
			"nodes":[
				0
			]
		}
	],
	"nodes":[
		{
			"mesh":0,
			"name":"SM_Prop_Whale_Skeleton_Rib_01",
			"rotation":[
				0.7071068286895752,
				0,
				0,
				0.7071068286895752
			],
			"scale":[
				0.009999999776482582,
				0.009999999776482582,
				0.009999999776482582
			]
		}
	],
	"materials":[
		{
			"doubleSided":true,
			"name":"Nature_Base_Mat9",
			"pbrMetallicRoughness":{
				"metallicFactor":0,
				"roughnessFactor":0.5527864098548889
			}
		}
	],
	"meshes":[
		{
			"name":"Mesh",
			"primitives":[
				{
					"attributes":{
						"POSITION":0,
						"NORMAL":1,
						"TEXCOORD_0":2
					},
					"indices":3,
					"material":0
				}
			]
		}
	],
	"accessors":[
		{
			"bufferView":0,
			"componentType":5126,
			"count":505,
			"max":[
				117.262451171875,
				450.62774658203125,
				26.119308471679688
			],
			"min":[
				-38.3642578125,
				-29.81695556640625,
				-30.741104125976562
			],
			"type":"VEC3"
		},
		{
			"bufferView":1,
			"componentType":5126,
			"count":505,
			"type":"VEC3"
		},
		{
			"bufferView":2,
			"componentType":5126,
			"count":505,
			"type":"VEC2"
		},
		{
			"bufferView":3,
			"componentType":5123,
			"count":522,
			"type":"SCALAR"
		}
	],
	"bufferViews":[
		{
			"buffer":0,
			"byteLength":6060,
			"byteOffset":0,
			"target":34962
		},
		{
			"buffer":0,
			"byteLength":6060,
			"byteOffset":6060,
			"target":34962
		},
		{
			"buffer":0,
			"byteLength":4040,
			"byteOffset":12120,
			"target":34962
		},
		{
			"buffer":0,
			"byteLength":1044,
			"byteOffset":16160,
			"target":34963
		}
	],
	"buffers":[
		{
			"byteLength":17204,
			"uri":"SM_Prop_Whale_Skeleton_Rib_01.bin"
		}
	]
}
