{
	"asset":{
		"generator":"Khronos glTF Blender I/O v4.2.70",
		"version":"2.0"
	},
	"scene":0,
	"scenes":[
		{
			"name":"Scene",
			"nodes":[
				2
			]
		}
	],
	"nodes":[
		{
			"mesh":0,
			"name":"SM_Prop_GiantClam_01_Lid_01"
		},
		{
			"mesh":1,
			"name":"SM_Prop_GiantClam_01_Pearl_01"
		},
		{
			"children":[
				0,
				1
			],
			"mesh":2,
			"name":"SM_Prop_GiantClam_01",
			"rotation":[
				0.7071068286895752,
				0,
				0,
				0.7071068286895752
			],
			"scale":[
				0.009999999776482582,
				0.009999999776482582,
				0.009999999776482582
			]
		}
	],
	"materials":[
		{
			"alphaMode":"BLEND",
			"doubleSided":true,
			"name":"Explorer_MAT29",
			"pbrMetallicRoughness":{
				"baseColorTexture":{
					"index":0
				},
				"metallicFactor":0,
				"roughnessFactor":0.5527864098548889
			}
		}
	],
	"meshes":[
		{
			"name":"Mesh.002",
			"primitives":[
				{
					"attributes":{
						"POSITION":0,
						"NORMAL":1,
						"TEXCOORD_0":2
					},
					"indices":3,
					"material":0
				}
			]
		},
		{
			"name":"Mesh.001",
			"primitives":[
				{
					"attributes":{
						"POSITION":4,
						"NORMAL":5,
						"TEXCOORD_0":6
					},
					"indices":7,
					"material":0
				}
			]
		},
		{
			"name":"Mesh",
			"primitives":[
				{
					"attributes":{
						"POSITION":8,
						"NORMAL":9,
						"TEXCOORD_0":10
					},
					"indices":11,
					"material":0
				}
			]
		}
	],
	"textures":[
		{
			"sampler":0,
			"source":0
		}
	],
	"images":[
		{
			"mimeType":"image/png",
			"name":"PolygonNatureBiomes_Tropical_Texture_01",
			"uri":"PolygonNatureBiomes_Tropical_Texture_01.png"
		}
	],
	"accessors":[
		{
			"bufferView":0,
			"componentType":5126,
			"count":1224,
			"max":[
				42.94443130493164,
				37.50050735473633,
				-16.09708023071289
			],
			"min":[
				-42.94443130493164,
				-37.83176803588867,
				-44.90847396850586
			],
			"type":"VEC3"
		},
		{
			"bufferView":1,
			"componentType":5126,
			"count":1224,
			"type":"VEC3"
		},
		{
			"bufferView":2,
			"componentType":5126,
			"count":1224,
			"type":"VEC2"
		},
		{
			"bufferView":3,
			"componentType":5123,
			"count":1692,
			"type":"SCALAR"
		},
		{
			"bufferView":4,
			"componentType":5126,
			"count":200,
			"max":[
				12.011650085449219,
				2.4279327392578125,
				-7.296262741088867
			],
			"min":[
				-12.011650085449219,
				-21.595367431640625,
				-31.319562911987305
			],
			"type":"VEC3"
		},
		{
			"bufferView":5,
			"componentType":5126,
			"count":200,
			"type":"VEC3"
		},
		{
			"bufferView":6,
			"componentType":5126,
			"count":200,
			"type":"VEC2"
		},
		{
			"bufferView":7,
			"componentType":5123,
			"count":324,
			"type":"SCALAR"
		},
		{
			"bufferView":8,
			"componentType":5126,
			"count":1636,
			"max":[
				43.36045837402344,
				37.81740951538086,
				0
			],
			"min":[
				-43.36045837402344,
				-37.817413330078125,
				-32.01194763183594
			],
			"type":"VEC3"
		},
		{
			"bufferView":9,
			"componentType":5126,
			"count":1636,
			"type":"VEC3"
		},
		{
			"bufferView":10,
			"componentType":5126,
			"count":1636,
			"type":"VEC2"
		},
		{
			"bufferView":11,
			"componentType":5123,
			"count":2364,
			"type":"SCALAR"
		}
	],
	"bufferViews":[
		{
			"buffer":0,
			"byteLength":14688,
			"byteOffset":0,
			"target":34962
		},
		{
			"buffer":0,
			"byteLength":14688,
			"byteOffset":14688,
			"target":34962
		},
		{
			"buffer":0,
			"byteLength":9792,
			"byteOffset":29376,
			"target":34962
		},
		{
			"buffer":0,
			"byteLength":3384,
			"byteOffset":39168,
			"target":34963
		},
		{
			"buffer":0,
			"byteLength":2400,
			"byteOffset":42552,
			"target":34962
		},
		{
			"buffer":0,
			"byteLength":2400,
			"byteOffset":44952,
			"target":34962
		},
		{
			"buffer":0,
			"byteLength":1600,
			"byteOffset":47352,
			"target":34962
		},
		{
			"buffer":0,
			"byteLength":648,
			"byteOffset":48952,
			"target":34963
		},
		{
			"buffer":0,
			"byteLength":19632,
			"byteOffset":49600,
			"target":34962
		},
		{
			"buffer":0,
			"byteLength":19632,
			"byteOffset":69232,
			"target":34962
		},
		{
			"buffer":0,
			"byteLength":13088,
			"byteOffset":88864,
			"target":34962
		},
		{
			"buffer":0,
			"byteLength":4728,
			"byteOffset":101952,
			"target":34963
		}
	],
	"samplers":[
		{
			"magFilter":9729,
			"minFilter":9987
		}
	],
	"buffers":[
		{
			"byteLength":106680,
			"uri":"SM_Prop_GiantClam_01.bin"
		}
	]
}
