{
	"asset":{
		"generator":"Khronos glTF Blender I/O v4.2.70",
		"version":"2.0"
	},
	"scene":0,
	"scenes":[
		{
			"name":"Scene",
			"nodes":[
				0
			]
		}
	],
	"nodes":[
		{
			"mesh":0,
			"name":"SM_Prop_Whale_Skeleton_Ribcage_02",
			"rotation":[
				0.7071068286895752,
				0,
				0,
				0.7071068286895752
			],
			"scale":[
				0.009999999776482582,
				0.009999999776482582,
				0.009999999776482582
			]
		}
	],
	"materials":[
		{
			"doubleSided":true,
			"name":"Nature_Base_Mat12",
			"pbrMetallicRoughness":{
				"metallicFactor":0,
				"roughnessFactor":0.5527864098548889
			}
		}
	],
	"meshes":[
		{
			"name":"Mesh",
			"primitives":[
				{
					"attributes":{
						"POSITION":0,
						"NORMAL":1,
						"TEXCOORD_0":2
					},
					"indices":3,
					"material":0
				}
			]
		}
	],
	"accessors":[
		{
			"bufferView":0,
			"componentType":5126,
			"count":1989,
			"max":[
				269.105712890625,
				9.98382568359375,
				478.4930419921875
			],
			"min":[
				-265.903564453125,
				-128.88653564453125,
				-138.15841674804688
			],
			"type":"VEC3"
		},
		{
			"bufferView":1,
			"componentType":5126,
			"count":1989,
			"type":"VEC3"
		},
		{
			"bufferView":2,
			"componentType":5126,
			"count":1989,
			"type":"VEC2"
		},
		{
			"bufferView":3,
			"componentType":5123,
			"count":2172,
			"type":"SCALAR"
		}
	],
	"bufferViews":[
		{
			"buffer":0,
			"byteLength":23868,
			"byteOffset":0,
			"target":34962
		},
		{
			"buffer":0,
			"byteLength":23868,
			"byteOffset":23868,
			"target":34962
		},
		{
			"buffer":0,
			"byteLength":15912,
			"byteOffset":47736,
			"target":34962
		},
		{
			"buffer":0,
			"byteLength":4344,
			"byteOffset":63648,
			"target":34963
		}
	],
	"buffers":[
		{
			"byteLength":67992,
			"uri":"SM_Prop_Whale_Skeleton_Ribcage_02.bin"
		}
	]
}
