{
	"asset":{
		"generator":"Khronos glTF Blender I/O v4.2.70",
		"version":"2.0"
	},
	"scene":0,
	"scenes":[
		{
			"name":"Scene",
			"nodes":[
				0
			]
		}
	],
	"nodes":[
		{
			"mesh":0,
			"name":"SM_Prop_Coconut_01",
			"rotation":[
				0.7071068286895752,
				0,
				0,
				0.7071068286895752
			],
			"scale":[
				0.009999999776482582,
				0.009999999776482582,
				0.009999999776482582
			]
		}
	],
	"materials":[
		{
			"doubleSided":true,
			"name":"Explorer_MAT15",
			"pbrMetallicRoughness":{
				"metallicFactor":0,
				"roughnessFactor":0.5527864098548889
			}
		}
	],
	"meshes":[
		{
			"name":"Mesh",
			"primitives":[
				{
					"attributes":{
						"POSITION":0,
						"NORMAL":1,
						"TEXCOORD_0":2
					},
					"indices":3,
					"material":0
				}
			]
		}
	],
	"accessors":[
		{
			"bufferView":0,
			"componentType":5126,
			"count":394,
			"max":[
				14.393753051757812,
				14.401138305664062,
				0
			],
			"min":[
				-14.393753051757812,
				-14.401130676269531,
				-30.023244857788086
			],
			"type":"VEC3"
		},
		{
			"bufferView":1,
			"componentType":5126,
			"count":394,
			"type":"VEC3"
		},
		{
			"bufferView":2,
			"componentType":5126,
			"count":394,
			"type":"VEC2"
		},
		{
			"bufferView":3,
			"componentType":5123,
			"count":540,
			"type":"SCALAR"
		}
	],
	"bufferViews":[
		{
			"buffer":0,
			"byteLength":4728,
			"byteOffset":0,
			"target":34962
		},
		{
			"buffer":0,
			"byteLength":4728,
			"byteOffset":4728,
			"target":34962
		},
		{
			"buffer":0,
			"byteLength":3152,
			"byteOffset":9456,
			"target":34962
		},
		{
			"buffer":0,
			"byteLength":1080,
			"byteOffset":12608,
			"target":34963
		}
	],
	"buffers":[
		{
			"byteLength":13688,
			"uri":"SM_Prop_Coconut_01.bin"
		}
	]
}
