{
	"asset":{
		"generator":"Khronos glTF Blender I/O v4.2.70",
		"version":"2.0"
	},
	"scene":0,
	"scenes":[
		{
			"name":"Scene",
			"nodes":[
				0
			]
		}
	],
	"nodes":[
		{
			"mesh":0,
			"name":"SM_Prop_Starfish_03",
			"rotation":[
				0.7071068286895752,
				0,
				0,
				0.7071068286895752
			],
			"scale":[
				0.009999999776482582,
				0.009999999776482582,
				0.009999999776482582
			]
		}
	],
	"materials":[
		{
			"doubleSided":true,
			"name":"Explorer_MAT34",
			"pbrMetallicRoughness":{
				"metallicFactor":0,
				"roughnessFactor":0.5527864098548889
			}
		}
	],
	"meshes":[
		{
			"name":"Mesh",
			"primitives":[
				{
					"attributes":{
						"POSITION":0,
						"NORMAL":1,
						"TEXCOORD_0":2
					},
					"indices":3,
					"material":0
				}
			]
		}
	],
	"accessors":[
		{
			"bufferView":0,
			"componentType":5126,
			"count":759,
			"max":[
				22.98344612121582,
				19.612960815429688,
				0.2830936312675476
			],
			"min":[
				-23.219573974609375,
				-24.32872772216797,
				-4.40565824508667
			],
			"type":"VEC3"
		},
		{
			"bufferView":1,
			"componentType":5126,
			"count":759,
			"type":"VEC3"
		},
		{
			"bufferView":2,
			"componentType":5126,
			"count":759,
			"type":"VEC2"
		},
		{
			"bufferView":3,
			"componentType":5123,
			"count":1185,
			"type":"SCALAR"
		}
	],
	"bufferViews":[
		{
			"buffer":0,
			"byteLength":9108,
			"byteOffset":0,
			"target":34962
		},
		{
			"buffer":0,
			"byteLength":9108,
			"byteOffset":9108,
			"target":34962
		},
		{
			"buffer":0,
			"byteLength":6072,
			"byteOffset":18216,
			"target":34962
		},
		{
			"buffer":0,
			"byteLength":2370,
			"byteOffset":24288,
			"target":34963
		}
	],
	"buffers":[
		{
			"byteLength":26660,
			"uri":"SM_Prop_Starfish_03.bin"
		}
	]
}
