{
	"asset":{
		"generator":"Khronos glTF Blender I/O v4.2.70",
		"version":"2.0"
	},
	"scene":0,
	"scenes":[
		{
			"name":"Scene",
			"nodes":[
				3
			]
		}
	],
	"nodes":[
		{
			"mesh":0,
			"name":"SM_Prop_Whale_Skeleton_01_Fin_01"
		},
		{
			"mesh":1,
			"name":"SM_Prop_Whale_Skeleton_01_Fin_02"
		},
		{
			"mesh":2,
			"name":"SM_Prop_Whale_Skeleton_01_Head_01"
		},
		{
			"children":[
				0,
				1,
				2
			],
			"mesh":3,
			"name":"SM_Prop_Whale_Skeleton_01",
			"rotation":[
				0.7071068286895752,
				0,
				0,
				0.7071068286895752
			],
			"scale":[
				0.009999999776482582,
				0.009999999776482582,
				0.009999999776482582
			]
		}
	],
	"materials":[
		{
			"doubleSided":true,
			"name":"Nature_Base_Mat8",
			"pbrMetallicRoughness":{
				"metallicFactor":0,
				"roughnessFactor":0.5527864098548889
			}
		}
	],
	"meshes":[
		{
			"name":"Mesh.002",
			"primitives":[
				{
					"attributes":{
						"POSITION":0,
						"NORMAL":1,
						"TEXCOORD_0":2
					},
					"indices":3,
					"material":0
				}
			]
		},
		{
			"name":"Mesh.001",
			"primitives":[
				{
					"attributes":{
						"POSITION":4,
						"NORMAL":5,
						"TEXCOORD_0":6
					},
					"indices":7,
					"material":0
				}
			]
		},
		{
			"name":"Mesh.003",
			"primitives":[
				{
					"attributes":{
						"POSITION":8,
						"NORMAL":9,
						"TEXCOORD_0":10
					},
					"indices":11,
					"material":0
				}
			]
		},
		{
			"name":"Mesh",
			"primitives":[
				{
					"attributes":{
						"POSITION":12,
						"NORMAL":13,
						"TEXCOORD_0":14
					},
					"indices":15,
					"material":0
				}
			]
		}
	],
	"accessors":[
		{
			"bufferView":0,
			"componentType":5126,
			"count":616,
			"max":[
				-175.335693359375,
				504.2120361328125,
				-33.478057861328125
			],
			"min":[
				-408.27587890625,
				255.10635375976562,
				-276.2987060546875
			],
			"type":"VEC3"
		},
		{
			"bufferView":1,
			"componentType":5126,
			"count":616,
			"type":"VEC3"
		},
		{
			"bufferView":2,
			"componentType":5126,
			"count":616,
			"type":"VEC2"
		},
		{
			"bufferView":3,
			"componentType":5123,
			"count":894,
			"type":"SCALAR"
		},
		{
			"bufferView":4,
			"componentType":5126,
			"count":930,
			"max":[
				797.7596435546875,
				500.45330810546875,
				4.253612518310547
			],
			"min":[
				168.5494384765625,
				193.63568115234375,
				-265.1748046875
			],
			"type":"VEC3"
		},
		{
			"bufferView":5,
			"componentType":5126,
			"count":930,
			"type":"VEC3"
		},
		{
			"bufferView":6,
			"componentType":5126,
			"count":930,
			"type":"VEC2"
		},
		{
			"bufferView":7,
			"componentType":5123,
			"count":1344,
			"type":"SCALAR"
		},
		{
			"bufferView":8,
			"componentType":5126,
			"count":3348,
			"max":[
				229.367919921875,
				1328.3935546875,
				-2.8610382080078125
			],
			"min":[
				-189.36083984375,
				567.4423217773438,
				-312.1825866699219
			],
			"type":"VEC3"
		},
		{
			"bufferView":9,
			"componentType":5126,
			"count":3348,
			"type":"VEC3"
		},
		{
			"bufferView":10,
			"componentType":5126,
			"count":3348,
			"type":"VEC2"
		},
		{
			"bufferView":11,
			"componentType":5123,
			"count":3360,
			"type":"SCALAR"
		},
		{
			"bufferView":12,
			"componentType":5126,
			"count":17250,
			"max":[
				575.656005859375,
				657.4737548828125,
				162.40419006347656
			],
			"min":[
				-271.953125,
				-1635.29150390625,
				-453.42352294921875
			],
			"type":"VEC3"
		},
		{
			"bufferView":13,
			"componentType":5126,
			"count":17250,
			"type":"VEC3"
		},
		{
			"bufferView":14,
			"componentType":5126,
			"count":17250,
			"type":"VEC2"
		},
		{
			"bufferView":15,
			"componentType":5123,
			"count":19590,
			"type":"SCALAR"
		}
	],
	"bufferViews":[
		{
			"buffer":0,
			"byteLength":7392,
			"byteOffset":0,
			"target":34962
		},
		{
			"buffer":0,
			"byteLength":7392,
			"byteOffset":7392,
			"target":34962
		},
		{
			"buffer":0,
			"byteLength":4928,
			"byteOffset":14784,
			"target":34962
		},
		{
			"buffer":0,
			"byteLength":1788,
			"byteOffset":19712,
			"target":34963
		},
		{
			"buffer":0,
			"byteLength":11160,
			"byteOffset":21500,
			"target":34962
		},
		{
			"buffer":0,
			"byteLength":11160,
			"byteOffset":32660,
			"target":34962
		},
		{
			"buffer":0,
			"byteLength":7440,
			"byteOffset":43820,
			"target":34962
		},
		{
			"buffer":0,
			"byteLength":2688,
			"byteOffset":51260,
			"target":34963
		},
		{
			"buffer":0,
			"byteLength":40176,
			"byteOffset":53948,
			"target":34962
		},
		{
			"buffer":0,
			"byteLength":40176,
			"byteOffset":94124,
			"target":34962
		},
		{
			"buffer":0,
			"byteLength":26784,
			"byteOffset":134300,
			"target":34962
		},
		{
			"buffer":0,
			"byteLength":6720,
			"byteOffset":161084,
			"target":34963
		},
		{
			"buffer":0,
			"byteLength":207000,
			"byteOffset":167804,
			"target":34962
		},
		{
			"buffer":0,
			"byteLength":207000,
			"byteOffset":374804,
			"target":34962
		},
		{
			"buffer":0,
			"byteLength":138000,
			"byteOffset":581804,
			"target":34962
		},
		{
			"buffer":0,
			"byteLength":39180,
			"byteOffset":719804,
			"target":34963
		}
	],
	"buffers":[
		{
			"byteLength":758984,
			"uri":"SM_Prop_Whale_Skeleton_01.bin"
		}
	]
}
