{
	"asset":{
		"generator":"Khronos glTF Blender I/O v4.2.70",
		"version":"2.0"
	},
	"scene":0,
	"scenes":[
		{
			"name":"Scene",
			"nodes":[
				0
			]
		}
	],
	"nodes":[
		{
			"mesh":0,
			"name":"SM_Prop_Raft_01",
			"rotation":[
				0.7071068286895752,
				0,
				0,
				0.7071068286895752
			],
			"scale":[
				0.009999999776482582,
				0.009999999776482582,
				0.009999999776482582
			]
		}
	],
	"materials":[
		{
			"alphaMode":"BLEND",
			"doubleSided":true,
			"name":"Explorer_MAT1",
			"pbrMetallicRoughness":{
				"baseColorTexture":{
					"index":0
				},
				"metallicFactor":0,
				"roughnessFactor":0.5527864098548889
			}
		}
	],
	"meshes":[
		{
			"name":"Mesh",
			"primitives":[
				{
					"attributes":{
						"POSITION":0,
						"NORMAL":1,
						"TEXCOORD_0":2
					},
					"indices":3,
					"material":0
				}
			]
		}
	],
	"textures":[
		{
			"sampler":0,
			"source":0
		}
	],
	"images":[
		{
			"mimeType":"image/png",
			"name":"PolygonNatureBiomes_Tropical_Texture_01",
			"uri":"PolygonNatureBiomes_Tropical_Texture_01.png"
		}
	],
	"accessors":[
		{
			"bufferView":0,
			"componentType":5126,
			"count":9822,
			"max":[
				134.069091796875,
				233.91627502441406,
				9.589332580566406
			],
			"min":[
				-134.069091796875,
				-233.91627502441406,
				-142.31671142578125
			],
			"type":"VEC3"
		},
		{
			"bufferView":1,
			"componentType":5126,
			"count":9822,
			"type":"VEC3"
		},
		{
			"bufferView":2,
			"componentType":5126,
			"count":9822,
			"type":"VEC2"
		},
		{
			"bufferView":3,
			"componentType":5123,
			"count":14460,
			"type":"SCALAR"
		}
	],
	"bufferViews":[
		{
			"buffer":0,
			"byteLength":117864,
			"byteOffset":0,
			"target":34962
		},
		{
			"buffer":0,
			"byteLength":117864,
			"byteOffset":117864,
			"target":34962
		},
		{
			"buffer":0,
			"byteLength":78576,
			"byteOffset":235728,
			"target":34962
		},
		{
			"buffer":0,
			"byteLength":28920,
			"byteOffset":314304,
			"target":34963
		}
	],
	"samplers":[
		{
			"magFilter":9729,
			"minFilter":9987
		}
	],
	"buffers":[
		{
			"byteLength":343224,
			"uri":"SM_Prop_Raft_01.bin"
		}
	]
}
