{
	"asset":{
		"generator":"Khronos glTF Blender I/O v4.2.70",
		"version":"2.0"
	},
	"scene":0,
	"scenes":[
		{
			"name":"Scene",
			"nodes":[
				0
			]
		}
	],
	"nodes":[
		{
			"mesh":0,
			"name":"SM_Prop_Barrel_Broken_01",
			"rotation":[
				0.7071068286895752,
				0,
				0,
				0.7071068286895752
			],
			"scale":[
				0.009999999776482582,
				0.009999999776482582,
				0.009999999776482582
			],
			"translation":[
				0,
				0.00014162235311232507,
				0.001934386440552771
			]
		}
	],
	"materials":[
		{
			"doubleSided":true,
			"name":"Explorer_MAT13",
			"pbrMetallicRoughness":{
				"metallicFactor":0,
				"roughnessFactor":0.5527864098548889
			}
		}
	],
	"meshes":[
		{
			"name":"Mesh",
			"primitives":[
				{
					"attributes":{
						"POSITION":0,
						"NORMAL":1,
						"TEXCOORD_0":2
					},
					"indices":3,
					"material":0
				}
			]
		}
	],
	"accessors":[
		{
			"bufferView":0,
			"componentType":5126,
			"count":2746,
			"max":[
				42.913700103759766,
				75.1869888305664,
				0.014162234961986542
			],
			"min":[
				-42.913700103759766,
				-75.57386779785156,
				-86.30702209472656
			],
			"type":"VEC3"
		},
		{
			"bufferView":1,
			"componentType":5126,
			"count":2746,
			"type":"VEC3"
		},
		{
			"bufferView":2,
			"componentType":5126,
			"count":2746,
			"type":"VEC2"
		},
		{
			"bufferView":3,
			"componentType":5123,
			"count":4230,
			"type":"SCALAR"
		}
	],
	"bufferViews":[
		{
			"buffer":0,
			"byteLength":32952,
			"byteOffset":0,
			"target":34962
		},
		{
			"buffer":0,
			"byteLength":32952,
			"byteOffset":32952,
			"target":34962
		},
		{
			"buffer":0,
			"byteLength":21968,
			"byteOffset":65904,
			"target":34962
		},
		{
			"buffer":0,
			"byteLength":8460,
			"byteOffset":87872,
			"target":34963
		}
	],
	"buffers":[
		{
			"byteLength":96332,
			"uri":"SM_Prop_Barrel_Broken_01.bin"
		}
	]
}
