{
	"asset":{
		"generator":"Khronos glTF Blender I/O v4.2.70",
		"version":"2.0"
	},
	"scene":0,
	"scenes":[
		{
			"name":"Scene",
			"nodes":[
				1
			]
		}
	],
	"nodes":[
		{
			"mesh":0,
			"name":"SM_Veh_Outrigger_Canoe_01_Canopy_01"
		},
		{
			"children":[
				0
			],
			"mesh":1,
			"name":"SM_Veh_Outrigger_Canoe_01",
			"rotation":[
				0.7071068286895752,
				0,
				0,
				0.7071068286895752
			],
			"scale":[
				0.009999999776482582,
				0.009999999776482582,
				0.009999999776482582
			]
		}
	],
	"materials":[
		{
			"doubleSided":true,
			"name":"Nature_Base_Mat17",
			"pbrMetallicRoughness":{
				"baseColorTexture":{
					"index":0
				},
				"metallicFactor":0,
				"roughnessFactor":0.5527864098548889
			}
		}
	],
	"meshes":[
		{
			"name":"Mesh.001",
			"primitives":[
				{
					"attributes":{
						"POSITION":0,
						"NORMAL":1,
						"TEXCOORD_0":2
					},
					"indices":3,
					"material":0
				}
			]
		},
		{
			"name":"Mesh",
			"primitives":[
				{
					"attributes":{
						"POSITION":4,
						"NORMAL":5,
						"TEXCOORD_0":6
					},
					"indices":7,
					"material":0
				}
			]
		}
	],
	"textures":[
		{
			"sampler":0,
			"source":0
		}
	],
	"images":[
		{
			"mimeType":"image/png",
			"name":"PolygonNatureBiomes_Tropical_Texture_01",
			"uri":"PolygonNatureBiomes_Tropical_Texture_01.png"
		}
	],
	"accessors":[
		{
			"bufferView":0,
			"componentType":5126,
			"count":1919,
			"max":[
				148.68292236328125,
				105.03976440429688,
				-16.984527587890625
			],
			"min":[
				-148.68292236328125,
				-104.84578704833984,
				-210.25709533691406
			],
			"type":"VEC3"
		},
		{
			"bufferView":1,
			"componentType":5126,
			"count":1919,
			"type":"VEC3"
		},
		{
			"bufferView":2,
			"componentType":5126,
			"count":1919,
			"type":"VEC2"
		},
		{
			"bufferView":3,
			"componentType":5123,
			"count":2766,
			"type":"SCALAR"
		},
		{
			"bufferView":4,
			"componentType":5126,
			"count":6247,
			"max":[
				158.35696411132812,
				343.87896728515625,
				11.760021209716797
			],
			"min":[
				-158.35696411132812,
				-340.2757263183594,
				-90.37129974365234
			],
			"type":"VEC3"
		},
		{
			"bufferView":5,
			"componentType":5126,
			"count":6247,
			"type":"VEC3"
		},
		{
			"bufferView":6,
			"componentType":5126,
			"count":6247,
			"type":"VEC2"
		},
		{
			"bufferView":7,
			"componentType":5123,
			"count":9027,
			"type":"SCALAR"
		}
	],
	"bufferViews":[
		{
			"buffer":0,
			"byteLength":23028,
			"byteOffset":0,
			"target":34962
		},
		{
			"buffer":0,
			"byteLength":23028,
			"byteOffset":23028,
			"target":34962
		},
		{
			"buffer":0,
			"byteLength":15352,
			"byteOffset":46056,
			"target":34962
		},
		{
			"buffer":0,
			"byteLength":5532,
			"byteOffset":61408,
			"target":34963
		},
		{
			"buffer":0,
			"byteLength":74964,
			"byteOffset":66940,
			"target":34962
		},
		{
			"buffer":0,
			"byteLength":74964,
			"byteOffset":141904,
			"target":34962
		},
		{
			"buffer":0,
			"byteLength":49976,
			"byteOffset":216868,
			"target":34962
		},
		{
			"buffer":0,
			"byteLength":18054,
			"byteOffset":266844,
			"target":34963
		}
	],
	"samplers":[
		{
			"magFilter":9729,
			"minFilter":9987
		}
	],
	"buffers":[
		{
			"byteLength":284900,
			"uri":"SM_Veh_Outrigger_Canoe_01.bin"
		}
	]
}
