{
	"asset":{
		"generator":"Khronos glTF Blender I/O v4.2.70",
		"version":"2.0"
	},
	"scene":0,
	"scenes":[
		{
			"name":"Scene",
			"nodes":[
				14
			]
		}
	],
	"nodes":[
		{
			"name":"Head_02",
			"translation":[
				0,
				5.723886966705322,
				9.50586223602295
			]
		},
		{
			"children":[
				0
			],
			"name":"Head_01",
			"translation":[
				0,
				1.1635894775390625,
				15.889017105102539
			]
		},
		{
			"name":"Leg_Front_L_03",
			"translation":[
				20.191390991210938,
				-3.22297864840948e-07,
				-10.154054641723633
			]
		},
		{
			"children":[
				2
			],
			"name":"Leg_Front_L_02",
			"translation":[
				32.84304428100586,
				-6.120704370005114e-07,
				-6.439794063568115
			]
		},
		{
			"children":[
				3
			],
			"name":"Leg_Front_L_01",
			"translation":[
				30.90372657775879,
				-2.484851360321045,
				12.694404602050781
			]
		},
		{
			"name":"Leg_Front_R_03",
			"translation":[
				-20.191390991210938,
				-3.22297864840948e-07,
				-10.154054641723633
			]
		},
		{
			"children":[
				5
			],
			"name":"Leg_Front_R_02",
			"translation":[
				-32.84304428100586,
				-6.120704370005114e-07,
				-6.439794063568115
			]
		},
		{
			"children":[
				6
			],
			"name":"Leg_Front_R_01",
			"translation":[
				-30.90372657775879,
				-2.484851360321045,
				12.694404602050781
			]
		},
		{
			"name":"Leg_Back_L_02",
			"translation":[
				12.209247589111328,
				0.6657659411430359,
				-14.634163856506348
			]
		},
		{
			"children":[
				8
			],
			"name":"Leg_Back_L_01",
			"translation":[
				24.36772918701172,
				-10.940959930419922,
				-96.93065643310547
			]
		},
		{
			"name":"Leg_Back_R_02",
			"translation":[
				-12.209247589111328,
				0.6657659411430359,
				-14.634163856506348
			]
		},
		{
			"children":[
				10
			],
			"name":"Leg_Back_R_01",
			"translation":[
				-24.36772918701172,
				-10.940959930419922,
				-96.93065643310547
			]
		},
		{
			"children":[
				1,
				4,
				7,
				9,
				11
			],
			"name":"Turtle_Rig_Base",
			"rotation":[
				-0.7071067690849304,
				0,
				0,
				0.7071067690849304
			],
			"translation":[
				-4.709168910980225,
				-4.463390827178955,
				0.782899022102356
			]
		},
		{
			"mesh":0,
			"name":"Turtle_Rig_01",
			"skin":0
		},
		{
			"children":[
				13,
				12
			],
			"name":"Armature",
			"rotation":[
				0.7071068286895752,
				0,
				0,
				0.7071068286895752
			],
			"scale":[
				0.009999999776482582,
				0.009999999776482582,
				0.009999999776482582
			]
		}
	],
	"materials":[
		{
			"doubleSided":true,
			"name":"Nature",
			"pbrMetallicRoughness":{
				"metallicFactor":0,
				"roughnessFactor":0.5527864098548889
			}
		}
	],
	"meshes":[
		{
			"name":"Mesh",
			"primitives":[
				{
					"attributes":{
						"POSITION":0,
						"NORMAL":1,
						"TEXCOORD_0":2,
						"JOINTS_0":3,
						"WEIGHTS_0":4
					},
					"indices":5,
					"material":0
				}
			]
		}
	],
	"skins":[
		{
			"inverseBindMatrices":6,
			"joints":[
				12,
				1,
				0,
				4,
				3,
				2,
				7,
				6,
				5,
				9,
				8,
				11,
				10
			],
			"name":"Armature"
		}
	],
	"accessors":[
		{
			"bufferView":0,
			"componentType":5126,
			"count":1317,
			"max":[
				0.9390774965286255,
				0.2889343202114105,
				0.432804673910141
			],
			"min":[
				-1.0332608222961426,
				-0.2543852925300598,
				-1.2707074880599976
			],
			"type":"VEC3"
		},
		{
			"bufferView":1,
			"componentType":5126,
			"count":1317,
			"type":"VEC3"
		},
		{
			"bufferView":2,
			"componentType":5126,
			"count":1317,
			"type":"VEC2"
		},
		{
			"bufferView":3,
			"componentType":5121,
			"count":1317,
			"type":"VEC4"
		},
		{
			"bufferView":4,
			"componentType":5126,
			"count":1317,
			"type":"VEC4"
		},
		{
			"bufferView":5,
			"componentType":5123,
			"count":2214,
			"type":"SCALAR"
		},
		{
			"bufferView":6,
			"componentType":5126,
			"count":13,
			"type":"MAT4"
		}
	],
	"bufferViews":[
		{
			"buffer":0,
			"byteLength":15804,
			"byteOffset":0,
			"target":34962
		},
		{
			"buffer":0,
			"byteLength":15804,
			"byteOffset":15804,
			"target":34962
		},
		{
			"buffer":0,
			"byteLength":10536,
			"byteOffset":31608,
			"target":34962
		},
		{
			"buffer":0,
			"byteLength":5268,
			"byteOffset":42144,
			"target":34962
		},
		{
			"buffer":0,
			"byteLength":21072,
			"byteOffset":47412,
			"target":34962
		},
		{
			"buffer":0,
			"byteLength":4428,
			"byteOffset":68484,
			"target":34963
		},
		{
			"buffer":0,
			"byteLength":832,
			"byteOffset":72912
		}
	],
	"buffers":[
		{
			"byteLength":73744,
			"uri":"Turtle_Rig_01.bin"
		}
	]
}
