<svg width="32" height="32" viewBox="0 0 32 32" fill="none" xmlns="http://www.w3.org/2000/svg">
  <defs>
    <linearGradient id="grad" x1="0%" y1="0%" x2="100%" y2="100%">
      <stop offset="0%" style="stop-color:#2563eb;stop-opacity:1" />
      <stop offset="100%" style="stop-color:#7c3aed;stop-opacity:1" />
    </linearGradient>
  </defs>
  <rect width="32" height="32" rx="6" fill="url(#grad)"/>
  <path d="M11 8.5C10.2 8.5 9.5 9.2 9.5 10V12.5C9.5 13.8 8.8 14.5 7.5 14.5V17.5C8.8 17.5 9.5 18.2 9.5 19.5V22C9.5 22.8 10.2 23.5 11 23.5H12.5V21.5H11.5C11.2 21.5 11 21.3 11 21V19.5C11 17.8 10.3 16.8 9 16C10.3 15.2 11 14.2 11 12.5V11C11 10.7 11.2 10.5 11.5 10.5H12.5V8.5H11Z" fill="white"/>
  <path d="M21 8.5C21.8 8.5 22.5 9.2 22.5 10V12.5C22.5 13.8 23.2 14.5 24.5 14.5V17.5C23.2 17.5 22.5 18.2 22.5 19.5V22C22.5 22.8 21.8 23.5 21 23.5H19.5V21.5H20.5C20.8 21.5 21 21.3 21 21V19.5C21 17.8 21.7 16.8 23 16C21.7 15.2 21 14.2 21 12.5V11C21 10.7 20.8 10.5 20.5 10.5H19.5V8.5H21Z" fill="white"/>
</svg>
