<svg width="512" height="512" viewBox="0 0 512 512" fill="none" xmlns="http://www.w3.org/2000/svg">
  <!-- Gradient Background -->
  <defs>
    <linearGradient id="grad" x1="0%" y1="0%" x2="100%" y2="100%">
      <stop offset="0%" style="stop-color:#2563eb;stop-opacity:1" />
      <stop offset="100%" style="stop-color:#7c3aed;stop-opacity:1" />
    </linearGradient>
  </defs>
  
  <!-- Rounded Square Background -->
  <rect width="512" height="512" rx="100" fill="url(#grad)"/>
  
  <!-- Braces Symbol -->
  <path d="M180 140C165 140 155 150 155 165V195C155 215 145 225 125 225V287C145 287 155 297 155 317V347C155 362 165 372 180 372H200V340H190C185 340 180 335 180 330V310C180 285 170 270 150 260C170 250 180 235 180 210V190C180 185 185 180 190 180H200V148H180Z" fill="white"/>
  <path d="M332 140C347 140 357 150 357 165V195C357 215 367 225 387 225V287C367 287 357 297 357 317V347C357 362 347 372 332 372H312V340H322C327 340 332 335 332 330V310C332 285 342 270 362 260C342 250 332 235 332 210V190C332 185 327 180 322 180H312V148H332Z" fill="white"/>
  
  <!-- JSON Text -->
  <text x="256" y="430" font-family="Arial, sans-serif" font-size="72" font-weight="bold" fill="white" text-anchor="middle">JSON</text>
</svg>
