<svg xmlns="http://www.w3.org/2000/svg" viewBox="0 0 256 256" width="256" height="256">
  <rect width="256" height="256" fill="#fff"/>
  <g fill="#0B0F1A">
    <rect x="16"  y="16"  width="56" height="56"/>
    <rect x="184" y="16"  width="56" height="56"/>
    <rect x="16"  y="184" width="56" height="56"/>
    <rect x="32"  y="32"  width="24" height="24" fill="#fff"/>
    <rect x="200" y="32"  width="24" height="24" fill="#fff"/>
    <rect x="32"  y="200" width="24" height="24" fill="#fff"/>
    <rect x="40"  y="40"  width="8"  height="8"/>
    <rect x="208" y="40"  width="8"  height="8"/>
    <rect x="40"  y="208" width="8"  height="8"/>
    <rect x="88"  y="16"  width="8"  height="8"/>
    <rect x="104" y="16"  width="8"  height="16"/>
    <rect x="120" y="24"  width="16" height="8"/>
    <rect x="144" y="16"  width="8"  height="8"/>
    <rect x="160" y="32"  width="8"  height="8"/>
    <rect x="16"  y="88"  width="8"  height="8"/>
    <rect x="32"  y="96"  width="8"  height="16"/>
    <rect x="56"  y="88"  width="16" height="8"/>
    <rect x="80"  y="104" width="8"  height="8"/>
    <rect x="96"  y="88"  width="8"  height="16"/>
    <rect x="112" y="96"  width="16" height="8"/>
    <rect x="136" y="88"  width="8"  height="8"/>
    <rect x="152" y="104" width="16" height="8"/>
    <rect x="176" y="96"  width="8"  height="16"/>
    <rect x="200" y="104" width="8"  height="8"/>
    <rect x="216" y="88"  width="8"  height="16"/>
    <rect x="232" y="96"  width="8"  height="8"/>
    <rect x="88"  y="120" width="8"  height="8"/>
    <rect x="104" y="128" width="16" height="8"/>
    <rect x="128" y="120" width="8"  height="16"/>
    <rect x="152" y="128" width="8"  height="8"/>
    <rect x="168" y="120" width="16" height="8"/>
    <rect x="192" y="136" width="8"  height="8"/>
    <rect x="216" y="128" width="8"  height="8"/>
    <rect x="240" y="120" width="8"  height="16"/>
    <rect x="88"  y="160" width="16" height="8"/>
    <rect x="120" y="168" width="8"  height="8"/>
    <rect x="144" y="160" width="8"  height="16"/>
    <rect x="168" y="176" width="16" height="8"/>
    <rect x="200" y="168" width="8"  height="8"/>
    <rect x="224" y="160" width="16" height="8"/>
    <rect x="88"  y="192" width="8"  height="8"/>
    <rect x="112" y="200" width="16" height="8"/>
    <rect x="144" y="216" width="8"  height="8"/>
    <rect x="176" y="208" width="16" height="8"/>
    <rect x="208" y="216" width="8"  height="16"/>
    <rect x="232" y="200" width="8"  height="8"/>
  </g>
</svg>
